<svg xmlns="http://www.w3.org/2000/svg" viewBox="0 0 750 500"><defs><style>.cls-1{fill:#d9edf4;}.cls-2{fill:#fff;}.cls-3{fill:#ffd829;}.cls-4{fill:#48af94;}.cls-5{fill:#00847f;}.cls-6{fill:#46af94;}.cls-7{fill:#bb7446;}.cls-8{fill:#51bfa6;}.cls-9{fill:#3a9b7f;}.cls-10{fill:#58ccaa;}.cls-11{fill:#86e2c3;}.cls-12{fill:#7dd3b9;}.cls-13{fill:#7af3f9;}</style></defs><g id="OBJECTS"><polygon class="cls-1" points="650.66 112.49 650.66 140.64 633.42 140.64 633.42 253.56 623.04 253.56 623.04 205.32 522.76 205.32 522.76 253.56 499.62 253.56 499.62 178 399.33 178 399.33 251.26 387.4 251.26 387.4 186.89 373.24 186.89 373.24 148.8 346.11 148.8 346.11 186.89 331.94 186.89 331.94 253.56 323.38 253.56 323.38 115.61 267.92 115.61 267.92 253.56 244.85 253.56 244.85 187.52 234.81 187.52 234.81 144.79 179.35 144.79 179.35 187.52 169.3 187.52 169.3 207.62 142.93 207.62 142.93 148.8 67.38 148.8 67.38 253.56 57.94 253.56 57.94 127.4 0 127.4 0 253.56 0 317.67 0 500 750 500 750 302.75 750 302.75 750 112.26 650.66 112.49"/><path class="cls-2" d="M497,194H657s-5.32-47.87-26.85-36.08c0,0-14.67-36.21-36.23-16.54,0,0-37.93-22.87-43.27,28.72Z"/><path class="cls-2" d="M301.33,79.67H124.81S148,25,184.67,52.33c0,0,23.5-10.32,45.08,9.84Z"/><path class="cls-2" d="M650,45H473.48s23.19-54.66,59.85-27.33c0,0,23.51-10.32,45.09,9.84Z"/><path class="cls-2" d="M455.8,211H279.28s23.19-54.67,59.85-27.34c0,0,23.51-10.32,45.09,9.84Z"/><path class="cls-2" d="M0,156.05H131L65.05,144.51s2.16-17.11-7.11-17.11c0,0-.74-47.66-27.68-42,0,0-8.93-33.47-30.26-16.59Z"/><circle class="cls-3" cx="382.71" cy="67.71" r="31.71"/><path class="cls-4" d="M0,271.77S68.62,236.05,137.81,284c0,0,47-106.62,125.09-20.32S432.57,397.78,487.49,372.26,608,167.07,671,194c0,0,25-63.88,79-39.95V382.41H0Z"/><polygon class="cls-5" points="13.25 369.5 20.61 338.9 25 354.2 27.75 343.25 30.27 349.5 35.25 311 40 338.9 41.75 330.25 44.64 336 51.25 300.45 56.5 336 13.25 369.5"/><polygon class="cls-5" points="750 173.84 742.5 213.77 737.5 189.17 732.5 216 724 195.39 718.5 220.78 715 210.62 697 234.5 750 234.5 750 173.84"/><polygon class="cls-5" points="201.59 297.26 210.5 255.27 217.5 295.24 225.71 280.26 230.97 300.45 235.62 287.59 244.18 311.48 201.59 311.48 201.59 297.26"/><path class="cls-6" d="M0,137.34s20.61-5.62,27.57,13.38c0,0,8.3-5.35,12.58,2.41,0,0,12.31,2.32,12.31,35.15,0,0,12.59,5.81,12.59,25.75H0Z"/><path class="cls-7" d="M57.9,203.3a1.61,1.61,0,1,0-3.21.11c0,.24.76,24.16-6.51,31.7a6.73,6.73,0,0,1-2.53,1.7,167.88,167.88,0,0,0,2.26-19.63A1.61,1.61,0,1,0,44.7,217a165.6,165.6,0,0,1-5.14,32.19,4.77,4.77,0,0,1-2-1.31c-7.74-8.1-7.94-43.38-7.36-56.29a1.61,1.61,0,0,0-3.21-.15c-.09,2-2,47.92,8.24,58.66a8,8,0,0,0,3.36,2.17c-3.58,11.29-9.22,21.17-18,22.24V204a1.61,1.61,0,0,0-3.21,0v53.6a7.3,7.3,0,0,1-3.52-2.21c-10.43-11.14-7.76-53.55-7.73-54a1.6,1.6,0,1,0-3.2-.21c-.12,1.8-2.79,44.23,8.58,56.38a10.23,10.23,0,0,0,5.87,3.29V369a1.61,1.61,0,1,0,3.21,0V277.79c14.23-1.38,21.11-21,24.4-37.52a9.52,9.52,0,0,0,5.48-2.93C58.71,228.82,57.94,204.33,57.9,203.3Z"/><path class="cls-8" d="M0,167.86s20.48-6.36,25.7,14.68c0,0,8.83-3.57,11.24,7.54,0,0,23.69-2.55,24.09,20.34,0,0,8.89-7.12,13.71,3.61H0Z"/><path class="cls-9" d="M22.22,220.59s3.74-17.85,10.3-13.74c0,0,6.29-12.37,13.79-7.61,0,0,6.69-3,10.17,10.13,0,0,7.26-.56,10.59,11.22Z"/><path class="cls-7" d="M686.33,162.77c8-11.48,14.69-27.16,14.69-47.69a2,2,0,0,0-4,0c0,16.8-4.5,31.72-13.36,44.59-4-1.29-18.31-8.89-18.31-51.82a2,2,0,0,0-4,0c0,41.84,13.58,52.48,19.88,55.16a83.27,83.27,0,0,1-9.46,10.36A90.7,90.7,0,0,1,649,188.76V104.57a2,2,0,1,0-4,0v109.8a11.37,11.37,0,0,1-6-3.6c-6-6.37-9.71-19.44-11.9-34.3a1.75,1.75,0,0,0,0-.4c-4.58-31.51-2.58-70.81-2.55-71.4a2,2,0,0,0-4-.21c-.12,2.33-2,38.87,2.28,69.93-23.77-3.53-24.28-60.92-24.28-61.52a2,2,0,0,0-2-2h0a2,2,0,0,0-2,2c0,2.63.56,63.21,28.88,65.59,2.36,15,6.29,28.27,12.71,35.05a15.18,15.18,0,0,0,8.91,4.89v66.91a2,2,0,0,0,4,0V193.15a92.49,92.49,0,0,0,25.36-16.74A85.77,85.77,0,0,0,686,163.29,2.14,2.14,0,0,0,686.33,162.77Z"/><path class="cls-6" d="M710.93,85.59C710.93,43.09,695,40.1,695,40.1c-5.54-10-16.28-3.12-16.28-3.12C671,15.81,650.14,18.25,644.48,19.34,638.81,18.25,618,15.81,610.24,37c0,0-10.74-6.93-16.28,3.12,0,0-15.94,3-15.94,45.49,0,0-16.28,7.51-16.28,33.33H727.21C727.21,93.1,710.93,85.59,710.93,85.59Z"/><path class="cls-8" d="M722,114.24c-.52-29.62-31.18-26.33-31.18-26.33-3.11-14.37-14.55-9.75-14.55-9.75-5.81-23.42-26.19-20.62-31.8-19.38-5.62-1.24-26-4-31.81,19.38,0,0-11.43-4.62-14.55,9.75,0,0-30.66-3.29-31.18,26.33,0,0-11.51-9.21-17.75,4.68H739.76C733.52,105,722,114.24,722,114.24Z"/><path class="cls-9" d="M671.78,127.4s4.85-23.1,13.34-17.78c0,0,8.14-16,17.84-9.85,0,0,8.66-3.84,13.16,13.11,0,0,9.4-.72,13.71,14.52Z"/><path class="cls-9" d="M558.89,101.14s4.85-23.1,13.34-17.79c0,0,8.14-16,17.84-9.85,0,0,8.67-3.83,13.17,13.11,0,0,9.4-.72,13.71,14.53Z"/><path class="cls-8" d="M0,382.41S117.65,251.28,246.74,311s220.93,38.74,284.09,5.39S678,224.82,750,224.82V382.41Z"/><path class="cls-10" d="M74.74,357.46C84,339,139.8,337.59,127.56,351.63s113.11,9.78,91.11-12.42,130,19.51,189.32,11a22.81,22.81,0,0,0,6.16-1.68C367,350.57,311.58,340.94,246.74,311,117.65,251.28,0,382.41,0,382.41H96.35S65.49,375.92,74.74,357.46Z"/><path class="cls-10" d="M530.83,316.35a281.13,281.13,0,0,1-63.23,24.43S512.67,345,576,307.67s119.33-42.82,96-20.08S656.67,335.67,692,331s4,51.41-36.67,51.41H750V224.82C678,224.82,594,283,530.83,316.35Z"/><rect class="cls-11" y="382.41" width="750" height="117.59"/><path class="cls-12" d="M711,408.59c0-13-77.57-23.59-173.27-23.59s-173.27,10.56-173.27,23.59c0,2.78,3.56,5.46,10.07,7.94-19.49,1.85-36.15,4.34-48.74,7.29-27-3.07-61.9-4.92-99.95-4.92-86,0-155.69,9.44-155.69,21.07S139.81,461,225.8,461c47,0,89.15-2.82,117.7-7.28,28.34,4.57,68.17,7.4,112.3,7.4,86,0,155.75-10.78,155.75-24.08,0-2.35-2.19-4.62-6.24-6.77C667.4,426.72,711,418.35,711,408.59Z"/><path class="cls-13" d="M0,500a89,89,0,0,0,8.51-3.29,90.39,90.39,0,0,0,15.16-8.57c9.76-6.71,26.52-10.72,39.63-13.84a256.14,256.14,0,0,1,65.86-6.93c19.34.62,21,3,43.82,3.66a354.19,354.19,0,0,0,42.23-1.48c59.64-4.6,109,7.65,158.68,6a268.05,268.05,0,0,0,34.3-2.92c16.7-2.56,21.88-5.56,50.32-5.43,79.52.36,72.62,4.77,107.4-2.12h0a272.1,272.1,0,0,1,58-3.22c6.14.31,32.65,1.69,52.2,7.91,1.45.46,5.09,1.66,10.21,2.91,12.52,3,20.7,3.19,25.61,3.88,7.73,1.08,18.58,5.09,31.25,18.53h0c3.1,2.11,5.52,3.91,6.86,4.93Z"/></g></svg>