<svg xmlns="http://www.w3.org/2000/svg" viewBox="0 0 750 500"><defs><style>.cls-1{fill:#ffcab1;}.cls-2{fill:#ef9f73;}.cls-3{fill:#f2819f;}.cls-4{fill:#d67095;}.cls-5{fill:#561064;}.cls-6{fill:#440e51;}.cls-7{fill:#ffb588;}.cls-8{fill:#7d2193;}.cls-9{fill:#d65479;}.cls-10{fill:#2c2636;}.cls-11{fill:#e080a0;}.cls-12{fill:#440f51;}.cls-13{fill:#d86c98;}.cls-14{fill:#fff;}.cls-15{fill:#403379;}.cls-16{fill:#362e6d;}.cls-17{fill:#504793;}.cls-18{fill:#474289;}.cls-19{fill:#958fe2;}.cls-20{fill:#f9bbcf;}.cls-21{fill:#c58059;}.cls-22{fill:#bf7956;}.cls-23{fill:#a86547;}.cls-24{fill:#353535;}.cls-25{fill:#1e1d1d;}.cls-26{fill:#e03451;}.cls-27{fill:#efcdca;}</style></defs><g id="OBJECTS"><path class="cls-1" d="M557.34,286.49s-24.76-.93-27.86,5.82,1.41,19.42,7.88,31.24,24.84,47.56,24.84,47.56-22.3,8.16-26,12.94-2.25,6.47-2.25,6.47h47.7s-3.24-17.16-6.33-27.86-10.46-36.3-11.28-40.8S565,292,557.34,286.49Z"/><path class="cls-2" d="M558.47,322.14l-10.13-3.75s10.13,4.85,11.82,8.66,15.2,35.61,15.2,35.61l-10.29-38.17Z"/><path class="cls-3" d="M561.8,370.33s8.13,7.73,16.09,2.24c0,0,8.07,14.3,7.78,19.17H530.14s-.94-4.69,2.81-7.59S561.8,370.33,561.8,370.33Z"/><path class="cls-4" d="M577.89,372.57c-8,5.49-16.09-2.24-16.09-2.24s4,6.5,10.83,7.16,5.63,6,2.73,6.28-16.33,2.06-11.73,3.28-30.77,3-30.77,3v1.68h52.81C586,386.87,577.89,372.57,577.89,372.57Z"/><path class="cls-5" d="M584.47,386.39s1.49-.27,2.7,2.26,2.73,7.22,1.6,7.22H526.48s1.3-7.27,3.93-8a3.88,3.88,0,0,1,2.45,2.23s32.08,0,35.08-.75S579,386.11,584.47,386.39Z"/><path class="cls-1" d="M597,354.5s-6.28,13.42-5,19.05,8.26,12.38,14.82,14.07,18-3.76,18-3.76-1.88,18.58,5.62,18.58,11.26-18.2,11.82-25.52a62.21,62.21,0,0,0-.93-14.82s-25.33-22.51-39.78-16.32Z"/><path class="cls-2" d="M624.89,383.86s4.15,8.56,8.57,3.79,5-11.77,5-11.77C635.87,381.42,624.89,383.86,624.89,383.86Z"/><path class="cls-2" d="M623.34,380.68c13-4.3,17.71-18.24,17.71-18.24l-5.73,7h-1.15C629.32,378.63,623.34,380.68,623.34,380.68Z"/><path class="cls-2" d="M598.43,351.69,597,354.5s24.21-12,37.15,14.92C634.17,369.42,628.26,339.31,598.43,351.69Z"/><path class="cls-3" d="M647,384.19c-.57-6.61-4.52-23.46-4.52-23.46l-1.41,1.71v4.93c-1.49,6.06-4.11,14.25-7.59,15.56-5.62,2.11-8.57.93-8.57.93l-5,2s1.33,21.13,6,23.94,12.8,1.27,14.49,0S647.54,390.81,647,384.19Z"/><path class="cls-4" d="M623.1,387c.8.28,6.13,5.51,10.36.64s6.87-14.57,7.59-11.2,4.18-1.66,3.34-7h0c-1-4.79-1.93-8.69-1.93-8.69l-1.41,1.71v4.93c-1.49,6.06-4.11,14.25-7.59,15.56-5.62,2.11-8.57.93-8.57.93l-5,2a120.35,120.35,0,0,0,1.89,14.44l1.31.34S622.3,386.73,623.1,387Z"/><path class="cls-5" d="M619.9,385.86s.2,20,2.59,23.94,12.39,6.62,19.14,3.24,7-26,6.75-30.82-5.92-21.49-5.92-21.49,3,17,3.25,21.21-5.07,24.38-5.63,25.13l-2-4L627,404.6l-.85,2.47s-1.55-1.21-2.81-5.57S619.9,385.86,619.9,385.86Z"/><path class="cls-6" d="M625.54,409.19l.61-2.12s-1.55-1.21-2.81-5.57-3.44-15.64-3.44-15.64.12,12.25,1.32,19.47a22.63,22.63,0,0,1,.57-5C622.67,397.39,625.54,409.19,625.54,409.19Z"/><path class="cls-7" d="M596.18,210s3.73,3.34,4.11,7.26c0,0-8.51,3.83-11.44,12.14s3.64,20.8,16,16.87,29-16.63,30.45-20.51-21-21-26-40.59S579.82,193.65,596.18,210Z"/><path class="cls-2" d="M588.85,229.37c-2.93,8.31,3.64,20.8,16,16.87s29-16.63,30.45-20.51-21-21-26-40.59-29.45,8.51-13.09,24.83a16,16,0,0,1,2.62,3.21h0s8.42-1.37,12.94-5.49,7.61-1.13,8.27,1.12-3,15.36-8.27,18-9.12-1.66-11.45-9.6C600.29,217.23,591.78,221.06,588.85,229.37Z"/><path class="cls-7" d="M627.08,178.8c-1.28,5.85-6.62,9.64-11.91,8.47s-8.54-6.85-7.25-12.69,6.63-9.64,11.92-8.47S628.37,173,627.08,178.8Z"/><path class="cls-2" d="M624,178.11c-.87,3.94-4.46,6.49-8,5.71s-5.75-4.62-4.88-8.55,4.46-6.49,8-5.71S624.83,174.18,624,178.11Z"/><path class="cls-1" d="M572.13,185.53s4.34,6.76,5.75,13,11.31,13.47,18,14.29,16.3-9.4,19-15.35,1.71-18.29.1-23.46-16.47-22.71-30.17-15.18S565.17,173.85,572.13,185.53Z"/><path class="cls-8" d="M573.76,188.81s-.22-1.81,2.39-3.08c3-1.46,4.23,1,4.62.5s-1.54-3.4-4.87-2.67S572.47,187.53,573.76,188.81Z"/><path class="cls-8" d="M588.5,181.22s7.11-6.89,11.18-5.11.85-1-1.22-1.9c-4.12-1.77-9.32,4.06-10,2.47-.25-.56-2.84,2.54-2.33,3.94S587,182.56,588.5,181.22Z"/><path class="cls-7" d="M584.11,197s.29-.39.71-1,3.3-3.62,4.62-1.89,1.39,2.16.07,3.61c-.94,1-5.49-.41-5.49-.41"/><path class="cls-9" d="M586.29,195.6l.45-.25,2.17-1.18.14-.08a.42.42,0,0,1,.57.15l.81,1.49a.42.42,0,0,1-.17.56l-.15.07s-.71.56-.55,1.12c0,0,.16.24-.71.72l-.42.23-1.71.8a1,1,0,0,1-1.39-.24l-.15.08h0a.41.41,0,0,1-.56-.16l-.6-1.63s0-.41.49-.7Z"/><path class="cls-10" d="M597.49,186.79l-2,.68-1.23-3.67a1.07,1.07,0,0,1,.06-.81,1,1,0,0,1,.63-.55h0a1.06,1.06,0,0,1,.8.05,1.09,1.09,0,0,1,.56.63Z"/><path class="cls-10" d="M581.69,194.36l-1.79,1.21-2.17-3.19a1.08,1.08,0,0,1,.28-1.5h0a1.09,1.09,0,0,1,1.5.28Z"/><path class="cls-11" d="M611.67,189.42c2.61,1.65,2.67,6.25.13,10.27s-6.71,6-9.32,4.32-2.67-6.25-.13-10.27S609.07,187.78,611.67,189.42Z"/><path class="cls-9" d="M594.43,200.74h0a.29.29,0,0,0-.28.29c0,1.53-.34,2.55-1.08,3-1.16.75-2.93-.07-3-.08a.29.29,0,0,0-.37.14.27.27,0,0,0,.13.37,5.14,5.14,0,0,0,2,.45,2.68,2.68,0,0,0,1.5-.41c.92-.58,1.36-1.76,1.34-3.5A.29.29,0,0,0,594.43,200.74Z"/><path class="cls-5" d="M655.42,216.41h0c-3.49-12.26-33.55-52.75-35.55-55.43-7.75-10.81-16-25.89-41.17-14.73C559.05,155,560,178.19,565.94,188.18s10.89,24.35,18,26.32l-1.5-4.22s3.52,6.2,8.67,9.09a34.91,34.91,0,0,1,9.15-2.14,10.25,10.25,0,0,0-1.82-4.57,7.3,7.3,0,0,1-2.57.16c-6.71-.82-16.61-8-18-14.29s-5.75-13-5.75-13a7.7,7.7,0,0,0,.87-8.84s7.48,4.93,13,2.49l-2.7-1.25s8.54.5,14.07-3.25l-4.31-1.6s6.59,1.24,12.12-.28c0,0,5.6-.43,7.15,1.07s4.27,8.44,4.25,11.66c0,0,3.67-3.44-1.91-19a9.06,9.06,0,0,1,5.14-.39c5.29,1.17,8.53,6.85,7.24,12.69-1.17,5.31-5.68,8.92-10.46,8.65,0,3.8-.53,7.49-1.69,10l-.15.31a114.18,114.18,0,0,0,11.08,14.95s14.5,10.21,18.58,14.71,7.18,23.92,6.34,34.9a68.68,68.68,0,0,0-.12,7.06s6-4.43,5.46-22.41a110.67,110.67,0,0,0-6.19-32.63s6.84,10.4,8.2,18.43A48.37,48.37,0,0,0,655.42,216.41Z"/><path class="cls-12" d="M639.89,194l-.93,4c-.19-6.44-13-27.23-13-27.23a11.37,11.37,0,0,1,1.08,8c-1.17,5.31-5.68,8.92-10.46,8.65,0,3.8-.53,7.49-1.69,10l-.15.31a114.18,114.18,0,0,0,11.08,14.95s14.5,10.21,18.58,14.71c1.58,1.74,3,5.72,4.13,10.58h0C650.86,226.51,639.89,194,639.89,194Z"/><path class="cls-12" d="M621.05,162.57s-25.34-3.37-33.41,1.13c0,0,.92,3.47,4,3.94,0,0-6,2.72-12.06,1.22,0,0,1.37,3.19,3.53,3.66,0,0-7.41,3.19-11.44,2.16l.75.93s-6.27,1.64-9.09,5.65a17.07,17.07,0,0,1,7.21-14C578.36,161.54,601.64,154,621.05,162.57Z"/><path class="cls-3" d="M617.05,157c-3.42-1.86-40.78-2.93-49.45-.54h0c-8.39,1.53-17,5.07-22.76,12.55-9.76,12.64,18.56,12.26,18.56,12.26s5.08-22.09,32.66-20.77c0,0,17.25-.74,25,2.08A8.34,8.34,0,0,0,617.05,157Z"/><path class="cls-13" d="M552.56,163.14c-11.53,8-9.79,12.41-7.08,14.79,5.59,3.5,17.88,3.33,17.88,3.33s4.18-18.15,25.51-20.56h0S564.1,155.12,552.56,163.14Z"/><path class="cls-14" d="M615.07,166.07a.56.56,0,0,0-.79.06L603.6,178.48a10.09,10.09,0,0,0-8.66-5.55,8,8,0,0,0-3.31.71c-4.51,2-6.29,7.86-4,13a11.31,11.31,0,0,0,3.3,4.22c-4,.33-6,1.66-7.05,2.86a13.39,13.39,0,0,0-1.1-3.85c-1.82-4-5.29-6.73-8.63-6.73a5.64,5.64,0,0,0-2.34.49,6.61,6.61,0,0,0-3.58,5,12.39,12.39,0,0,0,1,7.38c1.82,4,5.29,6.73,8.63,6.73a5.64,5.64,0,0,0,2.34-.49c2.25-1,3.56-3.45,3.73-6.34h0s.61-3.88,8.56-4a9.06,9.06,0,0,0,4.16,1,8.05,8.05,0,0,0,3.32-.71,8.39,8.39,0,0,0,4.55-5.37,10.79,10.79,0,0,0-.45-7.28l11-12.71A.57.57,0,0,0,615.07,166.07Zm-35.28,35.12a4.47,4.47,0,0,1-1.88.4c-2.91,0-6-2.44-7.61-6.07a11.26,11.26,0,0,1-.93-6.7,5.47,5.47,0,0,1,2.93-4.17,4.63,4.63,0,0,1,1.88-.4c2.91,0,6,2.44,7.61,6.07C583.85,194.88,583,199.76,579.79,201.19Zm23.73-14.66a7.26,7.26,0,0,1-3.95,4.67,6.77,6.77,0,0,1-2.85.62,9.09,9.09,0,0,1-8-5.66c-2.07-4.56-.54-9.72,3.4-11.5a7,7,0,0,1,2.85-.61,9.1,9.1,0,0,1,8,5.65A9.78,9.78,0,0,1,603.52,186.53Z"/><path class="cls-15" d="M657.39,317.36s3.33,9.28-2.11,20.82c-4.25,9-7,12.38-7,12.38l1.41,1.41-14.33,17.45h-1.15s-5.63-27.58-35.74-17.73L597,354.5v-3.94l5.91-14.91-25-7.69-1,.75-18.44-6.57s-10.51-22-1.13-35.65h18.58l1,2.07s37.18-1.69,50.18,3S657.39,317.36,657.39,317.36Z"/><path class="cls-16" d="M597,354.5l1.41-2.81c30.11-9.85,35.74,17.73,35.74,17.73h1.15L649.65,352l-1.41-1.41s2.79-3.38,7-12.38c5.44-11.54,2.11-20.82,2.11-20.82s-17.31-21.11-30.3-25.8-50.18-3-50.18-3l-1-2.07H557.34c-9.38,13.69,1.13,35.65,1.13,35.65l18.44,6.57,1-.75c-7.21-20,.75-27.58,2.16-25.52s7.22,7,9.47,8.72,6.19,17.64,8.07,19.3c1.44,1.28-6.94.59-10.88.2l15.78,4.85c2.8-2.4,6.64-5.24,9.5-6.13,4.73-1.49,20.31-12.59,19.56-9.3s12.66-3.19,16.9-3.38,6,16.13,5.61,18.29-9.38,6.19-23.73.1-27.4.56-27.4.56L597,350.56Z"/><path class="cls-17" d="M576.91,288.56l-1-2.07H557.34c-9.38,13.69,1.13,35.65,1.13,35.65l18.44,6.57,1-.75C563.17,302.07,576.91,288.56,576.91,288.56Z"/><path class="cls-18" d="M558.47,322.14l18.44,6.57,1-.75c-7-12.41-7.56-22-6.19-28.57h0c-2.68,6.51-3.66,2.77-6-2.72s-7.62,7.88-8.89,10.93-2.67-12.76-2.67-12.76l-.25.65C551.76,308.11,558.47,322.14,558.47,322.14Z"/><polygon class="cls-19" points="556.22 316.32 574.73 321.61 573.8 319.29 555.41 313.69 556.22 316.32"/><path class="cls-17" d="M597,354.5l1.41-2.81c30.11-9.85,35.74,17.73,35.74,17.73h1.15L649.65,352l-1.41-1.41c-23.92-26-45.31-14.91-45.31-14.91L597,350.56Z"/><path class="cls-18" d="M619.65,347.81c6-.49,0-7.8-4.91-10.61s14.33-.8,14.45-.79c-15.15-6.51-26.26-.76-26.26-.76L597,350.56v3.94l1.41-2.81c9.41-3.08,16.43-2.5,21.63-.25C620.06,351.44,613.63,348.31,619.65,347.81Z"/><polygon class="cls-19" points="628.79 358.28 639.71 342.68 641.05 343.74 629.71 359.52 628.79 358.28"/><path class="cls-3" d="M625.86,212.73s14.5,10.21,18.58,14.71,7.18,23.92,6.34,34.9,2,34.19,5.06,42.63,1.55,12.39,1.55,12.39-11.54-9-18.43-7.46-17.87,19.84-32.37,20.54-12.39-20-18.43-23.36-.56-16.46-1-24.76-.28-11.68-.28-11.68-11.39-4.36-15.19-7.32c0,0,5.77-34,7.74-37.14s13.28-8.47,20.85-9c0,0,1.8,12.21,7.35,12.5S625.86,212.73,625.86,212.73Z"/><path class="cls-13" d="M616.25,314.73c-7,5.63-14.35,13.51-23.82-5,0,0,4.13,19,12.85,17.16s21.67-15.1,26.27-17.16A23.74,23.74,0,0,0,616.25,314.73Z"/><path class="cls-13" d="M639.71,304.22s7.88.94,11.72,3.38,4.88,4.6,4.88,4.6S653.12,299.16,639.71,304.22Z"/><path class="cls-13" d="M638.53,278.93c.43-2,5.91-16.73,4.51-23.35s.18,8.8-7.72,24L596,308.44s5.77.33,12.52-4.31,15.06-8.73,19.7-6.76c0,0-2.72-3.75-5.91-3.23l6.85-5.49s4.41,1.13,5.39,0,5.12-7.88,5.12-7.88S638.11,280.9,638.53,278.93Z"/><path class="cls-13" d="M597.31,286c2.81-1.92,13.69-18.33,13.69-18.33l-2-3.47s12.95-17,14.78-22.52-16.14,21-16.14,21l-6.19,8.92,1.27,1.16s-5.21,10.91-9.33,13.22C593.37,286,594.49,287.88,597.31,286Z"/><path class="cls-13" d="M584.92,243.12a18.2,18.2,0,0,0,0,2.47C585,243.79,585,242.7,584.92,243.12Z"/><path class="cls-13" d="M584.36,260.7,573,255.78s7.6,7.36,13.23,6.89c0,0-1-11.76-1.3-17.08C584.81,250.48,584.36,260.7,584.36,260.7Z"/><path class="cls-20" d="M601.43,271.59s17.55,17,32.09,14.86l4.4-5.87s-22.79-8.63-30.3-17.91Z"/><path class="cls-20" d="M568.23,262.34s9.85,7.08,18.66,8.3l-.65-8s-11.17-3.76-14.92-8.63Z"/><path class="cls-21" d="M555.28,220.17s3.38-1.78,4.78-.47,2.91,5.82,1,8.16-5,7.32-11.17,11.82-8.25,5.16-8.25,5.16,6.1.19,10.79-2,10.41-5.72,12-4.87,2.63,5.81-.93,8.72-16,10.79-17.73,17.92,5.91,21.06,6.47,23.87l-1.13-.7s2.28,6.05,2.3,9.85l-1.59-1.27s1.26,5.91.84,8.58a9.92,9.92,0,0,1-2.53,4.79s.28,7.45,1.26,9.85,4.31,21.38,2,24.48l-.89-2.11s-2.11,8.3-4.64,11.26l-.43-2.25s-1.73,6.05-6.28,9.28v-2.95s-13.84,11.25-13.84,21.24.43,12.11,2.82,12.39,9.71,2,10.83,4.22c0,0,4.65,4.64,1.83,6.89,0,0-1.69,2.82-4.22,3.1a6.15,6.15,0,0,1-5.77,1.83s-7.18-.57-10.55-4.36-4.51-19.28-4.51-19.28-1,11.54-1.4,20.26.7,21.25,3.52,22.51,12.8,6.34,12.8,10.14a3,3,0,0,1-2.81,2.25s-1.41,2.39-3.52,2c0,0-2.25,2.39-4.79,1.4,0,0-.14,2.4-3.94,1.13s-11.25-5.91-13.36-7.88-5.21-19.42-5.07-21.25L498,417.26s-2.95-8.3-2.53-13.09l-2.81,3s-1.83-6.9,0-10.7l-3.52,6.06v-7.6s-3.1,7-5.63,9.71v-1.69a72,72,0,0,1-7.17,6.33v-1.69s-.15,1-6.2,5.21v-1.55s-5.62,8.3-10.83,8.16-12,.14-12,.14,4.36,4.93,4.08,8.44c0,0-1.13,4.79-2.81,5.35,0,0-1.69,3.52-4.65,3.8,0,0,2.39,1.55-1.12,2.39s-22.09-4.64-32.51-4.92-17.16-3.1-19.42-5.49,0-7.6,0-7.6-11.67,3.52-25.46-3.09l2.11-1.13s-12.4-1.69-18.86-16l2.11.7s-10.69-14.77-6.61-26.17l1,1.55s2.57-20.35,20.76-26.73,27,7.65,25.27,16.11c0,0-7.47-9.08-16.56-3.94-5.43,3.06-11.14,16.34-.83,24.1s22.6-9.61,26.54-16.45,9.85-20.05,27.82-34.3,48-39.64,58.87-54a3.1,3.1,0,0,1-2.21-3.15c.24-2.41,7.07-10.29,12.4-23.73s14.14-25,23.76-28,17.38.7,22.48-1.5S555.28,220.17,555.28,220.17Z"/><path class="cls-22" d="M429,419.48c21.1-19.72-9.57-34.43-9.57-34.43l1.12,3.5a20.64,20.64,0,0,0-15.47-3.5l1.68,2.34c-7.87.53-12.57,12.33-12.57,12.33s-.37-7.51-.09-14.67a23.89,23.89,0,0,1,3.14-9.88,58.42,58.42,0,0,1-4.81,6h0s-5.65,18.08-17.75,18.55-16-24.11-16-24.11l-.56,3.94c-5.24-20.06,11.22-29.89,11.39-30a33.27,33.27,0,0,0-3.58,1c-18.19,6.38-20.76,26.73-20.76,26.73l-1-1.55c-4.08,11.4,6.61,26.17,6.61,26.17l-2.11-.7c6.46,14.35,18.86,16,18.86,16l-2.11,1.13c13.79,6.61,25.46,3.09,25.46,3.09s-2.25,5.21,0,7.6,9,5.21,19.42,5.49,29,5.77,32.51,4.92,1.12-2.39,1.12-2.39c3-.28,4.65-3.8,4.65-3.8,1.68-.56,2.81-5.35,2.81-5.35.28-3.51-4.08-8.44-4.08-8.44l3-.1-.72-1.31Z"/><path class="cls-22" d="M510.42,429.08l3.64,1.12a109.55,109.55,0,0,1-5.68-12.94c-2.54-7-.28-29.87-.28-29.87l-2.82,5.4c-.28-5.89,4.43-22.4,4.43-22.4l-2.62,3.53a112.74,112.74,0,0,1,8.6-19.42c-3.37,5.07-12,7.18-12,7.18-33.63,8.86-14.63,33.21-14.63,33.21v7.6l3.52-6.06c-1.83,3.8,0,10.7,0,10.7l2.81-3C495,409,498,417.26,498,417.26l1.27-3.38c-.14,1.83,3,19.28,5.07,21.25s9.56,6.61,13.36,7.88C508.1,438.65,510.42,429.08,510.42,429.08Z"/><path class="cls-22" d="M541.21,357.32v2.95c4.55-3.23,6.28-9.28,6.28-9.28l.43,2.25c2.53-3,4.64-11.26,4.64-11.26l.89,2.11c2.29-3.1-1-22.09-2-24.48s-1.26-9.85-1.26-9.85A9.92,9.92,0,0,0,552.7,305c.42-2.67-.84-8.58-.84-8.58l1.59,1.27c0-3.8-2.3-9.85-2.3-9.85l1.13.7c-.3-1.51-2.62-6.19-4.45-11.32a11.54,11.54,0,0,0-9.06,1.87c3.66,3.07,6.19,16.39,6.19,16.39-.27-2.16-5.06-6.24-5.06-6.24,5.33,8.41,0,19.23,0,19.23l-3.84-3.75c2.92,9.85,2.52,25.77,2.52,25.77l-3.65,33A59.25,59.25,0,0,1,541.21,357.32Z"/><path class="cls-23" d="M484.55,285.14s8.35,4.93,16.37,0,11.26-32.51,18.15-37,10.55-2.68,10.55-2.68-7-5.77-12.1.85-11.39,28.39-13.36,31.52C500.69,283.3,490,284,487,282.08Z"/><path class="cls-23" d="M488.82,381.8l-2.53,3.52a25.24,25.24,0,0,1,3.94-11.4l-2.4,1.41c2.82-9,15.9-13.65,15.9-13.65-10.55-2.11-18.57,5.91-18.57,5.91l1.13-3.24c-6.34,2-16.47,28.43-22,31.24s-12.81.14-12.81.14c2.67,2.67-.84,7.6-14.49-4.78-11.57-10.5-20.31-10-22.7-9.57,5.57-.63,20.72,11.7,23.82,15.62,3.24,4.08,1.27,17-9.14,22.48s-22.24,0-22.24,0,10.14,7.35,19,3.83S448,419.49,448,419.48c1.86-.06,7.07-.22,11.27-.11,5.21.14,10.83-8.16,10.83-8.16v1.55c6-4.22,6.2-5.21,6.2-5.21v1.69a72,72,0,0,0,7.17-6.33v1.69c2.53-2.68,5.63-9.71,5.63-9.71A27,27,0,0,1,488.82,381.8Z"/><path class="cls-23" d="M532.86,407a6.15,6.15,0,0,0,5.77-1.83c2.53-.28,4.22-3.1,4.22-3.1,2.82-2.25-1.83-6.89-1.83-6.89-1.12-2.25-8.44-3.94-10.83-4.22s-2.82-2.4-2.82-12.39,13.84-21.24,13.84-21.24v2.95c4.55-3.23,6.28-9.28,6.28-9.28l.43,2.25c2.53-3,4.64-11.26,4.64-11.26l.89,2.11c1.28-1.73.81-8.41,0-14.39-1.49,7.94-19.94,24-15.78,19.46a13,13,0,0,0,3.57-10.32l-2.63,1.69c1.5-4.32,0-10.07,0-10.07-1.31,10.57-14.07,27-17.45,33.89s-3.25,19.91-3.25,19.91c.3,3.37,1.54,15.12,4.43,18.37C525.68,406.42,532.86,407,532.86,407Z"/><path class="cls-23" d="M514.85,277.49s-.19,3.19,5.53,5.16,16.51-3.24,21.39-3.59,7.09.88,7.1.88a49.73,49.73,0,0,1-3.12-10.54l-30.9,2.65S513.07,275.05,514.85,277.49Z"/><path class="cls-23" d="M394.21,399.72c-.56-4.22,4.14-17.73,4.14-17.73l-2,2.06c.85-5.63,4-13.66,4-13.66a63.56,63.56,0,0,1-7.88,10.77h0A22.15,22.15,0,0,0,394.21,399.72Z"/><path class="cls-23" d="M376.86,410.32c-9.36-.56-15.95-15-15.95-15l-.18,4.41c-7.13-7.79-7.32-20-7.32-20l-1.69,3.56c-4.84-17.89,9.92-30.76,10.12-30.93-14.51,7.72-16.69,24.93-16.69,24.93l-1-1.55c-4.08,11.4,6.61,26.17,6.61,26.17l-2.11-.7c6.46,14.35,18.86,16,18.86,16l-2.11,1.13c13.2,6.33,24.47,3.37,25.4,3.11l4.94-16.62C392,404.88,389.43,411.07,376.86,410.32Z"/><path class="cls-23" d="M518.88,307.6s3.38-3.66,2.82-8.16l2.06,4.13a12.47,12.47,0,0,0,.75-9.76l2.51,2.25s-.26-5.83-2.13-8.73c0,0,1,4,.75,5.07L523,290.15s1.28,6.94.62,8.73l-3.28-4.13S520.2,305.25,518.88,307.6Z"/><path class="cls-23" d="M417.62,371.53s7,1.12,11,4.36l-1.12-3.38s9.15,3,11.54,7.6l-1.55-5.34s8.3,6.64,9.85,10.28c0,0-1.41-7.5-12.1-14.66l1.26,4.38s-7.59-5.21-11.11-5.63l1.26,3.09S420.29,371.53,417.62,371.53Z"/><path class="cls-15" d="M506.81,327l-2-12a1.12,1.12,0,0,0-.73-.88,1.14,1.14,0,0,0-1.13.23l-9.28,8.3a1.1,1.1,0,0,0-.35,1.07,1.14,1.14,0,0,0,.75.84l11.26,3.66a1.33,1.33,0,0,0,.34.05,1.11,1.11,0,0,0,1.11-1.31Zm-10.15-3.94,6.3-5.63,1.33,8.11Z"/><path class="cls-24" d="M496.66,323.08a12.31,12.31,0,0,0,6.3-5.63l-17.47-33.4s-5,1.12-5.21,5.86C480.28,289.91,490.85,315.49,496.66,323.08Z"/><path class="cls-24" d="M504.29,325.56l46.88-6.79a14.17,14.17,0,0,0-1-9L503,317.45S501.43,320.07,504.29,325.56Z"/><path class="cls-25" d="M550.17,309.76l-39.75,6.47s25.68-3.23,23.14,0,2.5,4.73,2.5,4.73h0l15.11-2.19A14.17,14.17,0,0,0,550.17,309.76Z"/><path class="cls-24" d="M496.66,323.08S494,358,495,366.39c0,0,6.53-3.87,9.48-4.91l-.16-35.92S500,322.38,496.66,323.08Z"/><path class="cls-25" d="M504.45,361.48l0-8.38s-5.32,11.11-5.6,8.23c-.18-1.84-2.06-1.38-4,.91,0,1.71.08,3.13.19,4.15C495,366.39,501.5,362.52,504.45,361.48Z"/><path class="cls-15" d="M556.1,219.8s1.81-1.61,3.43-1.57,3.65,4.64,2.84,5-2.28-1-3.34-.95S554.09,221.45,556.1,219.8Z"/><path class="cls-15" d="M535.41,229c.62.94.61,2,0,2.45s-1.63,0-2.25-1-.62-2,0-2.45S534.79,228,535.41,229Z"/><path class="cls-26" d="M548.61,244.13a43.38,43.38,0,0,0,6.55-3.67c2.47-1.83,8.38-5.49,11.82-4.15s3.19,2.6,2.83,3-4-2.17-7.25-1.22S553.38,243.94,548.61,244.13Z"/><path class="cls-7" d="M573,264.21s-2,7.68-3.78,7.38-25.2-8.92-25.2-8.92l-2.81,13.5s38,22.61,43.24,20.55,2.44-26.08,2.44-26.08Z"/><path class="cls-27" d="M604.62,274.11s13.14,11.07,24.58,12.2c0,0-24.76,22.13-34.33,22.13s-41.09-32.45-49.63-31.7-19,5.25-22.42,4.41-7.41-1.69-6.28-5c0,0-3.1-1.31-1.69-4.12,0,0-6-1.69-4-4.13s1,.19,6.28-.47,9.1-1.31,9.1-1.31-10.22-1.5-10.41-3.66,8.25-2.06,13.69-3,6-1.41,5.35-1.88-7.69-3.66-6.19-6.94,1.78,1,7.22.94,8.82,3.28,11,6.28S571,275.8,577,279.65s15.85,7.59,18.57,5.91S604.62,274.11,604.62,274.11Z"/><path class="cls-2" d="M604.62,274.11s4.12,6.9,10.65,9.94,3.5,9.45-1.6,14.76c8.21-6,15.53-12.5,15.53-12.5C617.76,285.18,604.62,274.11,604.62,274.11Z"/><path class="cls-2" d="M516.37,276.93a51,51,0,0,0,6.82,1.1c1.47-.07,8.55-2.61,9-3.2s-8.3,2.21-8.76,2.28-7.33-1.19-7.33-1.19l.47.25Z"/><path class="cls-2" d="M514.59,272.71s7.58.88,8.6.6,8.76-2.49,8.16-2.74-8.16,1.32-8.62,1.4-8.57-.15-8.57-.15l.69.23Z"/></g></svg>