<svg xmlns="http://www.w3.org/2000/svg" viewBox="0 0 750 500"><defs><style>.cls-1{fill:#ffefe6;}.cls-2{fill:#e0cec7;}.cls-3{fill:#e2b593;}.cls-4{fill:#d6a787;}.cls-5{fill:#ff6044;}.cls-6{fill:#362e6d;}.cls-7{fill:#af8d6a;}.cls-8{fill:#a38366;}.cls-9{fill:#937358;}.cls-10{fill:#1c0a3f;}.cls-11{fill:#fff;}.cls-12{fill:#ffcab1;}.cls-13{fill:#f85;}.cls-14{fill:#ffb588;}.cls-15{fill:#ffa70e;}.cls-16{fill:#e28c10;}.cls-17{fill:#561064;}.cls-18{fill:#481056;}.cls-19{fill:#8b5a94;}.cls-20{fill:#7e5189;}.cls-21{fill:#21214f;}.cls-22{fill:#292659;}.cls-23{fill:#f20f45;}.cls-24{fill:#bc1d52;}.cls-25{fill:#c4493a;}.cls-26{fill:#2c2636;}.cls-27{fill:#c04336;}.cls-28{fill:#df7660;}.cls-29{fill:#ea344f;}.cls-30{fill:#e0a38b;}.cls-31{fill:#4c105b;}</style></defs><g id="OBJECTS"><path class="cls-1" d="M231.38,338.1s-2.1-8.12-3.55-7.4-5.51,8.13-5.51,8.13-3.92,1.66-4.79,2.53a19.86,19.86,0,0,0-1.74,2.11,9.25,9.25,0,0,0-1.49.36c-.4.18-2,.33-2.39-.22a2.36,2.36,0,0,0,.51,1.35s-1.38.25-1.64.79h.8s-2.68,4.57-2.36,6.64l.37-.91a38,38,0,0,1,1.27,6.2c0,1.56-2.54,4.28-3.3,4.72s-2.29.22-2.54-.44a3.42,3.42,0,0,0,1,1.82s-3.77,1.3-4.93.65c0,0,.83,2.5,2.43,2.65a20,20,0,0,1-3.16,2.75,4.13,4.13,0,0,0,2.25-.43s-1.41,3.05-3.41,4a5.89,5.89,0,0,0,3.05-.69s-1.24,8.74-3.3,10.8a7,7,0,0,0,2.79-1.37s-.22,8.63.83,10.33l1.2-3s0,7.11,1.34,8.41l.4-1.81s1.38,3.37-.43,4.57a4.09,4.09,0,0,0,2.5.32s.4,6.13.83,7.15l.66-1.23s1,12.62.94,15.08a39.84,39.84,0,0,0-.15,4.57c.15,1.16-.29,5.52-1,6.46s-2.69,2.68-1.82,4.21a1.41,1.41,0,0,0,2.11.65,2.48,2.48,0,0,0,2.17.25,2.09,2.09,0,0,0,2.76.12,1.75,1.75,0,0,0,2,.93s.58,1.6,2.61.87a3.47,3.47,0,0,0,3.48-.21,3,3,0,0,0,2.69-1.6c1.23-1.81,1.16-3.7,1.88-3.7S231,435,231,435s-1.3,2.17-.14,2.61a1.45,1.45,0,0,0,2.32.94s.29,1.16,2.32.36c0,0,1.09.58,3.55-.29s3.27-1.16,7.47-1.08,5.37.07,7-.95a5.31,5.31,0,0,0,2.18-2.32s1.45,2.32,3.48,2.61l-.44-1.3a3.45,3.45,0,0,0,2.9,1.59V436s1.45,1.6,2.32,1.74c0,0-1.08,3.41-.72,4.64,0,0,.65-4.86,10.15-4.57a34.49,34.49,0,0,1,17.05,5.66h-2.32s1.45,2.68,6.31,3.92,15.3-1.67,16.9-7,.29-22-5-25.39a119,119,0,0,0-14.21-7.18l3.77-.43s-6.75-5.73-14.58-1.31-12.62,9.07-15.67,8.34-5.15-13.63-7.25-18.13l1.74.73s-4.57-9.51-7.33-13.13a92.51,92.51,0,0,1-6.09-9.94l1.67,1.23-1.74-4.35s-1.16-5.44-.8-8.12a22.46,22.46,0,0,1,.73-3.77l.87-1.09s-2.54.36-3.78.36a8.16,8.16,0,0,1,2.91-1.38,6.41,6.41,0,0,1-1.09-3.12c-.22-2-1.53-8.7-1.53-8.7s1.09-13.28-.14-12.26-8.12,7.33-8.12,7.33S233.49,337.88,231.38,338.1Z"/><path class="cls-2" d="M246.48,369.66l-.52-3.48-.11-1.46s-.25-2.9-1.27-3.56-7.9.22-16.24,2.11-17.19-4.57-17.19-4.57l-2.82,3.06a16.46,16.46,0,0,0,4.78,6.37s-1,4.65,1.69,6.17,4.82-.87,4.82-.87,7,5.44,10.68,4.78l-1.17-1.3s4.43.72,7.4-1.24L235,375S243.8,372.36,246.48,369.66Z"/><path class="cls-1" d="M243.86,332.66h.24A.16.16,0,0,0,243.86,332.66Z"/><path class="cls-3" d="M220.94,365.66l-.65-1.3a16.09,16.09,0,0,0,5.51,1.3l-.36-.87s5.22,1.31,8.26.15l-1.08-.65s6,.5,8.7-.87l-.94-.59s4.92-2.55,5.47,1.89h0a11.87,11.87,0,0,1,0-2.1,22.46,22.46,0,0,1,.73-3.77l.87-1.09s-2.54.36-3.78.36a8.16,8.16,0,0,1,2.91-1.38,6.41,6.41,0,0,1-1.09-3.12c-.22-2-1.53-8.7-1.53-8.7s.93-11.33.1-12.25h-.24s-.87,11.39-2.47,13.2a5.73,5.73,0,0,0-1.74-2.54l1.24-.07L235.74,340s-2.25-2.11-4.36-1.89c0,0-2.1-8.12-3.55-7.4,0,0,.72,6.24-.15,7.26l-5.36.87s-3.92,1.66-4.79,2.53a19.86,19.86,0,0,0-1.74,2.11,9.25,9.25,0,0,0-1.49.36c-.4.18-2,.33-2.39-.22a2.36,2.36,0,0,0,.51,1.35s-1.38.25-1.64.79h.8s-2.68,4.57-2.36,6.64l.37-.91a38,38,0,0,1,1.27,6.2,4.14,4.14,0,0,1-.07.45h0S215.06,365.3,220.94,365.66Z"/><path class="cls-4" d="M210.79,358.13s4.27,7.17,10.15,7.53l-.65-1.3a16.09,16.09,0,0,0,5.51,1.3l-.36-.87s5.22,1.31,8.26.15l-1.08-.65s6,.5,8.7-.87l-.94-.59s4.92-2.55,5.47,1.89h0a11.87,11.87,0,0,1,0-2.1,22.46,22.46,0,0,1,.73-3.77l.87-1.09s-2.54.36-3.78.36a8.16,8.16,0,0,1,2.91-1.38,6.41,6.41,0,0,1-1.09-3.12c-.22-2-1.53-8.7-1.53-8.7s.8,10.37-.87,11.17-1.74,2.39-3.77,4.36-12,1.37-12,1.37l1.37,1.36c-4.29.34-10.23-1.72-10.23-1.72l.67,1.23c-2.61.65-8.34-5-8.34-5a4.14,4.14,0,0,1-.07.45Z"/><path class="cls-5" d="M208.33,361.76S222,380.69,246.48,368l-.65-3.69s-23.36,10.81-35-6.16C210.79,358.13,208,360.1,208.33,361.76Z"/><path class="cls-6" d="M219.5,371.28c-.5,2.2-2.3,3.67-4,3.28s-2.72-2.49-2.23-4.69,2.3-3.66,4-3.27S220,369.08,219.5,371.28Z"/><path class="cls-7" d="M210.06,422a39.84,39.84,0,0,0-.15,4.57c.15,1.16-.29,5.52-1,6.46s-2.69,2.68-1.82,4.21a1.41,1.41,0,0,0,2.11.65,2.48,2.48,0,0,0,2.17.25,2.09,2.09,0,0,0,2.76.12,1.75,1.75,0,0,0,2,.93s.58,1.6,2.61.87a3.47,3.47,0,0,0,3.48-.21,3,3,0,0,0,2.69-1.6c1.23-1.81,1.16-3.7,1.88-3.7S231,435,231,435s-1.3,2.17-.14,2.61a1.45,1.45,0,0,0,2.32.94s.29,1.16,2.32.36c0,0,1.09.58,3.55-.29s3.27-1.16,7.47-1.08,5.37.07,7-.95a5.31,5.31,0,0,0,2.18-2.32s1.45,2.32,3.48,2.61l-.44-1.3a3.45,3.45,0,0,0,2.9,1.59V436s1.45,1.6,2.32,1.74c0,0-1.08,3.41-.72,4.64,0,0,.65-4.86,10.15-4.57a34.49,34.49,0,0,1,17.05,5.66h-2.32s1.45,2.68,6.31,3.92,15.3-1.67,16.9-7,.29-22-5-25.39a119,119,0,0,0-14.21-7.18l3.77-.43s-6.75-5.73-14.58-1.31-12.62,9.07-15.67,8.34-5.15-13.63-7.25-18.13l1.74.73s-4.57-9.51-7.33-13.13a92.51,92.51,0,0,1-6.09-9.94l1.67,1.23-1.74-4.35s-.41-1.92-.67-4a61.13,61.13,0,0,1-.89,6.65l-.76-2.06s-4,5.76-7.18,7.39c0,0,4.57-.65,6.74-2.61,0,0-2.17,4.68-4.46,5.66,0,0,3.16.33,5-1,0,0-2.83,3.48-5.44,4.35A6.21,6.21,0,0,0,243.5,384s-4.79,4.58-9,5.12a5.3,5.3,0,0,0,3.7,2.38,11.51,11.51,0,0,1-5.34,0,4.79,4.79,0,0,1,1.2,3.27,6.65,6.65,0,0,0-2-.87s.22,3.37-4.24,5.65v-1.95a12.82,12.82,0,0,1-6.2,3.91l1.09-3.48a27.1,27.1,0,0,1-6.1,3.48l1.09-2.83s-4,1.09-4.9,4.79l-1.08-2.83s-2.8,3.88-2.61,6.28C209.12,406.94,210.13,419.56,210.06,422Z"/><path class="cls-8" d="M241.61,432.38s1.25-.09,3.41-3.18.22-10.3.22-10.3c-1.24-14.79,13.42-11.82,13.42-11.82-17.85-4.71-17.56,17.26-17.56,17.26-.58-3.84-5.68-5.29-5.68-5.29a6.82,6.82,0,0,1,0,3.26,11.59,11.59,0,0,0-6.94-8.63c1.38,1.6,1.6,4.64,1.6,4.64,1.59,5.73-3.27,16.25-3.27,16.25.73,0,4.21.44,4.21.44C233.27,430.8,241.61,432.38,241.61,432.38Z"/><path class="cls-8" d="M296.45,440.59l2.43,1.74c-4.14.87-11.64-3.7-22.78-5.94-9.48-1.92-12.1,3.74-12.66,5.46.45-1.22,2.37-4.32,10-4.09a34.49,34.49,0,0,1,17.05,5.66h-2.32s1.45,2.68,6.31,3.92,15.3-1.67,16.9-7c.69-2.33.84-6.77.35-11.34a22,22,0,0,1-5.36,9.32C302.47,442.07,296.45,440.59,296.45,440.59Z"/><path class="cls-8" d="M268.38,431.89c11.17-9.36,28.07,1,28.07,1-3.74-10.62-12.81-11.13-18.68-11.78s-7,1.63-7,1.63a4,4,0,0,1,2.17.33c-3.16.86-6.26,3.28-7.74,3.64l-.59-2.71c.24-3.46-1.5-8.17-2.13-9.77h0l-.23-.56c0,.09,0,.17.06.25-.52-.81-2.29-2.94-6.58-2.64-5.3.36-6.1,4-6.1,4a3.85,3.85,0,0,1,2.05-.44,5.15,5.15,0,0,0-2.92,4.79l1.82-.94c-1.17,2.32,1.81,11.6.94,14.07s-4,4-7.55,4.13a9.31,9.31,0,0,0-5.54,1.93c.2-.06.39-.11.61-.19,2.47-.87,3.27-1.16,7.47-1.08s5.37.07,7-.95a5.31,5.31,0,0,0,2.18-2.32s1.45,2.32,3.48,2.61l-.44-1.3a3.45,3.45,0,0,0,2.9,1.59V436s1.45,1.6,2.32,1.74l5.88-5.22Z"/><path class="cls-9" d="M226.81,434.57s4.79-9.86,3.27-16.25c0,0,2.17,5.3,1.45,8.42,0,0,2-.73,2.25-1.74,0,0,.36,3.84-1.31,5.58a8.49,8.49,0,0,1,4.79-.72l-1.31.87s4.72.94,6.39.07,3.19-4.35,3.19-6.09-2.9-11.25,2.17-15.45,9.36-3.18,11.32-2.1c0,0-5.08-1.38-10.37,2.82s-1.82,13.42-1.82,14.73-1.59,5.73-2.46,6.38a7.83,7.83,0,0,0,3.62-.73s-1.37,2-7,2-9.07.65-9.94,2.61Z"/><path class="cls-9" d="M235.52,438.92s.43-2.46,2.32-2.82A2.12,2.12,0,0,0,235.52,438.92Z"/><path class="cls-9" d="M233.44,438.92s-.12-3.22,2.5-3.55C235.94,435.37,231.87,434.81,233.44,438.92Z"/><path class="cls-9" d="M230.88,437.62a4,4,0,0,1,3.37-3.5A6.81,6.81,0,0,0,230.88,437.62Z"/><path class="cls-9" d="M214.12,438.28a1.87,1.87,0,0,1,.51-2.41c1.3-1.08,2.9-6.45,3.19-11.89a38,38,0,0,0-.51-9.14s.19,11-1.43,14.36S212,437.08,214.12,438.28Z"/><path class="cls-9" d="M262.28,413.68s2.54,9.14-6.52,20.6C255.76,434.28,267.43,428,262.28,413.68Z"/><path class="cls-9" d="M264,437.69a12.94,12.94,0,0,1,5.88-5.22l-1.52-.58a14.09,14.09,0,0,1,9-2.69c5.66.15,17.12,2.18,19.08,3.7,0,0-4.21-7.83-8.56-7.76l1.74,1.74s-5.59-2.16-9.39-.32l3.44.32s-13.2-.36-17.48,6.1l1.74-.22S265.84,433.77,264,437.69Z"/><path class="cls-9" d="M216.15,439.21a2.14,2.14,0,0,1,.51-2.82A5.27,5.27,0,0,0,216.15,439.21Z"/><path class="cls-9" d="M218.76,440.08s-.83-1.52.15-2.46A6.8,6.8,0,0,0,218.76,440.08Z"/><path class="cls-9" d="M222.24,439.87a1.57,1.57,0,0,1-.2-2.07A5.54,5.54,0,0,0,222.24,439.87Z"/><path class="cls-9" d="M211.36,438.16a2,2,0,0,1,.31-1.89Z"/><path class="cls-9" d="M209.19,437.91a1.42,1.42,0,0,1,0-2A5.18,5.18,0,0,0,209.19,437.91Z"/><path class="cls-10" d="M224.07,349.08a.21.21,0,0,0-.29-.09,4.19,4.19,0,0,1-3.21.4,3.51,3.51,0,0,1-1.82-1.56c0-.32,0-1.11,0-1.56a6.55,6.55,0,0,0,2.17-1.41c.05-.3.05-.45-.91-.72a10.68,10.68,0,0,0-3,0c-.89.5.69,1.77,1.32,2.11,0,.43,0,1.23,0,1.54-.67.9-1.35,1.32-2,1.25-1.15-.13-1.91-1.8-1.92-1.82a.23.23,0,0,0-.29-.11.22.22,0,0,0-.11.29c0,.08.87,1.92,2.28,2.07h.18a2.78,2.78,0,0,0,2-1.23,3.91,3.91,0,0,0,1.93,1.55,3.66,3.66,0,0,0,1.19.19,5.34,5.34,0,0,0,2.36-.61A.23.23,0,0,0,224.07,349.08Z"/><path class="cls-10" d="M229.79,344.25c-.22.65-.71,1.08-1.08.95s-.48-.76-.25-1.41.71-1.08,1.08-1S230,343.6,229.79,344.25Z"/><path class="cls-10" d="M218.88,342.77c.05.48-.13.9-.41.93s-.54-.35-.58-.84.13-.9.41-.93S218.84,342.28,218.88,342.77Z"/><path class="cls-11" d="M228.71,346.08a6.25,6.25,0,0,0-6.15-.73.11.11,0,0,0,0,.15.1.1,0,0,0,.14,0,6,6,0,0,1,5.93.72l.06,0a.09.09,0,0,0,.09,0A.1.1,0,0,0,228.71,346.08Z"/><path class="cls-11" d="M222.77,346a.11.11,0,0,0-.06.14.11.11,0,0,0,.14.07,4.1,4.1,0,0,1,4,1l.07,0a.11.11,0,0,0,.08,0,.11.11,0,0,0,0-.15A4.38,4.38,0,0,0,222.77,346Z"/><path class="cls-11" d="M222.91,346.67a.11.11,0,0,0-.09.13.1.1,0,0,0,.12.09,4.08,4.08,0,0,1,3.67,1.81.12.12,0,0,0,.09.05l.06,0a.11.11,0,0,0,0-.15A4.36,4.36,0,0,0,222.91,346.67Z"/><path class="cls-11" d="M210.35,344.89a5.5,5.5,0,0,1,5.45.53.09.09,0,0,1,0,.13.1.1,0,0,1-.14,0,5.3,5.3,0,0,0-5.24-.49h-.06a.11.11,0,0,1-.07-.06A.1.1,0,0,1,210.35,344.89Z"/><path class="cls-11" d="M215.49,346a.09.09,0,0,1,0,.13.1.1,0,0,1-.13,0,3.65,3.65,0,0,0-3.61.14.06.06,0,0,1-.07,0,.07.07,0,0,1-.06,0,.09.09,0,0,1,0-.13A3.82,3.82,0,0,1,215.49,346Z"/><path class="cls-11" d="M215.25,346.49a.1.1,0,0,1,.06.13.1.1,0,0,1-.13.05,3.62,3.62,0,0,0-3.5.88.1.1,0,0,1-.09,0s0,0-.05,0a.09.09,0,0,1,0-.13A3.83,3.83,0,0,1,215.25,346.49Z"/><path class="cls-12" d="M80.93,255s.81,46.54,13.69,55.25V258.67Z"/><path class="cls-12" d="M191.27,123.14a175.5,175.5,0,0,0,9.21-15.85A83.57,83.57,0,0,0,205.36,94c.71-2.12.44-5.71,0-8.48s2.23-3.49,3.54-3.38c0,0,2.28-3.75,6-1.74a2.86,2.86,0,0,1,4.19.71s1.47-.65,3.05,1.47c0,0,2.23,7.72,1.52,8.54a5.35,5.35,0,0,1-1.47,1.2s-4.35,5.65-5.28,7.12-6.33,22.5-9.36,32.39Z"/><path class="cls-13" d="M209.33,98.52a4.51,4.51,0,0,1,3.77-1c2,.58,2.47.62,2.85.14s1.3-1.26,2-1.21l.13.4a2.26,2.26,0,0,0-1.84.89s-.18.79-1.66.43A7.43,7.43,0,0,0,209.33,98.52Z"/><path class="cls-13" d="M208.9,82.14s8.88,4.48,10.88,9.52C219.78,91.66,217.53,83.5,208.9,82.14Z"/><path class="cls-13" d="M214.88,80.4l5.81,11.34C220.38,85.69,214.88,80.4,214.88,80.4Z"/><path class="cls-13" d="M219.07,81.11l2.34,10.23C222.5,86.69,219.07,81.11,219.07,81.11Z"/><path class="cls-13" d="M216.26,91.05l.42-.26a13.64,13.64,0,0,0-5-2c-2.21-.18-4.35-2.75-4.75-3.55a6.65,6.65,0,0,0,4.17,4A30.89,30.89,0,0,1,216.26,91.05Z"/><path class="cls-13" d="M210.49,93.22a7.55,7.55,0,0,1,2.4.87c.69.55,2.86.16,3.52.18s1.26,1.46,1.26,1.46a5.25,5.25,0,0,0-.89-2,22.22,22.22,0,0,1-2.44.16C213.14,93.88,212.71,93,210.49,93.22Z"/><polygon class="cls-13" points="207.53 131.83 208.15 129.75 191.27 123.14 207.53 131.83"/><polygon class="cls-14" points="111.46 406.42 111.46 413.83 129.74 413.83 129.74 404.47 111.46 406.42"/><path class="cls-15" d="M110,410.13s10.34,5.44,20.68,0c0,0,3,12.4,2.72,15.45,0,0-11.43,7.5-22.2,7.94s-17.52-2.61-17.52-2.61,1-7.25,5.44-9.06S109.72,414.59,110,410.13Z"/><path class="cls-16" d="M111.24,433.52c10.77-.44,22.2-7.94,22.2-7.94.32-3.05-2.72-15.45-2.72-15.45-10.34,5.44-20.68,0-20.68,0a9.75,9.75,0,0,1-2.3,5h0a7.28,7.28,0,0,1,8.28-.69c4.57,2.61,12.51-2.6,11.86-.16s-8.67,10.17-6.64,11.91-17.33,7-17.33,7l.08.11A50.47,50.47,0,0,0,111.24,433.52Z"/><path class="cls-17" d="M95.07,427.83l-1.74.79-3.2,4.94s5.81,6.09,20.75,4.86a49.26,49.26,0,0,0,25-9.51s-1.59-5.8-2.61-6l-10,5.08-.22,1.89s-12.76,3.77-19.14,3.33l-1-3.77Z"/><path class="cls-17" d="M108.63,311.7l1.74,81.67h-1.74l.87,13.79a30.55,30.55,0,0,0,22.2,0l1-13.64-2.32.43L135,316.56Z"/><path class="cls-18" d="M108.63,319.6s13.49,3.7,21.76,3.49l.79,57.68L135,316.56l-26.4-4.86Z"/><path class="cls-19" d="M109.5,407.16a30.55,30.55,0,0,0,22.2,0l1-13.64-2.32.43c-10,2.54-20-.58-20-.58h-1.74Z"/><path class="cls-20" d="M132.71,393.52l-2.32.43a37.1,37.1,0,0,1-12.61.79s11.13,8.36,10.24,13.57a32.21,32.21,0,0,0,3.68-1.15Z"/><polygon class="cls-14" points="160.35 406.42 160.35 413.83 142.07 413.83 142.07 404.47 160.35 406.42"/><path class="cls-15" d="M161.76,410.13s-10.33,5.44-20.67,0c0,0-3.05,12.4-2.72,15.45,0,0,11.42,7.5,22.2,7.94s17.51-2.61,17.51-2.61-1-7.25-5.44-9.06S162.09,414.59,161.76,410.13Z"/><path class="cls-16" d="M160.57,433.52c-10.78-.44-22.2-7.94-22.2-7.94-.33-3.05,2.72-15.45,2.72-15.45,10.34,5.44,20.67,0,20.67,0a9.91,9.91,0,0,0,2.3,5h0a7.28,7.28,0,0,0-8.28-.69c-4.57,2.61-12.51-2.6-11.86-.16s8.67,10.17,6.64,11.91,17.33,7,17.33,7l-.09.11A50.28,50.28,0,0,1,160.57,433.52Z"/><path class="cls-17" d="M176.74,427.83l1.74.79,3.19,4.94s-5.8,6.09-20.74,4.86a49.32,49.32,0,0,1-25-9.51s1.6-5.8,2.62-6l10,5.08.22,1.89s12.77,3.77,19.15,3.33l1-3.77Z"/><path class="cls-17" d="M163.18,311.7l-1.74,81.67h1.74l-.87,13.79a30.55,30.55,0,0,1-22.2,0l-1-13.64,2.33.43-4.65-77.39Z"/><path class="cls-18" d="M163.18,319.6s-13.5,3.7-21.76,3.49l-.79,57.68-3.86-64.21,26.41-4.86Z"/><path class="cls-19" d="M162.31,407.16a30.55,30.55,0,0,1-22.2,0l-1-13.64,2.33.43c10,2.54,20-.58,20-.58h1.74Z"/><path class="cls-20" d="M139.09,393.52l2.33.43a37.09,37.09,0,0,0,12.61.79s-11.13,8.36-10.24,13.57a31.6,31.6,0,0,1-3.68-1.15Z"/><path class="cls-14" d="M113.11,151.23s-1,10-7.5,15c0,0,7.52,22.34,19.06,22.34s14.8-19.39,14.8-19.39-7-3.11-7-18Z"/><path class="cls-13" d="M139.47,169.14s-7-3.11-7-18l-19.34.14a24.42,24.42,0,0,1-.44,2.57h0s8.13,7.93,16.93,5.76c0,0,3.39,12.83-4.68,20.56v8.4C136.26,188.24,139.47,169.14,139.47,169.14Z"/><path class="cls-15" d="M109.49,161.27S89.65,171.42,86.17,174.9s-18.06,66.58-18.06,66.58,10.8,18.72,26.51,17.19l-3.23,54.41s54.84,10,85.52-3.92l-14.36-118.6s35.25-17,38.3-21.67,11.53-34.47,11.53-34.47l-21.11-11.28L178,140.1l-45.29,15.71s1.68,20.75-7.79,24.31C124.92,180.12,112.93,176.86,109.49,161.27Z"/><path class="cls-16" d="M98.64,198.83c-.72-6.38-6.91,51.18-6.94,59.9l2.92-.06S99.37,205.22,98.64,198.83Z"/><path class="cls-16" d="M161.33,147.18l-.79-1-27.83,9.66s1.68,20.75-7.79,24.31c0,0,7.47.9,11.4-13.06l1.3,11.3,5-7.49c-5.31,29.82-15.09,84.47-16.45,90.34A60.92,60.92,0,0,1,120,276.59L94,274l-.35,1-2.26,38.06s31.71,5.78,60.39,2.43c-4.15.5-15.56-2.69-16-8.31s-8-1.89-11.32.44,22.34-46.72,22.92-52.64-16.54,23.48-19.15,27.62,5.66-31.27,10.69-56.8c3.23-16.4,5.26-42.31,6.29-58.76h0c.19-2.91.34-5.52.46-7.74a10.64,10.64,0,0,0,5-1.77l-1.88-1.22s5.66.58,8.12-1.31l-1.88-1.74S159.75,153.42,161.33,147.18Z"/><path class="cls-11" d="M112.15,219.85h0a8.36,8.36,0,0,1-8.36-8.36V198.34h16.72v13.15a8.37,8.37,0,0,1-8.36,8.36Z"/><path class="cls-6" d="M146.1,151.09l-5.86,2s-9.32,102.1-20.67,121.57v0a10.77,10.77,0,0,0-3.26-1.87c-7.5-2.83-34.71-2-34.71-2S72.68,305,76.16,309.38s26.11,9.14,33.87,7.18,9.21-15.45,11.57-24.59c1.29-5,1.82-9.47.8-12.91C126.37,265.85,143.93,204.8,146.1,151.09Z"/><path class="cls-21" d="M110,316.56c7.76-2,9.21-15.45,11.57-24.59,1.29-5,1.82-9.47.8-12.91,4-13.21,21.53-74.26,23.7-128l-5.86,2s-9.32,102.1-20.67,121.57v0a10.77,10.77,0,0,0-3.26-1.87,13.9,13.9,0,0,0-1.85-.54,9.58,9.58,0,0,1,4.64,6.63,29.05,29.05,0,0,1,0,7.84s-6.88,23.24-8.37,24.95c0,0-1.52,6.12-13.67,4.63C102.27,317.08,107.17,317.28,110,316.56Z"/><path class="cls-22" d="M77.66,288s10.25,9,14.6,9.89,25.53-10.16,26.84-11.17c0,0-4.42,21.47-8.37,24.95,0,0,3-9,3.15-14.22,0,0-18.28,6.09-21.62,5.51S77.66,288,77.66,288Z"/><path class="cls-11" d="M96.93,292c-.72,2.34-2.53,3.85-4,3.38s-2.12-2.73-1.39-5.06,2.53-3.85,4-3.38S97.66,289.68,96.93,292Z"/><path class="cls-15" d="M221.61,234.13s3.85,3,6.57,5.48l-1-.14s5.26,7.27,5.89,9.79l-.69-.59s2.49,5.92,1.54,9.1l-.68-1.08s.75,8-2.13,9.79a23.2,23.2,0,0,1-2.76-9.75l-.49,1a51.09,51.09,0,0,1-2.59-8.8l-.42,1.27S219,240.66,221.61,234.13Z"/><path class="cls-16" d="M228.33,256.73l-.49,1a51.09,51.09,0,0,1-2.59-8.8l-.42,1.27s-5.81-9.51-3.22-16c0,0,6.15,8.47,7.88,14.1l-1.13-1.32s3.94,12.82,2.73,19.57A23.2,23.2,0,0,1,228.33,256.73Z"/><path class="cls-17" d="M216.19,92.59a19.46,19.46,0,0,1,2.28,6.2c.27,2.72,2.17,3.28,3.59,2.94,2.37-.56,3.09-2.49,1.72-6.26-.84-2.31-1.55-3.75-1.55-3.75s-.66.22-.82-.38c0,0-1.25.92-1.63.32,0,0-1.47,1.31-1.91.71s-1.19-1.58-1.19-1.58S215.45,91.16,216.19,92.59Z"/><path class="cls-17" d="M222.06,230.21V98.52a.44.44,0,0,0-.44-.44.44.44,0,0,0-.43.44V230.21a2.4,2.4,0,1,0,.87,0Z"/><path class="cls-23" d="M221.2,233.5s-3.74,4.54-6.28,8.17l1.16-.44s-4.28,9.94-4.35,13.06l.65-.87S211,261,213,264.51l.51-1.45s1.23,9.65,5.07,11a28,28,0,0,0,.69-12.19l.84,1s1.09-7.11.72-11l.83,1.38S226,240.49,221.2,233.5Z"/><path class="cls-24" d="M219.23,261.83l.84,1s1.09-7.11.72-11l.83,1.38s4.33-12.71-.42-19.7c0,0-5,11.57-5.56,18.65l1-1.85s-1.27,16.1,1.92,23.72A28,28,0,0,0,219.23,261.83Z"/><path class="cls-14" d="M151,144.59a14.61,14.61,0,0,0,1.68-2.72c1.2-2.56,1.39-5.11.48-6.8a3.73,3.73,0,0,0-1-1.16c-1.89-1.48-5-.83-7.75,1.36a14.48,14.48,0,0,0-2.33,2.36c-3.12,4-3.66,8.77-1.21,10.69l.14.09C143.58,150.17,148,148.5,151,144.59Z"/><path class="cls-14" d="M101.32,126.57c-2.88,1.18-3.67,5.93-1.75,10.61,1.74,4.25,5.11,7,7.87,6.54a3.3,3.3,0,0,0,.82-.21c2.88-1.18,3.66-5.93,1.75-10.61a14.69,14.69,0,0,0-1.83-3.22C106.15,127,103.46,125.69,101.32,126.57Z"/><path class="cls-12" d="M122.22,157.3a18.41,18.41,0,0,0,21.13-15.12l3.77-22.79-36.25-6-3.77,22.79a18.41,18.41,0,0,0,15.12,21.12Z"/><path class="cls-25" d="M131.89,132.5s5.56-1.87,8.46,1.82,1.45-2.15-1.88-3.73-4.9-.54-4.9-.54a1.81,1.81,0,0,0-.85-.78C131.29,128.83,129.51,133.09,131.89,132.5Z"/><path class="cls-25" d="M119.77,130.24s-4.58-3.65-8.57-1.18-.62-2.51,3-2.86,4.78,1.17,4.78,1.17a1.78,1.78,0,0,1,1.07-.44C121.59,127,121.81,131.62,119.77,130.24Z"/><path class="cls-26" d="M131.44,139.39a.49.49,0,0,1-.19-.5.46.46,0,0,1,.32-.33l.1-.06c3.31-2,5.53.09,6.81,2.17a.46.46,0,1,1-.79.49c-2.32-3.78-4.75-2.33-5.55-1.86a.69.69,0,0,1-.55.16Z"/><path class="cls-26" d="M111.72,134.82a.45.45,0,0,1-.19-.49.46.46,0,0,1,.32-.34l.09-.05c3.32-2,5.54.09,6.82,2.17a.47.47,0,0,1-.15.64.46.46,0,0,1-.64-.15c-2.33-3.79-4.75-2.34-5.55-1.86a.68.68,0,0,1-.55.15A.35.35,0,0,1,111.72,134.82Z"/><path class="cls-27" d="M119.55,148l6.51,1.63S122.29,155.13,119.55,148Z"/><path class="cls-28" d="M130.07,153.65c-1.13-1.22-.16-3.94,2.15-6.08s5.11-2.88,6.24-1.66.16,4-2.16,6.08S131.19,154.87,130.07,153.65Z"/><path class="cls-28" d="M110.74,140.76c-1.51.7-1.64,3.59-.3,6.44s3.64,4.59,5.15,3.89,1.63-3.59.29-6.45S112.24,140.05,110.74,140.76Z"/><path class="cls-29" d="M126.85,143.06l-.15,0-2.38-.55-.5-.12-2.38-.55-.16,0a.37.37,0,0,0-.48.21l-.29,1.26c0,.16.11.34.34.39l.16,0s.83.31.85.76c0,0-.07.21.89.43l.46.11.5.11.46.11c1,.22,1,0,1,0,.22-.39,1.11-.3,1.11-.3l.15,0a.37.37,0,0,0,.48-.21l.29-1.26C127.23,143.29,127.08,143.12,126.85,143.06Z"/><path class="cls-30" d="M121.08,141.77s3.07-2.79,6,1.38Z"/><path class="cls-17" d="M155.46,145.3c1.84.93,4-3.3,4-3.3s-2.2,1.27-3.79-1.4c-1.4-2.35,3.56-29.38-14.37-39.92h0s3.79-.43,3.52-5.57-20-15.4-29.07-11.27c0,0,3.47-.1,4.72.45,0,0-9.94.1-13.06,4.68l3.21-1.19s-9.48,8.66-.43,14.88h0c-8.71,7.93-11.28,21.19-12.59,23.65-2.08,3.9-9.79,6.08-9.79,6.08,3.18,2.69,8.32.73,8.32.73-1.47,3-7,4.59-7,4.59a47.87,47.87,0,0,0,4.77.56C91.53,141.74,82.29,142,82.29,142c3.48,5.7,12.29,7.78,12.29,7.78l-3.42,1.89c4.77,4.24,13.63,2.57,13.63,2.57l-2.87,3.31c2.64.65,7-.43,10.1-1.32a19.89,19.89,0,0,1,1.09-3.26,18.42,18.42,0,0,1-5.67-9.25c-2.76.42-6.13-2.29-7.87-6.54-1.92-4.68-1.13-9.43,1.75-10.61,1.51-.62,3.3-.12,4.94,1.16a6.6,6.6,0,0,1,.59,4.08c-.44,2.18-1.06,7.87.23,10.19,0,0,1.27-13.74,4.43-15.1l7.88-3.37-2.94,3.76c7.3,1,15.46-2.17,15.46-2.17l-1.16,2.17c6.94-.43,12.58-5.72,12.58-5.72-2.21,3.14,0,9.16,0,9.16l1.43-3.44a6.61,6.61,0,0,0,0,2.56h0s-1.67,15.09-3,17.39c0,0,3.94-4.84,5.58-13.61,1.87-.73,3.67-.71,4.93.28a3.73,3.73,0,0,1,1,1.16c.91,1.69.72,4.24-.48,6.8a14.61,14.61,0,0,1-1.68,2.72c-3.06,3.9-7.46,5.57-9.94,3.83a18.42,18.42,0,0,1-7.62,7.15c-.34.17-.68.32-1,.47h0c4.13,4.46,15.55,1.68,15.55,1.68a4.3,4.3,0,0,1-2.94-4.94c2.52,3.77,9.29,1.45,9.29,1.45a5.91,5.91,0,0,1-2.07-2.57c8,2.64,9-4.49,9-4.49C156.76,149.84,155.46,145.3,155.46,145.3Z"/><path class="cls-31" d="M143.33,130.73l1.43-3.44a6.61,6.61,0,0,0,0,2.56h0s-1.67,15.09-3,17.39c0,0,3.94-4.84,5.58-13.61,1.87-.73,3.67-.71,4.93.28a3.73,3.73,0,0,1,1,1.16c.91,1.69.72,4.24-.48,6.8a14.61,14.61,0,0,1-1.68,2.72c-3.06,3.9-7.46,5.57-9.94,3.83a18.42,18.42,0,0,1-7.62,7.15c-.34.17-.68.32-1,.47h0c4.13,4.46,15.55,1.68,15.55,1.68a4.3,4.3,0,0,1-2.94-4.94c2.52,3.77,9.29,1.45,9.29,1.45a5.91,5.91,0,0,1-2.07-2.57c8,2.64,9-4.49,9-4.49-4.57,2.66-5.87-1.88-5.87-1.88,1.84.93,4-3.3,4-3.3s-2.2,1.27-3.79-1.4c-1.4-2.35,3.56-29.38-14.37-39.92h0s3.79-.43,3.52-5.57-20-15.4-29.07-11.27c0,0,7.95-2,13.81,3.16,0,0-3-.77-4.92,0,0,0,6.1,3.48,8.17,5.87s-18.47,6.3-22.62,9.79c0,0,13.84-3.93,19.37,0s.83,10.56-3.24,12.51c0,0,3.77.77,9.42-2.5,0,0,.77,5-1.52,7.4,0,0,5.61-1.41,7.65-4.9,0,0,1,4.9-2.5,7.08,0,0,3.34-1,4.75-3.48,0,0,.52.83-.83,2.81a2.77,2.77,0,0,0-.2.34c-.09.16-.18.34-.28.56C141.51,125.73,143.33,130.73,143.33,130.73Z"/><path class="cls-15" d="M110.23,102.65s14.9-7.44,31.11-2C141.34,100.67,125.44,87.26,110.23,102.65Z"/></g></svg>