<svg xmlns="http://www.w3.org/2000/svg" viewBox="0 0 5774.95 2912.31"><defs><style>.cls-1{fill:#00847f;}</style></defs><g id="OBJECTS"><path class="cls-1" d="M0,2245.19c24-15.46,263.45-14.46,341.29,206.58,0,0,163.28-62.27,231.33,190.15,0,0,195.81-124.79,401.36,126.69,0,0,153.55-77.84,236.44,23.95,0,0,561.17-107.78,777.08,119.75H0Z"/><path class="cls-1" d="M5775,2100.18s-147.56,27.79-129.86,195.66c0,0-123.95-16.25-141.66,137.79,0,0-330.2-66.87-398.25,191.15,0,0-225-13.5-367.86,163.57,0,0-399.5-123.95-498.43,124H5775Z"/><path class="cls-1" d="M4372.56,2912.31c-12.28-23-63.15-111.26-180.4-152.57C4014.78,2697.23,3854,2801.56,3846,2807a608.37,608.37,0,0,0-134.37-54.83c-32.64-9-104.19-28.66-187.07-21.92-162.6,13.22-229.82,116.81-312,79.8-22-9.93-26.79-19.38-74.05-46.54-22.27-12.79-52.54-26.59-99.73-40.38-253.05-74-486.13,0-539.46,18.26a848.39,848.39,0,0,0-144.86,65.21c-60.23-14.93-275.42-61.41-455.68,42.21a427.75,427.75,0,0,0-84.52,63.55Z"/></g></svg>