<svg xmlns="http://www.w3.org/2000/svg" viewBox="0 0 5774.95 2912.31"><defs><style>.cls-1{fill:#d7ebf2;}</style></defs><g id="OBJECTS"><polygon class="cls-1" points="5010.08 613.69 5010.08 780.69 4877.29 780.69 4877.29 1450.52 4797.41 1450.52 4797.41 1164.32 4025.26 1164.32 4025.26 1450.52 3847.01 1450.52 3847.01 1002.31 3074.86 1002.31 3074.86 1436.87 2982.97 1436.87 2982.97 1055.01 2873.9 1055.01 2873.9 829.06 2664.99 829.06 2664.99 1055.01 2555.92 1055.01 2555.92 1450.52 2490.01 1450.52 2490.01 632.23 2062.97 632.23 2062.97 1450.52 1885.34 1450.52 1885.34 1058.76 1808.01 1058.76 1808.01 805.32 1380.96 805.32 1380.96 1058.76 1303.63 1058.76 1303.63 1177.98 1100.53 1177.98 1100.53 829.06 518.82 829.06 518.82 1450.52 446.12 1450.52 446.12 702.16 0.01 702.16 0.01 1450.52 0.01 1830.74 0.01 2912.31 5774.95 2912.31 5774.95 1742.27 5774.95 1742.27 5774.95 612.34 5010.08 613.69"/></g></svg>