<svg xmlns="http://www.w3.org/2000/svg" viewBox="0 0 5774.95 2912.31"><defs><style>.cls-1{fill:#fff;}.cls-2{fill:#63ad92;}.cls-3{fill:#4a827f;}.cls-4{fill:#b97446;}.cls-5{fill:#6bbda4;}.cls-6{fill:#57997f;}.cls-7{fill:#73caa8;}.cls-8{fill:#85e0c1;}.cls-9{fill:#7cd1b7;}</style></defs><g id="OBJECTS"><path class="cls-1" d="M3826.81,1094.44H5058.89s-40.92-284-206.71-214c0,0-113-214.8-279-98.13,0,0-292-135.65-333.21,170.39Z"/><path class="cls-1" d="M5004.93,210.48H3645.75s178.53-324.27,460.86-162.13c0,0,181-61.22,347.15,58.37Z"/><path class="cls-1" d="M3509.6,1195.05H2150.42S2329,870.78,2611.28,1033c0,0,181-61.22,347.15,58.36Z"/><path class="cls-1" d="M0,869.16H1008.67L500.84,800.69S517.47,699.2,446.1,699.2c0,0-5.71-282.71-213.08-249.32,0,0-68.76-198.55-233-98.4Z"/><path class="cls-2" d="M0,1555.54s528.37-211.89,1061.13,72.7c0,0,361.82-632.48,963.18-120.57s1306.45,795.31,1729.36,644,927.88-1217.15,1413-1057.19c0,0,192.5-378.93,608.29-237V2211.85H0Z"/><polygon class="cls-3" points="102.02 2135.25 158.69 1953.76 192.5 2044.51 213.66 1979.55 233.03 2016.62 271.42 1788.25 308 1953.76 321.46 1902.43 343.75 1936.54 394.62 1725.65 435.05 1936.54 102.02 2135.25"/><polygon class="cls-3" points="5774.94 974.67 5717.19 1211.5 5678.69 1065.58 5640.19 1224.74 5574.73 1102.48 5532.39 1253.09 5505.44 1192.83 5366.84 1334.47 5774.94 1334.47 5774.94 974.67"/><polygon class="cls-3" points="1552.21 1706.77 1620.83 1457.69 1674.72 1694.76 1737.91 1605.89 1778.47 1725.65 1814.29 1649.39 1880.13 1791.07 1552.21 1791.07 1552.21 1706.77"/><path class="cls-2" d="M0,758.15s158.7-33.34,212.29,79.39c0,0,63.9-31.76,96.87,14.29,0,0,94.81,13.71,94.81,208.51,0,0,96.88,34.42,96.88,152.71H0Z"/><path class="cls-4" d="M445.83,1149.38c-.24-5.26-6-9.38-12.8-9.18s-12.16,4.6-11.92,9.86c.07,1.43,5.88,143.3-50.16,188a54.26,54.26,0,0,1-19.44,10.1c13.83-61.06,17.09-111,17.4-116.43.31-5.25-5-9.71-11.79-9.94s-12.6,3.82-12.92,9.08c-.1,1.84-6.51,100.24-39.6,191a39.56,39.56,0,0,1-15.05-7.81c-59.57-48-61.11-257.29-56.67-333.89.31-5.26-5-9.71-11.8-9.94s-12.6,3.84-12.91,9.09c-.67,11.58-15.54,284.23,63.51,347.91a65.72,65.72,0,0,0,25.84,12.91c-27.6,66.93-71,125.53-138.83,131.92V1153.51c0-5.26-5.53-9.53-12.36-9.53s-12.34,4.27-12.34,9.53v317.92a60.51,60.51,0,0,1-27.09-13.1c-80.33-66.11-59.72-317.67-59.5-320.2.45-5.25-4.71-9.79-11.52-10.14s-12.71,3.63-13.16,8.88c-.92,10.68-21.49,262.37,66.12,334.47A87.27,87.27,0,0,0,134,1490.86v641.19c0,5.26,5.54,9.52,12.37,9.52s12.36-4.26,12.36-9.52V1591.23c109.56-8.17,162.57-124.34,187.87-222.56a81,81,0,0,0,42.19-17.37C452.05,1300.78,446.11,1155.54,445.83,1149.38Z"/><path class="cls-5" d="M0,939.16s157.67-37.73,197.87,87.12c0,0,68-21.18,86.56,44.69,0,0,182.41-15.11,185.5,120.65,0,0,68.47-42.23,105.6,21.43H0Z"/><path class="cls-6" d="M171.06,1252s28.86-105.87,79.35-81.52c0,0,48.44-73.35,106.15-45.14,0,0,51.53-17.57,78.32,60.1,0,0,55.92-3.3,81.55,66.56Z"/><path class="cls-4" d="M5284.66,909c62-68.08,113.12-161.09,113.12-282.87,0-6.55-6.89-11.86-15.39-11.86s-15.4,5.31-15.4,11.86c0,99.63-34.63,188.17-102.83,264.5-31-7.64-141-52.74-141-307.37,0-6.56-6.9-11.87-15.4-11.87s-15.4,5.31-15.4,11.87c0,248.2,104.55,311.29,153.05,327.2a575.57,575.57,0,0,1-72.82,61.44c-70.18,50.15-141.14,79.08-175.2,91.3V563.75c0-6.56-6.9-11.87-15.4-11.87s-15.4,5.31-15.4,11.87v651.32c-16.62-2.64-31.85-9.66-46.22-21.33-46.52-37.8-74.72-115.35-91.57-203.47a9,9,0,0,0-.46-2.39c-35.23-186.89-19.85-420-19.62-423.5.46-6.54-6.06-12.13-14.56-12.48s-15.75,4.67-16.2,11.21c-1,13.82-15.21,230.55,17.52,414.81-183-21-186.92-361.36-186.94-364.91,0-6.53-6.92-11.82-15.4-11.82h-.06c-8.5,0-15.37,5.36-15.34,11.91.08,15.59,4.34,375,222.37,389.08,18.21,89,48.44,167.68,97.9,207.88,20.38,16.56,43.42,26.22,68.58,29V1636c0,6.55,6.9,11.86,15.4,11.86s15.4-5.31,15.4-11.86V1089.21c28.21-9.26,111.26-39.51,195.25-99.3a581.15,581.15,0,0,0,89.2-77.82A12.25,12.25,0,0,0,5284.66,909Z"/><path class="cls-2" d="M5474.07,451.2c0-252.12-122.71-269.87-122.71-269.87-42.68-59.6-125.37-18.5-125.37-18.5C5166.3,37.28,5006,51.71,4962.41,58.18c-43.61-6.47-203.9-20.9-263.59,104.65,0,0-82.69-41.1-125.38,18.5,0,0-122.71,17.75-122.71,269.87,0,0-125.38,44.55-125.38,197.66h1274.1C5599.45,495.75,5474.07,451.2,5474.07,451.2Z"/><path class="cls-5" d="M5559.45,621.11C5555.45,445.4,5319.36,465,5319.36,465c-24-85.26-112-57.84-112-57.84-44.72-138.92-201.7-122.33-244.91-114.94-43.21-7.39-200.19-24-244.92,114.94,0,0-88-27.42-112,57.84,0,0-236.08-19.56-240.08,156.15,0,0-88.63-54.65-136.69,27.75H5696.12C5648.06,566.46,5559.45,621.11,5559.45,621.11Z"/><path class="cls-6" d="M5172.64,699.21s37.35-137,102.7-105.51c0,0,62.69-95,137.39-58.43,0,0,66.69-22.75,101.37,77.79,0,0,72.37-4.28,105.55,86.15Z"/><path class="cls-6" d="M4303.43,543.41s37.35-137,102.71-105.51c0,0,62.68-94.95,137.37-58.43,0,0,66.71-22.75,101.38,77.79,0,0,72.37-4.28,105.54,86.15Z"/><path class="cls-5" d="M0,2211.85S905.85,1434,1899.84,1788,3601,2017.83,4087.36,1820,5220.53,1277,5774.93,1277v934.85Z"/><path class="cls-7" d="M575.52,2063.84c71.26-109.5,500.88-117.87,406.71-34.6s870.87,58.06,701.48-73.67,1000.88,115.71,1457.8,65.15c18.75-2.08,34.46-5.45,47.43-10-363,12.23-789.81-44.87-1289.1-222.7C905.85,1434,0,2211.85,0,2211.85H741.85S504.26,2173.35,575.52,2063.84Z"/><path class="cls-7" d="M4087.36,1820c-142.7,58-304.45,109.74-486.85,144.89,0,0,347,25,834.64-196.4s918.86-254,739.2-119.09-118.07,285.18,154,257.49,30.8,305-282.33,305H5775V1277C5220.53,1277,4573.74,1622.16,4087.36,1820Z"/><rect class="cls-8" x="-0.01" y="2211.85" width="5774.94" height="697.49"/><path class="cls-9" d="M5474.33,2367.11c0-77.26-597.32-139.9-1334.16-139.9S2806,2289.85,2806,2367.11c0,16.52,27.4,32.38,77.57,47.09-150.13,11-278.38,25.77-375.3,43.25-208.24-18.19-476.63-29.15-769.6-29.15-662.12,0-1198.87,56-1198.87,125s536.75,125,1198.87,125c361.93,0,686.4-16.72,906.23-43.15,218.2,27,524.93,43.89,864.7,43.89,662.32,0,1199.24-64,1199.24-142.89,0-13.93-16.82-27.4-48.05-40.14C5139,2474.68,5474.33,2425,5474.33,2367.11Z"/></g></svg>