<svg xmlns="http://www.w3.org/2000/svg" viewBox="0 0 750 500"><defs><style>.cls-1{fill:#fef4f2;}.cls-2{fill:#f7e4da;}.cls-3{fill:#fff;}.cls-4{fill:#ffd829;}.cls-5{fill:#48af94;}.cls-6{fill:#00847f;}.cls-7{fill:#46af94;}.cls-8{fill:#bb7446;}.cls-9{fill:#51bfa6;}.cls-10{fill:#3a9b7f;}.cls-11{fill:#58ccaa;}.cls-12{fill:#86e2c3;}.cls-13{fill:#7dd3b9;}.cls-14{fill:#ffcab1;}.cls-15{fill:#ef9f73;}.cls-16{fill:#f2819f;}.cls-17{fill:#d67095;}.cls-18{fill:#561064;}.cls-19{fill:#440e51;}.cls-20{fill:#ffb588;}.cls-21{fill:#7d2193;}.cls-22{fill:#d65479;}.cls-23{fill:#2c2636;}.cls-24{fill:#e080a0;}.cls-25{fill:#440f51;}.cls-26{fill:#d86c98;}.cls-27{fill:#403379;}.cls-28{fill:#362e6d;}.cls-29{fill:#504793;}.cls-30{fill:#474289;}.cls-31{fill:#958fe2;}.cls-32{fill:#f9bbcf;}.cls-33{fill:#c58059;}.cls-34{fill:#bf7956;}.cls-35{fill:#a86547;}.cls-36{fill:#353535;}.cls-37{fill:#1e1d1d;}.cls-38{fill:#e03451;}.cls-39{fill:#efcdca;}.cls-40{fill:#ffefe6;}.cls-41{fill:#e0cec7;}.cls-42{fill:#e2b593;}.cls-43{fill:#d6a787;}.cls-44{fill:#ff6044;}.cls-45{fill:#af8d6a;}.cls-46{fill:#a38366;}.cls-47{fill:#937358;}.cls-48{fill:#1c0a3f;}.cls-49{fill:#f85;}.cls-50{fill:#ffa70e;}.cls-51{fill:#e28c10;}.cls-52{fill:#481056;}.cls-53{fill:#8b5a94;}.cls-54{fill:#7e5189;}.cls-55{fill:#21214f;}.cls-56{fill:#292659;}.cls-57{fill:#f20f45;}.cls-58{fill:#bc1d52;}.cls-59{fill:#c4493a;}.cls-60{fill:#c04336;}.cls-61{fill:#df7660;}.cls-62{fill:#ea344f;}.cls-63{fill:#e0a38b;}.cls-64{fill:#4c105b;}</style></defs><g id="BACKGROUND"><rect class="cls-1" width="750" height="500"/></g><g id="OBJECTS"><polygon class="cls-2" points="650.66 112.49 650.66 140.64 633.42 140.64 633.42 253.56 623.04 253.56 623.04 205.32 522.76 205.32 522.76 253.56 499.62 253.56 499.62 178 399.33 178 399.33 251.26 387.4 251.26 387.4 186.89 373.24 186.89 373.24 148.8 346.11 148.8 346.11 186.89 331.94 186.89 331.94 253.56 323.38 253.56 323.38 115.61 267.92 115.61 267.92 253.56 244.85 253.56 244.85 187.52 234.81 187.52 234.81 144.79 179.35 144.79 179.35 187.52 169.3 187.52 169.3 207.62 142.93 207.62 142.93 148.8 67.38 148.8 67.38 253.56 57.94 253.56 57.94 127.4 0 127.4 0 253.56 0 317.67 0 500 750 500 750 302.75 750 302.75 750 112.26 650.66 112.49"/><path class="cls-3" d="M497,194H657s-5.32-47.87-26.85-36.08c0,0-14.67-36.21-36.23-16.54,0,0-37.93-22.87-43.27,28.72Z"/><path class="cls-3" d="M301.33,79.67H124.81S148,25,184.67,52.33c0,0,23.5-10.32,45.08,9.84Z"/><path class="cls-3" d="M650,45H473.48s23.19-54.66,59.85-27.33c0,0,23.51-10.32,45.09,9.84Z"/><path class="cls-3" d="M455.8,211H279.28s23.19-54.67,59.85-27.34c0,0,23.51-10.32,45.09,9.84Z"/><path class="cls-3" d="M0,156.05H131L65.05,144.51s2.16-17.11-7.11-17.11c0,0-.74-47.66-27.68-42,0,0-8.93-33.47-30.26-16.59Z"/><circle class="cls-4" cx="382.71" cy="67.71" r="31.71"/><path class="cls-5" d="M0,271.77S68.62,236.05,137.81,284c0,0,47-106.62,125.09-20.32S432.57,397.78,487.49,372.26,608,167.07,671,194c0,0,25-63.88,79-39.95V382.41H0Z"/><polygon class="cls-6" points="13.25 369.5 20.61 338.9 25 354.2 27.75 343.25 30.27 349.5 35.25 311 40 338.9 41.75 330.25 44.64 336 51.25 300.45 56.5 336 13.25 369.5"/><polygon class="cls-6" points="750 173.84 742.5 213.77 737.5 189.17 732.5 216 724 195.39 718.5 220.78 715 210.62 697 234.5 750 234.5 750 173.84"/><polygon class="cls-6" points="201.59 297.26 210.5 255.27 217.5 295.24 225.71 280.26 230.97 300.45 235.62 287.59 244.18 311.48 201.59 311.48 201.59 297.26"/><path class="cls-7" d="M0,137.34s20.61-5.62,27.57,13.38c0,0,8.3-5.35,12.58,2.41,0,0,12.31,2.32,12.31,35.15,0,0,12.59,5.81,12.59,25.75H0Z"/><path class="cls-8" d="M57.9,203.3a1.61,1.61,0,1,0-3.21.11c0,.24.76,24.16-6.51,31.7a6.73,6.73,0,0,1-2.53,1.7,167.88,167.88,0,0,0,2.26-19.63A1.61,1.61,0,1,0,44.7,217a165.6,165.6,0,0,1-5.14,32.19,4.77,4.77,0,0,1-2-1.31c-7.74-8.1-7.94-43.38-7.36-56.29a1.61,1.61,0,0,0-3.21-.15c-.09,2-2,47.92,8.24,58.66a8,8,0,0,0,3.36,2.17c-3.58,11.29-9.22,21.17-18,22.24V204a1.61,1.61,0,0,0-3.21,0v53.6a7.3,7.3,0,0,1-3.52-2.21c-10.43-11.14-7.76-53.55-7.73-54a1.6,1.6,0,1,0-3.2-.21c-.12,1.8-2.79,44.23,8.58,56.38a10.23,10.23,0,0,0,5.87,3.29V369a1.61,1.61,0,1,0,3.21,0V277.79c14.23-1.38,21.11-21,24.4-37.52a9.52,9.52,0,0,0,5.48-2.93C58.71,228.82,57.94,204.33,57.9,203.3Z"/><path class="cls-9" d="M0,167.86s20.48-6.36,25.7,14.68c0,0,8.83-3.57,11.24,7.54,0,0,23.69-2.55,24.09,20.34,0,0,8.89-7.12,13.71,3.61H0Z"/><path class="cls-10" d="M22.22,220.59s3.74-17.85,10.3-13.74c0,0,6.29-12.37,13.79-7.61,0,0,6.69-3,10.17,10.13,0,0,7.26-.56,10.59,11.22Z"/><path class="cls-8" d="M686.33,162.77c8-11.48,14.69-27.16,14.69-47.69a2,2,0,0,0-4,0c0,16.8-4.5,31.72-13.36,44.59-4-1.29-18.31-8.89-18.31-51.82a2,2,0,0,0-4,0c0,41.84,13.58,52.48,19.88,55.16a83.27,83.27,0,0,1-9.46,10.36A90.7,90.7,0,0,1,649,188.76V104.57a2,2,0,1,0-4,0v109.8a11.37,11.37,0,0,1-6-3.6c-6-6.37-9.71-19.44-11.9-34.3a1.75,1.75,0,0,0,0-.4c-4.58-31.51-2.58-70.81-2.55-71.4a2,2,0,0,0-4-.21c-.12,2.33-2,38.87,2.28,69.93-23.77-3.53-24.28-60.92-24.28-61.52a2,2,0,0,0-2-2h0a2,2,0,0,0-2,2c0,2.63.56,63.21,28.88,65.59,2.36,15,6.29,28.27,12.71,35.05a15.18,15.18,0,0,0,8.91,4.89v66.91a2,2,0,0,0,4,0V193.15a92.49,92.49,0,0,0,25.36-16.74A85.77,85.77,0,0,0,686,163.29,2.14,2.14,0,0,0,686.33,162.77Z"/><path class="cls-7" d="M710.93,85.59C710.93,43.09,695,40.1,695,40.1c-5.54-10-16.28-3.12-16.28-3.12C671,15.81,650.14,18.25,644.48,19.34,638.81,18.25,618,15.81,610.24,37c0,0-10.74-6.93-16.28,3.12,0,0-15.94,3-15.94,45.49,0,0-16.28,7.51-16.28,33.33H727.21C727.21,93.1,710.93,85.59,710.93,85.59Z"/><path class="cls-9" d="M722,114.24c-.52-29.62-31.18-26.33-31.18-26.33-3.11-14.37-14.55-9.75-14.55-9.75-5.81-23.42-26.19-20.62-31.8-19.38-5.62-1.24-26-4-31.81,19.38,0,0-11.43-4.62-14.55,9.75,0,0-30.66-3.29-31.18,26.33,0,0-11.51-9.22-17.75,4.68H739.76C733.52,105,722,114.24,722,114.24Z"/><path class="cls-10" d="M671.78,127.4s4.85-23.1,13.34-17.78c0,0,8.14-16,17.84-9.85,0,0,8.66-3.84,13.16,13.11,0,0,9.4-.72,13.71,14.52Z"/><path class="cls-10" d="M558.89,101.14s4.85-23.1,13.34-17.79c0,0,8.14-16,17.84-9.85,0,0,8.67-3.83,13.17,13.11,0,0,9.4-.72,13.71,14.53Z"/><path class="cls-9" d="M0,382.41S117.65,251.28,246.74,311s220.93,38.74,284.09,5.39S678,224.82,750,224.82V382.41Z"/><path class="cls-11" d="M74.74,357.46C84,339,139.8,337.59,127.56,351.63s113.11,9.78,91.11-12.42,130,19.51,189.32,11a22.81,22.81,0,0,0,6.16-1.68C367,350.57,311.58,340.94,246.74,311,117.65,251.28,0,382.41,0,382.41H96.35S65.49,375.92,74.74,357.46Z"/><path class="cls-11" d="M530.83,316.35a281.13,281.13,0,0,1-63.23,24.43S512.67,345,576,307.67s119.33-42.82,96-20.08S656.67,335.67,692,331s4,51.41-36.67,51.41H750V224.82C678,224.82,594,283,530.83,316.35Z"/><rect class="cls-12" y="382.41" width="750" height="117.59"/><path class="cls-13" d="M711,408.59c0-13-77.57-23.59-173.27-23.59s-173.27,10.56-173.27,23.59c0,2.78,3.56,5.46,10.07,7.94-19.49,1.85-36.15,4.34-48.74,7.29-27-3.07-61.9-4.92-99.95-4.92-86,0-155.69,9.44-155.69,21.07S139.81,461,225.8,461c47,0,89.15-2.82,117.7-7.28,28.34,4.57,68.17,7.4,112.3,7.4,86,0,155.75-10.78,155.75-24.08,0-2.35-2.19-4.63-6.24-6.77C667.4,426.72,711,418.35,711,408.59Z"/><path class="cls-14" d="M558.55,294.4s-24.76-.94-27.86,5.82,1.41,19.41,7.88,31.23S563.41,379,563.41,379s-22.31,8.17-26,12.95-2.25,6.47-2.25,6.47h47.69s-3.23-17.16-6.33-27.86-10.45-36.3-11.28-40.8S566.24,299.9,558.55,294.4Z"/><path class="cls-15" d="M559.68,330.05l-10.13-3.75s10.13,4.85,11.82,8.66,15.19,35.61,15.19,35.61L566.28,332.4Z"/><path class="cls-16" d="M563,378.24s8.13,7.73,16.09,2.23c0,0,8.06,14.3,7.78,19.18H531.35s-.94-4.69,2.81-7.6S563,378.24,563,378.24Z"/><path class="cls-17" d="M579.1,380.47c-8,5.5-16.09-2.23-16.09-2.23s4,6.5,10.83,7.15,5.63,6,2.72,6.29-16.32,2.06-11.72,3.28-30.77,3-30.77,3v1.69h52.81C587.16,394.77,579.1,380.47,579.1,380.47Z"/><path class="cls-18" d="M585.68,394.3s1.48-.28,2.7,2.26,2.72,7.22,1.6,7.22H527.69s1.3-7.27,3.93-8a3.85,3.85,0,0,1,2.45,2.22s32.08,0,35.08-.75S580.25,394,585.68,394.3Z"/><path class="cls-14" d="M598.23,362.41s-6.28,13.41-5,19,8.26,12.39,14.82,14.07,18-3.75,18-3.75-1.87,18.58,5.63,18.58,11.26-18.2,11.82-25.52A62.46,62.46,0,0,0,642.6,370s-25.32-22.51-39.77-16.32Z"/><path class="cls-15" d="M626.09,391.77s4.15,8.56,8.58,3.79,5-11.77,5-11.77C637.07,389.33,626.09,391.77,626.09,391.77Z"/><path class="cls-15" d="M624.55,388.58c13-4.29,17.71-18.23,17.71-18.23l-5.73,7h-1.15C630.53,386.54,624.55,388.58,624.55,388.58Z"/><path class="cls-15" d="M599.64,359.6l-1.41,2.81s24.21-12,37.15,14.92C635.38,377.33,629.47,347.21,599.64,359.6Z"/><path class="cls-16" d="M648.18,392.1c-.56-6.61-4.51-23.47-4.51-23.47l-1.41,1.72v4.93c-1.49,6.05-4.11,14.25-7.59,15.55-5.62,2.11-8.58.94-8.58.94l-5,2s1.33,21.13,6,23.94,12.8,1.27,14.49,0S648.75,398.71,648.18,392.1Z"/><path class="cls-17" d="M624.31,394.91c.8.29,6.13,5.52,10.36.65s6.87-14.58,7.59-11.2,4.18-1.66,3.34-7h0c-1-4.79-1.93-8.7-1.93-8.7l-1.41,1.72v4.93c-1.49,6.05-4.11,14.25-7.59,15.55-5.62,2.11-8.58.94-8.58.94l-5,2A120.35,120.35,0,0,0,623,408.21l1.31.34S623.51,394.63,624.31,394.91Z"/><path class="cls-18" d="M621.11,393.77s.2,20,2.59,23.94,12.38,6.61,19.14,3.24,7-26,6.75-30.82-5.92-21.5-5.92-21.5,3,17,3.25,21.22-5.07,24.37-5.63,25.13l-2-4L628.2,412.5l-.84,2.48s-1.55-1.21-2.81-5.57S621.11,393.77,621.11,393.77Z"/><path class="cls-19" d="M626.75,417.1l.61-2.12s-1.55-1.21-2.81-5.57-3.44-15.64-3.44-15.64.12,12.25,1.32,19.46a22.61,22.61,0,0,1,.57-5C623.88,405.3,626.75,417.1,626.75,417.1Z"/><path class="cls-20" d="M597.39,217.88s3.72,3.34,4.11,7.26c0,0-8.52,3.83-11.44,12.14s3.64,20.8,16,16.87,29-16.63,30.46-20.51-21-21-26-40.59S581,201.56,597.39,217.88Z"/><path class="cls-15" d="M590.06,237.28c-2.93,8.31,3.64,20.8,16,16.87s29-16.63,30.46-20.51-21-21-26-40.59-29.45,8.51-13.09,24.83a16,16,0,0,1,2.62,3.21h0s8.42-1.36,12.94-5.49,7.61-1.12,8.27,1.13-3,15.36-8.27,18-9.13-1.66-11.45-9.6C601.5,225.14,593,229,590.06,237.28Z"/><path class="cls-20" d="M628.29,186.71c-1.29,5.84-6.62,9.64-11.91,8.47s-8.54-6.85-7.25-12.7,6.63-9.63,11.92-8.46S629.58,180.87,628.29,186.71Z"/><path class="cls-15" d="M625.17,186c-.87,3.94-4.47,6.49-8,5.71s-5.75-4.62-4.88-8.56,4.46-6.49,8-5.7S626,182.09,625.17,186Z"/><path class="cls-14" d="M573.34,193.44s4.34,6.75,5.75,13,11.31,13.46,18,14.29,16.3-9.4,19-15.35,1.7-18.3.1-23.47-16.47-22.7-30.17-15.17S566.38,181.76,573.34,193.44Z"/><path class="cls-21" d="M575,196.72s-.23-1.81,2.39-3.08c3-1.46,4.23,1,4.62.5s-1.54-3.4-4.87-2.68S573.68,195.44,575,196.72Z"/><path class="cls-21" d="M589.71,189.13s7.1-6.9,11.18-5.11.85-1-1.22-1.9c-4.12-1.77-9.33,4-10,2.47-.25-.56-2.84,2.54-2.34,3.94S588.19,190.47,589.71,189.13Z"/><path class="cls-20" d="M585.31,204.86s.3-.4.71-1,3.3-3.61,4.63-1.88,1.38,2.16.07,3.61c-.94,1-5.5-.41-5.5-.41"/><path class="cls-22" d="M587.49,203.51l.46-.25,2.17-1.19.14-.07a.4.4,0,0,1,.56.15l.82,1.48a.41.41,0,0,1-.18.56l-.14.08s-.71.56-.55,1.11c0,0,.16.25-.71.73l-.42.23-1.71.8a1.06,1.06,0,0,1-1.4-.24l-.14.08h0a.41.41,0,0,1-.56-.16l-.61-1.63a.77.77,0,0,1,.49-.7Z"/><path class="cls-23" d="M598.7,194.69l-2.05.69-1.22-3.67a1.1,1.1,0,0,1,.06-.82,1,1,0,0,1,.62-.54h0a1.13,1.13,0,0,1,.81,0,1.15,1.15,0,0,1,.56.64Z"/><path class="cls-23" d="M582.89,202.26l-1.78,1.22-2.17-3.19a1.08,1.08,0,0,1-.17-.81,1.06,1.06,0,0,1,.45-.69h0a1.09,1.09,0,0,1,1.5.28Z"/><path class="cls-24" d="M612.88,197.33c2.61,1.64,2.67,6.24.13,10.27s-6.72,6-9.33,4.31-2.66-6.24-.12-10.27S610.27,195.68,612.88,197.33Z"/><path class="cls-22" d="M595.64,208.65h0a.28.28,0,0,0-.28.29c0,1.53-.34,2.54-1.08,3-1.16.75-2.93-.07-2.95-.08a.29.29,0,0,0-.37.14.27.27,0,0,0,.13.37,5.07,5.07,0,0,0,2,.45,2.78,2.78,0,0,0,1.51-.41c.91-.58,1.36-1.76,1.34-3.5A.29.29,0,0,0,595.64,208.65Z"/><path class="cls-18" d="M656.63,224.31h0c-3.49-12.25-33.55-52.74-35.55-55.42-7.75-10.81-16-25.89-41.17-14.73-19.66,8.72-18.66,31.94-12.76,41.93s10.89,24.34,18,26.31l-1.5-4.22s3.52,6.21,8.66,9.1a34.67,34.67,0,0,1,9.16-2.14,10.15,10.15,0,0,0-1.83-4.57,7.47,7.47,0,0,1-2.56.16c-6.71-.83-16.62-8-18-14.29s-5.74-13-5.74-13a7.69,7.69,0,0,0,.86-8.84s7.49,4.92,13,2.49l-2.7-1.25s8.53.5,14.07-3.26L594.3,181s6.59,1.23,12.12-.28c0,0,5.6-.43,7.15,1.07s4.27,8.43,4.25,11.66c0,0,3.66-3.44-1.91-19a9,9,0,0,1,5.14-.39c5.29,1.17,8.53,6.85,7.24,12.69-1.17,5.31-5.68,8.91-10.47,8.65,0,3.8-.52,7.49-1.68,10l-.15.3a112.86,112.86,0,0,0,11.08,14.95s14.5,10.22,18.58,14.72,7.18,23.92,6.33,34.9c-.15,2-.18,4.41-.11,7.06,0,0,6-4.43,5.46-22.42a110.76,110.76,0,0,0-6.19-32.63s6.84,10.41,8.2,18.43A48.7,48.7,0,0,0,656.63,224.31Z"/><path class="cls-25" d="M641.1,201.94l-.94,4c-.18-6.44-12.95-27.22-13-27.23a11.35,11.35,0,0,1,1.09,8c-1.17,5.31-5.68,8.91-10.47,8.65,0,3.8-.52,7.49-1.68,10l-.15.3a112.86,112.86,0,0,0,11.08,14.95s14.5,10.22,18.58,14.72c1.58,1.74,3,5.72,4.12,10.58h0C652.07,234.41,641.1,201.94,641.1,201.94Z"/><path class="cls-25" d="M622.26,170.47s-25.34-3.36-33.41,1.14c0,0,.92,3.47,4,3.94,0,0-6,2.72-12.06,1.22,0,0,1.37,3.19,3.53,3.66,0,0-7.41,3.19-11.44,2.15l.75.94s-6.27,1.64-9.09,5.65a17.05,17.05,0,0,1,7.21-14C579.57,169.45,602.84,161.93,622.26,170.47Z"/><path class="cls-16" d="M618.26,164.89c-3.42-1.87-40.78-2.93-49.45-.54h0c-8.39,1.53-17,5.07-22.76,12.55-9.77,12.64,18.56,12.26,18.56,12.26s5.08-22.09,32.66-20.77c0,0,17.25-.75,25,2.07A8.33,8.33,0,0,0,618.26,164.89Z"/><path class="cls-26" d="M553.77,171.05c-11.53,8-9.79,12.41-7.08,14.78,5.59,3.5,17.88,3.34,17.88,3.34s4.18-18.16,25.51-20.57h0S565.31,163,553.77,171.05Z"/><path class="cls-3" d="M616.28,174a.56.56,0,0,0-.79.06l-10.68,12.35a10.1,10.1,0,0,0-8.66-5.56,8.05,8.05,0,0,0-3.32.71c-4.5,2-6.28,7.87-4,13a11.29,11.29,0,0,0,3.3,4.22c-4,.32-6,1.66-7,2.86a13.39,13.39,0,0,0-1.1-3.85c-1.82-4-5.29-6.74-8.63-6.74a5.65,5.65,0,0,0-2.34.5,6.58,6.58,0,0,0-3.58,5,12.39,12.39,0,0,0,1,7.38c1.83,4,5.29,6.73,8.64,6.73a5.81,5.81,0,0,0,2.34-.49c2.25-1,3.55-3.45,3.73-6.34h0s.61-3.88,8.56-4a9.06,9.06,0,0,0,4.16,1,8,8,0,0,0,3.31-.71,8.39,8.39,0,0,0,4.56-5.38,10.87,10.87,0,0,0-.45-7.27l11-12.72A.56.56,0,0,0,616.28,174ZM581,209.1a4.55,4.55,0,0,1-1.87.4c-2.91,0-6-2.44-7.61-6.07a11.27,11.27,0,0,1-.94-6.7,5.5,5.5,0,0,1,2.94-4.17,4.47,4.47,0,0,1,1.88-.4c2.91,0,6,2.44,7.61,6.07C585.06,202.79,584.16,207.67,581,209.1Zm23.73-14.66a7.24,7.24,0,0,1-3.94,4.67,6.82,6.82,0,0,1-2.85.61,9.12,9.12,0,0,1-8-5.65c-2.06-4.56-.53-9.72,3.41-11.5a6.76,6.76,0,0,1,2.85-.61,9.1,9.1,0,0,1,8,5.65A9.72,9.72,0,0,1,604.72,194.44Z"/><path class="cls-27" d="M658.6,325.26s3.33,9.29-2.11,20.83c-4.25,9-7,12.38-7,12.38l1.41,1.41-14.33,17.45h-1.15s-5.63-27.58-35.74-17.73l-1.41,2.81v-3.94l5.91-14.91-25-7.7-1,.75-18.44-6.56s-10.51-22-1.13-35.65h18.58l1,2.06s37.18-1.68,50.17,3S658.6,325.26,658.6,325.26Z"/><path class="cls-28" d="M598.23,362.41l1.41-2.81c30.11-9.85,35.74,17.73,35.74,17.73h1.15l14.33-17.45-1.41-1.41s2.79-3.38,7-12.38c5.44-11.54,2.11-20.83,2.11-20.83s-17.31-21.1-30.31-25.79-50.17-3-50.17-3l-1-2.06H558.55c-9.38,13.69,1.13,35.65,1.13,35.65l18.44,6.56,1-.75c-7.21-20,.75-27.58,2.15-25.51s7.23,7,9.48,8.72,6.19,17.64,8.07,19.3c1.44,1.27-6.94.59-10.88.2l15.78,4.85c2.8-2.41,6.64-5.24,9.5-6.14,4.73-1.48,20.3-12.58,19.55-9.3s12.67-3.19,16.91-3.37,6,16.13,5.61,18.29-9.38,6.19-23.74.09-27.39.57-27.39.57l-5.91,14.91Z"/><path class="cls-29" d="M578.12,296.46l-1-2.06H558.55c-9.38,13.69,1.13,35.65,1.13,35.65l18.44,6.56,1-.75C564.38,310,578.12,296.46,578.12,296.46Z"/><path class="cls-30" d="M559.68,330.05l18.44,6.56,1-.75c-7.05-12.41-7.57-22-6.19-28.56h0c-2.68,6.52-3.66,2.78-6-2.71s-7.62,7.88-8.89,10.93-2.67-12.76-2.67-12.76l-.25.65C553,316,559.68,330.05,559.68,330.05Z"/><polygon class="cls-31" points="557.43 324.23 575.93 329.51 575 327.2 556.62 321.59 557.43 324.23"/><path class="cls-29" d="M598.23,362.41l1.41-2.81c30.11-9.85,35.74,17.73,35.74,17.73h1.15l14.33-17.45-1.41-1.41c-23.92-26-45.31-14.91-45.31-14.91l-5.91,14.91Z"/><path class="cls-30" d="M620.86,355.72c6-.5,0-7.8-4.92-10.62s14.33-.79,14.46-.78c-15.15-6.51-26.26-.76-26.26-.76l-5.91,14.91v3.94l1.41-2.81c9.41-3.08,16.43-2.5,21.63-.26C621.27,359.34,614.84,356.22,620.86,355.72Z"/><polygon class="cls-31" points="630 366.19 640.91 350.58 642.26 351.65 630.92 367.43 630 366.19"/><path class="cls-16" d="M627.07,220.63s14.5,10.22,18.58,14.72,7.18,23.92,6.33,34.9,2,34.19,5.07,42.63,1.55,12.38,1.55,12.38-11.54-9-18.44-7.45-17.87,19.84-32.36,20.54-12.39-20-18.44-23.36-.55-16.46-1-24.76-.28-11.68-.28-11.68-11.4-4.36-15.19-7.32c0,0,5.76-34.05,7.73-37.15s13.29-8.46,20.86-8.94c0,0,1.8,12.21,7.35,12.49S627.07,220.63,627.07,220.63Z"/><path class="cls-26" d="M617.46,322.64c-7,5.62-14.35,13.5-23.82-5,0,0,4.12,19,12.85,17.17s21.67-15.1,26.26-17.17A23.76,23.76,0,0,0,617.46,322.64Z"/><path class="cls-26" d="M640.92,312.13s7.87.94,11.72,3.38,4.88,4.59,4.88,4.59S654.33,307.06,640.92,312.13Z"/><path class="cls-26" d="M639.74,286.84c.42-2,5.91-16.74,4.51-23.35s.18,8.79-7.72,24l-39.28,28.9s5.77.33,12.52-4.31,15.06-8.73,19.7-6.76c0,0-2.72-3.75-5.91-3.23l6.85-5.49s4.41,1.12,5.39,0,5.12-7.88,5.12-7.88S639.32,288.8,639.74,286.84Z"/><path class="cls-26" d="M598.51,293.87c2.82-1.91,13.7-18.32,13.7-18.32l-2-3.47s12.95-17,14.78-22.52-16.14,21-16.14,21l-6.19,8.93,1.27,1.16s-5.21,10.91-9.34,13.21C594.57,293.87,595.7,295.79,598.51,293.87Z"/><path class="cls-26" d="M586.13,251a18.07,18.07,0,0,0,0,2.46C586.2,251.69,586.21,250.61,586.13,251Z"/><path class="cls-26" d="M585.57,268.6l-11.35-4.91s7.6,7.35,13.23,6.88c0,0-1.05-11.75-1.3-17.08C586,258.38,585.57,268.6,585.57,268.6Z"/><path class="cls-32" d="M602.64,279.5s17.54,17,32.08,14.86l4.41-5.87s-22.79-8.63-30.3-17.92Z"/><path class="cls-32" d="M569.43,270.25s9.85,7.08,18.67,8.3l-.65-8s-11.17-3.75-14.92-8.63Z"/><path class="cls-33" d="M556.49,228.08s3.38-1.78,4.78-.47,2.91,5.82,1,8.16-5,7.32-11.17,11.82-8.25,5.16-8.25,5.16,6.09.19,10.78-2,10.42-5.72,12-4.88,2.63,5.82-.94,8.73-16,10.78-17.73,17.91,5.91,21.06,6.48,23.88l-1.13-.71s2.28,6.06,2.29,9.85l-1.58-1.26s1.26,5.91.84,8.58a9.92,9.92,0,0,1-2.53,4.78s.28,7.46,1.26,9.85,4.31,21.39,2,24.49l-.88-2.11s-2.11,8.3-4.64,11.25l-.43-2.25s-1.73,6.05-6.28,9.29v-3s-13.84,11.26-13.84,21.25.42,12.1,2.82,12.38,9.7,2,10.83,4.23c0,0,4.64,4.64,1.83,6.89,0,0-1.69,2.81-4.22,3.1a6.15,6.15,0,0,1-5.77,1.83s-7.18-.57-10.55-4.37S519,391.26,519,391.26s-1,11.53-1.4,20.26.7,21.25,3.51,22.51,12.81,6.33,12.81,10.13a3,3,0,0,1-2.82,2.25s-1.4,2.4-3.51,2c0,0-2.25,2.4-4.79,1.41,0,0-.14,2.39-3.94,1.13S507.62,445,505.51,443s-5.21-19.42-5.07-21.25l-1.27,3.38s-2.95-8.3-2.53-13.09l-2.81,3s-1.83-6.9,0-10.7l-3.52,6.05v-7.6s-3.1,7-5.63,9.71v-1.69a70.69,70.69,0,0,1-7.18,6.34v-1.69s-.14,1-6.19,5.2v-1.54s-5.63,8.3-10.83,8.16-12,.14-12,.14,4.36,4.92,4.08,8.44c0,0-1.13,4.79-2.82,5.35,0,0-1.68,3.52-4.64,3.8,0,0,2.39,1.55-1.12,2.39s-22.1-4.64-32.51-4.93-17.17-3.09-19.42-5.48,0-7.6,0-7.6-11.68,3.52-25.47-3.1l2.12-1.12s-12.4-1.69-18.87-16l2.12.7s-10.69-14.77-6.61-26.17l1,1.55s2.57-20.36,20.76-26.73,27,7.65,25.27,16.11c0,0-7.47-9.08-16.56-3.95-5.43,3.07-11.14,16.35-.83,24.11s22.6-9.62,26.54-16.45,9.85-20.05,27.81-34.31,48-39.63,58.87-54a3.09,3.09,0,0,1-2.2-3.15c.23-2.41,7.07-10.29,12.4-23.74s14.14-25,23.76-28,17.38.7,22.48-1.51S556.49,228.08,556.49,228.08Z"/><path class="cls-34" d="M430.23,427.39c21.1-19.72-9.57-34.43-9.57-34.43l1.12,3.5A20.66,20.66,0,0,0,406.3,393L408,395.3c-7.88.52-12.57,12.33-12.57,12.33s-.37-7.51-.09-14.67a23.7,23.7,0,0,1,3.14-9.88,59.53,59.53,0,0,1-4.81,6h0s-5.65,18.09-17.75,18.56-16-24.11-16-24.11l-.56,3.94c-5.24-20.06,11.22-29.9,11.39-30a31.12,31.12,0,0,0-3.58,1c-18.19,6.37-20.76,26.73-20.76,26.73l-1-1.55c-4.08,11.4,6.61,26.17,6.61,26.17l-2.12-.7c6.47,14.35,18.87,16,18.87,16l-2.12,1.12c13.79,6.62,25.47,3.1,25.47,3.1s-2.25,5.2,0,7.6,9,5.2,19.42,5.48,29,5.77,32.51,4.93,1.12-2.39,1.12-2.39c3-.28,4.64-3.8,4.64-3.8,1.69-.56,2.82-5.35,2.82-5.35.28-3.52-4.08-8.44-4.08-8.44l3-.1-.72-1.31Z"/><path class="cls-34" d="M511.63,437l3.64,1.12a110.46,110.46,0,0,1-5.68-12.94c-2.54-7-.29-29.87-.29-29.87l-2.81,5.4c-.28-5.89,4.43-22.4,4.43-22.4l-2.62,3.53a111.43,111.43,0,0,1,8.6-19.42c-3.37,5.07-12,7.18-12,7.18-33.63,8.86-14.63,33.2-14.63,33.2v7.6l3.52-6.05c-1.83,3.8,0,10.7,0,10.7l2.81-3c-.42,4.79,2.53,13.09,2.53,13.09l1.27-3.38c-.14,1.83,2.95,19.28,5.07,21.25s9.56,6.61,13.36,7.88C509.3,446.56,511.63,437,511.63,437Z"/><path class="cls-34" d="M542.42,365.22v3c4.55-3.24,6.28-9.29,6.28-9.29l.43,2.25c2.53-2.95,4.64-11.25,4.64-11.25l.88,2.11c2.3-3.1-1-22.09-2-24.49s-1.26-9.85-1.26-9.85a9.92,9.92,0,0,0,2.53-4.78c.42-2.67-.84-8.58-.84-8.58l1.58,1.26c0-3.79-2.29-9.85-2.29-9.85l1.13.71c-.3-1.51-2.62-6.2-4.45-11.32A11.54,11.54,0,0,0,540,287c3.66,3.07,6.19,16.39,6.19,16.39-.27-2.16-5.07-6.24-5.07-6.24,5.34,8.4,0,19.23,0,19.23l-3.83-3.75c2.91,9.85,2.52,25.77,2.52,25.77l-3.65,33A59.35,59.35,0,0,1,542.42,365.22Z"/><path class="cls-35" d="M485.76,293.05s8.35,4.93,16.37,0,11.26-32.51,18.15-37,10.55-2.67,10.55-2.67-7-5.77-12.1.84-11.39,28.4-13.37,31.52c-3.47,5.49-14.15,6.14-17.14,4.27Z"/><path class="cls-35" d="M490,389.71l-2.54,3.52a25.31,25.31,0,0,1,3.94-11.4L489,383.24c2.82-9,15.9-13.65,15.9-13.65-10.55-2.11-18.57,5.91-18.57,5.91l1.12-3.24c-6.33,2-16.46,28.42-21.95,31.24s-12.8.14-12.8.14c2.67,2.67-.85,7.6-14.49-4.79-11.57-10.49-20.31-10-22.7-9.56,5.57-.63,20.72,11.7,23.82,15.61,3.24,4.09,1.27,17-9.14,22.49s-22.24,0-22.24,0,10.13,7.35,19,3.83,22.18-3.83,22.22-3.83c1.85-.06,7.06-.23,11.27-.11,5.2.14,10.83-8.16,10.83-8.16v1.54c6.05-4.22,6.19-5.2,6.19-5.2v1.69a70.69,70.69,0,0,0,7.18-6.34v1.69c2.53-2.67,5.63-9.71,5.63-9.71A27,27,0,0,1,490,389.71Z"/><path class="cls-35" d="M534.07,414.9a6.15,6.15,0,0,0,5.77-1.83c2.53-.29,4.22-3.1,4.22-3.1,2.81-2.25-1.83-6.89-1.83-6.89-1.13-2.26-8.44-3.94-10.83-4.23s-2.82-2.39-2.82-12.38,13.84-21.25,13.84-21.25v3c4.55-3.24,6.28-9.29,6.28-9.29l.43,2.25c2.53-2.95,4.64-11.25,4.64-11.25l.88,2.11c1.28-1.73.82-8.41,0-14.39-1.49,7.94-19.94,24-15.78,19.45a13,13,0,0,0,3.57-10.32l-2.63,1.69c1.5-4.31,0-10.06,0-10.06-1.31,10.57-14.07,26.95-17.45,33.89s-3.25,19.91-3.25,19.91c.3,3.37,1.54,15.12,4.43,18.36C526.89,414.33,534.07,414.9,534.07,414.9Z"/><path class="cls-35" d="M516.06,285.4s-.19,3.18,5.53,5.15S538.1,287.32,543,287s7.09.87,7.1.88A49.9,49.9,0,0,1,547,277.31L516.06,280S514.28,283,516.06,285.4Z"/><path class="cls-35" d="M395.42,407.63c-.56-4.23,4.14-17.73,4.14-17.73l-2,2.06c.85-5.63,4-13.66,4-13.66a63.56,63.56,0,0,1-7.88,10.77h0A22.17,22.17,0,0,0,395.42,407.63Z"/><path class="cls-35" d="M378.07,418.23c-9.36-.56-15.95-15-15.95-15l-.19,4.41c-7.12-7.79-7.31-20-7.31-20l-1.69,3.57c-4.85-17.89,9.92-30.76,10.12-30.94-14.51,7.73-16.69,24.94-16.69,24.94l-1-1.55c-4.08,11.4,6.61,26.17,6.61,26.17l-2.12-.7c6.47,14.35,18.87,16,18.87,16l-2.12,1.12c13.21,6.34,24.48,3.38,25.4,3.12l5-16.63C393.17,412.78,390.64,419,378.07,418.23Z"/><path class="cls-35" d="M520.09,315.51s3.38-3.66,2.82-8.16l2.06,4.13a12.47,12.47,0,0,0,.75-9.76l2.51,2.25s-.26-5.83-2.13-8.73c0,0,1,4,.75,5.07l-2.69-2.25s1.28,6.94.62,8.72l-3.28-4.12S521.41,313.16,520.09,315.51Z"/><path class="cls-35" d="M418.83,379.44s7,1.12,11,4.36l-1.12-3.38s9.14,3,11.54,7.6l-1.55-5.35s8.3,6.65,9.85,10.29c0,0-1.41-7.5-12.1-14.66l1.26,4.37s-7.6-5.2-11.11-5.63l1.26,3.1S421.5,379.44,418.83,379.44Z"/><path class="cls-27" d="M508,334.93l-2-12a1.12,1.12,0,0,0-.73-.88,1.16,1.16,0,0,0-1.13.22l-9.28,8.31a1.1,1.1,0,0,0-.36,1.07,1.15,1.15,0,0,0,.76.84l11.25,3.65a1.12,1.12,0,0,0,1.09-.21A1.13,1.13,0,0,0,508,334.93ZM497.87,331l6.3-5.63,1.33,8.11Z"/><path class="cls-36" d="M497.87,331a12.31,12.31,0,0,0,6.3-5.63L486.7,292s-5,1.12-5.21,5.86C481.49,297.82,492.05,323.4,497.87,331Z"/><path class="cls-36" d="M505.5,333.47l46.88-6.79a14.2,14.2,0,0,0-1-9l-47.21,7.7S502.64,328,505.5,333.47Z"/><path class="cls-37" d="M551.38,317.66l-39.75,6.48s25.68-3.23,23.14,0,2.5,4.73,2.5,4.73h0l15.11-2.19A14.2,14.2,0,0,0,551.38,317.66Z"/><path class="cls-36" d="M497.87,331s-2.62,34.94-1.69,43.31c0,0,6.53-3.87,9.48-4.91l-.16-35.92S501.18,330.29,497.87,331Z"/><path class="cls-37" d="M505.66,369.39l0-8.39s-5.32,11.12-5.6,8.23c-.18-1.83-2.06-1.37-4,.92,0,1.7.08,3.13.19,4.15C496.18,374.3,502.71,370.43,505.66,369.39Z"/><path class="cls-27" d="M557.31,227.71s1.81-1.61,3.42-1.58,3.66,4.65,2.85,5-2.28-1-3.34-.95S555.3,229.35,557.31,227.71Z"/><path class="cls-27" d="M536.62,236.89c.62.94.61,2,0,2.45s-1.64,0-2.25-1-.62-2,0-2.45S536,235.94,536.62,236.89Z"/><path class="cls-38" d="M549.82,252a44.37,44.37,0,0,0,6.55-3.67c2.46-1.83,8.37-5.49,11.82-4.16s3.19,2.61,2.83,3-4-2.17-7.25-1.23S554.59,251.85,549.82,252Z"/><path class="cls-20" d="M574.2,272.12s-2,7.68-3.78,7.38-25.19-8.93-25.19-8.93l-2.81,13.51s38,22.61,43.24,20.55,2.44-26.08,2.44-26.08Z"/><path class="cls-39" d="M605.83,282s13.13,11.07,24.58,12.19c0,0-24.77,22.14-34.33,22.14S555,283.89,546.45,284.64s-19,5.26-22.42,4.41-7.41-1.68-6.28-5c0,0-3.1-1.31-1.69-4.13,0,0-6-1.68-4-4.12s1,.18,6.29-.47,9.1-1.32,9.1-1.32-10.23-1.5-10.41-3.65,8.25-2.07,13.69-3,6-1.4,5.35-1.87-7.69-3.66-6.19-6.94,1.78,1,7.22.93,8.82,3.29,11,6.29,24.1,17.92,30.11,21.76,15.85,7.6,18.57,5.91S605.83,282,605.83,282Z"/><path class="cls-15" d="M605.83,282s4.12,6.89,10.64,9.94,3.51,9.45-1.59,14.76c8.21-6,15.53-12.51,15.53-12.51C619,293.09,605.83,282,605.83,282Z"/><path class="cls-15" d="M517.57,284.84a49.87,49.87,0,0,0,6.83,1.09c1.47-.07,8.54-2.6,9-3.2s-8.31,2.22-8.76,2.29-7.33-1.19-7.33-1.19l.47.25Z"/><path class="cls-15" d="M515.8,280.62s7.58.88,8.6.6,8.75-2.5,8.16-2.74-8.16,1.32-8.62,1.4-8.57-.15-8.57-.15l.69.22Z"/><path class="cls-40" d="M246.8,343.07s-2.11-8.13-3.56-7.4-5.51,8.12-5.51,8.12-3.92,1.67-4.79,2.54a18.82,18.82,0,0,0-1.74,2.11,9,9,0,0,0-1.48.36c-.4.18-2,.33-2.4-.22a2.32,2.32,0,0,0,.51,1.34s-1.38.26-1.63.8h.8s-2.69,4.57-2.36,6.64l.36-.91a36.74,36.74,0,0,1,1.27,6.2c0,1.56-2.54,4.28-3.3,4.72s-2.28.22-2.54-.44a3.42,3.42,0,0,0,1,1.82s-3.77,1.3-4.93.65c0,0,.83,2.5,2.43,2.65a20.17,20.17,0,0,1-3.15,2.75,4.1,4.1,0,0,0,2.24-.43s-1.41,3-3.41,4a5.78,5.78,0,0,0,3.05-.69s-1.23,8.74-3.3,10.81a6.91,6.91,0,0,0,2.79-1.38s-.21,8.64.84,10.34l1.19-3s0,7.1,1.35,8.41l.4-1.81s1.37,3.37-.44,4.57a4.09,4.09,0,0,0,2.5.32s.4,6.13.84,7.15l.65-1.24s1,12.63.94,15.09a37,37,0,0,0-.14,4.57c.14,1.16-.29,5.51-1,6.46s-2.68,2.68-1.81,4.2a1.4,1.4,0,0,0,2.1.66,2.47,2.47,0,0,0,2.18.24,2.08,2.08,0,0,0,2.75.13,1.76,1.76,0,0,0,2,.93s.58,1.6,2.61.87a3.47,3.47,0,0,0,3.48-.21,3,3,0,0,0,2.68-1.6c1.24-1.81,1.16-3.7,1.89-3.7s4.2.44,4.2.44-1.3,2.17-.14,2.61a1.46,1.46,0,0,0,2.32.94s.29,1.16,2.32.36c0,0,1.09.58,3.56-.29s3.26-1.16,7.47-1.09,5.36.08,7-.94a5.31,5.31,0,0,0,2.18-2.32s1.45,2.32,3.48,2.61l-.43-1.3a3.43,3.43,0,0,0,2.9,1.59v-1.23s1.45,1.59,2.32,1.74c0,0-1.09,3.41-.73,4.64,0,0,.66-4.86,10.16-4.57a34.48,34.48,0,0,1,17,5.66h-2.32s1.45,2.68,6.31,3.92,15.31-1.67,16.9-7,.29-22-5-25.39a118,118,0,0,0-14.22-7.18l3.77-.43s-6.74-5.73-14.58-1.31-12.62,9.07-15.66,8.34-5.15-13.63-7.26-18.13l1.74.72s-4.57-9.5-7.32-13.12a90.77,90.77,0,0,1-6.09-9.94l1.66,1.23-1.74-4.35s-1.16-5.44-.8-8.12a24.32,24.32,0,0,1,.73-3.78l.87-1.08s-2.54.36-3.77.36a8.17,8.17,0,0,1,2.9-1.38,6.41,6.41,0,0,1-1.09-3.12c-.22-2-1.52-8.7-1.52-8.7s1.09-13.28-.15-12.26-8.12,7.32-8.12,7.32S248.9,342.85,246.8,343.07Z"/><path class="cls-41" d="M261.89,374.63l-.51-3.48-.12-1.46s-.25-2.9-1.26-3.56-7.91.22-16.24,2.11-17.2-4.57-17.2-4.57l-2.82,3.06a16.43,16.43,0,0,0,4.79,6.37s-1,4.65,1.68,6.17,4.83-.88,4.83-.88,7,5.44,10.67,4.79l-1.17-1.31s4.43.73,7.41-1.23l-1.53-.65S259.22,377.33,261.89,374.63Z"/><path class="cls-40" d="M259.27,337.63h.24A.15.15,0,0,0,259.27,337.63Z"/><path class="cls-42" d="M236.35,370.63l-.65-1.3a16.35,16.35,0,0,0,5.51,1.3l-.36-.87s5.22,1.31,8.27.15l-1.09-.66s6,.51,8.7-.87l-.94-.58s4.93-2.55,5.47,1.89h0a11.87,11.87,0,0,1,0-2.1,24.32,24.32,0,0,1,.73-3.78l.87-1.08s-2.54.36-3.77.36a8.17,8.17,0,0,1,2.9-1.38,6.41,6.41,0,0,1-1.09-3.12c-.22-2-1.52-8.7-1.52-8.7s.93-11.33.09-12.25h-.24s-.87,11.39-2.46,13.2a5.73,5.73,0,0,0-1.74-2.54l1.23-.07L251.15,345s-2.25-2.1-4.35-1.88c0,0-2.11-8.13-3.56-7.4,0,0,.73,6.24-.14,7.25l-5.37.87s-3.92,1.67-4.79,2.54a18.82,18.82,0,0,0-1.74,2.11,9,9,0,0,0-1.48.36c-.4.18-2,.33-2.4-.22a2.32,2.32,0,0,0,.51,1.34s-1.38.26-1.63.8h.8s-2.69,4.57-2.36,6.64l.36-.91a36.74,36.74,0,0,1,1.27,6.2,1.75,1.75,0,0,1-.07.44h0S230.48,370.27,236.35,370.63Z"/><path class="cls-43" d="M226.2,363.1s4.28,7.17,10.15,7.53l-.65-1.3a16.35,16.35,0,0,0,5.51,1.3l-.36-.87s5.22,1.31,8.27.15l-1.09-.66s6,.51,8.7-.87l-.94-.58s4.93-2.55,5.47,1.89h0a11.87,11.87,0,0,1,0-2.1,24.32,24.32,0,0,1,.73-3.78l.87-1.08s-2.54.36-3.77.36a8.17,8.17,0,0,1,2.9-1.38,6.41,6.41,0,0,1-1.09-3.12c-.22-2-1.52-8.7-1.52-8.7s.8,10.37-.87,11.17-1.74,2.39-3.77,4.36-12,1.37-12,1.37l1.38,1.35c-4.3.35-10.24-1.72-10.24-1.72l.67,1.24c-2.61.65-8.34-5-8.34-5a1.75,1.75,0,0,1-.07.44Z"/><path class="cls-44" d="M223.74,366.73s13.72,18.93,38.15,6.22l-.65-3.69s-23.36,10.81-35-6.17C226.2,363.09,223.39,365.07,223.74,366.73Z"/><path class="cls-28" d="M234.91,376.25c-.49,2.2-2.3,3.67-4,3.28s-2.73-2.49-2.23-4.69,2.29-3.66,4-3.27S235.41,374.05,234.91,376.25Z"/><path class="cls-45" d="M225.47,427a37,37,0,0,0-.14,4.57c.14,1.16-.29,5.51-1,6.46s-2.68,2.68-1.81,4.2a1.4,1.4,0,0,0,2.1.66,2.47,2.47,0,0,0,2.18.24,2.08,2.08,0,0,0,2.75.13,1.76,1.76,0,0,0,2,.93s.58,1.6,2.61.87a3.47,3.47,0,0,0,3.48-.21,3,3,0,0,0,2.68-1.6c1.23-1.81,1.16-3.7,1.89-3.7s4.21.44,4.21.44-1.31,2.17-.15,2.61a1.46,1.46,0,0,0,2.32.94s.29,1.16,2.32.36c0,0,1.09.58,3.56-.29s3.26-1.16,7.47-1.09,5.36.08,7-.94a5.31,5.31,0,0,0,2.18-2.32s1.45,2.32,3.48,2.61l-.43-1.3a3.43,3.43,0,0,0,2.9,1.59v-1.23s1.45,1.59,2.32,1.74c0,0-1.09,3.41-.73,4.64,0,0,.66-4.86,10.16-4.57a34.48,34.48,0,0,1,17,5.66h-2.32s1.45,2.68,6.31,3.92,15.31-1.67,16.9-7,.29-22-5-25.39a118,118,0,0,0-14.22-7.18l3.77-.43s-6.74-5.73-14.58-1.31-12.62,9.07-15.66,8.34-5.15-13.63-7.26-18.13l1.74.72s-4.57-9.5-7.32-13.12a90.77,90.77,0,0,1-6.09-9.94l1.66,1.23-1.74-4.35s-.41-1.92-.66-4a59.23,59.23,0,0,1-.9,6.65l-.76-2.07s-4,5.77-7.18,7.4c0,0,4.57-.65,6.75-2.61,0,0-2.18,4.68-4.46,5.66,0,0,3.15.32,5-1,0,0-2.83,3.48-5.44,4.35a6.19,6.19,0,0,0,4.46-1.09s-4.79,4.59-9,5.13a5.36,5.36,0,0,0,3.7,2.38,11.47,11.47,0,0,1-5.33,0,4.78,4.78,0,0,1,1.2,3.26,6.93,6.93,0,0,0-2-.87s.21,3.38-4.25,5.66v-2a12.8,12.8,0,0,1-6.2,3.92l1.09-3.48A27.61,27.61,0,0,1,232,406.5l1.08-2.83s-4,1.09-4.89,4.79l-1.09-2.83s-2.8,3.88-2.61,6.27C224.53,411.9,225.55,424.53,225.47,427Z"/><path class="cls-46" d="M257,437.35s1.26-.09,3.41-3.18.22-10.3.22-10.3c-1.23-14.79,13.42-11.82,13.42-11.82-17.84-4.71-17.55,17.26-17.55,17.26-.58-3.84-5.68-5.29-5.68-5.29a7,7,0,0,1,0,3.26,11.56,11.56,0,0,0-6.94-8.63c1.37,1.6,1.59,4.64,1.59,4.64,1.6,5.73-3.26,16.25-3.26,16.25.72,0,4.21.44,4.21.44C248.68,435.77,257,437.35,257,437.35Z"/><path class="cls-46" d="M311.86,445.56l2.43,1.74c-4.13.87-11.64-3.7-22.77-5.95-9.49-1.91-12.1,3.74-12.67,5.47.46-1.22,2.37-4.32,10-4.09a34.48,34.48,0,0,1,17,5.66h-2.32s1.45,2.68,6.31,3.92,15.31-1.67,16.9-7c.7-2.33.84-6.78.35-11.34a21.91,21.91,0,0,1-5.35,9.32C317.88,447,311.86,445.56,311.86,445.56Z"/><path class="cls-46" d="M283.79,436.86c11.17-9.36,28.07,1,28.07,1-3.73-10.62-12.8-11.13-18.68-11.79s-7,1.64-7,1.64a4.12,4.12,0,0,1,2.18.32c-3.16.86-6.27,3.29-7.74,3.65l-.6-2.71c.24-3.46-1.49-8.17-2.13-9.77h0l-.23-.55c0,.08,0,.17.05.25-.51-.82-2.29-2.94-6.58-2.64-5.3.36-6.09,4-6.09,4a3.81,3.81,0,0,1,2-.44,5.14,5.14,0,0,0-2.91,4.79l1.81-.94c-1.16,2.32,1.81,11.6.94,14.07s-4,4-7.54,4.13a9.33,9.33,0,0,0-5.55,1.93c.2-.06.4-.11.62-.19,2.46-.87,3.26-1.16,7.47-1.09s5.36.08,7-.94a5.31,5.31,0,0,0,2.18-2.32s1.45,2.32,3.48,2.61l-.43-1.3a3.43,3.43,0,0,0,2.9,1.59v-1.23s1.45,1.59,2.32,1.74l5.87-5.22Z"/><path class="cls-47" d="M242.23,439.54s4.79-9.86,3.26-16.25c0,0,2.18,5.3,1.45,8.42,0,0,2-.73,2.25-1.74,0,0,.36,3.84-1.3,5.58a8.44,8.44,0,0,1,4.78-.72l-1.3.87s4.71.94,6.38.07,3.19-4.35,3.19-6.09-2.9-11.25,2.18-15.45,9.35-3.18,11.31-2.1c0,0-5.07-1.39-10.37,2.82s-1.81,13.42-1.81,14.73-1.6,5.73-2.47,6.38a8,8,0,0,0,3.63-.73s-1.38,2-7,2-9.06.66-9.93,2.62Z"/><path class="cls-47" d="M250.93,443.89s.44-2.46,2.32-2.83A2.13,2.13,0,0,0,250.93,443.89Z"/><path class="cls-47" d="M248.85,443.89s-.11-3.23,2.5-3.55C251.35,440.34,247.28,439.78,248.85,443.89Z"/><path class="cls-47" d="M246.29,442.59a4,4,0,0,1,3.37-3.5A6.81,6.81,0,0,0,246.29,442.59Z"/><path class="cls-47" d="M229.53,443.25a1.88,1.88,0,0,1,.51-2.41c1.31-1.08,2.9-6.45,3.19-11.89a38.39,38.39,0,0,0-.5-9.14s.18,10.95-1.43,14.36S227.36,442.05,229.53,443.25Z"/><path class="cls-47" d="M277.7,418.65s2.54,9.14-6.53,20.6C271.17,439.25,282.85,433,277.7,418.65Z"/><path class="cls-47" d="M279.44,442.66a12.88,12.88,0,0,1,5.87-5.22l-1.52-.58a14.12,14.12,0,0,1,9-2.69c5.66.15,17.12,2.18,19.08,3.7,0,0-4.21-7.83-8.56-7.76l1.74,1.74s-5.58-2.16-9.39-.32l3.45.32s-13.21-.36-17.49,6.09l1.75-.21S281.25,438.74,279.44,442.66Z"/><path class="cls-47" d="M231.57,444.18a2.15,2.15,0,0,1,.5-2.83A5.22,5.22,0,0,0,231.57,444.18Z"/><path class="cls-47" d="M234.18,445.05s-.84-1.52.14-2.46A6.64,6.64,0,0,0,234.18,445.05Z"/><path class="cls-47" d="M237.66,444.84a1.58,1.58,0,0,1-.21-2.07A5.39,5.39,0,0,0,237.66,444.84Z"/><path class="cls-47" d="M226.78,443.12a2,2,0,0,1,.31-1.88Z"/><path class="cls-47" d="M224.6,442.88a1.42,1.42,0,0,1,0-2A5.38,5.38,0,0,0,224.6,442.88Z"/><path class="cls-48" d="M239.49,354.05a.23.23,0,0,0-.3-.1,4.13,4.13,0,0,1-3.2.41,3.51,3.51,0,0,1-1.83-1.57c0-.32,0-1.1,0-1.55a6.34,6.34,0,0,0,2.17-1.41c.06-.31.06-.45-.9-.72a10.75,10.75,0,0,0-3,0c-.88.5.69,1.77,1.33,2.11,0,.43,0,1.23,0,1.54-.68.89-1.35,1.32-2,1.25-1.16-.13-1.92-1.8-1.93-1.82a.21.21,0,0,0-.28-.11.22.22,0,0,0-.11.29c0,.08.87,1.92,2.27,2.07h.19a2.78,2.78,0,0,0,2-1.23,3.91,3.91,0,0,0,1.93,1.55A3.56,3.56,0,0,0,237,355a5.3,5.3,0,0,0,2.37-.62A.22.22,0,0,0,239.49,354.05Z"/><path class="cls-48" d="M245.21,349.22c-.23.65-.71,1.08-1.08.95s-.49-.76-.26-1.42.71-1.07,1.08-.94S245.44,348.57,245.21,349.22Z"/><path class="cls-48" d="M234.3,347.73c0,.49-.14.91-.42.94s-.53-.35-.58-.84.14-.91.41-.93S234.25,347.25,234.3,347.73Z"/><path class="cls-3" d="M244.13,351.05a6.22,6.22,0,0,0-6.15-.73.11.11,0,0,0,0,.15.11.11,0,0,0,.15,0,6,6,0,0,1,5.92.72l.07,0a.14.14,0,0,0,.09-.05A.11.11,0,0,0,244.13,351.05Z"/><path class="cls-3" d="M238.19,351a.11.11,0,0,0,.07.21,4.11,4.11,0,0,1,4,1,.12.12,0,0,0,.16,0,.11.11,0,0,0,0-.16A4.35,4.35,0,0,0,238.19,351Z"/><path class="cls-3" d="M238.32,351.64a.12.12,0,0,0-.09.13.11.11,0,0,0,.13.09,4.07,4.07,0,0,1,3.66,1.81.14.14,0,0,0,.09.05l.07,0a.11.11,0,0,0,0-.16A4.36,4.36,0,0,0,238.32,351.64Z"/><path class="cls-3" d="M225.77,349.86a5.52,5.52,0,0,1,5.44.52.1.1,0,0,1,0,.14.09.09,0,0,1-.13,0,5.3,5.3,0,0,0-5.25-.49h-.06a.13.13,0,0,1-.07-.06A.1.1,0,0,1,225.77,349.86Z"/><path class="cls-3" d="M230.9,350.92a.11.11,0,0,1,0,.14.11.11,0,0,1-.14,0,3.64,3.64,0,0,0-3.61.14.09.09,0,0,1-.07,0,.08.08,0,0,1-.06,0,.09.09,0,0,1,0-.13A3.83,3.83,0,0,1,230.9,350.92Z"/><path class="cls-3" d="M230.66,351.46a.09.09,0,1,1-.06.18,3.64,3.64,0,0,0-3.51.88.08.08,0,0,1-.08,0l-.06,0a.09.09,0,0,1,0-.13A3.83,3.83,0,0,1,230.66,351.46Z"/><path class="cls-14" d="M96.35,260s.8,46.54,13.68,55.25V263.64Z"/><path class="cls-14" d="M206.69,128.11a175.5,175.5,0,0,0,9.21-15.85A83.94,83.94,0,0,0,220.78,99c.7-2.12.43-5.71,0-8.49S223,87,224.31,87.11c0,0,2.29-3.75,6-1.74a2.85,2.85,0,0,1,4.18.71s1.47-.65,3.05,1.47c0,0,2.23,7.72,1.52,8.54a5.3,5.3,0,0,1-1.46,1.19s-4.36,5.66-5.28,7.13-6.34,22.5-9.37,32.39Z"/><path class="cls-49" d="M224.75,103.49a4.5,4.5,0,0,1,3.77-1c2,.58,2.47.61,2.85.14s1.3-1.26,2-1.21l.12.39a2.27,2.27,0,0,0-1.83.89s-.18.8-1.67.44A7.35,7.35,0,0,0,224.75,103.49Z"/><path class="cls-49" d="M224.31,87.11s8.89,4.48,10.88,9.52C235.19,96.63,232.94,88.47,224.31,87.11Z"/><path class="cls-49" d="M230.3,85.37l5.81,11.34C235.79,90.66,230.3,85.37,230.3,85.37Z"/><path class="cls-49" d="M234.48,86.08l2.34,10.23C237.91,91.66,234.48,86.08,234.48,86.08Z"/><path class="cls-49" d="M231.67,96l.42-.25a13.65,13.65,0,0,0-5-2c-2.21-.18-4.35-2.76-4.75-3.55a6.62,6.62,0,0,0,4.17,3.95A30.48,30.48,0,0,1,231.67,96Z"/><path class="cls-49" d="M225.91,98.19a7.52,7.52,0,0,1,2.39.87c.69.55,2.86.15,3.52.18s1.26,1.46,1.26,1.46a5.27,5.27,0,0,0-.88-2,23.74,23.74,0,0,1-2.45.15C228.56,98.84,228.12,97.94,225.91,98.19Z"/><polygon class="cls-49" points="222.94 136.8 223.56 134.72 206.69 128.11 222.94 136.8"/><polygon class="cls-20" points="126.87 411.39 126.87 418.8 145.15 418.8 145.15 409.44 126.87 411.39"/><path class="cls-50" d="M125.46,415.1s10.33,5.44,20.67,0c0,0,3.05,12.4,2.72,15.45,0,0-11.42,7.5-22.19,7.94s-17.52-2.61-17.52-2.61,1-7.25,5.44-9.07S125.13,419.56,125.46,415.1Z"/><path class="cls-51" d="M126.66,438.49c10.77-.44,22.19-7.94,22.19-7.94.33-3.05-2.72-15.45-2.72-15.45-10.34,5.44-20.67,0-20.67,0a9.91,9.91,0,0,1-2.3,5h0a7.28,7.28,0,0,1,8.28-.69c4.57,2.61,12.51-2.6,11.86-.16s-8.67,10.17-6.63,11.91-17.34,7-17.34,7l.09.11A50.37,50.37,0,0,0,126.66,438.49Z"/><path class="cls-18" d="M110.48,432.79l-1.74.8-3.19,4.94s5.8,6.09,20.74,4.85a49.25,49.25,0,0,0,25-9.5s-1.6-5.8-2.62-6l-10,5.08-.22,1.89s-12.77,3.77-19.15,3.33l-1-3.77Z"/><path class="cls-18" d="M124,316.67l1.74,81.67H124l.87,13.79a30.55,30.55,0,0,0,22.2,0l1-13.64-2.33.43,4.65-77.39Z"/><path class="cls-52" d="M124,324.57s13.5,3.7,21.76,3.48l.8,57.69,3.85-64.21L124,316.67Z"/><path class="cls-53" d="M124.91,412.13a30.55,30.55,0,0,0,22.2,0l1-13.64-2.33.43c-10,2.54-20-.58-20-.58H124Z"/><path class="cls-54" d="M148.13,398.49l-2.33.43a37.34,37.34,0,0,1-12.61.79s11.14,8.35,10.24,13.57a31.6,31.6,0,0,0,3.68-1.15Z"/><polygon class="cls-20" points="175.76 411.39 175.76 418.8 157.48 418.8 157.48 409.44 175.76 411.39"/><path class="cls-50" d="M177.18,415.1s-10.34,5.44-20.68,0c0,0-3,12.4-2.72,15.45,0,0,11.43,7.5,22.2,7.94s17.52-2.61,17.52-2.61-1-7.25-5.44-9.07S177.5,419.56,177.18,415.1Z"/><path class="cls-51" d="M176,438.49c-10.77-.44-22.2-7.94-22.2-7.94-.32-3.05,2.72-15.45,2.72-15.45,10.34,5.44,20.68,0,20.68,0a9.75,9.75,0,0,0,2.3,5h0a7.28,7.28,0,0,0-8.28-.69c-4.57,2.61-12.51-2.6-11.86-.16S168,429.46,166,431.2s17.34,7,17.34,7l-.09.11A50.47,50.47,0,0,1,176,438.49Z"/><path class="cls-18" d="M192.15,432.79l1.75.8,3.19,4.94s-5.81,6.09-20.75,4.85a49.19,49.19,0,0,1-25-9.5s1.6-5.8,2.61-6l10,5.08.22,1.89s12.76,3.77,19.15,3.33l1-3.77Z"/><path class="cls-18" d="M178.59,316.67l-1.74,81.67h1.74l-.87,13.79a30.55,30.55,0,0,1-22.2,0l-1-13.64,2.32.43-4.64-77.39Z"/><path class="cls-52" d="M178.59,324.57s-13.49,3.7-21.76,3.48L156,385.74l-3.85-64.21,26.4-4.86Z"/><path class="cls-53" d="M177.72,412.13a30.55,30.55,0,0,1-22.2,0l-1-13.64,2.32.43c10,2.54,20-.58,20-.58h1.74Z"/><path class="cls-54" d="M154.51,398.49l2.32.43a37.36,37.36,0,0,0,12.61.79s-11.13,8.35-10.24,13.57a32.21,32.21,0,0,1-3.68-1.15Z"/><path class="cls-20" d="M128.53,156.2s-1,10-7.51,15c0,0,7.52,22.34,19.07,22.34s14.79-19.39,14.79-19.39-7-3.11-7-18.06Z"/><path class="cls-49" d="M154.88,174.11s-7-3.11-7-18.06l-19.33.15a23.23,23.23,0,0,1-.45,2.57h0s8.14,7.93,16.93,5.75c0,0,3.39,12.84-4.68,20.57v8.4C151.67,193.21,154.88,174.11,154.88,174.11Z"/><path class="cls-50" d="M124.9,166.24s-19.84,10.14-23.32,13.63-18.06,66.58-18.06,66.58,10.8,18.72,26.51,17.19L106.81,318s54.83,10,85.51-3.91L178,195.53s35.25-17,38.3-21.67,11.53-34.47,11.53-34.47l-21.1-11.28-13.28,17-45.29,15.71s1.69,20.75-7.79,24.31C140.33,185.09,128.35,181.82,124.9,166.24Z"/><path class="cls-51" d="M114.06,203.8c-.73-6.38-6.92,51.18-6.94,59.9l2.91-.06S114.78,210.19,114.06,203.8Z"/><path class="cls-51" d="M176.75,152.15l-.79-1-27.84,9.66s1.69,20.75-7.79,24.31c0,0,7.48.9,11.4-13.06l1.31,11.3,5-7.49c-5.32,29.82-15.09,84.47-16.46,90.34a60.5,60.5,0,0,1-6.24,15.38l-26-2.61-.36,1L106.81,318s31.7,5.79,60.38,2.44c-4.14.5-15.56-2.69-16-8.31s-8-1.89-11.32.43S162.22,265.89,162.8,260s-16.54,23.48-19.15,27.62,5.66-31.27,10.69-56.81c3.23-16.39,5.26-42.3,6.3-58.75h0c.18-2.91.34-5.52.46-7.74a10.64,10.64,0,0,0,5-1.77l-1.89-1.22s5.66.58,8.13-1.31l-1.89-1.74S175.17,158.38,176.75,152.15Z"/><path class="cls-3" d="M127.56,224.82h0a8.36,8.36,0,0,1-8.35-8.36V203.31h16.71v13.15a8.37,8.37,0,0,1-8.36,8.36Z"/><path class="cls-28" d="M161.51,156.05l-5.85,2S146.33,260.17,135,279.64v0a11,11,0,0,0-3.26-1.87c-7.51-2.83-34.72-2-34.72-2S88.09,310,91.57,314.34s26.12,9.14,33.88,7.19,9.21-15.45,11.56-24.59c1.3-5,1.83-9.47.8-12.92C141.78,270.82,159.34,209.77,161.51,156.05Z"/><path class="cls-55" d="M125.45,321.53c7.76-2,9.21-15.45,11.56-24.59,1.3-5,1.83-9.47.8-12.92,4-13.2,21.53-74.25,23.7-128l-5.85,2S146.33,260.17,135,279.64v0a11,11,0,0,0-3.26-1.87,14.36,14.36,0,0,0-1.85-.54,9.52,9.52,0,0,1,4.63,6.63,29,29,0,0,1,0,7.83s-6.88,23.25-8.37,25c0,0-1.52,6.12-13.66,4.63C117.69,322.05,122.58,322.25,125.45,321.53Z"/><path class="cls-56" d="M93.08,293s10.24,9,14.6,9.88,25.53-10.15,26.83-11.17c0,0-4.41,21.47-8.37,25,0,0,3-9,3.15-14.22,0,0-18.28,6.09-21.61,5.51S93.08,293,93.08,293Z"/><path class="cls-3" d="M112.35,297c-.73,2.34-2.53,3.85-4,3.38s-2.11-2.73-1.39-5.07,2.53-3.84,4-3.38S113.08,294.65,112.35,297Z"/><path class="cls-50" d="M237,239.1s3.86,3,6.57,5.48l-1-.14s5.27,7.27,5.89,9.79l-.69-.59s2.5,5.92,1.54,9.1l-.67-1.09s.74,8-2.13,9.8a23.2,23.2,0,0,1-2.76-9.75l-.5,1a50.45,50.45,0,0,1-2.58-8.8l-.43,1.27S234.44,245.63,237,239.1Z"/><path class="cls-51" d="M243.75,261.7l-.5,1a50.45,50.45,0,0,1-2.58-8.8l-.43,1.27s-5.8-9.51-3.22-16c0,0,6.16,8.47,7.88,14.1l-1.13-1.32s3.94,12.82,2.74,19.57A23.2,23.2,0,0,1,243.75,261.7Z"/><path class="cls-18" d="M231.6,97.56a19.64,19.64,0,0,1,2.29,6.2c.27,2.72,2.16,3.27,3.59,2.94,2.36-.57,3.08-2.49,1.71-6.26a37.85,37.85,0,0,0-1.55-3.75s-.65.21-.82-.38c0,0-1.25.92-1.63.32,0,0-1.47,1.31-1.9.71s-1.2-1.58-1.2-1.58S230.86,96.13,231.6,97.56Z"/><path class="cls-18" d="M237.47,235.18V103.49a.44.44,0,0,0-.43-.44.44.44,0,0,0-.44.44V235.18a2.4,2.4,0,1,0,.87,0Z"/><path class="cls-57" d="M236.61,238.47s-3.74,4.54-6.28,8.16l1.16-.43s-4.28,9.94-4.35,13.05l.65-.87s-1.37,7.62.58,11.1l.51-1.45s1.23,9.65,5.08,11a27.87,27.87,0,0,0,.68-12.18l.84,1s1.09-7.1.73-11l.83,1.38S241.37,245.46,236.61,238.47Z"/><path class="cls-58" d="M234.64,266.8l.84,1s1.09-7.1.73-11l.83,1.38s4.33-12.71-.43-19.7c0,0-5,11.57-5.55,18.65l1-1.85S230.77,271.37,234,279A27.87,27.87,0,0,0,234.64,266.8Z"/><path class="cls-20" d="M166.45,149.56a14.1,14.1,0,0,0,1.68-2.72c1.2-2.56,1.39-5.11.48-6.81a3.53,3.53,0,0,0-1-1.15c-1.89-1.48-5-.83-7.75,1.36a14.53,14.53,0,0,0-2.34,2.36c-3.12,4-3.66,8.76-1.21,10.69l.15.09C159,155.14,163.39,153.46,166.45,149.56Z"/><path class="cls-20" d="M116.73,131.54c-2.88,1.18-3.66,5.93-1.75,10.61,1.74,4.25,5.11,7,7.88,6.54a3.22,3.22,0,0,0,.81-.21c2.88-1.18,3.67-5.93,1.75-10.61a13.92,13.92,0,0,0-1.83-3.22C121.56,132,118.87,130.66,116.73,131.54Z"/><path class="cls-14" d="M137.64,162.27a18.41,18.41,0,0,0,21.12-15.12l3.78-22.79-36.25-6-3.78,22.79a18.41,18.41,0,0,0,15.13,21.12Z"/><path class="cls-59" d="M147.31,137.46s5.55-1.86,8.46,1.83,1.44-2.15-1.89-3.73S149,135,149,135a1.8,1.8,0,0,0-.86-.78C146.71,133.8,144.92,138.06,147.31,137.46Z"/><path class="cls-59" d="M135.19,135.21s-4.59-3.65-8.58-1.18-.62-2.51,3-2.86,4.78,1.16,4.78,1.16a1.83,1.83,0,0,1,1.07-.43C137,132,137.23,136.58,135.19,135.21Z"/><path class="cls-23" d="M146.86,144.36a.46.46,0,0,1-.19-.5.45.45,0,0,1,.32-.33l.09-.06c3.32-2,5.54.09,6.82,2.17a.47.47,0,0,1-.15.64.46.46,0,0,1-.64-.15c-2.33-3.78-4.75-2.34-5.55-1.86a.7.7,0,0,1-.55.16A.52.52,0,0,1,146.86,144.36Z"/><path class="cls-23" d="M127.13,139.79a.47.47,0,0,1-.19-.49.48.48,0,0,1,.32-.34l.1-.06c3.31-2,5.53.1,6.81,2.18a.46.46,0,0,1-.15.64.47.47,0,0,1-.64-.15c-2.33-3.79-4.75-2.34-5.55-1.87a.69.69,0,0,1-.55.16A.51.51,0,0,1,127.13,139.79Z"/><path class="cls-60" d="M135,153l6.5,1.63S137.71,160.1,135,153Z"/><path class="cls-61" d="M145.48,158.62c-1.12-1.22-.16-3.94,2.16-6.08s5.11-2.88,6.23-1.66.16,3.94-2.16,6.08S146.61,159.84,145.48,158.62Z"/><path class="cls-61" d="M126.15,145.73c-1.5.7-1.64,3.59-.3,6.44s3.65,4.59,5.15,3.88,1.63-3.59.3-6.44S127.65,145,126.15,145.73Z"/><path class="cls-62" d="M142.27,148l-.16,0-2.38-.55-.5-.12-2.38-.55-.16,0a.38.38,0,0,0-.47.21l-.29,1.26c0,.17.11.35.33.4l.16,0s.83.31.86.75c0,0-.07.22.89.44l.46.11.5.11.46.11c1,.22,1,0,1,0,.22-.39,1.1-.3,1.1-.3l.16,0a.37.37,0,0,0,.47-.21l.29-1.26C142.64,148.26,142.49,148.08,142.27,148Z"/><path class="cls-63" d="M136.5,146.74s3.06-2.79,5.95,1.38Z"/><path class="cls-18" d="M170.88,150.27c1.83.92,4-3.3,4-3.3s-2.2,1.27-3.79-1.4c-1.4-2.36,3.57-29.39-14.37-39.93h0s3.8-.43,3.52-5.57-20-15.4-29.06-11.28c0,0,3.46-.09,4.71.46,0,0-9.94.09-13.06,4.68l3.21-1.19s-9.47,8.66-.43,14.87h0c-8.7,7.94-11.28,21.2-12.59,23.66-2.08,3.9-9.78,6.08-9.78,6.08,3.18,2.69,8.32.73,8.32.73-1.47,3-7,4.59-7,4.59a47.54,47.54,0,0,0,4.77.56C106.94,146.71,97.7,147,97.7,147c3.48,5.7,12.3,7.78,12.3,7.78l-3.43,1.89c4.77,4.24,13.63,2.56,13.63,2.56l-2.87,3.32c2.65.64,7.06-.43,10.1-1.32a20.6,20.6,0,0,1,1.1-3.26,18.76,18.76,0,0,1-4.15-5.27,19.16,19.16,0,0,1-1.53-4c-2.76.42-6.13-2.3-7.87-6.54-1.91-4.68-1.13-9.43,1.75-10.61,1.52-.62,3.3-.12,4.94,1.16a6.65,6.65,0,0,1,.6,4.08c-.45,2.18-1.06,7.87.22,10.19,0,0,1.27-13.74,4.44-15.1l7.88-3.37-2.95,3.76c7.31,1,15.46-2.17,15.46-2.17l-1.16,2.17c6.94-.43,12.59-5.73,12.59-5.73-2.21,3.15,0,9.17,0,9.17l1.42-3.44a6.61,6.61,0,0,0,0,2.56h0s-1.66,15.08-3,17.39c0,0,3.93-4.84,5.57-13.61,1.88-.73,3.68-.71,4.94.28a3.53,3.53,0,0,1,1,1.15c.91,1.7.72,4.25-.48,6.81a14.1,14.1,0,0,1-1.68,2.72c-3.06,3.9-7.45,5.57-9.93,3.83a18.5,18.5,0,0,1-7.63,7.15c-.33.17-.67.32-1,.47h0c4.13,4.46,15.55,1.67,15.55,1.67a4.28,4.28,0,0,1-2.93-4.93c2.52,3.77,9.29,1.44,9.29,1.44a5.88,5.88,0,0,1-2.08-2.56c8,2.63,9.05-4.49,9.05-4.49C172.17,154.81,170.88,150.27,170.88,150.27Z"/><path class="cls-64" d="M158.75,135.7l1.42-3.44a6.61,6.61,0,0,0,0,2.56h0s-1.66,15.08-3,17.39c0,0,3.93-4.84,5.57-13.61,1.88-.73,3.68-.71,4.94.28a3.53,3.53,0,0,1,1,1.15c.91,1.7.72,4.25-.48,6.81a14.1,14.1,0,0,1-1.68,2.72c-3.06,3.9-7.45,5.57-9.93,3.83a18.5,18.5,0,0,1-7.63,7.15c-.33.17-.67.32-1,.47h0c4.13,4.46,15.55,1.67,15.55,1.67a4.28,4.28,0,0,1-2.93-4.93c2.52,3.77,9.29,1.44,9.29,1.44a5.88,5.88,0,0,1-2.08-2.56c8,2.63,9.05-4.49,9.05-4.49-4.58,2.66-5.87-1.88-5.87-1.88,1.83.92,4-3.3,4-3.3s-2.2,1.27-3.79-1.4c-1.4-2.36,3.57-29.39-14.37-39.93h0s3.8-.43,3.52-5.57-20-15.4-29.06-11.28c0,0,7.94-2,13.8,3.16,0,0-2.95-.76-4.91,0,0,0,6.09,3.48,8.16,5.88s-18.47,6.29-22.62,9.78c0,0,13.84-3.92,19.37,0s.84,10.56-3.23,12.52c0,0,3.76.76,9.42-2.5,0,0,.76,5-1.52,7.4,0,0,5.61-1.42,7.64-4.9,0,0,1,4.9-2.49,7.08,0,0,3.33-1,4.74-3.49,0,0,.52.84-.82,2.81a4.05,4.05,0,0,0-.21.35c-.08.16-.17.34-.27.56C156.92,130.7,158.75,135.7,158.75,135.7Z"/><path class="cls-50" d="M125.64,107.61s14.9-7.43,31.11-2C156.75,105.64,140.85,92.23,125.64,107.61Z"/><path class="cls-6" d="M750,362.41s-25,4.71-22,33.15c0,0-21-2.76-24,23.34,0,0-55.94-11.33-67.47,32.39,0,0-38.12-2.29-62.33,27.71,0,0-67.68-21-84.44,21H750Z"/><path class="cls-6" d="M0,388.58c4-2.58,44-2.41,57,34.5,0,0,27.27-10.4,38.64,31.76,0,0,32.7-20.84,67,21.16,0,0,25.64-13,39.49,4,0,0,93.72-18,129.78,20H0Z"/></g></svg>