<svg id="canyon" xmlns="http://www.w3.org/2000/svg" viewBox="0 0 5774.94 2906.4"><defs><style>.cls-1{fill:#d1edf4;}.cls-2{fill:#fff;}.cls-3{fill:#ffd800;}.cls-4{fill:#00b093;}.cls-5{fill:#008480;}.cls-6{fill:#d07541;}.cls-7{fill:#00bfa5;}.cls-8{fill:#009b7f;}.cls-9{fill:#00cca9;}.cls-10{fill:#34e2c2;}.cls-11{fill:#2fd3b8;}.cls-12{fill:#00f2f8;}</style></defs><polygon class="cls-1" points="5010.07 607.78 5010.07 774.78 4877.28 774.78 4877.28 1444.61 4797.4 1444.61 4797.4 1158.41 4025.25 1158.41 4025.25 1444.61 3847 1444.61 3847 996.4 3074.85 996.4 3074.85 1430.96 2982.96 1430.96 2982.96 1049.1 2873.89 1049.1 2873.89 823.15 2664.98 823.15 2664.98 1049.1 2555.91 1049.1 2555.91 1444.61 2490 1444.61 2490 626.32 2062.96 626.32 2062.96 1444.61 1885.33 1444.61 1885.33 1052.85 1808 1052.85 1808 799.41 1380.95 799.41 1380.95 1052.85 1303.62 1052.85 1303.62 1172.07 1100.52 1172.07 1100.52 823.15 518.81 823.15 518.81 1444.61 446.11 1444.61 446.11 696.25 0 696.25 0 1444.61 0 1824.83 0 2906.4 5774.94 2906.4 5774.94 1736.36 5774.94 1736.36 5774.94 606.43 5010.07 607.78"/><path class="cls-2" d="M3826.82,1091.49H5058.89s-40.92-284-206.7-214c0,0-113-214.8-279-98.13,0,0-292.05-135.65-333.21,170.39Z"/><path class="cls-2" d="M2320.24,413.09H961.06S1139.59,88.83,1421.92,251c0,0,181-61.22,347.15,58.37Z"/><path class="cls-2" d="M5004.94,207.53H3645.76S3824.29-116.74,4106.62,45.4c0,0,181-61.22,347.15,58.37Z"/><path class="cls-2" d="M3509.61,1192.1H2150.43S2329,867.83,2611.29,1030c0,0,181-61.22,347.15,58.36Z"/><path class="cls-2" d="M0,866.21H1008.68L500.85,797.74s16.63-101.49-54.74-101.49c0,0-5.71-282.71-213.08-249.32,0,0-68.76-198.55-233-98.4Z"/><ellipse class="cls-3" cx="2946.84" cy="342.17" rx="244.17" ry="188.1"/><path class="cls-4" d="M0,1552.59s528.37-211.89,1061.13,72.7c0,0,361.82-632.48,963.18-120.57s1306.45,795.31,1729.36,644,927.88-1217.15,1413-1057.19c0,0,192.49-378.93,608.29-237V2208.9H0Z"/><polygon class="cls-5" points="102.02 2132.3 158.7 1950.81 192.5 2041.56 213.67 1976.6 233.03 2013.67 271.42 1785.3 308 1950.81 321.47 1899.48 343.75 1933.59 394.62 1722.7 435.05 1933.59 102.02 2132.3"/><polygon class="cls-5" points="5774.94 971.72 5717.19 1208.55 5678.69 1062.63 5640.19 1221.79 5574.74 1099.53 5532.39 1250.14 5505.44 1189.88 5366.84 1331.52 5774.94 1331.52 5774.94 971.72"/><polygon class="cls-5" points="1552.22 1703.82 1620.83 1454.74 1674.73 1691.81 1737.92 1602.94 1778.48 1722.7 1814.29 1646.44 1880.13 1788.12 1552.22 1788.12 1552.22 1703.82"/><path class="cls-4" d="M0,755.2s158.7-33.34,212.29,79.39c0,0,63.9-31.76,96.87,14.29,0,0,94.81,13.71,94.81,208.51,0,0,96.88,34.42,96.88,152.71H0Z"/><path class="cls-6" d="M445.84,1146.43c-.24-5.26-6-9.38-12.8-9.18s-12.16,4.6-11.92,9.86c.07,1.43,5.88,143.3-50.16,188a54.47,54.47,0,0,1-19.44,10.1c13.83-61.06,17.09-111,17.4-116.43.31-5.25-5-9.71-11.79-9.94s-12.6,3.82-12.92,9.08c-.1,1.84-6.51,100.24-39.6,191a39.63,39.63,0,0,1-15.05-7.81c-59.57-48-61.11-257.29-56.67-333.89.31-5.26-5-9.71-11.8-9.94s-12.6,3.84-12.91,9.09c-.67,11.58-15.54,284.23,63.51,347.91a65.84,65.84,0,0,0,25.84,12.91c-27.6,66.93-71,125.53-138.83,131.92V1150.56c0-5.26-5.53-9.53-12.36-9.53S134,1145.3,134,1150.56v317.92a60.47,60.47,0,0,1-27.09-13.1c-80.33-66.11-59.72-317.67-59.5-320.2.45-5.25-4.71-9.79-11.52-10.14s-12.71,3.63-13.16,8.88c-.92,10.68-21.49,262.37,66.12,334.47A87.27,87.27,0,0,0,134,1487.91V2129.1c0,5.26,5.54,9.52,12.37,9.52s12.36-4.26,12.36-9.52V1588.28c109.56-8.17,162.57-124.34,187.87-222.56a81.13,81.13,0,0,0,42.19-17.37C452.06,1297.83,446.12,1152.59,445.84,1146.43Z"/><path class="cls-7" d="M0,936.21s157.67-37.73,197.87,87.12c0,0,68-21.18,86.56,44.69,0,0,182.41-15.11,185.5,120.65,0,0,68.47-42.23,105.6,21.43H0Z"/><path class="cls-8" d="M171.07,1249s28.86-105.87,79.35-81.52c0,0,48.44-73.35,106.15-45.14,0,0,51.53-17.57,78.32,60.1,0,0,55.92-3.3,81.55,66.56Z"/><path class="cls-6" d="M5284.66,906c62-68.08,113.13-161.09,113.13-282.87,0-6.55-6.89-11.86-15.4-11.86s-15.4,5.31-15.4,11.86c0,99.63-34.63,188.17-102.83,264.5-31-7.64-141-52.74-141-307.37,0-6.56-6.9-11.87-15.4-11.87s-15.4,5.31-15.4,11.87c0,248.2,104.55,311.29,153.05,327.2a576.25,576.25,0,0,1-72.81,61.44c-70.19,50.15-141.14,79.08-175.2,91.3V560.8c0-6.56-6.9-11.87-15.4-11.87s-15.4,5.31-15.4,11.87v651.32c-16.62-2.64-31.86-9.66-46.22-21.33-46.52-37.8-74.72-115.35-91.57-203.47a9.2,9.2,0,0,0-.46-2.39c-35.23-186.89-19.86-420-19.62-423.5.46-6.54-6.06-12.13-14.56-12.48s-15.75,4.67-16.2,11.21c-1,13.82-15.21,230.55,17.52,414.81-183-21-186.92-361.36-186.94-364.91,0-6.53-6.92-11.82-15.4-11.82h-.06c-8.5,0-15.37,5.36-15.34,11.91.08,15.59,4.34,375,222.37,389.08,18.21,89,48.44,167.68,97.89,207.88,20.38,16.56,43.42,26.22,68.59,29v396.92c0,6.55,6.89,11.86,15.4,11.86s15.4-5.31,15.4-11.86V1086.26c28.21-9.26,111.26-39.51,195.25-99.3a581.82,581.82,0,0,0,89.2-77.82A12.35,12.35,0,0,0,5284.66,906Z"/><path class="cls-4" d="M5474.08,448.25c0-252.12-122.71-269.87-122.71-269.87-42.68-59.6-125.38-18.5-125.38-18.5C5166.31,34.33,5006,48.76,4962.41,55.23c-43.61-6.47-203.9-20.9-263.59,104.65,0,0-82.69-41.1-125.38,18.5,0,0-122.71,17.75-122.71,269.87,0,0-125.38,44.55-125.38,197.66H5599.46C5599.46,492.8,5474.08,448.25,5474.08,448.25Z"/><path class="cls-7" d="M5559.45,618.16c-4-175.71-240.09-156.15-240.09-156.15-24-85.26-112-57.84-112-57.84-44.72-138.92-201.7-122.33-244.91-114.94-43.21-7.39-200.19-24-244.91,114.94,0,0-88-27.42-112,57.84,0,0-236.09-19.56-240.09,156.15,0,0-88.62-54.65-136.68,27.75H5696.13C5648.07,563.51,5559.45,618.16,5559.45,618.16Z"/><path class="cls-8" d="M5172.64,696.26s37.35-137,102.7-105.51c0,0,62.69-94.95,137.39-58.43,0,0,66.69-22.75,101.37,77.79,0,0,72.37-4.28,105.55,86.15Z"/><path class="cls-8" d="M4303.43,540.46s37.35-137,102.71-105.51c0,0,62.69-94.95,137.38-58.43,0,0,66.7-22.75,101.38,77.79,0,0,72.37-4.28,105.54,86.15Z"/><path class="cls-7" d="M0,2208.9s905.86-777.85,1899.85-423.83S3601,2014.88,4087.37,1817s1133.17-542.95,1687.57-542.95V2208.9Z"/><path class="cls-9" d="M575.53,2060.89c71.26-109.5,500.88-117.87,406.71-34.6s870.87,58.06,701.48-73.67,1000.88,115.71,1457.8,65.15c18.75-2.08,34.46-5.45,47.43-10C2826,2020,2399.14,1962.9,1899.85,1785.07,905.86,1431.05,0,2208.9,0,2208.9H741.86S504.27,2170.4,575.53,2060.89Z"/><path class="cls-9" d="M4087.37,1817c-142.71,58-304.46,109.74-486.86,144.89,0,0,347,25,834.64-196.4s918.86-254,739.2-119.09-118.07,285.18,154,257.49,30.8,305-282.33,305h728.93V1274.09C5220.54,1274.09,4573.75,1619.21,4087.37,1817Z"/><rect class="cls-10" y="2208.9" width="5774.94" height="697.49"/><path class="cls-11" d="M5474.34,2364.16c0-77.26-597.32-139.9-1334.16-139.9S2806,2286.9,2806,2364.16c0,16.52,27.4,32.38,77.57,47.09-150.13,11-278.38,25.77-375.3,43.25-208.24-18.19-476.63-29.15-769.6-29.15-662.12,0-1198.87,56-1198.87,125s536.75,125,1198.87,125c361.93,0,686.4-16.72,906.22-43.15,218.21,27.05,524.94,43.89,864.71,43.89,662.32,0,1199.24-64,1199.24-142.89,0-13.93-16.82-27.4-48.05-40.14C5139,2471.73,5474.34,2422.05,5474.34,2364.16Z"/><path class="cls-12" d="M0,2906.4c13.18-3.34,36.9-9.69,65.49-19.49a769.43,769.43,0,0,0,116.77-50.85c75.12-39.85,204.2-63.58,305.12-82.13,247.13-45.43,450.51-42.46,507.18-41.07,148.89,3.66,161.89,17.86,337.38,21.69,153.19,3.33,260.53-4.94,325.15-8.78,459.25-27.31,839.3,45.37,1221.82,35.47,86.47-2.24,162-5.25,264.09-17.29,128.65-15.18,168.49-33,387.46-32.26,612.33,2.17,559.2,28.31,827-12.54h0A2711.76,2711.76,0,0,1,4803.73,2680c47.26,1.89,251.39,10,402,47,11.16,2.73,39.17,9.83,78.56,17.23,96.44,18.11,159.43,19,197.23,23,59.55,6.42,143,30.18,240.63,109.89h0c23.83,12.55,42.47,23.24,52.8,29.27Z"/></svg>