<svg xmlns="http://www.w3.org/2000/svg" viewBox="0 0 5774.95 2912.31"><defs><style>.cls-1{fill:#ffefe6;}.cls-2{fill:#e0cec7;}.cls-3{fill:#e2b593;}.cls-4{fill:#d6a787;}.cls-5{fill:#ff6044;}.cls-6{fill:#362e6d;}.cls-7{fill:#af8d6a;}.cls-8{fill:#a38366;}.cls-9{fill:#937358;}.cls-10{fill:#1c0a3f;}.cls-11{fill:#fff;}</style></defs><g id="OBJECTS"><path class="cls-1" d="M1867.32,2059s-11.54-44.57-19.5-40.59-30.24,44.57-30.24,44.57-21.49,9.15-26.27,13.92a105.86,105.86,0,0,0-9.55,11.54s-6,1-8.16,2-10.94,1.79-13.13-1.19c0,0,.4,5.37,2.79,7.36,0,0-7.56,1.39-9,4.38h4.38s-14.72,25.07-12.93,36.41l2-5s7.16,25.46,7,34-13.93,23.48-18.1,25.87-12.54,1.19-13.93-2.39c0,0,1.59,7.16,5.77,10,0,0-20.69,7.16-27.06,3.58,0,0,4.57,13.73,13.33,14.52,0,0-8.76,9.55-17.31,15.12a22.82,22.82,0,0,0,12.34-2.38s-7.76,16.71-18.71,22.08c0,0,10.15.6,16.72-3.78,0,0-6.77,47.95-18.11,59.3,0,0,11.54-3,15.32-7.57,0,0-1.19,47.36,4.58,56.71l6.56-16.31s0,39,7.36,46.16l2.19-9.95s7.56,18.5-2.38,25.07c0,0,8.35,3.78,13.72,1.79,0,0,2.19,33.62,4.58,39.2l3.58-6.77s5.57,69.24,5.17,82.77-1.59,18.71-.79,25.07-1.59,30.25-5.57,35.42-14.73,14.72-10,23.08,11.54,3.58,11.54,3.58,4.38,3.51,11.94,1.36c0,0,6.36,6.74,15.12.7,0,0,2.79,6.7,11.14,5.1,0,0,3.19,8.76,14.33,4.78,0,0,8.75,5.17,19.1-1.19,0,0,8,1.19,14.72-8.76s6.37-20.29,10.35-20.29,23.08,2.38,23.08,2.38-7.16,11.94-.8,14.33c0,0,2.39,10.74,12.74,5.17,0,0,1.59,6.37,12.73,2,0,0,6,3.19,19.5-1.59s17.91-6.37,41-6,29.45.4,38.6-5.17,11.94-12.74,11.94-12.74,8,12.74,19.1,14.33l-2.39-7.16s6,9.55,15.92,8.75v-6.76s8,8.75,12.73,9.55c0,0-6,18.7-4,25.47,0,0,3.58-26.67,55.71-25.07s93.52,31,93.52,31h-12.73s8,14.73,34.62,21.49,84-9.15,92.72-38.6,1.59-120.57-27.46-139.28-78-39.39-78-39.39l20.7-2.39s-37-31.44-80-7.16-69.24,49.74-85.95,45.76-28.26-74.81-39.8-99.48l9.55,4s-25.07-52.13-40.19-72-33.43-54.52-33.43-54.52l9.16,6.77-9.56-23.88s-6.36-29.85-4.37-44.57,4-20.69,4-20.69l4.77-6s-13.93,2-20.69,2c0,0,9.15-6.77,15.92-7.56,0,0-4.78-6-6-17.11s-8.36-47.76-8.36-47.76,6-72.82-.79-67.25-44.57,40.19-44.57,40.19S1878.86,2057.79,1867.32,2059Z"/><path class="cls-2" d="M1950.14,2232.15l-2.83-19.12-.64-8s-1.35-15.91-6.93-19.54-43.37,1.24-89.11,11.59-94.34-25.07-94.34-25.07l-15.47,16.78s8.42,21.52,26.27,34.95c0,0-5.33,25.52,9.25,33.85s26.46-4.8,26.46-4.8,38.25,29.85,58.55,26.27l-6.41-7.17s24.32,4,40.63-6.76l-8.35-3.58S1935.46,2246.94,1950.14,2232.15Z"/><path class="cls-1" d="M1935.77,2029.14l1.31.07A.84.84,0,0,0,1935.77,2029.14Z"/><path class="cls-3" d="M1810,2210.2l-3.59-7.16s17.51,7.56,30.25,7.16l-2-4.77s28.65,7.16,45.36.79l-6-3.58s33,2.79,47.76-4.77l-5.18-3.19s27-14,30,10.34h0a65,65,0,0,1,.24-11.53c2-14.72,4-20.69,4-20.69l4.77-6s-13.93,2-20.69,2c0,0,9.15-6.77,15.92-7.56,0,0-4.78-6-6-17.12s-8.36-47.75-8.36-47.75,5.09-62.16.52-67.18l-1.31-.07s-4.78,62.48-13.54,72.43c0,0-3.18-9.55-9.55-13.93l6.77-.4-28.25-17.91s-12.34-11.54-23.88-10.34c0,0-11.54-44.57-19.5-40.59,0,0,4,34.22-.8,39.79l-29.44,4.78s-21.49,9.15-26.27,13.92a105.86,105.86,0,0,0-9.55,11.54s-6,1-8.16,2-10.94,1.79-13.13-1.19c0,0,.4,5.37,2.79,7.36,0,0-7.56,1.39-9,4.38h4.37s-14.72,25.07-12.93,36.41l2-5s7.16,25.46,7,34a11.53,11.53,0,0,1-.38,2.42h0S1777.78,2208.21,1810,2210.2Z"/><path class="cls-4" d="M1754.34,2168.86s23.44,39.35,55.68,41.34l-3.59-7.16s17.51,7.56,30.25,7.16l-2-4.77s28.65,7.16,45.36.79l-6-3.58s33,2.79,47.76-4.77l-5.18-3.19s27-14,30,10.34h0a65,65,0,0,1,.24-11.53c2-14.72,4-20.69,4-20.69l4.77-6s-13.93,2-20.69,2c0,0,9.15-6.77,15.92-7.56,0,0-4.78-6-6-17.12s-8.36-47.75-8.36-47.75,4.38,56.91-4.77,61.28-9.56,13.14-20.7,23.93-65.7,7.51-65.7,7.51l7.54,7.44c-23.54,1.88-56.15-9.43-56.15-9.43l3.69,6.77c-14.33,3.58-45.77-27.46-45.77-27.46a11.53,11.53,0,0,1-.38,2.42Z"/><path class="cls-5" d="M1740.82,2188.78s75.26,103.86,209.32,34.16l-3.56-20.27s-128.18,59.32-192.26-33.82C1754.32,2168.85,1738.87,2179.69,1740.82,2188.78Z"/><path class="cls-6" d="M1802.1,2241c-2.71,12.06-12.59,20.1-22.07,18s-15-13.64-12.24-25.7,12.59-20.11,22.07-18S1804.82,2229,1802.1,2241Z"/><path class="cls-7" d="M1750.32,2519.4c-.39,13.53-1.59,18.71-.79,25.07s-1.59,30.25-5.57,35.42-14.73,14.72-10,23.08,11.54,3.58,11.54,3.58,4.38,3.51,11.94,1.36c0,0,6.37,6.74,15.12.7,0,0,2.79,6.7,11.14,5.1,0,0,3.19,8.76,14.33,4.78,0,0,8.75,5.17,19.1-1.2,0,0,8,1.2,14.72-8.75s6.37-20.29,10.35-20.29,23.08,2.38,23.08,2.38-7.16,11.94-.8,14.33c0,0,2.39,10.74,12.74,5.17,0,0,1.59,6.37,12.73,2,0,0,6,3.19,19.5-1.59s17.91-6.37,41-6,29.45.4,38.6-5.17,11.94-12.74,11.94-12.74,8,12.74,19.1,14.33l-2.39-7.16s6,9.55,15.92,8.75v-6.76s8,8.75,12.73,9.55c0,0-6,18.7-4,25.47,0,0,3.58-26.67,55.71-25.07s93.52,31,93.52,31h-12.73s8,14.73,34.62,21.49,84-9.15,92.72-38.6,1.59-120.57-27.46-139.28-78-39.39-78-39.39l20.7-2.39s-37-31.44-80-7.16-69.24,49.74-85.95,45.76-28.26-74.81-39.8-99.48l9.55,4s-25.07-52.12-40.19-72-33.43-54.52-33.43-54.52l9.16,6.77-9.56-23.88s-2.23-10.54-3.64-22.18c0,0-2.52,28.75-4.91,36.5l-4.18-11.34s-22.09,31.64-39.4,40.59c0,0,25.07-3.58,37-14.32,0,0-11.94,25.66-24.47,31,0,0,17.31,1.79,27.46-5.38,0,0-15.52,19.11-29.85,23.88,0,0,13.73,2.39,24.48-6,0,0-26.27,25.17-49.55,28.11,0,0,6.57,11.29,20.3,13.08,0,0-17.31,4.18-29.25,0,0,0,6,5.37,6.56,17.91,0,0-6.56-4.18-10.74-4.78,0,0,1.19,18.5-23.28,31V2385.5s-13.73,16.71-34,21.48l6-19.1s-16.12,12.54-33.43,19.1l6-15.52s-22.09,6-26.86,26.27l-6-15.52s-15.36,21.26-14.33,34.42C1745.15,2436.63,1750.72,2505.87,1750.32,2519.4Z"/><path class="cls-8" d="M1923.42,2576.21s6.87-.48,18.71-17.41,1.2-56.51,1.2-56.51c-6.77-81.18,73.61-64.85,73.61-64.85-97.89-25.86-96.3,94.7-96.3,94.7-3.18-21.09-31.15-29-31.15-29,2.67,6.36,0,17.9,0,17.9-8.08-37.4-38.09-47.35-38.09-47.35,7.56,8.75,8.76,25.47,8.76,25.47,8.75,31.43-17.91,89.14-17.91,89.14,4,0,23.08,2.38,23.08,2.38C1877.67,2567.55,1923.42,2576.21,1923.42,2576.21Z"/><path class="cls-8" d="M2224.27,2621.27l13.33,9.56c-22.68,4.77-63.87-20.3-124.95-32.64-52-10.5-66.37,20.53-69.48,30,2.51-6.7,13-23.7,54.95-22.41,52.13,1.59,93.52,31,93.52,31h-12.73s8,14.73,34.62,21.49,84-9.15,92.72-38.6c3.8-12.78,4.59-37.17,1.91-62.23-6.07,21.79-18.85,41-29.37,51.16C2257.3,2629.37,2224.27,2621.27,2224.27,2621.27Z"/><path class="cls-8" d="M2070.27,2573.52c61.28-51.33,154,5.57,154,5.57-20.49-58.29-70.24-61.08-102.47-64.66s-38.2,9-38.2,9c5.37-1.19,11.94,1.79,11.94,1.79-17.33,4.73-34.39,18-42.45,20l-3.26-14.89c1.31-18.95-8.22-44.82-11.72-53.56v0l0,0c-.75-1.89-1.25-3-1.25-3,.12.46.2.91.31,1.37-2.84-4.47-12.58-16.12-36.12-14.5-29,2-33.43,21.88-33.43,21.88,3.58-2.78,11.24-2.38,11.24-2.38-17.82,9.94-16,26.26-16,26.26l10-5.17c-6.36,12.73,10,63.67,5.18,77.2s-21.89,21.88-41.39,22.65c-19.09.76-30,10.21-30.42,10.6,1.09-.3,2.16-.6,3.36-1,13.53-4.77,17.91-6.37,41-6s29.45.4,38.6-5.17,11.94-12.74,11.94-12.74,8,12.74,19.1,14.33l-2.39-7.16s6,9.55,15.92,8.75v-6.76s8,8.75,12.73,9.55l32.23-28.65Z"/><path class="cls-9" d="M1842.25,2588.25s26.26-54.12,17.91-89.14c0,0,11.93,29,8,46.16,0,0,11.14-4,12.33-9.55,0,0,2,21.09-7.16,30.64,0,0,13.93-6.77,26.26-4l-7.16,4.78s25.87,5.17,35,.39,17.51-23.87,17.51-33.42-15.92-61.68,11.94-84.77,51.33-17.44,62.07-11.5c0,0-27.85-7.6-56.9,15.48s-10,73.62-10,80.79-8.75,31.43-13.53,35a43.75,43.75,0,0,0,19.9-4s-7.56,10.74-38.6,11.14-49.74,3.58-54.52,14.32Z"/><path class="cls-9" d="M1890,2612.12s2.39-13.53,12.74-15.52C1902.74,2596.6,1886.42,2595.41,1890,2612.12Z"/><path class="cls-9" d="M1878.59,2612.12s-.63-17.71,13.7-19.5C1892.29,2592.62,1870,2589.54,1878.59,2612.12Z"/><path class="cls-9" d="M1864.53,2605s1.2-16.22,18.51-19.2C1883,2585.76,1868.71,2592.22,1864.53,2605Z"/><path class="cls-9" d="M1772.61,2608.61a10.29,10.29,0,0,1,2.79-13.25c7.16-5.92,15.91-35.37,17.5-65.21s-2.78-50.14-2.78-50.14,1,60.08-7.85,78.79S1760.68,2602,1772.61,2608.61Z"/><path class="cls-9" d="M2036.84,2473.64s13.93,50.14-35.81,113C2001,2586.65,2065.1,2552.43,2036.84,2473.64Z"/><path class="cls-9" d="M2046.39,2605.36s11.14-20.3,32.24-28.65l-8.36-3.19s18.3-15.52,49.34-14.72,93.92,11.94,104.66,20.29c0,0-23.08-43-47-42.58l9.55,9.55s-30.64-11.87-51.53-1.75l18.9,1.75s-72.42-2-95.9,33.43l9.55-1.19S2056.34,2583.87,2046.39,2605.36Z"/><path class="cls-9" d="M1783.75,2613.71s-5.57-9.15,2.79-15.52C1786.54,2598.19,1782.21,2607.2,1783.75,2613.71Z"/><path class="cls-9" d="M1798.08,2618.49s-4.58-8.36.79-13.53C1798.87,2605,1796.83,2613.32,1798.08,2618.49Z"/><path class="cls-9" d="M1817.18,2617.29s-5.77-5.76-1.14-11.34C1816,2606,1815.49,2614.81,1817.18,2617.29Z"/><path class="cls-9" d="M1757.49,2607.91s-2.19-6.48,1.69-10.36Z"/><path class="cls-9" d="M1745.55,2606.55a7.8,7.8,0,0,1,0-11.19S1744.16,2603.62,1745.55,2606.55Z"/><path class="cls-10" d="M1827.2,2119.25a1.2,1.2,0,0,0-1.6-.55c-6.56,3.24-12.49,4-17.6,2.22a19.16,19.16,0,0,1-10-8.58c0-1.75,0-6.06,0-8.51,3.37-1.29,11.66-6.28,11.92-7.74.29-1.69.29-2.48-5-4s-16.61,0-16.61,0c-4.83,2.77,3.79,9.71,7.28,11.57,0,2.39.05,6.75,0,8.48-3.7,4.9-7.39,7.23-10.84,6.84-6.34-.69-10.52-9.87-10.56-10a1.21,1.21,0,0,0-1.58-.61,1.2,1.2,0,0,0-.6,1.58c.19.43,4.76,10.52,12.47,11.36a8.89,8.89,0,0,0,1,.06c3.73,0,7.45-2.35,11.08-6.77a21.06,21.06,0,0,0,10.58,8.5,19.72,19.72,0,0,0,6.51,1.08,29.53,29.53,0,0,0,13-3.39A1.2,1.2,0,0,0,1827.2,2119.25Z"/><path class="cls-10" d="M1858.6,2092.73c-1.25,3.58-3.9,5.91-5.93,5.2s-2.65-4.18-1.4-7.76,3.9-5.91,5.93-5.2S1859.85,2089.15,1858.6,2092.73Z"/><path class="cls-10" d="M1798.75,2084.58c.26,2.68-.76,5-2.27,5.11s-3-1.9-3.21-4.58.75-5,2.27-5.12S1798.49,2081.9,1798.75,2084.58Z"/><path class="cls-11" d="M1852.68,2102.78c-17.4-12.2-33.59-4.1-33.75-4a.6.6,0,0,0,.55,1.06c.16-.08,15.72-7.84,32.52,3.94a.6.6,0,0,0,.34.11.6.6,0,0,0,.34-1.09Z"/><path class="cls-11" d="M1820.09,2102.44a.61.61,0,0,0-.37.77.6.6,0,0,0,.77.36c.11,0,11.39-3.89,21.73,5.64a.59.59,0,0,0,.41.16.63.63,0,0,0,.44-.19.6.6,0,0,0,0-.85C1832.14,2098.31,1820.2,2102.41,1820.09,2102.44Z"/><path class="cls-11" d="M1820.84,2106a.6.6,0,0,0,.16,1.19c.11,0,11.93-1.52,20.14,9.94a.58.58,0,0,0,.48.25.66.66,0,0,0,.35-.11.61.61,0,0,0,.14-.84C1833.48,2104.42,1821,2106,1820.84,2106Z"/><path class="cls-11" d="M1751.94,2096.26c17.3-7.27,29.75,2.76,29.87,2.85a.53.53,0,0,1-.67.82c-.13-.1-12.09-9.71-28.8-2.7a.48.48,0,0,1-.31,0,.5.5,0,0,1-.38-.31A.54.54,0,0,1,1751.94,2096.26Z"/><path class="cls-11" d="M1780.13,2102.08a.53.53,0,1,1-.56.9c-.09-.06-9.1-5.49-19.82.79a.51.51,0,0,1-.38.06.56.56,0,0,1-.34-.25.53.53,0,0,1,.19-.72A21.05,21.05,0,0,1,1780.13,2102.08Z"/><path class="cls-11" d="M1778.81,2105a.53.53,0,0,1-.37,1c-.08-.05-10-3.54-19.24,4.81a.55.55,0,0,1-.46.12.53.53,0,0,1-.24-.91A21,21,0,0,1,1778.81,2105Z"/></g></svg>