<svg xmlns="http://www.w3.org/2000/svg" viewBox="0 0 5774.95 2912.31"><defs><style>.cls-1{fill:#d7ebf2;}.cls-2{fill:#fff;}.cls-3{fill:#f3d632;}.cls-4{fill:#63ad92;}.cls-5{fill:#4a827f;}.cls-6{fill:#b97446;}.cls-7{fill:#6bbda4;}.cls-8{fill:#57997f;}.cls-9{fill:#73caa8;}.cls-10{fill:#85e0c1;}.cls-11{fill:#7cd1b7;}.cls-12{fill:#87f1f7;}.cls-13{fill:#ffefe6;}.cls-14{fill:#e0cec7;}.cls-15{fill:#e2b593;}.cls-16{fill:#d6a787;}.cls-17{fill:#ff6044;}.cls-18{fill:#362e6d;}.cls-19{fill:#af8d6a;}.cls-20{fill:#a38366;}.cls-21{fill:#937358;}.cls-22{fill:#1c0a3f;}.cls-23{fill:#ffcab1;}.cls-24{fill:#f85;}.cls-25{fill:#ffb588;}.cls-26{fill:#ffa70e;}.cls-27{fill:#e28c10;}.cls-28{fill:#561064;}.cls-29{fill:#481056;}.cls-30{fill:#8b5a94;}.cls-31{fill:#7e5189;}.cls-32{fill:#21214f;}.cls-33{fill:#292659;}.cls-34{fill:#f20f45;}.cls-35{fill:#bc1d52;}.cls-36{fill:#c4493a;}.cls-37{fill:#2c2636;}.cls-38{fill:#c04336;}.cls-39{fill:#df7660;}.cls-40{fill:#ea344f;}.cls-41{fill:#e0a38b;}.cls-42{fill:#4c105b;}.cls-43{fill:#ef9f73;}.cls-44{fill:#f2819f;}.cls-45{fill:#d67095;}.cls-46{fill:#440e51;}.cls-47{fill:#7d2193;}.cls-48{fill:#d65479;}.cls-49{fill:#e080a0;}.cls-50{fill:#440f51;}.cls-51{fill:#d86c98;}.cls-52{fill:#403379;}.cls-53{fill:#504793;}.cls-54{fill:#474289;}.cls-55{fill:#958fe2;}.cls-56{fill:#f9bbcf;}.cls-57{fill:#c58059;}.cls-58{fill:#bf7956;}.cls-59{fill:#a86547;}.cls-60{fill:#353535;}.cls-61{fill:#1e1d1d;}.cls-62{fill:#e03451;}.cls-63{fill:#efcdca;}.cls-64{fill:#00847f;}</style></defs><g id="OBJECTS"><polygon class="cls-1" points="5010.07 613.7 5010.07 780.7 4877.28 780.7 4877.28 1450.53 4797.4 1450.53 4797.4 1164.33 4025.25 1164.33 4025.25 1450.53 3847 1450.53 3847 1002.32 3074.85 1002.32 3074.85 1436.88 2982.96 1436.88 2982.96 1055.02 2873.89 1055.02 2873.89 829.07 2664.98 829.07 2664.98 1055.02 2555.91 1055.02 2555.91 1450.53 2490 1450.53 2490 632.24 2062.96 632.24 2062.96 1450.53 1885.33 1450.53 1885.33 1058.77 1808 1058.77 1808 805.33 1380.95 805.33 1380.95 1058.77 1303.62 1058.77 1303.62 1177.99 1100.52 1177.99 1100.52 829.07 518.81 829.07 518.81 1450.53 446.11 1450.53 446.11 702.17 0 702.17 0 1450.53 0 1830.75 0 2912.32 5774.94 2912.32 5774.94 1742.28 5774.94 1742.28 5774.94 612.35 5010.07 613.7"/><path class="cls-2" d="M3826.82,1097.41H5058.89s-40.92-284-206.7-214c0,0-113-214.8-279-98.13,0,0-292-135.65-333.21,170.39Z"/><path class="cls-2" d="M2320.24,419H961.06s178.53-324.26,460.86-162.09c0,0,181-61.22,347.15,58.37Z"/><path class="cls-2" d="M5004.94,213.45H3645.76s178.53-324.27,460.86-162.13c0,0,181-61.22,347.15,58.37Z"/><path class="cls-2" d="M3509.61,1198H2150.43s178.57-324.27,460.86-162.1c0,0,181-61.22,347.15,58.36Z"/><path class="cls-2" d="M0,872.13H1008.68L500.85,803.66s16.63-101.49-54.74-101.49c0,0-5.71-282.71-213.08-249.32,0,0-68.76-198.55-233-98.4Z"/><ellipse class="cls-3" cx="2946.84" cy="348.09" rx="244.17" ry="188.1"/><path class="cls-4" d="M0,1558.51s528.37-211.89,1061.13,72.7c0,0,361.82-632.48,963.18-120.57s1306.45,795.31,1729.36,644,927.88-1217.15,1413-1057.19c0,0,192.49-378.93,608.29-237V2214.82H0Z"/><polygon class="cls-5" points="102.02 2138.22 158.7 1956.73 192.5 2047.48 213.67 1982.52 233.03 2019.59 271.42 1791.22 308 1956.73 321.47 1905.4 343.75 1939.51 394.62 1728.62 435.05 1939.51 102.02 2138.22"/><polygon class="cls-5" points="5774.94 977.64 5717.19 1214.47 5678.69 1068.55 5640.19 1227.71 5574.74 1105.45 5532.39 1256.06 5505.44 1195.8 5366.84 1337.44 5774.94 1337.44 5774.94 977.64"/><polygon class="cls-5" points="1552.22 1709.74 1620.83 1460.66 1674.73 1697.73 1737.92 1608.86 1778.48 1728.62 1814.29 1652.36 1880.13 1794.04 1552.22 1794.04 1552.22 1709.74"/><path class="cls-4" d="M0,761.12s158.7-33.34,212.29,79.39c0,0,63.9-31.76,96.87,14.29,0,0,94.81,13.71,94.81,208.51,0,0,96.88,34.42,96.88,152.71H0Z"/><path class="cls-6" d="M445.84,1152.35c-.24-5.26-6-9.38-12.8-9.18s-12.16,4.6-11.92,9.86c.07,1.43,5.88,143.3-50.16,188a54.5,54.5,0,0,1-19.44,10.1c13.83-61.06,17.09-111,17.4-116.43.31-5.25-5-9.71-11.79-9.94s-12.6,3.82-12.92,9.08c-.1,1.84-6.51,100.24-39.6,191a39.63,39.63,0,0,1-15.05-7.81c-59.57-48-61.11-257.29-56.67-333.89.31-5.26-5-9.71-11.8-9.94s-12.6,3.84-12.91,9.09c-.67,11.58-15.54,284.23,63.51,347.91a65.92,65.92,0,0,0,25.84,12.91c-27.6,66.93-71,125.53-138.83,131.92V1156.48c0-5.26-5.53-9.53-12.36-9.53s-12.34,4.27-12.34,9.53V1474.4a60.51,60.51,0,0,1-27.09-13.1c-80.33-66.11-59.72-317.67-59.5-320.2.45-5.25-4.71-9.79-11.52-10.14s-12.71,3.63-13.16,8.88c-.92,10.68-21.49,262.37,66.12,334.47A87.35,87.35,0,0,0,134,1493.83V2135c0,5.26,5.54,9.52,12.37,9.52s12.36-4.26,12.36-9.52V1594.2C268.29,1586,321.3,1469.86,346.6,1371.64a81.2,81.2,0,0,0,42.19-17.37C452.06,1303.75,446.12,1158.51,445.84,1152.35Z"/><path class="cls-7" d="M0,942.13s157.67-37.73,197.87,87.12c0,0,68-21.18,86.56,44.69,0,0,182.41-15.11,185.5,120.65,0,0,68.47-42.23,105.6,21.43H0Z"/><path class="cls-8" d="M171.07,1254.92s28.86-105.87,79.35-81.52c0,0,48.44-73.35,106.15-45.14,0,0,51.53-17.57,78.32,60.1,0,0,55.92-3.3,81.55,66.56Z"/><path class="cls-6" d="M5284.66,911.92c62-68.08,113.13-161.09,113.13-282.87,0-6.55-6.89-11.86-15.4-11.86s-15.4,5.31-15.4,11.86c0,99.63-34.63,188.17-102.83,264.5-31-7.64-141-52.74-141-307.37,0-6.56-6.9-11.87-15.4-11.87s-15.4,5.31-15.4,11.87c0,248.2,104.55,311.29,153.05,327.2a577.15,577.15,0,0,1-72.81,61.44c-70.19,50.15-141.14,79.08-175.2,91.3V566.72c0-6.56-6.9-11.87-15.4-11.87s-15.4,5.31-15.4,11.87V1218c-16.62-2.64-31.86-9.66-46.22-21.33-46.52-37.8-74.72-115.35-91.57-203.47a9.2,9.2,0,0,0-.46-2.39c-35.23-186.89-19.86-420-19.62-423.5.46-6.54-6.06-12.13-14.56-12.48s-15.75,4.67-16.2,11.21c-1,13.82-15.21,230.55,17.52,414.81-183-21-186.92-361.36-186.94-364.91,0-6.53-6.92-11.82-15.4-11.82h-.06c-8.5,0-15.37,5.36-15.34,11.91.08,15.59,4.34,375,222.37,389.08,18.21,89,48.44,167.68,97.89,207.88,20.38,16.56,43.42,26.22,68.59,29V1639c0,6.55,6.89,11.86,15.4,11.86s15.4-5.31,15.4-11.86V1092.18c28.21-9.26,111.26-39.51,195.25-99.3a582.16,582.16,0,0,0,89.2-77.82A12.38,12.38,0,0,0,5284.66,911.92Z"/><path class="cls-4" d="M5474.08,454.17c0-252.12-122.71-269.87-122.71-269.87C5308.69,124.7,5226,165.8,5226,165.8,5166.31,40.25,5006,54.68,4962.41,61.15c-43.61-6.47-203.9-20.9-263.59,104.65,0,0-82.69-41.1-125.38,18.5,0,0-122.71,17.75-122.71,269.87,0,0-125.38,44.55-125.38,197.66H5599.46C5599.46,498.72,5474.08,454.17,5474.08,454.17Z"/><path class="cls-7" d="M5559.45,624.08c-4-175.71-240.09-156.15-240.09-156.15-24-85.26-112-57.84-112-57.84-44.72-138.92-201.7-122.33-244.91-114.94-43.21-7.39-200.19-24-244.91,114.94,0,0-88-27.42-112,57.84,0,0-236.09-19.56-240.09,156.15,0,0-88.62-54.65-136.68,27.75H5696.13C5648.07,569.43,5559.45,624.08,5559.45,624.08Z"/><path class="cls-8" d="M5172.64,702.18s37.35-137,102.7-105.51c0,0,62.69-94.95,137.39-58.43,0,0,66.69-22.75,101.37,77.79,0,0,72.37-4.28,105.55,86.15Z"/><path class="cls-8" d="M4303.43,546.38s37.35-137,102.71-105.51c0,0,62.69-94.95,137.38-58.43,0,0,66.7-22.75,101.38,77.79,0,0,72.37-4.28,105.54,86.15Z"/><path class="cls-7" d="M0,2214.82S905.86,1437,1899.85,1791,3601,2020.8,4087.37,1822.92,5220.54,1280,5774.94,1280v934.85Z"/><path class="cls-9" d="M575.53,2066.81c71.26-109.5,500.88-117.87,406.71-34.6s870.87,58.06,701.48-73.67,1000.88,115.71,1457.8,65.15c18.75-2.08,34.46-5.45,47.43-10-362.95,12.23-789.81-44.87-1289.1-222.7C905.86,1437,0,2214.82,0,2214.82H741.86S504.27,2176.32,575.53,2066.81Z"/><path class="cls-9" d="M4087.37,1822.92c-142.71,58-304.46,109.74-486.86,144.89,0,0,347,25,834.64-196.4s918.86-254,739.2-119.09-118.07,285.18,154,257.49,30.8,305-282.33,305H5775V1280C5220.54,1280,4573.75,1625.13,4087.37,1822.92Z"/><rect class="cls-10" y="2214.82" width="5774.94" height="697.49"/><path class="cls-11" d="M5474.34,2370.08c0-77.26-597.32-139.9-1334.16-139.9S2806,2292.82,2806,2370.08c0,16.52,27.4,32.38,77.57,47.09-150.13,11-278.38,25.77-375.3,43.25-208.24-18.19-476.63-29.15-769.6-29.15-662.12,0-1198.87,56-1198.87,125s536.75,125,1198.87,125c361.93,0,686.4-16.72,906.22-43.15,218.21,27.05,524.94,43.89,864.71,43.89,662.32,0,1199.24-64,1199.24-142.89,0-13.93-16.82-27.4-48.05-40.14C5139,2477.65,5474.34,2428,5474.34,2370.08Z"/><path class="cls-12" d="M0,2912.32c13.18-3.34,36.9-9.69,65.49-19.49A770.85,770.85,0,0,0,182.26,2842c75.12-39.85,204.2-63.58,305.12-82.13,247.13-45.43,450.51-42.46,507.18-41.07,148.89,3.66,161.89,17.86,337.38,21.69,153.19,3.33,260.53-4.94,325.15-8.78,459.25-27.31,839.3,45.37,1221.82,35.47,86.47-2.24,162-5.25,264.09-17.29,128.65-15.18,168.49-33,387.46-32.26,612.33,2.17,559.2,28.31,827-12.54h0a2711.21,2711.21,0,0,1,446.27-19.15c47.26,1.89,251.39,10,402,47,11.16,2.73,39.17,9.83,78.56,17.23,96.44,18.11,159.43,19,197.23,23,59.55,6.42,143,30.18,240.63,109.89h0c23.83,12.55,42.47,23.24,52.8,29.27Z"/><path class="cls-13" d="M1867.32,2059s-11.54-44.57-19.5-40.59-30.24,44.57-30.24,44.57-21.49,9.15-26.27,13.92a105.86,105.86,0,0,0-9.55,11.54s-6,1-8.16,2-10.94,1.79-13.13-1.19c0,0,.4,5.37,2.79,7.36,0,0-7.56,1.39-9,4.38h4.38s-14.72,25.07-12.93,36.41l2-5s7.16,25.46,7,34-13.93,23.48-18.1,25.87-12.54,1.19-13.93-2.39c0,0,1.59,7.16,5.77,10,0,0-20.69,7.16-27.06,3.58,0,0,4.57,13.73,13.33,14.52,0,0-8.76,9.55-17.31,15.12a22.82,22.82,0,0,0,12.34-2.38s-7.76,16.71-18.71,22.08c0,0,10.15.6,16.72-3.78,0,0-6.77,47.95-18.11,59.3,0,0,11.54-3,15.32-7.57,0,0-1.19,47.36,4.58,56.71l6.56-16.31s0,39,7.36,46.16l2.19-9.95s7.56,18.5-2.38,25.07c0,0,8.35,3.78,13.72,1.79,0,0,2.19,33.62,4.58,39.2l3.58-6.77s5.57,69.24,5.17,82.77-1.59,18.71-.79,25.07-1.59,30.25-5.57,35.42-14.73,14.72-10,23.08,11.54,3.58,11.54,3.58,4.38,3.51,11.94,1.36c0,0,6.36,6.74,15.12.7,0,0,2.79,6.7,11.14,5.1,0,0,3.19,8.76,14.33,4.78,0,0,8.75,5.17,19.1-1.19,0,0,8,1.19,14.72-8.76s6.37-20.29,10.35-20.29,23.08,2.38,23.08,2.38-7.16,11.94-.8,14.33c0,0,2.39,10.74,12.74,5.17,0,0,1.59,6.37,12.73,2,0,0,6,3.19,19.5-1.59s17.91-6.37,41-6,29.45.4,38.6-5.17,11.94-12.74,11.94-12.74,8,12.74,19.1,14.33l-2.39-7.16s6,9.55,15.92,8.75v-6.76s8,8.75,12.73,9.55c0,0-6,18.7-4,25.47,0,0,3.58-26.67,55.71-25.07s93.52,31,93.52,31h-12.73s8,14.73,34.62,21.49,84-9.15,92.72-38.6,1.59-120.57-27.46-139.28-78-39.39-78-39.39l20.7-2.39s-37-31.44-80-7.16-69.24,49.74-85.95,45.76-28.26-74.81-39.8-99.48l9.55,4s-25.07-52.13-40.19-72-33.43-54.52-33.43-54.52l9.16,6.77-9.56-23.88s-6.36-29.85-4.37-44.57,4-20.69,4-20.69l4.77-6s-13.93,2-20.69,2c0,0,9.15-6.77,15.92-7.56,0,0-4.78-6-6-17.11s-8.36-47.76-8.36-47.76,6-72.82-.79-67.25-44.57,40.19-44.57,40.19S1878.86,2057.79,1867.32,2059Z"/><path class="cls-14" d="M1950.14,2232.15l-2.83-19.12-.64-8s-1.35-15.91-6.93-19.54-43.37,1.24-89.11,11.59-94.34-25.07-94.34-25.07l-15.47,16.78s8.42,21.52,26.27,34.95c0,0-5.33,25.52,9.25,33.85s26.46-4.8,26.46-4.8,38.25,29.85,58.55,26.27l-6.41-7.17s24.32,4,40.63-6.76l-8.35-3.58S1935.46,2246.94,1950.14,2232.15Z"/><path class="cls-13" d="M1935.77,2029.14l1.31.07A.84.84,0,0,0,1935.77,2029.14Z"/><path class="cls-15" d="M1810,2210.2l-3.59-7.16s17.51,7.56,30.25,7.16l-2-4.77s28.65,7.16,45.36.79l-6-3.58s33,2.79,47.76-4.77l-5.18-3.19s27-14,30,10.34h0a65,65,0,0,1,.24-11.53c2-14.72,4-20.69,4-20.69l4.77-6s-13.93,2-20.69,2c0,0,9.15-6.77,15.92-7.56,0,0-4.78-6-6-17.12s-8.36-47.75-8.36-47.75,5.09-62.16.52-67.18l-1.31-.07s-4.78,62.48-13.54,72.43c0,0-3.18-9.55-9.55-13.93l6.77-.4-28.25-17.91s-12.34-11.54-23.88-10.34c0,0-11.54-44.57-19.5-40.59,0,0,4,34.22-.8,39.79l-29.44,4.78s-21.49,9.15-26.27,13.92a105.86,105.86,0,0,0-9.55,11.54s-6,1-8.16,2-10.94,1.79-13.13-1.19c0,0,.4,5.37,2.79,7.36,0,0-7.56,1.39-9,4.38h4.37s-14.72,25.07-12.93,36.41l2-5s7.16,25.46,7,34a11.53,11.53,0,0,1-.38,2.42h0S1777.78,2208.21,1810,2210.2Z"/><path class="cls-16" d="M1754.34,2168.86s23.44,39.35,55.68,41.34l-3.59-7.16s17.51,7.56,30.25,7.16l-2-4.77s28.65,7.16,45.36.79l-6-3.58s33,2.79,47.76-4.77l-5.18-3.19s27-14,30,10.34h0a65,65,0,0,1,.24-11.53c2-14.72,4-20.69,4-20.69l4.77-6s-13.93,2-20.69,2c0,0,9.15-6.77,15.92-7.56,0,0-4.78-6-6-17.12s-8.36-47.75-8.36-47.75,4.38,56.91-4.77,61.28-9.56,13.14-20.7,23.93-65.7,7.51-65.7,7.51l7.54,7.44c-23.54,1.88-56.15-9.43-56.15-9.43l3.69,6.77c-14.33,3.58-45.77-27.46-45.77-27.46a11.53,11.53,0,0,1-.38,2.42Z"/><path class="cls-17" d="M1740.82,2188.78s75.26,103.86,209.32,34.16l-3.56-20.27s-128.18,59.32-192.26-33.82C1754.32,2168.85,1738.87,2179.69,1740.82,2188.78Z"/><path class="cls-18" d="M1802.1,2241c-2.71,12.06-12.59,20.1-22.07,18s-15-13.64-12.24-25.7,12.59-20.11,22.07-18S1804.82,2229,1802.1,2241Z"/><path class="cls-19" d="M1750.32,2519.4c-.39,13.53-1.59,18.71-.79,25.07s-1.59,30.25-5.57,35.42-14.73,14.72-10,23.08,11.54,3.58,11.54,3.58,4.38,3.51,11.94,1.36c0,0,6.37,6.74,15.12.7,0,0,2.79,6.7,11.14,5.1,0,0,3.19,8.76,14.33,4.78,0,0,8.75,5.17,19.1-1.2,0,0,8,1.2,14.72-8.75s6.37-20.29,10.35-20.29,23.08,2.38,23.08,2.38-7.16,11.94-.8,14.33c0,0,2.39,10.74,12.74,5.17,0,0,1.59,6.37,12.73,2,0,0,6,3.19,19.5-1.59s17.91-6.37,41-6,29.45.4,38.6-5.17,11.94-12.74,11.94-12.74,8,12.74,19.1,14.33l-2.39-7.16s6,9.55,15.92,8.75v-6.76s8,8.75,12.73,9.55c0,0-6,18.7-4,25.47,0,0,3.58-26.67,55.71-25.07s93.52,31,93.52,31h-12.73s8,14.73,34.62,21.49,84-9.15,92.72-38.6,1.59-120.57-27.46-139.28-78-39.39-78-39.39l20.7-2.39s-37-31.44-80-7.16-69.24,49.74-85.95,45.76-28.26-74.81-39.8-99.48l9.55,4s-25.07-52.12-40.19-72-33.43-54.52-33.43-54.52l9.16,6.77-9.56-23.88s-2.23-10.54-3.64-22.18c0,0-2.52,28.75-4.91,36.5l-4.18-11.34s-22.09,31.64-39.4,40.59c0,0,25.07-3.58,37-14.32,0,0-11.94,25.66-24.47,31,0,0,17.31,1.79,27.46-5.38,0,0-15.52,19.11-29.85,23.88,0,0,13.73,2.39,24.48-6,0,0-26.27,25.17-49.55,28.11,0,0,6.57,11.29,20.3,13.08,0,0-17.31,4.18-29.25,0,0,0,6,5.37,6.56,17.91,0,0-6.56-4.18-10.74-4.78,0,0,1.19,18.5-23.28,31V2385.5s-13.73,16.71-34,21.48l6-19.1s-16.12,12.54-33.43,19.1l6-15.52s-22.09,6-26.86,26.27l-6-15.52s-15.36,21.26-14.33,34.42C1745.15,2436.63,1750.72,2505.87,1750.32,2519.4Z"/><path class="cls-20" d="M1923.42,2576.21s6.87-.48,18.71-17.41,1.2-56.51,1.2-56.51c-6.77-81.18,73.61-64.85,73.61-64.85-97.89-25.86-96.3,94.7-96.3,94.7-3.18-21.09-31.15-29-31.15-29,2.67,6.36,0,17.9,0,17.9-8.08-37.4-38.09-47.35-38.09-47.35,7.56,8.75,8.76,25.47,8.76,25.47,8.75,31.43-17.91,89.14-17.91,89.14,4,0,23.08,2.38,23.08,2.38C1877.67,2567.55,1923.42,2576.21,1923.42,2576.21Z"/><path class="cls-20" d="M2224.27,2621.27l13.33,9.56c-22.68,4.77-63.87-20.3-124.95-32.64-52-10.5-66.37,20.53-69.48,30,2.51-6.7,13-23.7,54.95-22.41,52.13,1.59,93.52,31,93.52,31h-12.73s8,14.73,34.62,21.49,84-9.15,92.72-38.6c3.8-12.78,4.59-37.17,1.91-62.23-6.07,21.79-18.85,41-29.37,51.16C2257.3,2629.37,2224.27,2621.27,2224.27,2621.27Z"/><path class="cls-20" d="M2070.27,2573.52c61.28-51.33,154,5.57,154,5.57-20.49-58.29-70.24-61.08-102.47-64.66s-38.2,9-38.2,9c5.37-1.19,11.94,1.79,11.94,1.79-17.33,4.73-34.39,18-42.45,20l-3.26-14.89c1.31-18.95-8.22-44.82-11.72-53.56v0l0,0c-.75-1.89-1.25-3-1.25-3,.12.46.2.91.31,1.37-2.84-4.47-12.58-16.12-36.12-14.5-29,2-33.43,21.88-33.43,21.88,3.58-2.78,11.24-2.38,11.24-2.38-17.82,9.94-16,26.26-16,26.26l10-5.17c-6.36,12.73,10,63.67,5.18,77.2s-21.89,21.88-41.39,22.65c-19.09.76-30,10.21-30.42,10.6,1.09-.3,2.16-.6,3.36-1,13.53-4.77,17.91-6.37,41-6s29.45.4,38.6-5.17,11.94-12.74,11.94-12.74,8,12.74,19.1,14.33l-2.39-7.16s6,9.55,15.92,8.75v-6.76s8,8.75,12.73,9.55l32.23-28.65Z"/><path class="cls-21" d="M1842.25,2588.25s26.26-54.12,17.91-89.14c0,0,11.93,29,8,46.16,0,0,11.14-4,12.33-9.55,0,0,2,21.09-7.16,30.64,0,0,13.93-6.77,26.26-4l-7.16,4.78s25.87,5.17,35,.39,17.51-23.87,17.51-33.42-15.92-61.68,11.94-84.77,51.33-17.44,62.07-11.5c0,0-27.85-7.6-56.9,15.48s-10,73.62-10,80.79-8.75,31.43-13.53,35a43.75,43.75,0,0,0,19.9-4s-7.56,10.74-38.6,11.14-49.74,3.58-54.52,14.32Z"/><path class="cls-21" d="M1890,2612.12s2.39-13.53,12.74-15.52C1902.74,2596.6,1886.42,2595.41,1890,2612.12Z"/><path class="cls-21" d="M1878.59,2612.12s-.63-17.71,13.7-19.5C1892.29,2592.62,1870,2589.54,1878.59,2612.12Z"/><path class="cls-21" d="M1864.53,2605s1.2-16.22,18.51-19.2C1883,2585.76,1868.71,2592.22,1864.53,2605Z"/><path class="cls-21" d="M1772.61,2608.61a10.29,10.29,0,0,1,2.79-13.25c7.16-5.92,15.91-35.37,17.5-65.21s-2.78-50.14-2.78-50.14,1,60.08-7.85,78.79S1760.68,2602,1772.61,2608.61Z"/><path class="cls-21" d="M2036.84,2473.64s13.93,50.14-35.81,113C2001,2586.65,2065.1,2552.43,2036.84,2473.64Z"/><path class="cls-21" d="M2046.39,2605.36s11.14-20.3,32.24-28.65l-8.36-3.19s18.3-15.52,49.34-14.72,93.92,11.94,104.66,20.29c0,0-23.08-43-47-42.58l9.55,9.55s-30.64-11.87-51.53-1.75l18.9,1.75s-72.42-2-95.9,33.43l9.55-1.19S2056.34,2583.87,2046.39,2605.36Z"/><path class="cls-21" d="M1783.75,2613.71s-5.57-9.15,2.79-15.52C1786.54,2598.19,1782.21,2607.2,1783.75,2613.71Z"/><path class="cls-21" d="M1798.08,2618.49s-4.58-8.36.79-13.53C1798.87,2605,1796.83,2613.32,1798.08,2618.49Z"/><path class="cls-21" d="M1817.18,2617.29s-5.77-5.76-1.14-11.34C1816,2606,1815.49,2614.81,1817.18,2617.29Z"/><path class="cls-21" d="M1757.49,2607.91s-2.19-6.48,1.69-10.36Z"/><path class="cls-21" d="M1745.55,2606.55a7.8,7.8,0,0,1,0-11.19S1744.16,2603.62,1745.55,2606.55Z"/><path class="cls-22" d="M1827.2,2119.25a1.2,1.2,0,0,0-1.6-.55c-6.56,3.24-12.49,4-17.6,2.22a19.16,19.16,0,0,1-10-8.58c0-1.75,0-6.06,0-8.51,3.37-1.29,11.66-6.28,11.92-7.74.29-1.69.29-2.48-5-4s-16.61,0-16.61,0c-4.83,2.77,3.79,9.71,7.28,11.57,0,2.39.05,6.75,0,8.48-3.7,4.9-7.39,7.23-10.84,6.84-6.34-.69-10.52-9.87-10.56-10a1.21,1.21,0,0,0-1.58-.61,1.2,1.2,0,0,0-.6,1.58c.19.43,4.76,10.52,12.47,11.36a8.89,8.89,0,0,0,1,.06c3.73,0,7.45-2.35,11.08-6.77a21.06,21.06,0,0,0,10.58,8.5,19.72,19.72,0,0,0,6.51,1.08,29.53,29.53,0,0,0,13-3.39A1.2,1.2,0,0,0,1827.2,2119.25Z"/><path class="cls-22" d="M1858.6,2092.73c-1.25,3.58-3.9,5.91-5.93,5.2s-2.65-4.18-1.4-7.76,3.9-5.91,5.93-5.2S1859.85,2089.15,1858.6,2092.73Z"/><path class="cls-22" d="M1798.75,2084.58c.26,2.68-.76,5-2.27,5.11s-3-1.9-3.21-4.58.75-5,2.27-5.12S1798.49,2081.9,1798.75,2084.58Z"/><path class="cls-2" d="M1852.68,2102.78c-17.4-12.2-33.59-4.1-33.75-4a.6.6,0,0,0,.55,1.06c.16-.08,15.72-7.84,32.52,3.94a.6.6,0,0,0,.34.11.6.6,0,0,0,.34-1.09Z"/><path class="cls-2" d="M1820.09,2102.44a.61.61,0,0,0-.37.77.6.6,0,0,0,.77.36c.11,0,11.39-3.89,21.73,5.64a.59.59,0,0,0,.41.16.63.63,0,0,0,.44-.19.6.6,0,0,0,0-.85C1832.14,2098.31,1820.2,2102.41,1820.09,2102.44Z"/><path class="cls-2" d="M1820.84,2106a.6.6,0,0,0,.16,1.19c.11,0,11.93-1.52,20.14,9.94a.58.58,0,0,0,.48.25.66.66,0,0,0,.35-.11.61.61,0,0,0,.14-.84C1833.48,2104.42,1821,2106,1820.84,2106Z"/><path class="cls-2" d="M1751.94,2096.26c17.3-7.27,29.75,2.76,29.87,2.85a.53.53,0,0,1-.67.82c-.13-.1-12.09-9.71-28.8-2.7a.48.48,0,0,1-.31,0,.5.5,0,0,1-.38-.31A.54.54,0,0,1,1751.94,2096.26Z"/><path class="cls-2" d="M1780.13,2102.08a.53.53,0,1,1-.56.9c-.09-.06-9.1-5.49-19.82.79a.51.51,0,0,1-.38.06.56.56,0,0,1-.34-.25.53.53,0,0,1,.19-.72A21.05,21.05,0,0,1,1780.13,2102.08Z"/><path class="cls-2" d="M1778.81,2105a.53.53,0,0,1-.37,1c-.08-.05-10-3.54-19.24,4.81a.55.55,0,0,1-.46.12.53.53,0,0,1-.24-.91A21,21,0,0,1,1778.81,2105Z"/><path class="cls-23" d="M1041.92,1603.06s4.4,255.36,75.06,303.12V1623.24Z"/><path class="cls-23" d="M1647.26,879.68s33.43-51.12,50.54-86.94,22.88-61.28,26.76-72.92,2.39-31.34,0-46.56,12.24-19.1,19.4-18.5c0,0,12.53-20.6,32.83-9.55,0,0,11.94-9.85,23,3.88,0,0,8.06-3.59,16.71,8,0,0,12.24,42.38,8.36,46.86a29.31,29.31,0,0,1-8.06,6.57s-23.88,31-29,39.1-34.75,123.44-51.4,177.67Z"/><path class="cls-24" d="M1746.35,744.59s9.94-8.55,20.69-5.37,13.53,3.38,15.62.8,7.13-6.92,10.87-6.65l.69,2.15a12.35,12.35,0,0,0-10.07,4.89s-1,4.38-9.15,2.39S1757.49,739.42,1746.35,744.59Z"/><path class="cls-24" d="M1744,654.76s48.75,24.57,59.69,52.23C1803.65,707,1791.31,662.22,1744,654.76Z"/><path class="cls-24" d="M1776.79,645.21l31.89,62.2C1806.94,674.21,1776.79,645.21,1776.79,645.21Z"/><path class="cls-24" d="M1799.77,649.09l12.83,56.11C1818.57,679.73,1799.77,649.09,1799.77,649.09Z"/><path class="cls-24" d="M1784.35,703.6l2.29-1.39s-15.42-10.15-27.56-11.14S1735.2,676,1733,671.57c0,0,6,17.11,22.89,21.69A168.07,168.07,0,0,1,1784.35,703.6Z"/><path class="cls-24" d="M1752.71,715.54s9.35,1.79,13.13,4.78,15.7.83,19.3,1,6.92,8,6.92,8-1.36-6.87-4.84-11a127.3,127.3,0,0,1-13.42.84C1767.24,719.12,1764.85,714.15,1752.71,715.54Z"/><polygon class="cls-24" points="1736.43 927.34 1739.86 915.95 1647.26 879.68 1736.43 927.34"/><polygon class="cls-25" points="1209.39 2433.8 1209.39 2474.43 1309.67 2474.43 1309.67 2423.1 1209.39 2433.8"/><path class="cls-26" d="M1201.63,2454.14s56.71,29.85,113.41,0c0,0,16.72,68.05,14.93,84.76,0,0-62.68,41.19-121.77,43.58s-96.11-14.33-96.11-14.33,5.38-39.76,29.85-49.73S1199.84,2478.61,1201.63,2454.14Z"/><path class="cls-27" d="M1208.2,2582.48c59.09-2.39,121.77-43.58,121.77-43.58,1.79-16.71-14.93-84.76-14.93-84.76-56.7,29.85-113.41,0-113.41,0-.65,8.92-5.53,18.54-12.62,27.66h0s20.37-18.12,45.44-3.79,68.65-14.25,65.06-.86-47.55,55.77-36.41,65.32-95.1,38.21-95.1,38.21l.48.57A276.43,276.43,0,0,0,1208.2,2582.48Z"/><path class="cls-28" d="M1119.46,2551.24l-9.55,4.37-17.51,27.1s31.83,33.39,113.81,26.63,137.29-52.13,137.29-52.13-8.77-31.84-14.33-33L1274.25,2552l-1.19,10.35s-70,20.69-105,18.31l-5.58-20.7Z"/><path class="cls-28" d="M1193.87,1914.14l9.55,448.08h-9.55l4.78,75.64s54.91,25.5,121.77,0L1326,2363l-12.74,2.39,25.47-424.6Z"/><path class="cls-29" d="M1193.87,1957.51s74,20.3,119.38,19.1l4.34,316.48,21.13-352.29-144.85-26.66Z"/><path class="cls-30" d="M1198.65,2437.86s54.91,25.5,121.77,0L1326,2363l-12.74,2.39c-54.91,13.93-109.83-3.18-109.83-3.18h-9.55Z"/><path class="cls-31" d="M1326,2363l-12.74,2.39c-24.74,6.28-49.47,6.24-69.19,4.32,0,0,61.08,45.84,56.18,74.44a174.2,174.2,0,0,0,20.18-6.3Z"/><polygon class="cls-25" points="1477.6 2433.8 1477.6 2474.43 1377.32 2474.43 1377.32 2423.1 1477.6 2433.8"/><path class="cls-26" d="M1485.36,2454.14s-56.7,29.85-113.41,0c0,0-16.71,68.05-14.92,84.76,0,0,62.67,41.19,121.77,43.58s96.1-14.33,96.1-14.33-5.37-39.76-29.85-49.73S1487.15,2478.61,1485.36,2454.14Z"/><path class="cls-27" d="M1478.8,2582.48c-59.1-2.39-121.77-43.58-121.77-43.58-1.79-16.71,14.92-84.76,14.92-84.76,56.71,29.85,113.41,0,113.41,0,.65,8.92,5.54,18.54,12.62,27.66h0s-20.37-18.12-45.44-3.79-68.64-14.25-65.06-.86,47.55,55.77,36.41,65.32,95.11,38.21,95.11,38.21l-.49.57A276.34,276.34,0,0,1,1478.8,2582.48Z"/><path class="cls-28" d="M1567.54,2551.24l9.55,4.37,17.51,27.1s-31.84,33.39-113.81,26.63-137.29-52.13-137.29-52.13,8.76-31.84,14.33-33l54.91,27.85,1.19,10.35s70,20.69,105.06,18.31l5.57-20.7Z"/><path class="cls-28" d="M1493.12,1914.14l-9.55,448.08h9.55l-4.77,75.64s-54.92,25.5-121.77,0L1361,2363l12.73,2.39-25.47-424.6Z"/><path class="cls-29" d="M1493.12,1957.51s-74,20.3-119.38,19.1l-4.34,316.48-21.13-352.29,144.85-26.66Z"/><path class="cls-30" d="M1488.35,2437.86s-54.92,25.5-121.77,0L1361,2363l12.73,2.39c54.92,13.93,109.83-3.18,109.83-3.18h9.55Z"/><path class="cls-31" d="M1361,2363l12.73,2.39c24.75,6.28,49.47,6.24,69.2,4.32,0,0-61.08,45.84-56.19,74.44a174.06,174.06,0,0,1-20.17-6.3Z"/><path class="cls-25" d="M1218.47,1033.77s-5.36,55-41.18,82.1c0,0,41.25,122.56,104.59,122.56S1363,1132.06,1363,1132.06s-38.51-17.09-38.51-99.07Z"/><path class="cls-24" d="M1363,1132.06s-38.51-17.09-38.51-99.07l-106.06.78a128.51,128.51,0,0,1-2.46,14.12h0s44.64,43.51,92.9,31.57c0,0,18.6,70.43-25.67,112.81v46.09C1345.46,1236.83,1363,1132.06,1363,1132.06Z"/><path class="cls-26" d="M1198.59,1088.88s-108.84,55.64-127.95,74.74-99.08,365.31-99.08,365.31,59.24,102.67,145.42,94.31L1099.3,1921.7s300.84,54.91,469.17-21.49l-78.8-650.63s193.4-93.36,210.12-118.91,63.27-189.1,63.27-189.1l-115.8-61.89-72.82,93L1326,1058.9s9.24,113.83-42.72,133.37C1283.24,1192.27,1217.48,1174.37,1198.59,1088.88Z"/><path class="cls-27" d="M1139.09,1294.94c-4-35-38,280.77-38.08,328.61l16-.31S1143.07,1330,1139.09,1294.94Z"/><path class="cls-27" d="M1483,1011.58l-4.33-5.66-152.71,53s9.24,113.83-42.72,133.37c0,0,41,5,62.53-71.63l7.17,62,27.63-41.07c-29.14,163.6-82.78,463.4-90.26,495.63-10.35,44.57-34.23,84.36-34.23,84.36l-142.46-14.32-1.95,5.71L1099.3,1921.7s173.93,31.73,331.29,13.36c-22.73,2.73-85.38-14.74-87.74-45.6-2.37-31-43.79-10.34-62.09,2.39s122.56-256.27,125.74-288.79-90.73,128.82-105,151.56,31-171.57,58.63-311.64c17.72-90,28.86-232.1,34.56-322.34h0c1-16,1.84-30.31,2.52-42.46,6.19-.64,18.1-2.74,27.65-9.73l-10.35-6.7s31,3.18,44.57-7.16l-10.34-9.55S1474.34,1045.77,1483,1011.58Z"/><path class="cls-2" d="M1213.18,1410.24h0a45.85,45.85,0,0,1-45.84-45.84v-72.16H1259v72.16a45.84,45.84,0,0,1-45.84,45.84Z"/><path class="cls-18" d="M1399.44,1033l-32.13,11.07s-51.15,560.13-113.42,667l0,.09a60.57,60.57,0,0,0-17.9-10.26c-41.16-15.52-190.44-10.74-190.44-10.74s-48.94,187.43-29.84,211.3,143.26,50.14,185.84,39.4S1252.1,1856,1265,1805.9c7.11-27.62,10-51.94,4.38-70.84C1291.18,1662.6,1387.53,1327.7,1399.44,1033Z"/><path class="cls-32" d="M1201.57,1940.8c42.58-10.75,50.53-84.76,63.44-134.9,7.11-27.62,10-51.94,4.38-70.84,21.79-72.46,118.14-407.36,130-702.07l-32.13,11.07s-51.15,560.13-113.42,667l0,.09a60.57,60.57,0,0,0-17.9-10.26,83.86,83.86,0,0,0-10.13-2.95c.43.24,22.28,12.15,25.43,36.38,3.18,24.47,0,43,0,43s-37.75,127.53-45.94,136.89c0,0-8.32,33.59-75,25.39C1159,1943.68,1185.84,1944.76,1201.57,1940.8Z"/><path class="cls-33" d="M1024,1784.31s56.2,49.44,80.08,54.22,140.08-55.71,147.24-61.28c0,0-24.22,117.79-45.94,136.89,0,0,16.49-49.35,17.29-78,0,0-100.28,33.43-118.59,30.24S1024,1784.31,1024,1784.31Z"/><path class="cls-2" d="M1129.7,1806.15c-4,12.8-13.87,21.1-22.07,18.54s-11.62-15-7.63-27.8,13.88-21.1,22.08-18.54S1133.7,1793.35,1129.7,1806.15Z"/><path class="cls-26" d="M1813.7,1488.59s21.14,16.46,36,30.06l-5.59-.78s28.89,39.92,32.31,53.71l-3.77-3.22s13.69,32.49,8.44,49.91l-3.69-5.94s4.09,44.1-11.7,53.73c0,0-14.25-24.58-15.14-53.49l-2.72,5.34s-11.9-30.52-14.17-48.29l-2.32,7S1799.5,1524.4,1813.7,1488.59Z"/><path class="cls-27" d="M1850.58,1612.57l-2.72,5.34s-11.9-30.52-14.17-48.29l-2.32,7s-31.87-52.17-17.67-88c0,0,33.76,46.47,43.2,77.37l-6.19-7.25s21.64,70.32,15,107.35C1865.72,1666.06,1851.47,1641.48,1850.58,1612.57Z"/><path class="cls-28" d="M1784,712.06s11,19.1,12.54,34,11.88,18,19.69,16.12c13-3.08,16.92-13.64,9.42-34.32a219.31,219.31,0,0,0-8.52-20.6s-3.58,1.2-4.48-2.08c0,0-6.86,5.07-8.95,1.79,0,0-8.06,7.16-10.45,3.88s-6.56-8.66-6.56-8.66S1779.91,704.25,1784,712.06Z"/><path class="cls-28" d="M1816.16,1467.09V744.59a2.39,2.39,0,1,0-4.77,0v722.5a13.13,13.13,0,1,0,4.77,0Z"/><path class="cls-34" d="M1811.44,1485.13s-20.53,24.9-34.45,44.8l6.36-2.39s-23.47,54.52-23.87,71.63l3.58-4.78s-7.56,41.79,3.18,60.89l2.79-8s6.76,52.92,27.85,60.09c0,0,10.3-32.63,3.76-66.86l4.6,5.57s6-39,4-60.48l4.55,7.56S1837.54,1523.5,1811.44,1485.13Z"/><path class="cls-35" d="M1800.64,1640.55l4.6,5.57s6-39,4-60.48l4.55,7.56s23.77-69.7-2.33-108.07c0,0-27.49,63.5-30.47,102.3l5.37-10.15s-7,88.34,10.54,130.13C1796.88,1707.41,1807.18,1674.78,1800.64,1640.55Z"/><path class="cls-25" d="M1426.51,997.36a78.18,78.18,0,0,0,9.22-15c6.61-14,7.66-28,2.64-37.31a20.06,20.06,0,0,0-5.24-6.36c-10.35-8.11-27.4-4.52-42.51,7.5a78.26,78.26,0,0,0-12.82,13c-17.1,21.83-20.07,48.07-6.61,58.61.25.2.53.34.79.52C1385.59,1028,1409.73,1018.78,1426.51,997.36Z"/><path class="cls-25" d="M1153.77,898.48c-15.82,6.48-20.12,32.53-9.61,58.2,9.56,23.33,28,38.24,43.21,35.92a19.82,19.82,0,0,0,4.46-1.17c15.81-6.48,20.11-32.54,9.6-58.2a77.6,77.6,0,0,0-10-17.66C1180.25,901,1165.49,893.68,1153.77,898.48Z"/><path class="cls-23" d="M1268.45,1067.1a101.05,101.05,0,0,0,115.9-83l20.7-125-198.87-32.93-20.7,125a101.06,101.06,0,0,0,83,115.9Z"/><path class="cls-36" d="M1321.49,931s30.49-10.24,46.41,10,7.92-11.8-10.34-20.47-26.84-2.95-26.84-2.95-1.88-3.39-4.69-4.26C1318.21,910.9,1308.4,934.27,1321.49,931Z"/><path class="cls-36" d="M1255,918.62s-25.16-20-47-6.45-3.41-13.8,16.72-15.71,26.23,6.4,26.23,6.4,2.92-2.55,5.87-2.4C1265,900.85,1266.2,926.17,1255,918.62Z"/><path class="cls-37" d="M1319,968.81a2.55,2.55,0,0,1,.72-4.55l.52-.31c18.18-10.85,30.37.49,37.4,11.92a2.55,2.55,0,1,1-4.35,2.68c-12.76-20.74-26.06-12.82-30.43-10.21-1.1.65-1.89,1.13-3,.85A2.47,2.47,0,0,1,1319,968.81Z"/><path class="cls-37" d="M1210.8,943.77a2.58,2.58,0,0,1-1-2.72,2.55,2.55,0,0,1,1.75-1.84c.14-.07.31-.18.53-.31,18.17-10.84,30.37.5,37.4,11.93a2.56,2.56,0,0,1-4.36,2.67c-12.77-20.75-26.06-12.82-30.43-10.21-1.1.66-1.89,1.13-3,.86A2.67,2.67,0,0,1,1210.8,943.77Z"/><path class="cls-38" d="M1253.79,1016.18l35.69,9S1268.83,1055.2,1253.79,1016.18Z"/><path class="cls-39" d="M1311.48,1047.05c-6.17-6.7-.87-21.62,11.84-33.34s28-15.79,34.19-9.09.87,21.62-11.84,33.34S1317.66,1053.75,1311.48,1047.05Z"/><path class="cls-39" d="M1205.42,976.33c-8.24,3.87-9,19.69-1.62,35.34s20,25.19,28.23,21.32,9-19.69,1.62-35.34S1213.67,972.46,1205.42,976.33Z"/><path class="cls-40" d="M1293.85,989l-.86-.2-13-3-2.75-.63-13.06-3-.85-.2a2.07,2.07,0,0,0-2.62,1.15l-1.6,6.92c-.22.92.61,1.9,1.85,2.18l.85.2s4.56,1.68,4.71,4.15c0,0-.39,1.17,4.88,2.39l2.52.58,2.75.64,2.52.58c5.27,1.22,5.43,0,5.43,0,1.22-2.14,6-1.66,6-1.66l.86.2a2.06,2.06,0,0,0,2.62-1.15l1.6-6.92C1295.91,990.24,1295.08,989.27,1293.85,989Z"/><path class="cls-41" d="M1262.2,981.89s16.82-15.32,32.65,7.55Z"/><path class="cls-28" d="M1450.81,1001.24c10.06,5.08,22.13-18.09,22.13-18.09s-12.07,7-20.79-7.68c-7.69-12.93,19.55-161.22-78.85-219v0s20.84-2.38,19.33-30.55S1283,641.35,1233.17,664c0,0,19-.5,25.85,2.51,0,0-54.52.51-71.63,25.66l17.61-6.54s-52,47.53-2.36,81.61h0c-47.76,43.53-61.89,116.28-69.08,129.78-11.4,21.41-53.68,33.35-53.68,33.35,17.44,14.75,45.63,4,45.63,4-8,16.71-38.23,25.19-38.23,25.19,6.71,1.65,26.16,3,26.16,3-13.42,19.08-64.09,20.53-64.09,20.53,19.07,31.27,67.44,42.68,67.44,42.68L1098,1036.19c26.16,23.27,74.78,14.08,74.78,14.08L1157,1068.45c14.53,3.54,38.71-2.33,55.4-7.25,1.19-6.61,6-17.88,6-17.88a101.38,101.38,0,0,1-31.14-50.72c-15.16,2.3-33.62-12.61-43.17-35.92-10.51-25.67-6.21-51.72,9.61-58.2,8.3-3.4,18.1-.64,27.07,6.39.3.54,5.68,10.76,3.29,22.38-2.46,11.93-5.82,43.17,1.23,55.9,0,0,7-75.39,24.33-82.83l43.22-18.51-16.13,20.62c40,5.54,84.79-11.87,84.79-11.87l-6.35,11.87c38.06-2.36,69-31.39,69-31.39-12.13,17.23,0,50.27,0,50.27l7.81-18.88c-1,3.86-.85,8.87-.09,14.05h0s-9.13,82.76-16.5,95.41c0,0,21.58-26.55,30.59-74.66,10.29-4,20.17-3.89,27.07,1.51a20.06,20.06,0,0,1,5.24,6.36c5,9.3,4,23.28-2.64,37.31a78.18,78.18,0,0,1-9.22,15c-16.76,21.4-40.87,30.56-54.49,21a101.27,101.27,0,0,1-41.84,39.25c-1.82.92-3.69,1.74-5.57,2.55l0,0a.08.08,0,0,1,0,0c22.67,24.47,85.31,9.18,85.31,9.18-20.79-8.56-16.1-27.07-16.1-27.07,13.82,20.68,51,7.93,51,7.93-7.37-4.23-11.4-14.08-11.4-14.08,43.77,14.47,49.63-24.61,49.63-24.61C1457.92,1026.17,1450.81,1001.24,1450.81,1001.24Z"/><path class="cls-42" d="M1384.25,921.31l7.81-18.88c-1,3.86-.85,8.87-.09,14.05h0s-9.13,82.76-16.5,95.41c0,0,21.58-26.55,30.59-74.66,10.29-4,20.17-3.89,27.07,1.51a20.06,20.06,0,0,1,5.24,6.36c5,9.3,4,23.28-2.64,37.31a78.18,78.18,0,0,1-9.22,15c-16.76,21.4-40.87,30.56-54.49,21a101.27,101.27,0,0,1-41.84,39.25c-1.82.92-3.69,1.74-5.57,2.55l0,0a.08.08,0,0,1,0,0c22.67,24.47,85.31,9.18,85.31,9.18-20.79-8.56-16.1-27.07-16.1-27.07,13.82,20.68,51,7.93,51,7.93-7.37-4.23-11.4-14.08-11.4-14.08,43.77,14.47,49.63-24.61,49.63-24.61-25.08,14.59-32.19-10.34-32.19-10.34,10.06,5.08,22.13-18.09,22.13-18.09s-12.07,7-20.79-7.68c-7.69-12.93,19.55-161.22-78.85-219v0s20.84-2.38,19.33-30.55S1283,641.35,1233.17,664c0,0,43.6-10.73,75.74,17.33,0,0-16.22-4.18-27,0,0,0,33.43,19.1,44.77,32.23s-101.31,34.54-124.08,53.68c0,0,75.92-21.53,106.27,0s4.57,57.94-17.76,68.69c0,0,20.65,4.18,51.69-13.73,0,0,4.2,27.46-8.35,40.59,0,0,30.8-7.76,42-26.86,0,0,5.64,26.86-13.69,38.8,0,0,18.29-5.37,26-19.1,0,0,2.83,4.57-4.55,15.42-.42.59-.75,1.25-1.11,1.88-.47.88-1,1.89-1.51,3.06C1374.23,893.89,1384.25,921.31,1384.25,921.31Z"/><path class="cls-26" d="M1202.64,767.23s81.74-40.79,170.66-10.82C1373.3,756.41,1286.09,682.83,1202.64,767.23Z"/><path class="cls-23" d="M4596,1773.77s-128.19-4.86-144.22,30.1,7.29,100.51,40.79,161.69,128.57,246.19,128.57,246.19-115.46,42.24-134.4,67-11.65,33.51-11.65,33.51H4722s-16.75-88.86-32.78-144.22-54.12-187.91-58.38-211.22S4635.82,1802.24,4596,1773.77Z"/><path class="cls-43" d="M4601.84,1958.28l-52.44-19.39s52.44,25.11,61.18,44.83S4689.24,2168,4689.24,2168L4636,1970.45Z"/><path class="cls-44" d="M4619.1,2207.73s42,40,83.29,11.57c0,0,41.72,74,40.27,99.27H4455.2s-4.85-24.28,14.57-39.33S4619.1,2207.73,4619.1,2207.73Z"/><path class="cls-45" d="M4702.39,2219.3c-41.24,28.44-83.29-11.57-83.29-11.57s20.62,33.63,56.06,37,29.14,31.08,14.08,32.54-84.48,10.68-60.69,17-159.27,15.54-159.27,15.54v8.74h273.38C4744.11,2293.32,4702.39,2219.3,4702.39,2219.3Z"/><path class="cls-28" d="M4736.42,2290.87s7.69-1.43,14,11.68,14.08,37.38,8.25,37.38H4436.27s6.72-37.62,20.35-41.63c0,0,9.75,2.79,12.66,11.53,0,0,166.07,0,181.61-3.89S4708.33,2289.38,4736.42,2290.87Z"/><path class="cls-23" d="M4801.41,2125.8s-32.53,69.44-25.74,98.57,42.73,64.09,76.72,72.83,93.23-19.42,93.23-19.42-9.71,96.14,29.14,96.14,58.26-94.2,61.18-132.07-4.86-76.72-4.86-76.72S4900,2048.6,4825.2,2080.64Z"/><path class="cls-43" d="M4945.62,2277.78s21.49,44.31,44.39,19.61,25.73-60.95,25.73-60.95C5002.46,2265.15,4945.62,2277.78,4945.62,2277.78Z"/><path class="cls-43" d="M4937.61,2261.27c67.37-22.21,91.68-94.37,91.68-94.37L4999.63,2203h-5.94C4968.57,2250.71,4937.61,2261.27,4937.61,2261.27Z"/><path class="cls-43" d="M4808.69,2111.23l-7.28,14.57s125.27-61.91,192.28,77.21C4993.69,2203,4963.1,2047.14,4808.69,2111.23Z"/><path class="cls-44" d="M5060,2279.48c-2.91-34.23-23.38-121.47-23.38-121.47l-7.3,8.89v25.51c-7.72,31.35-21.28,73.75-39.28,80.52-29.09,10.92-44.39,4.85-44.39,4.85l-25.79,10.32s6.85,109.37,30.89,123.94,66.28,6.56,75,0S5062.89,2313.71,5060,2279.48Z"/><path class="cls-45" d="M4936.38,2294.05c4.14,1.46,31.73,28.52,53.63,3.34s35.55-75.45,39.28-58,21.63-8.59,17.28-36.41h0c-5.24-24.77-10-45-10-45l-7.3,8.89v25.51c-7.72,31.35-21.28,73.75-39.28,80.52-29.09,10.92-44.39,4.85-44.39,4.85l-25.79,10.32s2.51,39.93,9.8,74.75l6.75,1.79S4932.24,2292.59,4936.38,2294.05Z"/><path class="cls-28" d="M4919.83,2288.1s1,103.55,13.41,123.94,64.09,34.23,99.06,16.75,36.41-134.74,35-159.51S5036.59,2158,5036.59,2158s15.37,88,16.83,109.82-26.22,126.16-29.14,130.09l-10.19-20.84-57.54,8-4.37,12.83s-8-6.27-14.57-28.85S4919.83,2288.1,4919.83,2288.1Z"/><path class="cls-46" d="M4949,2408.88l3.16-11s-8-6.27-14.57-28.85-17.78-81-17.78-81,.63,63.42,6.84,100.77c.3-7.26.62-18.29,3-26C4934.16,2347.81,4949,2408.88,4949,2408.88Z"/><path class="cls-25" d="M4797,1377.66s19.29,17.29,21.28,37.59c0,0-44.07,19.84-59.23,62.85s18.88,107.66,82.61,87.32,150.35-86.09,157.62-106.17-108.49-108.83-134.53-210.11S4712.37,1293.19,4797,1377.66Z"/><path class="cls-43" d="M4759.08,1478.1c-15.16,43,18.88,107.66,82.61,87.32s150.35-86.09,157.62-106.17-108.49-108.83-134.53-210.11-152.41,44-67.75,128.52a83.5,83.5,0,0,1,13.59,16.65h0s43.56-7,66.94-28.42,39.4-5.82,42.8,5.83-15.72,79.5-42.8,93.23-47.22-8.61-59.26-49.7C4818.31,1415.25,4774.24,1435.1,4759.08,1478.1Z"/><path class="cls-25" d="M4957,1216.35c-6.67,30.24-34.29,49.86-61.67,43.82s-44.19-35.46-37.51-65.71,34.28-49.86,61.67-43.82S4963.68,1186.1,4957,1216.35Z"/><path class="cls-43" d="M4940.83,1212.78c-4.5,20.37-23.1,33.59-41.55,29.52s-29.77-23.89-25.27-44.27,23.09-33.59,41.55-29.52S4945.32,1192.4,4940.83,1212.78Z"/><path class="cls-23" d="M4672.57,1251.17s22.43,35,29.73,67.29,58.58,69.69,93.28,74,84.38-48.66,98.51-79.46,8.83-94.71.51-121.47S4809.36,1074,4738.46,1113,4636.53,1190.71,4672.57,1251.17Z"/><path class="cls-47" d="M4681,1268.14s-1.17-9.37,12.36-16c15.5-7.54,21.91,5.17,23.92,2.61s-8-17.59-25.19-13.84S4674.31,1261.54,4681,1268.14Z"/><path class="cls-47" d="M4757.28,1228.86s36.78-35.7,57.89-26.46,4.4-5.21-6.31-9.82c-21.33-9.16-48.28,21-51.93,12.79-1.29-2.89-14.7,13.15-12.09,20.38S4749.42,1235.78,4757.28,1228.86Z"/><path class="cls-25" d="M4734.54,1310.27s1.51-2,3.67-5.09,17.08-18.7,23.93-9.75,7.19,11.18.36,18.69c-4.86,5.35-28.43-2.13-28.43-2.13"/><path class="cls-48" d="M4745.82,1303.3l2.36-1.29,11.21-6.15.74-.4a2.14,2.14,0,0,1,2.93.79l4.21,7.68a2.14,2.14,0,0,1-.9,2.9l-.74.41s-3.67,2.87-2.85,5.76c0,0,.82,1.27-3.7,3.75l-2.16,1.19-8.84,4.14a5.45,5.45,0,0,1-7.23-1.25l-.73.41h0a2.16,2.16,0,0,1-2.94-.8l-3.11-8.45s-.21-2.15,2.54-3.63Z"/><path class="cls-37" d="M4803.83,1257.66l-10.59,3.53-6.33-19a5.59,5.59,0,0,1,.3-4.24,5.52,5.52,0,0,1,3.23-2.82h0a5.58,5.58,0,0,1,7.07,3.53Z"/><path class="cls-37" d="M4722,1296.84l-9.23,6.3-11.26-16.52a5.59,5.59,0,0,1,1.46-7.76h0a5.61,5.61,0,0,1,4.05-.9,5.54,5.54,0,0,1,3.71,2.37Z"/><path class="cls-49" d="M4877.24,1271.3c13.5,8.52,13.79,32.32.65,53.17s-34.76,30.85-48.26,22.33-13.79-32.32-.65-53.17S4863.74,1262.79,4877.24,1271.3Z"/><path class="cls-48" d="M4788,1329.91h0a1.47,1.47,0,0,0-1.44,1.48c.11,7.92-1.77,13.18-5.57,15.63-6,3.87-15.17-.34-15.26-.39a1.46,1.46,0,0,0-1.24,2.64,26.64,26.64,0,0,0,10.26,2.31,14.26,14.26,0,0,0,7.81-2.1c4.71-3,7-9.13,6.92-18.13A1.46,1.46,0,0,0,4788,1329.91Z"/><path class="cls-28" d="M5103.68,1411h0c-18.06-63.44-173.67-273-184-286.9-40.11-56-82.9-134-213.12-76.23-101.73,45.15-96.57,165.32-66,217s56.37,126,93.34,136.2l-7.78-21.85s18.22,32.13,44.86,47.06c16.18-5.85,33.07-10.15,47.38-11.06-.87-8.86-5-17.14-9.44-23.66a38.54,38.54,0,0,1-13.29.85c-34.7-4.29-86-41.66-93.28-74s-29.73-67.29-29.73-67.29,18.17-18.49,4.46-45.76c0,0,38.73,25.5,67.47,12.87l-14-6.45s44.18,2.57,72.83-16.85l-22.29-8.26s34.1,6.39,62.72-1.45c0,0,29-2.23,37,5.56s22.11,43.65,22,60.34c0,0,19-17.81-9.85-98.52a46.77,46.77,0,0,1,26.58-2c27.39,6,44.18,35.46,37.51,65.71-6.07,27.48-29.43,46.12-54.19,44.77-.25,19.67-2.72,38.76-8.73,51.86-.23.51-.51,1-.76,1.57,17.19,28.75,38.4,55.1,57.36,77.38.05,0,75.06,52.88,96.17,76.18s37.15,123.81,32.78,180.63a364.85,364.85,0,0,0-.6,36.54s31.19-22.92,28.27-116-32-168.91-32-168.91,35.38,53.87,42.45,95.4C5117.72,1495.77,5119.44,1455.78,5103.68,1411Z"/><path class="cls-50" d="M5023.31,1295.18l-4.85,20.87c-1-33.34-67.08-140.94-67.09-141a59,59,0,0,1,5.64,41.25c-6.07,27.48-29.43,46.12-54.19,44.77-.25,19.67-2.72,38.76-8.73,51.86-.23.51-.51,1-.76,1.57,17.19,28.75,38.4,55.1,57.36,77.38.05,0,75.06,52.88,96.17,76.18,8.18,9,15.58,29.62,21.34,54.75h0C5080.07,1463.26,5023.31,1295.18,5023.31,1295.18Z"/><path class="cls-50" d="M4925.75,1132.3s-131.14-17.44-172.9,5.87c0,0,4.76,18,20.83,20.39,0,0-31.13,14.08-62.4,6.31,0,0,7.1,16.51,18.27,18.94,0,0-38.36,16.51-59.24,11.17l3.88,4.85s-32.43,8.46-47,29.24c0,0-3-42.83,37.34-72.45S4825.28,1088.07,4925.75,1132.3Z"/><path class="cls-44" d="M4905.05,1103.38c-17.7-9.64-211.08-15.16-255.94-2.8l-.2.06c-43.45,7.92-87.9,26.24-117.81,64.95-50.56,65.44,96,63.48,96,63.48s26.32-114.33,169.08-107.53c0,0,89.27-3.85,129.53,10.76C4925.75,1132.3,4922.75,1113,4905.05,1103.38Z"/><path class="cls-51" d="M4571.25,1135.25c-59.67,41.48-50.68,64.26-36.66,76.55,29,18.11,92.55,17.27,92.55,17.27s21.64-94,132.08-106.46h0S4631,1093.74,4571.25,1135.25Z"/><path class="cls-2" d="M4894.83,1150.44a2.91,2.91,0,0,0-4.11.3l-55.29,63.94c-9.52-17.55-26.63-28.76-44.8-28.76a41.46,41.46,0,0,0-17.16,3.67c-23.32,10.55-32.54,40.72-20.53,67.26a58.11,58.11,0,0,0,17.09,21.84c-20.68,1.69-31.19,8.61-36.48,14.8a69.67,69.67,0,0,0-5.7-19.92c-9.43-20.84-27.38-34.85-44.67-34.85a29.37,29.37,0,0,0-12.13,2.57c-9.53,4.32-16.11,13.47-18.53,25.77-2.35,11.94-.48,25.51,5.26,38.2,9.43,20.85,27.38,34.85,44.68,34.85a29.13,29.13,0,0,0,12.12-2.57c11.66-5.28,18.41-17.84,19.32-32.79h.08c0-.21,3.18-20.11,44.35-20.62a46.9,46.9,0,0,0,21.5,5.38,41.39,41.39,0,0,0,17.17-3.68c11.36-5.14,19.74-15,23.59-27.81a56.15,56.15,0,0,0-2.36-37.67l56.89-65.81A2.92,2.92,0,0,0,4894.83,1150.44Zm-182.65,181.79a23.5,23.5,0,0,1-9.72,2c-15.05,0-30.87-12.62-39.37-31.42-5.24-11.59-7-23.91-4.85-34.67,2-10.41,7.45-18.07,15.21-21.59a23.52,23.52,0,0,1,9.73-2c15,0,30.86,12.63,39.36,31.43C4733.22,1299.58,4728.57,1324.82,4712.18,1332.23ZM4835,1256.35c-3.36,11.16-10.61,19.75-20.42,24.18a35.49,35.49,0,0,1-14.76,3.16c-17.23,0-33.55-11.48-41.58-29.25-10.68-23.6-2.78-50.31,17.62-59.53a35.5,35.5,0,0,1,14.76-3.17c17.22,0,33.55,11.49,41.58,29.25A50.55,50.55,0,0,1,4835,1256.35Z"/><path class="cls-52" d="M5113.87,1933.52s17.24,48.07-10.93,107.79c-22,46.59-36.41,64.1-36.41,64.1l7.28,7.28L4999.64,2203h-6s-29.13-142.76-185-91.78l-7.28,14.57v-20.39L4832,2028.2l-129.61-39.81-5.1,3.88-95.45-34s-54.4-113.67-5.82-184.51h96.14l5.13,10.68s192.45-8.74,259.72,15.54S5113.87,1933.52,5113.87,1933.52Z"/><path class="cls-18" d="M4801.41,2125.8l7.28-14.57c155.87-51,185,91.78,185,91.78h5.94l74.18-90.32-7.28-7.28s14.45-17.51,36.41-64.1c28.17-59.72,10.93-107.79,10.93-107.79S5024.28,1824.27,4957,1800s-259.73-15.54-259.73-15.54l-5.12-10.68H4596c-48.58,70.84,5.82,184.51,5.82,184.51l95.44,34,5.11-3.88c-37.36-103.43,3.85-142.76,11.13-132.08s37.39,36.42,49,45.16,32,91.29,41.76,99.87c7.47,6.61-35.89,3.06-56.31,1.06l81.68,25.09c14.49-12.44,34.41-27.11,49.17-31.74,24.52-7.7,105.12-65.15,101.24-48.15s65.55-16.51,87.51-17.48,31,83.52,29,94.68-48.55,32-122.85.49S4832,2028.2,4832,2028.2l-30.59,77.21Z"/><path class="cls-53" d="M4697.28,1784.45l-5.12-10.68H4596c-48.58,70.84,5.82,184.51,5.82,184.51l95.44,34,5.11-3.88C4626.19,1854.37,4697.28,1784.45,4697.28,1784.45Z"/><path class="cls-54" d="M4601.84,1958.28l95.44,34,5.11-3.88c-36.53-64.24-39.18-113.71-32.07-147.86v0c-13.84,33.72-18.94,14.35-31.2-14.06s-39.45,40.79-46,56.57-13.84-66-13.84-66l-1.27,3.36C4567.14,1885.67,4601.84,1958.28,4601.84,1958.28Z"/><polygon class="cls-55" points="4590.19 1928.18 4685.99 1955.52 4681.18 1943.52 4586.03 1914.52 4590.19 1928.18"/><path class="cls-53" d="M4801.41,2125.8l7.28-14.57c155.87-51,185,91.78,185,91.78h5.94l74.18-90.32-7.28-7.28C4942.71,1970.91,4832,2028.2,4832,2028.2l-30.59,77.21Z"/><path class="cls-54" d="M4918.54,2091.18c31.19-2.58.13-40.4-25.45-55s74.17-4.12,74.84-4c-78.45-33.68-135.93-4-135.93-4l-30.59,77.21v20.39l7.28-14.57c48.71-15.93,85-12.94,112-1.3C4920.67,2109.93,4887.35,2093.75,4918.54,2091.18Z"/><polygon class="cls-55" points="4965.85 2145.36 5022.34 2064.58 5029.29 2070.09 4970.61 2151.78 4965.85 2145.36"/><path class="cls-44" d="M4950.69,1391.93s75.05,52.87,96.17,76.18,37.15,123.81,32.78,180.63,10.19,177,26.22,220.68,8,64.1,8,64.1-59.72-46.62-95.41-38.6-92.5,102.69-167.52,106.33-64.14-103.42-95.44-120.9-2.89-85.22-5.07-128.19-1.46-60.45-1.46-60.45-59-22.58-78.66-37.88c0,0,29.86-176.26,40.06-192.28s68.76-43.81,107.94-46.3c0,0,9.31,63.22,38,64.67S4950.69,1391.93,4950.69,1391.93Z"/><path class="cls-51" d="M4901,1919.92c-36.42,29.14-74.29,69.92-123.33-25.73,0,0,21.36,98.57,66.52,88.86s112.16-78.18,136-88.86C4980.1,1894.19,4937.37,1890.79,4901,1919.92Z"/><path class="cls-51" d="M5022.34,1865.54s40.79,4.85,60.7,17.48,25.25,23.79,25.25,23.79S5091.78,1839.32,5022.34,1865.54Z"/><path class="cls-51" d="M5016.27,1734.64c2.19-10.16,30.59-86.63,23.31-120.87s1,45.52-39.95,124l-203.32,149.62s29.86,1.7,64.82-22.34,77.94-45.15,102-35c0,0-14.07-19.43-30.59-16.75l35.45-28.4s22.82,5.82,27.92,0,26.46-40.79,26.46-40.79S5014.09,1744.8,5016.27,1734.64Z"/><path class="cls-51" d="M4802.87,1771c14.56-9.9,70.89-94.87,70.89-94.87l-10.46-18s67-88.15,76.5-116.55-83.52,108.76-83.52,108.76l-32.05,46.21,6.54,6s-26.93,56.47-48.3,68.42C4782.47,1771,4788.3,1780.94,4802.87,1771Z"/><path class="cls-51" d="M4738.77,1549.27c-.28,1.54-.2,6.22.11,12.75C4739.13,1552.71,4739.16,1547.09,4738.77,1549.27Z"/><path class="cls-51" d="M4735.86,1640.24l-58.73-25.43s39.31,38,68.44,35.62c0,0-5.4-60.83-6.69-88.41C4738.19,1587.34,4735.86,1640.24,4735.86,1640.24Z"/><path class="cls-56" d="M4824.23,1696.64s90.8,87.84,166.06,76.9l22.83-30.36s-118-44.68-156.84-92.75Z"/><path class="cls-56" d="M4652.34,1648.74s51,36.66,96.63,43l-3.4-41.28s-57.78-19.42-77.2-44.67Z"/><path class="cls-57" d="M4585.33,1430.47s17.48-9.22,24.77-2.42,15,30.1,5.34,42.24-25.74,37.87-57.78,61.18-42.73,26.71-42.73,26.71,31.56,1,55.84-10.2,53.89-29.62,62.15-25.25,13.6,30.11-4.86,45.16-83,55.84-91.77,92.74,30.59,109,33.51,123.58l-5.83-3.64s11.8,31.34,11.87,51l-8.23-6.56s6.56,30.6,4.37,44.43-13.11,24.77-13.11,24.77,1.46,38.6,6.56,51,22.28,110.71,10.41,126.73l-4.59-10.92s-10.92,43-24,58.27l-2.19-11.66s-9,31.32-32.53,48.07v-15.29s-71.62,58.27-71.62,110,2.18,62.64,14.57,64.09,50.25,10.2,56.08,21.85c0,0,24,24,9.47,35.69,0,0-8.74,14.57-21.85,16,0,0-9.47,12.39-29.87,9.47,0,0-37.14-2.91-54.62-22.58s-23.31-99.78-23.31-99.78-5.1,59.73-7.28,104.88,3.64,110,18.21,116.54,66.28,32.77,66.28,52.44c0,0-2.92,11.65-14.57,11.65,0,0-7.28,12.38-18.21,10.2,0,0-11.65,12.38-24.76,7.28,0,0-.73,12.38-20.4,5.83s-58.26-30.59-69.19-40.79-27-100.51-26.22-110l-6.56,17.48s-15.29-43-13.1-67.73L4261,2398.2s-9.47-35.69,0-55.35l-18.21,31.32v-39.33s-16,36.41-29.13,50.25v-8.74s-13.84,14.57-37.15,32.78v-8.74s-.73,5.1-32.05,27v-8s-29.13,43-56.08,42.25-61.91.73-61.91.73,22.58,25.49,21.12,43.7c0,0-5.82,24.76-14.56,27.67,0,0-8.74,18.21-24,19.67,0,0,12.38,8-5.83,12.38s-114.35-24-168.24-25.49-88.86-16-100.52-28.41,0-39.33,0-39.33-60.45,18.21-131.83-16l10.93-5.83s-64.15-8.74-97.63-83l11,3.64s-55.36-76.47-34.24-135.47l5.1,8s13.28-105.35,107.46-138.34,139.77,39.59,130.77,83.38c0,0-38.66-47-85.71-20.41-28.1,15.88-57.66,84.6-4.27,124.79s117-49.79,137.37-85.18,51-103.78,144-177.56,248.34-205.15,304.73-279.53c0,0-12.6-3.8-11.4-16.3s36.59-53.29,64.19-122.87,73.18-129.57,123-145.16,90,3.59,116.37-7.8S4585.33,1430.47,4585.33,1430.47Z"/><path class="cls-58" d="M3931.77,2462.16c109.25-102.11-49.53-178.23-49.53-178.23l5.83,18.13c-37.88-27.68-80.12-18.13-80.12-18.13l8.74,12.11c-40.79,2.72-65.07,63.8-65.07,63.8s-1.94-38.84-.48-75.91c.71-18.23,8.51-36.88,16.25-51.14a304.06,304.06,0,0,1-24.9,31v0s-29.22,93.6-91.86,96-83-124.79-83-124.79l-2.91,20.4c-27.12-103.84,58.08-154.74,59-155.27a160.82,160.82,0,0,0-18.52,5.27c-94.18,33-107.46,138.34-107.46,138.34l-5.1-8c-21.12,59,34.24,135.47,34.24,135.47l-11-3.64c33.48,74.29,97.63,83,97.63,83l-10.93,5.83c71.38,34.23,131.83,16,131.83,16s-11.65,27,0,39.33,46.62,26.95,100.52,28.41,150,29.86,168.24,25.49,5.83-12.38,5.83-12.38c15.3-1.46,24-19.67,24-19.67,8.74-2.91,14.56-27.67,14.56-27.67,1.46-18.21-21.12-43.7-21.12-43.7s6.22-.26,15.37-.51l-3.72-6.78Z"/><path class="cls-58" d="M4353.12,2511.82l18.84,5.83a572.66,572.66,0,0,1-29.41-67c-13.11-36.41-1.45-154.6-1.45-154.6l-14.57,28c-1.46-30.5,22.94-116,22.94-116l-13.58,18.28c18.09-55.35,44.54-100.51,44.54-100.51C4363,2152,4318.52,2163,4318.52,2163c-174.08,45.88-75.75,171.89-75.75,171.89v39.33l18.21-31.32c-9.47,19.66,0,55.35,0,55.35l14.57-15.29c-2.19,24.76,13.1,67.73,13.1,67.73l6.56-17.48c-.73,9.47,15.3,99.79,26.22,110s49.53,34.23,69.19,40.79C4341.1,2561.35,4353.12,2511.82,4353.12,2511.82Z"/><path class="cls-58" d="M4512.5,2140.37v15.29c23.55-16.75,32.53-48.07,32.53-48.07l2.19,11.66c13.11-15.3,24-58.27,24-58.27l4.59,10.92c11.87-16-5.32-114.35-10.41-126.73s-6.56-51-6.56-51,10.93-10.93,13.11-24.77-4.37-44.43-4.37-44.43l8.23,6.56c-.07-19.64-11.87-51-11.87-51l5.83,3.64c-1.56-7.8-13.54-32.06-23-58.6-27.05-6-46.91,9.68-46.91,9.68,18.93,15.9,32,84.85,32,84.85-1.39-11.19-26.22-32.29-26.22-32.29,27.62,43.49,0,99.54,0,99.54L4485.84,1868c15.1,51,13.06,133.37,13.06,133.37L4480,2172.14A307.75,307.75,0,0,1,4512.5,2140.37Z"/><path class="cls-59" d="M4219.24,1766.76s43.19,25.53,84.71,0,58.27-168.28,94-191.59,54.62-13.84,54.62-13.84-36.41-29.86-62.64,4.37-59,147-69.19,163.15c-18,28.41-73.29,31.79-88.72,22.09Z"/><path class="cls-59" d="M4241.31,2267.1l-13.11,18.21c2.19-32.78,20.4-59,20.4-59l-12.39,7.29c14.57-46.62,82.31-70.65,82.31-70.65-54.63-10.93-96.14,30.59-96.14,30.59l5.82-16.76c-32.77,10.2-85.21,147.13-113.62,161.7s-66.28.73-66.28.73c13.84,13.83-4.37,39.33-75-24.77-59.88-54.32-105.09-51.62-117.49-49.53,28.84-3.22,107.24,60.58,123.32,80.85,16.75,21.12,6.55,88.13-47.34,116.4s-115.08,0-115.08,0,52.44,38,98.32,19.8,114.82-19.8,115-19.8c9.58-.34,36.55-1.18,58.31-.59,27,.73,56.08-42.25,56.08-42.25v8c31.32-21.85,32.05-27,32.05-27v8.74c23.31-18.21,37.15-32.78,37.15-32.78v8.74c13.11-13.84,29.13-50.25,29.13-50.25C4232.57,2299.88,4241.31,2267.1,4241.31,2267.1Z"/><path class="cls-59" d="M4469.28,2397.47c20.4,2.92,29.87-9.47,29.87-9.47,13.11-1.45,21.85-16,21.85-16,14.56-11.65-9.47-35.69-9.47-35.69-5.83-11.65-43.7-20.39-56.08-21.85s-14.57-12.38-14.57-64.09,71.62-110,71.62-110v15.29c23.55-16.75,32.53-48.07,32.53-48.07l2.19,11.66c13.11-15.3,24-58.27,24-58.27l4.59,10.92c6.62-8.94,4.2-43.51-.13-74.47-7.72,41.09-103.24,124.07-81.66,100.69,23.31-25.25,18.45-53.41,18.45-53.41l-13.6,8.74c7.77-22.33,0-52.11,0-52.11-6.79,54.72-72.83,139.51-90.31,175.44s-16.84,103-16.84,103.06c1.56,17.42,8,78.26,22.91,95C4432.14,2394.56,4469.28,2397.47,4469.28,2397.47Z"/><path class="cls-59" d="M4376.06,1727.15s-1,16.51,28.65,26.71,85.45-16.75,110.7-18.57,36.71,4.54,36.74,4.55c-6.88-17.43-13.67-37.17-16.14-54.56L4376.06,1699S4366.83,1714.53,4376.06,1727.15Z"/><path class="cls-59" d="M3751.62,2359.84c-2.91-21.85,21.42-91.77,21.42-91.77l-10.25,10.68c4.37-29.13,20.5-70.72,20.5-70.72-8,13.9-22.7,36.21-40.8,55.76v0C3723.62,2317.82,3751.62,2359.84,3751.62,2359.84Z"/><path class="cls-59" d="M3661.79,2414.71c-48.47-2.89-82.54-77.69-82.54-77.69l-1,22.82c-36.91-40.3-37.88-103.42-37.88-103.42l-8.74,18.45c-25.08-92.6,51.35-159.24,52.38-160.13-75.08,40-86.37,129.05-86.37,129.05l-5.1-8c-21.12,59,34.24,135.47,34.24,135.47l-11-3.64c33.48,74.29,97.63,83,97.63,83l-10.93,5.83c68.37,32.79,126.67,17.48,131.48,16.12l25.59-86C3739.94,2386.55,3726.86,2418.6,3661.79,2414.71Z"/><path class="cls-59" d="M4396.94,1883s17.48-18.94,14.56-42.24l10.68,21.37s13.6-23.32,3.89-50.51l13,11.65s-1.35-30.16-11.06-45.18c0,0,5.34,20.91,3.89,26.25L4418,1792.7s6.61,35.94,3.21,45.16l-17-21.36S4403.73,1870.88,4396.94,1883Z"/><path class="cls-59" d="M3872.77,2213.93s36.42,5.83,56.81,22.58l-5.83-17.48s47.35,15.29,59.73,39.33l-8-27.68s43,34.4,51,53.25c0,0-7.28-38.83-62.64-75.9l6.56,22.65s-39.33-26.95-57.54-29.13l6.55,16S3886.61,2213.93,3872.77,2213.93Z"/><path class="cls-52" d="M4334.46,1983.56l-10.2-61.91a5.82,5.82,0,0,0-9.62-3.4l-48.07,43a5.82,5.82,0,0,0,2.07,9.89l58.27,18.93a5.6,5.6,0,0,0,1.8.29,5.83,5.83,0,0,0,5.75-6.77Zm-52.58-20.4,32.61-29.15,6.92,42Z"/><path class="cls-60" d="M4281.88,1963.16s22-7.78,32.61-29.15l-90.41-172.87s-25.77,5.77-27,30.32C4197.11,1791.46,4251.81,1923.85,4281.88,1963.16Z"/><path class="cls-60" d="M4321.41,1976l242.64-35.15s6.23-23.36-5.18-46.66L4314.49,1934S4306.58,1947.59,4321.41,1976Z"/><path class="cls-61" d="M4558.87,1894.19l-205.74,33.52s132.9-16.72,119.8,0,12.91,24.47,12.91,24.47h0l78.21-11.33S4570.28,1917.49,4558.87,1894.19Z"/><path class="cls-60" d="M4281.88,1963.16s-13.52,180.87-8.71,224.2c0,0,33.79-20.07,49-25.44l-.8-185.92S4299,1959.55,4281.88,1963.16Z"/><path class="cls-61" d="M4322.21,2161.92l-.18-43.41s-27.55,57.52-29,42.6c-.93-9.49-10.66-7.1-20.86,4.75.1,8.83.41,16.2,1,21.5C4273.17,2187.36,4307,2167.29,4322.21,2161.92Z"/><path class="cls-52" d="M4589.59,1428.55s9.34-8.33,17.72-8.15,18.93,24,14.75,26-11.84-5.28-17.3-4.92S4579.16,1437.06,4589.59,1428.55Z"/><path class="cls-52" d="M4482.48,1476.05c3.2,4.87,3.16,10.55-.09,12.69s-8.47-.08-11.68-5-3.17-10.55.08-12.69S4479.27,1471.18,4482.48,1476.05Z"/><path class="cls-62" d="M4550.8,1554.51s21.18-9.56,33.93-19,43.33-28.41,61.18-21.49,16.52,13.48,14.63,15.66-20.75-11.23-37.54-6.34S4575.5,1553.51,4550.8,1554.51Z"/><path class="cls-25" d="M4677,1658.45s-10.55,39.72-19.56,38.19-130.4-46.21-130.4-46.21l-14.57,69.93s196.57,117,223.84,106.33,12.63-135,12.63-135Z"/><path class="cls-63" d="M4840.74,1709.67s68,57.3,127.22,63.13c0,0-128.19,114.59-177.72,114.59s-212.68-168-256.86-164.12-98.57,27.19-116.05,22.82-38.36-8.74-32.53-25.73c0,0-16-6.8-8.74-21.37,0,0-31.08-8.74-20.88-21.36s5.34,1,32.53-2.43,47.1-6.8,47.1-6.8-52.93-7.77-53.9-18.94,42.73-10.68,70.89-15.53,31.08-7.29,27.68-9.72-39.81-18.93-32-35.93,9.23,5.34,37.39,4.86,45.65,17,56.81,32.53,124.79,92.74,155.87,112.65,82.06,39.33,96.14,30.59S4840.74,1709.67,4840.74,1709.67Z"/><path class="cls-43" d="M4840.74,1709.67s21.33,35.69,55.09,51.47,18.16,48.89-8.26,76.39c42.52-30.9,80.39-64.73,80.39-64.73C4908.72,1767,4840.74,1709.67,4840.74,1709.67Z"/><path class="cls-43" d="M4383.9,1724.28s27.66,6,35.31,5.67,44.25-13.48,46.43-16.57-43,11.47-45.34,11.83-37.93-6.17-37.93-6.17l2.43,1.32Z"/><path class="cls-43" d="M4374.73,1702.44s39.2,4.56,44.48,3.11,45.34-12.93,42.24-14.21-42.24,6.85-44.61,7.25-44.35-.76-44.35-.76l3.57,1.16Z"/><path class="cls-64" d="M0,2245.19c24-15.46,263.45-14.46,341.29,206.58,0,0,163.28-62.27,231.33,190.15,0,0,195.81-124.79,401.36,126.69,0,0,153.55-77.84,236.44,23.95,0,0,561.17-107.78,777.08,119.75H0Z"/><path class="cls-64" d="M5774.94,2100.18s-147.56,27.79-129.86,195.66c0,0-123.95-16.25-141.66,137.79,0,0-330.2-66.87-398.25,191.15,0,0-225-13.5-367.86,163.57,0,0-399.5-123.95-498.43,124H5774.94Z"/><path class="cls-23" d="M1041.92,1603.06s4.4,255.36,75.06,303.12V1623.24Z"/><path class="cls-23" d="M1647.26,879.68s33.43-51.12,50.54-86.94,22.88-61.28,26.76-72.92,2.39-31.34,0-46.56,12.24-19.1,19.4-18.5c0,0,12.53-20.6,32.83-9.55,0,0,11.94-9.85,23,3.88,0,0,8.06-3.59,16.71,8,0,0,12.24,42.38,8.36,46.86a29.31,29.31,0,0,1-8.06,6.57s-23.88,31-29,39.1-34.75,123.44-51.4,177.67Z"/><path class="cls-24" d="M1746.35,744.59s9.94-8.55,20.69-5.37,13.53,3.38,15.62.8,7.13-6.92,10.87-6.65l.69,2.15a12.35,12.35,0,0,0-10.07,4.89s-1,4.38-9.15,2.39S1757.49,739.42,1746.35,744.59Z"/><path class="cls-24" d="M1744,654.76s48.75,24.57,59.69,52.23C1803.65,707,1791.31,662.22,1744,654.76Z"/><path class="cls-24" d="M1776.79,645.21l31.89,62.2C1806.94,674.21,1776.79,645.21,1776.79,645.21Z"/><path class="cls-24" d="M1799.77,649.09l12.83,56.11C1818.57,679.73,1799.77,649.09,1799.77,649.09Z"/><path class="cls-24" d="M1784.35,703.6l2.29-1.39s-15.42-10.15-27.56-11.14S1735.2,676,1733,671.57c0,0,6,17.11,22.89,21.69A168.07,168.07,0,0,1,1784.35,703.6Z"/><path class="cls-24" d="M1752.71,715.54s9.35,1.79,13.13,4.78,15.7.83,19.3,1,6.92,8,6.92,8-1.36-6.87-4.84-11a127.3,127.3,0,0,1-13.42.84C1767.24,719.12,1764.85,714.15,1752.71,715.54Z"/><polygon class="cls-24" points="1736.43 927.34 1739.86 915.95 1647.26 879.68 1736.43 927.34"/><polygon class="cls-25" points="1209.39 2433.8 1209.39 2474.43 1309.67 2474.43 1309.67 2423.1 1209.39 2433.8"/><path class="cls-26" d="M1201.63,2454.14s56.71,29.85,113.41,0c0,0,16.72,68.05,14.93,84.76,0,0-62.68,41.19-121.77,43.58s-96.11-14.33-96.11-14.33,5.38-39.76,29.85-49.73S1199.84,2478.61,1201.63,2454.14Z"/><path class="cls-27" d="M1208.2,2582.48c59.09-2.39,121.77-43.58,121.77-43.58,1.79-16.71-14.93-84.76-14.93-84.76-56.7,29.85-113.41,0-113.41,0-.65,8.92-5.53,18.54-12.62,27.66h0s20.37-18.12,45.44-3.79,68.65-14.25,65.06-.86-47.55,55.77-36.41,65.32-95.1,38.21-95.1,38.21l.48.57A276.43,276.43,0,0,0,1208.2,2582.48Z"/><path class="cls-28" d="M1119.46,2551.24l-9.55,4.37-17.51,27.1s31.83,33.39,113.81,26.63,137.29-52.13,137.29-52.13-8.77-31.84-14.33-33L1274.25,2552l-1.19,10.35s-70,20.69-105,18.31l-5.58-20.7Z"/><path class="cls-28" d="M1193.87,1914.14l9.55,448.08h-9.55l4.78,75.64s54.91,25.5,121.77,0L1326,2363l-12.74,2.39,25.47-424.6Z"/><path class="cls-29" d="M1193.87,1957.51s74,20.3,119.38,19.1l4.34,316.48,21.13-352.29-144.85-26.66Z"/><path class="cls-30" d="M1198.65,2437.86s54.91,25.5,121.77,0L1326,2363l-12.74,2.39c-54.91,13.93-109.83-3.18-109.83-3.18h-9.55Z"/><path class="cls-31" d="M1326,2363l-12.74,2.39c-24.74,6.28-49.47,6.24-69.19,4.32,0,0,61.08,45.84,56.18,74.44a174.2,174.2,0,0,0,20.18-6.3Z"/><polygon class="cls-25" points="1477.6 2433.8 1477.6 2474.43 1377.32 2474.43 1377.32 2423.1 1477.6 2433.8"/><path class="cls-26" d="M1485.36,2454.14s-56.7,29.85-113.41,0c0,0-16.71,68.05-14.92,84.76,0,0,62.67,41.19,121.77,43.58s96.1-14.33,96.1-14.33-5.37-39.76-29.85-49.73S1487.15,2478.61,1485.36,2454.14Z"/><path class="cls-27" d="M1478.8,2582.48c-59.1-2.39-121.77-43.58-121.77-43.58-1.79-16.71,14.92-84.76,14.92-84.76,56.71,29.85,113.41,0,113.41,0,.65,8.92,5.54,18.54,12.62,27.66h0s-20.37-18.12-45.44-3.79-68.64-14.25-65.06-.86,47.55,55.77,36.41,65.32,95.11,38.21,95.11,38.21l-.49.57A276.34,276.34,0,0,1,1478.8,2582.48Z"/><path class="cls-28" d="M1567.54,2551.24l9.55,4.37,17.51,27.1s-31.84,33.39-113.81,26.63-137.29-52.13-137.29-52.13,8.76-31.84,14.33-33l54.91,27.85,1.19,10.35s70,20.69,105.06,18.31l5.57-20.7Z"/><path class="cls-28" d="M1493.12,1914.14l-9.55,448.08h9.55l-4.77,75.64s-54.92,25.5-121.77,0L1361,2363l12.73,2.39-25.47-424.6Z"/><path class="cls-29" d="M1493.12,1957.51s-74,20.3-119.38,19.1l-4.34,316.48-21.13-352.29,144.85-26.66Z"/><path class="cls-30" d="M1488.35,2437.86s-54.92,25.5-121.77,0L1361,2363l12.73,2.39c54.92,13.93,109.83-3.18,109.83-3.18h9.55Z"/><path class="cls-31" d="M1361,2363l12.73,2.39c24.75,6.28,49.47,6.24,69.2,4.32,0,0-61.08,45.84-56.19,74.44a174.06,174.06,0,0,1-20.17-6.3Z"/><path class="cls-25" d="M1218.47,1033.77s-5.36,55-41.18,82.1c0,0,41.25,122.56,104.59,122.56S1363,1132.06,1363,1132.06s-38.51-17.09-38.51-99.07Z"/><path class="cls-24" d="M1363,1132.06s-38.51-17.09-38.51-99.07l-106.06.78a128.51,128.51,0,0,1-2.46,14.12h0s44.64,43.51,92.9,31.57c0,0,18.6,70.43-25.67,112.81v46.09C1345.46,1236.83,1363,1132.06,1363,1132.06Z"/><path class="cls-26" d="M1198.59,1088.88s-108.84,55.64-127.95,74.74-99.08,365.31-99.08,365.31,59.24,102.67,145.42,94.31L1099.3,1921.7s300.84,54.91,469.17-21.49l-78.8-650.63s193.4-93.36,210.12-118.91,63.27-189.1,63.27-189.1l-115.8-61.89-72.82,93L1326,1058.9s9.24,113.83-42.72,133.37C1283.24,1192.27,1217.48,1174.37,1198.59,1088.88Z"/><path class="cls-27" d="M1139.09,1294.94c-4-35-38,280.77-38.08,328.61l16-.31S1143.07,1330,1139.09,1294.94Z"/><path class="cls-27" d="M1483,1011.58l-4.33-5.66-152.71,53s9.24,113.83-42.72,133.37c0,0,41,5,62.53-71.63l7.17,62,27.63-41.07c-29.14,163.6-82.78,463.4-90.26,495.63-10.35,44.57-34.23,84.36-34.23,84.36l-142.46-14.32-1.95,5.71L1099.3,1921.7s173.93,31.73,331.29,13.36c-22.73,2.73-85.38-14.74-87.74-45.6-2.37-31-43.79-10.34-62.09,2.39s122.56-256.27,125.74-288.79-90.73,128.82-105,151.56,31-171.57,58.63-311.64c17.72-90,28.86-232.1,34.56-322.34h0c1-16,1.84-30.31,2.52-42.46,6.19-.64,18.1-2.74,27.65-9.73l-10.35-6.7s31,3.18,44.57-7.16l-10.34-9.55S1474.34,1045.77,1483,1011.58Z"/><path class="cls-2" d="M1213.18,1410.24h0a45.85,45.85,0,0,1-45.84-45.84v-72.16H1259v72.16a45.84,45.84,0,0,1-45.84,45.84Z"/><path class="cls-18" d="M1399.44,1033l-32.13,11.07s-51.15,560.13-113.42,667l0,.09a60.57,60.57,0,0,0-17.9-10.26c-41.16-15.52-190.44-10.74-190.44-10.74s-48.94,187.43-29.84,211.3,143.26,50.14,185.84,39.4S1252.1,1856,1265,1805.9c7.11-27.62,10-51.94,4.38-70.84C1291.18,1662.6,1387.53,1327.7,1399.44,1033Z"/><path class="cls-32" d="M1201.57,1940.8c42.58-10.75,50.53-84.76,63.44-134.9,7.11-27.62,10-51.94,4.38-70.84,21.79-72.46,118.14-407.36,130-702.07l-32.13,11.07s-51.15,560.13-113.42,667l0,.09a60.57,60.57,0,0,0-17.9-10.26,83.86,83.86,0,0,0-10.13-2.95c.43.24,22.28,12.15,25.43,36.38,3.18,24.47,0,43,0,43s-37.75,127.53-45.94,136.89c0,0-8.32,33.59-75,25.39C1159,1943.68,1185.84,1944.76,1201.57,1940.8Z"/><path class="cls-33" d="M1024,1784.31s56.2,49.44,80.08,54.22,140.08-55.71,147.24-61.28c0,0-24.22,117.79-45.94,136.89,0,0,16.49-49.35,17.29-78,0,0-100.28,33.43-118.59,30.24S1024,1784.31,1024,1784.31Z"/><path class="cls-2" d="M1129.7,1806.15c-4,12.8-13.87,21.1-22.07,18.54s-11.62-15-7.63-27.8,13.88-21.1,22.08-18.54S1133.7,1793.35,1129.7,1806.15Z"/><path class="cls-26" d="M1813.7,1488.59s21.14,16.46,36,30.06l-5.59-.78s28.89,39.92,32.31,53.71l-3.77-3.22s13.69,32.49,8.44,49.91l-3.69-5.94s4.09,44.1-11.7,53.73c0,0-14.25-24.58-15.14-53.49l-2.72,5.34s-11.9-30.52-14.17-48.29l-2.32,7S1799.5,1524.4,1813.7,1488.59Z"/><path class="cls-27" d="M1850.58,1612.57l-2.72,5.34s-11.9-30.52-14.17-48.29l-2.32,7s-31.87-52.17-17.67-88c0,0,33.76,46.47,43.2,77.37l-6.19-7.25s21.64,70.32,15,107.35C1865.72,1666.06,1851.47,1641.48,1850.58,1612.57Z"/><path class="cls-28" d="M1784,712.06s11,19.1,12.54,34,11.88,18,19.69,16.12c13-3.08,16.92-13.64,9.42-34.32a219.31,219.31,0,0,0-8.52-20.6s-3.58,1.2-4.48-2.08c0,0-6.86,5.07-8.95,1.79,0,0-8.06,7.16-10.45,3.88s-6.56-8.66-6.56-8.66S1779.91,704.25,1784,712.06Z"/><path class="cls-28" d="M1816.16,1467.09V744.59a2.39,2.39,0,1,0-4.77,0v722.5a13.13,13.13,0,1,0,4.77,0Z"/><path class="cls-34" d="M1811.44,1485.13s-20.53,24.9-34.45,44.8l6.36-2.39s-23.47,54.52-23.87,71.63l3.58-4.78s-7.56,41.79,3.18,60.89l2.79-8s6.76,52.92,27.85,60.09c0,0,10.3-32.63,3.76-66.86l4.6,5.57s6-39,4-60.48l4.55,7.56S1837.54,1523.5,1811.44,1485.13Z"/><path class="cls-35" d="M1800.64,1640.55l4.6,5.57s6-39,4-60.48l4.55,7.56s23.77-69.7-2.33-108.07c0,0-27.49,63.5-30.47,102.3l5.37-10.15s-7,88.34,10.54,130.13C1796.88,1707.41,1807.18,1674.78,1800.64,1640.55Z"/><path class="cls-25" d="M1426.51,997.36a78.18,78.18,0,0,0,9.22-15c6.61-14,7.66-28,2.64-37.31a20.06,20.06,0,0,0-5.24-6.36c-10.35-8.11-27.4-4.52-42.51,7.5a78.26,78.26,0,0,0-12.82,13c-17.1,21.83-20.07,48.07-6.61,58.61.25.2.53.34.79.52C1385.59,1028,1409.73,1018.78,1426.51,997.36Z"/><path class="cls-25" d="M1153.77,898.48c-15.82,6.48-20.12,32.53-9.61,58.2,9.56,23.33,28,38.24,43.21,35.92a19.82,19.82,0,0,0,4.46-1.17c15.81-6.48,20.11-32.54,9.6-58.2a77.6,77.6,0,0,0-10-17.66C1180.25,901,1165.49,893.68,1153.77,898.48Z"/><path class="cls-23" d="M1268.45,1067.1a101.05,101.05,0,0,0,115.9-83l20.7-125-198.87-32.93-20.7,125a101.06,101.06,0,0,0,83,115.9Z"/><path class="cls-36" d="M1321.49,931s30.49-10.24,46.41,10,7.92-11.8-10.34-20.47-26.84-2.95-26.84-2.95-1.88-3.39-4.69-4.26C1318.21,910.9,1308.4,934.27,1321.49,931Z"/><path class="cls-36" d="M1255,918.62s-25.16-20-47-6.45-3.41-13.8,16.72-15.71,26.23,6.4,26.23,6.4,2.92-2.55,5.87-2.4C1265,900.85,1266.2,926.17,1255,918.62Z"/><path class="cls-37" d="M1319,968.81a2.55,2.55,0,0,1,.72-4.55l.52-.31c18.18-10.85,30.37.49,37.4,11.92a2.55,2.55,0,1,1-4.35,2.68c-12.76-20.74-26.06-12.82-30.43-10.21-1.1.65-1.89,1.13-3,.85A2.47,2.47,0,0,1,1319,968.81Z"/><path class="cls-37" d="M1210.8,943.77a2.58,2.58,0,0,1-1-2.72,2.55,2.55,0,0,1,1.75-1.84c.14-.07.31-.18.53-.31,18.17-10.84,30.37.5,37.4,11.93a2.56,2.56,0,0,1-4.36,2.67c-12.77-20.75-26.06-12.82-30.43-10.21-1.1.66-1.89,1.13-3,.86A2.67,2.67,0,0,1,1210.8,943.77Z"/><path class="cls-38" d="M1253.79,1016.18l35.69,9S1268.83,1055.2,1253.79,1016.18Z"/><path class="cls-39" d="M1311.48,1047.05c-6.17-6.7-.87-21.62,11.84-33.34s28-15.79,34.19-9.09.87,21.62-11.84,33.34S1317.66,1053.75,1311.48,1047.05Z"/><path class="cls-39" d="M1205.42,976.33c-8.24,3.87-9,19.69-1.62,35.34s20,25.19,28.23,21.32,9-19.69,1.62-35.34S1213.67,972.46,1205.42,976.33Z"/><path class="cls-40" d="M1293.85,989l-.86-.2-13-3-2.75-.63-13.06-3-.85-.2a2.07,2.07,0,0,0-2.62,1.15l-1.6,6.92c-.22.92.61,1.9,1.85,2.18l.85.2s4.56,1.68,4.71,4.15c0,0-.39,1.17,4.88,2.39l2.52.58,2.75.64,2.52.58c5.27,1.22,5.43,0,5.43,0,1.22-2.14,6-1.66,6-1.66l.86.2a2.06,2.06,0,0,0,2.62-1.15l1.6-6.92C1295.91,990.24,1295.08,989.27,1293.85,989Z"/><path class="cls-41" d="M1262.2,981.89s16.82-15.32,32.65,7.55Z"/><path class="cls-28" d="M1450.81,1001.24c10.06,5.08,22.13-18.09,22.13-18.09s-12.07,7-20.79-7.68c-7.69-12.93,19.55-161.22-78.85-219v0s20.84-2.38,19.33-30.55S1283,641.35,1233.17,664c0,0,19-.5,25.85,2.51,0,0-54.52.51-71.63,25.66l17.61-6.54s-52,47.53-2.36,81.61h0c-47.76,43.53-61.89,116.28-69.08,129.78-11.4,21.41-53.68,33.35-53.68,33.35,17.44,14.75,45.63,4,45.63,4-8,16.71-38.23,25.19-38.23,25.19,6.71,1.65,26.16,3,26.16,3-13.42,19.08-64.09,20.53-64.09,20.53,19.07,31.27,67.44,42.68,67.44,42.68L1098,1036.19c26.16,23.27,74.78,14.08,74.78,14.08L1157,1068.45c14.53,3.54,38.71-2.33,55.4-7.25,1.19-6.61,6-17.88,6-17.88a101.38,101.38,0,0,1-31.14-50.72c-15.16,2.3-33.62-12.61-43.17-35.92-10.51-25.67-6.21-51.72,9.61-58.2,8.3-3.4,18.1-.64,27.07,6.39.3.54,5.68,10.76,3.29,22.38-2.46,11.93-5.82,43.17,1.23,55.9,0,0,7-75.39,24.33-82.83l43.22-18.51-16.13,20.62c40,5.54,84.79-11.87,84.79-11.87l-6.35,11.87c38.06-2.36,69-31.39,69-31.39-12.13,17.23,0,50.27,0,50.27l7.81-18.88c-1,3.86-.85,8.87-.09,14.05h0s-9.13,82.76-16.5,95.41c0,0,21.58-26.55,30.59-74.66,10.29-4,20.17-3.89,27.07,1.51a20.06,20.06,0,0,1,5.24,6.36c5,9.3,4,23.28-2.64,37.31a78.18,78.18,0,0,1-9.22,15c-16.76,21.4-40.87,30.56-54.49,21a101.27,101.27,0,0,1-41.84,39.25c-1.82.92-3.69,1.74-5.57,2.55l0,0a.08.08,0,0,1,0,0c22.67,24.47,85.31,9.18,85.31,9.18-20.79-8.56-16.1-27.07-16.1-27.07,13.82,20.68,51,7.93,51,7.93-7.37-4.23-11.4-14.08-11.4-14.08,43.77,14.47,49.63-24.61,49.63-24.61C1457.92,1026.17,1450.81,1001.24,1450.81,1001.24Z"/><path class="cls-42" d="M1384.25,921.31l7.81-18.88c-1,3.86-.85,8.87-.09,14.05h0s-9.13,82.76-16.5,95.41c0,0,21.58-26.55,30.59-74.66,10.29-4,20.17-3.89,27.07,1.51a20.06,20.06,0,0,1,5.24,6.36c5,9.3,4,23.28-2.64,37.31a78.18,78.18,0,0,1-9.22,15c-16.76,21.4-40.87,30.56-54.49,21a101.27,101.27,0,0,1-41.84,39.25c-1.82.92-3.69,1.74-5.57,2.55l0,0a.08.08,0,0,1,0,0c22.67,24.47,85.31,9.18,85.31,9.18-20.79-8.56-16.1-27.07-16.1-27.07,13.82,20.68,51,7.93,51,7.93-7.37-4.23-11.4-14.08-11.4-14.08,43.77,14.47,49.63-24.61,49.63-24.61-25.08,14.59-32.19-10.34-32.19-10.34,10.06,5.08,22.13-18.09,22.13-18.09s-12.07,7-20.79-7.68c-7.69-12.93,19.55-161.22-78.85-219v0s20.84-2.38,19.33-30.55S1283,641.35,1233.17,664c0,0,43.6-10.73,75.74,17.33,0,0-16.22-4.18-27,0,0,0,33.43,19.1,44.77,32.23s-101.31,34.54-124.08,53.68c0,0,75.92-21.53,106.27,0s4.57,57.94-17.76,68.69c0,0,20.65,4.18,51.69-13.73,0,0,4.2,27.46-8.35,40.59,0,0,30.8-7.76,42-26.86,0,0,5.64,26.86-13.69,38.8,0,0,18.29-5.37,26-19.1,0,0,2.83,4.57-4.55,15.42-.42.59-.75,1.25-1.11,1.88-.47.88-1,1.89-1.51,3.06C1374.23,893.89,1384.25,921.31,1384.25,921.31Z"/><path class="cls-26" d="M1202.64,767.23s81.74-40.79,170.66-10.82C1373.3,756.41,1286.09,682.83,1202.64,767.23Z"/><path class="cls-13" d="M1867.32,2059s-11.54-44.57-19.5-40.59-30.24,44.57-30.24,44.57-21.49,9.15-26.27,13.92a105.86,105.86,0,0,0-9.55,11.54s-6,1-8.16,2-10.94,1.79-13.13-1.19c0,0,.4,5.37,2.79,7.36,0,0-7.56,1.39-9,4.38h4.38s-14.72,25.07-12.93,36.41l2-5s7.16,25.46,7,34-13.93,23.48-18.1,25.87-12.54,1.19-13.93-2.39c0,0,1.59,7.16,5.77,10,0,0-20.69,7.16-27.06,3.58,0,0,4.57,13.73,13.33,14.52,0,0-8.76,9.55-17.31,15.12a22.82,22.82,0,0,0,12.34-2.38s-7.76,16.71-18.71,22.08c0,0,10.15.6,16.72-3.78,0,0-6.77,47.95-18.11,59.3,0,0,11.54-3,15.32-7.57,0,0-1.19,47.36,4.58,56.71l6.56-16.31s0,39,7.36,46.16l2.19-9.95s7.56,18.5-2.38,25.07c0,0,8.35,3.78,13.72,1.79,0,0,2.19,33.62,4.58,39.2l3.58-6.77s5.57,69.24,5.17,82.77-1.59,18.71-.79,25.07-1.59,30.25-5.57,35.42-14.73,14.72-10,23.08,11.54,3.58,11.54,3.58,4.38,3.51,11.94,1.36c0,0,6.36,6.74,15.12.7,0,0,2.79,6.7,11.14,5.1,0,0,3.19,8.76,14.33,4.78,0,0,8.75,5.17,19.1-1.19,0,0,8,1.19,14.72-8.76s6.37-20.29,10.35-20.29,23.08,2.38,23.08,2.38-7.16,11.94-.8,14.33c0,0,2.39,10.74,12.74,5.17,0,0,1.59,6.37,12.73,2,0,0,6,3.19,19.5-1.59s17.91-6.37,41-6,29.45.4,38.6-5.17,11.94-12.74,11.94-12.74,8,12.74,19.1,14.33l-2.39-7.16s6,9.55,15.92,8.75v-6.76s8,8.75,12.73,9.55c0,0-6,18.7-4,25.47,0,0,3.58-26.67,55.71-25.07s93.52,31,93.52,31h-12.73s8,14.73,34.62,21.49,84-9.15,92.72-38.6,1.59-120.57-27.46-139.28-78-39.39-78-39.39l20.7-2.39s-37-31.44-80-7.16-69.24,49.74-85.95,45.76-28.26-74.81-39.8-99.48l9.55,4s-25.07-52.13-40.19-72-33.43-54.52-33.43-54.52l9.16,6.77-9.56-23.88s-6.36-29.85-4.37-44.57,4-20.69,4-20.69l4.77-6s-13.93,2-20.69,2c0,0,9.15-6.77,15.92-7.56,0,0-4.78-6-6-17.11s-8.36-47.76-8.36-47.76,6-72.82-.79-67.25-44.57,40.19-44.57,40.19S1878.86,2057.79,1867.32,2059Z"/><path class="cls-14" d="M1950.14,2232.15l-2.83-19.12-.64-8s-1.35-15.91-6.93-19.54-43.37,1.24-89.11,11.59-94.34-25.07-94.34-25.07l-15.47,16.78s8.42,21.52,26.27,34.95c0,0-5.33,25.52,9.25,33.85s26.46-4.8,26.46-4.8,38.25,29.85,58.55,26.27l-6.41-7.17s24.32,4,40.63-6.76l-8.35-3.58S1935.46,2246.94,1950.14,2232.15Z"/><path class="cls-13" d="M1935.77,2029.14l1.31.07A.84.84,0,0,0,1935.77,2029.14Z"/><path class="cls-15" d="M1810,2210.2l-3.59-7.16s17.51,7.56,30.25,7.16l-2-4.77s28.65,7.16,45.36.79l-6-3.58s33,2.79,47.76-4.77l-5.18-3.19s27-14,30,10.34h0a65,65,0,0,1,.24-11.53c2-14.72,4-20.69,4-20.69l4.77-6s-13.93,2-20.69,2c0,0,9.15-6.77,15.92-7.56,0,0-4.78-6-6-17.12s-8.36-47.75-8.36-47.75,5.09-62.16.52-67.18l-1.31-.07s-4.78,62.48-13.54,72.43c0,0-3.18-9.55-9.55-13.93l6.77-.4-28.25-17.91s-12.34-11.54-23.88-10.34c0,0-11.54-44.57-19.5-40.59,0,0,4,34.22-.8,39.79l-29.44,4.78s-21.49,9.15-26.27,13.92a105.86,105.86,0,0,0-9.55,11.54s-6,1-8.16,2-10.94,1.79-13.13-1.19c0,0,.4,5.37,2.79,7.36,0,0-7.56,1.39-9,4.38h4.37s-14.72,25.07-12.93,36.41l2-5s7.16,25.46,7,34a11.53,11.53,0,0,1-.38,2.42h0S1777.78,2208.21,1810,2210.2Z"/><path class="cls-16" d="M1754.34,2168.86s23.44,39.35,55.68,41.34l-3.59-7.16s17.51,7.56,30.25,7.16l-2-4.77s28.65,7.16,45.36.79l-6-3.58s33,2.79,47.76-4.77l-5.18-3.19s27-14,30,10.34h0a65,65,0,0,1,.24-11.53c2-14.72,4-20.69,4-20.69l4.77-6s-13.93,2-20.69,2c0,0,9.15-6.77,15.92-7.56,0,0-4.78-6-6-17.12s-8.36-47.75-8.36-47.75,4.38,56.91-4.77,61.28-9.56,13.14-20.7,23.93-65.7,7.51-65.7,7.51l7.54,7.44c-23.54,1.88-56.15-9.43-56.15-9.43l3.69,6.77c-14.33,3.58-45.77-27.46-45.77-27.46a11.53,11.53,0,0,1-.38,2.42Z"/><path class="cls-17" d="M1740.82,2188.78s75.26,103.86,209.32,34.16l-3.56-20.27s-128.18,59.32-192.26-33.82C1754.32,2168.85,1738.87,2179.69,1740.82,2188.78Z"/><path class="cls-18" d="M1802.1,2241c-2.71,12.06-12.59,20.1-22.07,18s-15-13.64-12.24-25.7,12.59-20.11,22.07-18S1804.82,2229,1802.1,2241Z"/><path class="cls-19" d="M1750.32,2519.4c-.39,13.53-1.59,18.71-.79,25.07s-1.59,30.25-5.57,35.42-14.73,14.72-10,23.08,11.54,3.58,11.54,3.58,4.38,3.51,11.94,1.36c0,0,6.37,6.74,15.12.7,0,0,2.79,6.7,11.14,5.1,0,0,3.19,8.76,14.33,4.78,0,0,8.75,5.17,19.1-1.2,0,0,8,1.2,14.72-8.75s6.37-20.29,10.35-20.29,23.08,2.38,23.08,2.38-7.16,11.94-.8,14.33c0,0,2.39,10.74,12.74,5.17,0,0,1.59,6.37,12.73,2,0,0,6,3.19,19.5-1.59s17.91-6.37,41-6,29.45.4,38.6-5.17,11.94-12.74,11.94-12.74,8,12.74,19.1,14.33l-2.39-7.16s6,9.55,15.92,8.75v-6.76s8,8.75,12.73,9.55c0,0-6,18.7-4,25.47,0,0,3.58-26.67,55.71-25.07s93.52,31,93.52,31h-12.73s8,14.73,34.62,21.49,84-9.15,92.72-38.6,1.59-120.57-27.46-139.28-78-39.39-78-39.39l20.7-2.39s-37-31.44-80-7.16-69.24,49.74-85.95,45.76-28.26-74.81-39.8-99.48l9.55,4s-25.07-52.12-40.19-72-33.43-54.52-33.43-54.52l9.16,6.77-9.56-23.88s-2.23-10.54-3.64-22.18c0,0-2.52,28.75-4.91,36.5l-4.18-11.34s-22.09,31.64-39.4,40.59c0,0,25.07-3.58,37-14.32,0,0-11.94,25.66-24.47,31,0,0,17.31,1.79,27.46-5.38,0,0-15.52,19.11-29.85,23.88,0,0,13.73,2.39,24.48-6,0,0-26.27,25.17-49.55,28.11,0,0,6.57,11.29,20.3,13.08,0,0-17.31,4.18-29.25,0,0,0,6,5.37,6.56,17.91,0,0-6.56-4.18-10.74-4.78,0,0,1.19,18.5-23.28,31V2385.5s-13.73,16.71-34,21.48l6-19.1s-16.12,12.54-33.43,19.1l6-15.52s-22.09,6-26.86,26.27l-6-15.52s-15.36,21.26-14.33,34.42C1745.15,2436.63,1750.72,2505.87,1750.32,2519.4Z"/><path class="cls-20" d="M1923.42,2576.21s6.87-.48,18.71-17.41,1.2-56.51,1.2-56.51c-6.77-81.18,73.61-64.85,73.61-64.85-97.89-25.86-96.3,94.7-96.3,94.7-3.18-21.09-31.15-29-31.15-29,2.67,6.36,0,17.9,0,17.9-8.08-37.4-38.09-47.35-38.09-47.35,7.56,8.75,8.76,25.47,8.76,25.47,8.75,31.43-17.91,89.14-17.91,89.14,4,0,23.08,2.38,23.08,2.38C1877.67,2567.55,1923.42,2576.21,1923.42,2576.21Z"/><path class="cls-20" d="M2224.27,2621.27l13.33,9.56c-22.68,4.77-63.87-20.3-124.95-32.64-52-10.5-66.37,20.53-69.48,30,2.51-6.7,13-23.7,54.95-22.41,52.13,1.59,93.52,31,93.52,31h-12.73s8,14.73,34.62,21.49,84-9.15,92.72-38.6c3.8-12.78,4.59-37.17,1.91-62.23-6.07,21.79-18.85,41-29.37,51.16C2257.3,2629.37,2224.27,2621.27,2224.27,2621.27Z"/><path class="cls-20" d="M2070.27,2573.52c61.28-51.33,154,5.57,154,5.57-20.49-58.29-70.24-61.08-102.47-64.66s-38.2,9-38.2,9c5.37-1.19,11.94,1.79,11.94,1.79-17.33,4.73-34.39,18-42.45,20l-3.26-14.89c1.31-18.95-8.22-44.82-11.72-53.56v0l0,0c-.75-1.89-1.25-3-1.25-3,.12.46.2.91.31,1.37-2.84-4.47-12.58-16.12-36.12-14.5-29,2-33.43,21.88-33.43,21.88,3.58-2.78,11.24-2.38,11.24-2.38-17.82,9.94-16,26.26-16,26.26l10-5.17c-6.36,12.73,10,63.67,5.18,77.2s-21.89,21.88-41.39,22.65c-19.09.76-30,10.21-30.42,10.6,1.09-.3,2.16-.6,3.36-1,13.53-4.77,17.91-6.37,41-6s29.45.4,38.6-5.17,11.94-12.74,11.94-12.74,8,12.74,19.1,14.33l-2.39-7.16s6,9.55,15.92,8.75v-6.76s8,8.75,12.73,9.55l32.23-28.65Z"/><path class="cls-21" d="M1842.25,2588.25s26.26-54.12,17.91-89.14c0,0,11.93,29,8,46.16,0,0,11.14-4,12.33-9.55,0,0,2,21.09-7.16,30.64,0,0,13.93-6.77,26.26-4l-7.16,4.78s25.87,5.17,35,.39,17.51-23.87,17.51-33.42-15.92-61.68,11.94-84.77,51.33-17.44,62.07-11.5c0,0-27.85-7.6-56.9,15.48s-10,73.62-10,80.79-8.75,31.43-13.53,35a43.75,43.75,0,0,0,19.9-4s-7.56,10.74-38.6,11.14-49.74,3.58-54.52,14.32Z"/><path class="cls-21" d="M1890,2612.12s2.39-13.53,12.74-15.52C1902.74,2596.6,1886.42,2595.41,1890,2612.12Z"/><path class="cls-21" d="M1878.59,2612.12s-.63-17.71,13.7-19.5C1892.29,2592.62,1870,2589.54,1878.59,2612.12Z"/><path class="cls-21" d="M1864.53,2605s1.2-16.22,18.51-19.2C1883,2585.76,1868.71,2592.22,1864.53,2605Z"/><path class="cls-21" d="M1772.61,2608.61a10.29,10.29,0,0,1,2.79-13.25c7.16-5.92,15.91-35.37,17.5-65.21s-2.78-50.14-2.78-50.14,1,60.08-7.85,78.79S1760.68,2602,1772.61,2608.61Z"/><path class="cls-21" d="M2036.84,2473.64s13.93,50.14-35.81,113C2001,2586.65,2065.1,2552.43,2036.84,2473.64Z"/><path class="cls-21" d="M2046.39,2605.36s11.14-20.3,32.24-28.65l-8.36-3.19s18.3-15.52,49.34-14.72,93.92,11.94,104.66,20.29c0,0-23.08-43-47-42.58l9.55,9.55s-30.64-11.87-51.53-1.75l18.9,1.75s-72.42-2-95.9,33.43l9.55-1.19S2056.34,2583.87,2046.39,2605.36Z"/><path class="cls-21" d="M1783.75,2613.71s-5.57-9.15,2.79-15.52C1786.54,2598.19,1782.21,2607.2,1783.75,2613.71Z"/><path class="cls-21" d="M1798.08,2618.49s-4.58-8.36.79-13.53C1798.87,2605,1796.83,2613.32,1798.08,2618.49Z"/><path class="cls-21" d="M1817.18,2617.29s-5.77-5.76-1.14-11.34C1816,2606,1815.49,2614.81,1817.18,2617.29Z"/><path class="cls-21" d="M1757.49,2607.91s-2.19-6.48,1.69-10.36Z"/><path class="cls-21" d="M1745.55,2606.55a7.8,7.8,0,0,1,0-11.19S1744.16,2603.62,1745.55,2606.55Z"/><path class="cls-22" d="M1827.2,2119.25a1.2,1.2,0,0,0-1.6-.55c-6.56,3.24-12.49,4-17.6,2.22a19.16,19.16,0,0,1-10-8.58c0-1.75,0-6.06,0-8.51,3.37-1.29,11.66-6.28,11.92-7.74.29-1.69.29-2.48-5-4s-16.61,0-16.61,0c-4.83,2.77,3.79,9.71,7.28,11.57,0,2.39.05,6.75,0,8.48-3.7,4.9-7.39,7.23-10.84,6.84-6.34-.69-10.52-9.87-10.56-10a1.21,1.21,0,0,0-1.58-.61,1.2,1.2,0,0,0-.6,1.58c.19.43,4.76,10.52,12.47,11.36a8.89,8.89,0,0,0,1,.06c3.73,0,7.45-2.35,11.08-6.77a21.06,21.06,0,0,0,10.58,8.5,19.72,19.72,0,0,0,6.51,1.08,29.53,29.53,0,0,0,13-3.39A1.2,1.2,0,0,0,1827.2,2119.25Z"/><path class="cls-22" d="M1858.6,2092.73c-1.25,3.58-3.9,5.91-5.93,5.2s-2.65-4.18-1.4-7.76,3.9-5.91,5.93-5.2S1859.85,2089.15,1858.6,2092.73Z"/><path class="cls-22" d="M1798.75,2084.58c.26,2.68-.76,5-2.27,5.11s-3-1.9-3.21-4.58.75-5,2.27-5.12S1798.49,2081.9,1798.75,2084.58Z"/><path class="cls-2" d="M1852.68,2102.78c-17.4-12.2-33.59-4.1-33.75-4a.6.6,0,0,0,.55,1.06c.16-.08,15.72-7.84,32.52,3.94a.6.6,0,0,0,.34.11.6.6,0,0,0,.34-1.09Z"/><path class="cls-2" d="M1820.09,2102.44a.61.61,0,0,0-.37.77.6.6,0,0,0,.77.36c.11,0,11.39-3.89,21.73,5.64a.59.59,0,0,0,.41.16.63.63,0,0,0,.44-.19.6.6,0,0,0,0-.85C1832.14,2098.31,1820.2,2102.41,1820.09,2102.44Z"/><path class="cls-2" d="M1820.84,2106a.6.6,0,0,0,.16,1.19c.11,0,11.93-1.52,20.14,9.94a.58.58,0,0,0,.48.25.66.66,0,0,0,.35-.11.61.61,0,0,0,.14-.84C1833.48,2104.42,1821,2106,1820.84,2106Z"/><path class="cls-2" d="M1751.94,2096.26c17.3-7.27,29.75,2.76,29.87,2.85a.53.53,0,0,1-.67.82c-.13-.1-12.09-9.71-28.8-2.7a.48.48,0,0,1-.31,0,.5.5,0,0,1-.38-.31A.54.54,0,0,1,1751.94,2096.26Z"/><path class="cls-2" d="M1780.13,2102.08a.53.53,0,1,1-.56.9c-.09-.06-9.1-5.49-19.82.79a.51.51,0,0,1-.38.06.56.56,0,0,1-.34-.25.53.53,0,0,1,.19-.72A21.05,21.05,0,0,1,1780.13,2102.08Z"/><path class="cls-2" d="M1778.81,2105a.53.53,0,0,1-.37,1c-.08-.05-10-3.54-19.24,4.81a.55.55,0,0,1-.46.12.53.53,0,0,1-.24-.91A21,21,0,0,1,1778.81,2105Z"/><path class="cls-23" d="M4596,1773.77s-128.19-4.86-144.22,30.1,7.29,100.51,40.79,161.69,128.57,246.19,128.57,246.19-115.46,42.24-134.4,67-11.65,33.51-11.65,33.51H4722s-16.75-88.86-32.78-144.22-54.12-187.91-58.38-211.22S4635.82,1802.24,4596,1773.77Z"/><path class="cls-43" d="M4601.84,1958.28l-52.44-19.39s52.44,25.11,61.18,44.83S4689.24,2168,4689.24,2168L4636,1970.45Z"/><path class="cls-44" d="M4619.1,2207.73s42,40,83.29,11.57c0,0,41.72,74,40.27,99.27H4455.2s-4.85-24.28,14.57-39.33S4619.1,2207.73,4619.1,2207.73Z"/><path class="cls-45" d="M4702.39,2219.3c-41.24,28.44-83.29-11.57-83.29-11.57s20.62,33.63,56.06,37,29.14,31.08,14.08,32.54-84.48,10.68-60.69,17-159.27,15.54-159.27,15.54v8.74h273.38C4744.11,2293.32,4702.39,2219.3,4702.39,2219.3Z"/><path class="cls-28" d="M4736.42,2290.87s7.69-1.43,14,11.68,14.08,37.38,8.25,37.38H4436.27s6.72-37.62,20.35-41.63c0,0,9.75,2.79,12.66,11.53,0,0,166.07,0,181.61-3.89S4708.33,2289.38,4736.42,2290.87Z"/><path class="cls-23" d="M4801.41,2125.8s-32.53,69.44-25.74,98.57,42.73,64.09,76.72,72.83,93.23-19.42,93.23-19.42-9.71,96.14,29.14,96.14,58.26-94.2,61.18-132.07-4.86-76.72-4.86-76.72S4900,2048.6,4825.2,2080.64Z"/><path class="cls-43" d="M4945.62,2277.78s21.49,44.31,44.39,19.61,25.73-60.95,25.73-60.95C5002.46,2265.15,4945.62,2277.78,4945.62,2277.78Z"/><path class="cls-43" d="M4937.61,2261.27c67.37-22.21,91.68-94.37,91.68-94.37L4999.63,2203h-5.94C4968.57,2250.71,4937.61,2261.27,4937.61,2261.27Z"/><path class="cls-43" d="M4808.69,2111.23l-7.28,14.57s125.27-61.91,192.28,77.21C4993.69,2203,4963.1,2047.14,4808.69,2111.23Z"/><path class="cls-44" d="M5060,2279.48c-2.91-34.23-23.38-121.47-23.38-121.47l-7.3,8.89v25.51c-7.72,31.35-21.28,73.75-39.28,80.52-29.09,10.92-44.39,4.85-44.39,4.85l-25.79,10.32s6.85,109.37,30.89,123.94,66.28,6.56,75,0S5062.89,2313.71,5060,2279.48Z"/><path class="cls-45" d="M4936.38,2294.05c4.14,1.46,31.73,28.52,53.63,3.34s35.55-75.45,39.28-58,21.63-8.59,17.28-36.41h0c-5.24-24.77-10-45-10-45l-7.3,8.89v25.51c-7.72,31.35-21.28,73.75-39.28,80.52-29.09,10.92-44.39,4.85-44.39,4.85l-25.79,10.32s2.51,39.93,9.8,74.75l6.75,1.79S4932.24,2292.59,4936.38,2294.05Z"/><path class="cls-28" d="M4919.83,2288.1s1,103.55,13.41,123.94,64.09,34.23,99.06,16.75,36.41-134.74,35-159.51S5036.59,2158,5036.59,2158s15.37,88,16.83,109.82-26.22,126.16-29.14,130.09l-10.19-20.84-57.54,8-4.37,12.83s-8-6.27-14.57-28.85S4919.83,2288.1,4919.83,2288.1Z"/><path class="cls-46" d="M4949,2408.88l3.16-11s-8-6.27-14.57-28.85-17.78-81-17.78-81,.63,63.42,6.84,100.77c.3-7.26.62-18.29,3-26C4934.16,2347.81,4949,2408.88,4949,2408.88Z"/><path class="cls-25" d="M4797,1377.66s19.29,17.29,21.28,37.59c0,0-44.07,19.84-59.23,62.85s18.88,107.66,82.61,87.32,150.35-86.09,157.62-106.17-108.49-108.83-134.53-210.11S4712.37,1293.19,4797,1377.66Z"/><path class="cls-43" d="M4759.08,1478.1c-15.16,43,18.88,107.66,82.61,87.32s150.35-86.09,157.62-106.17-108.49-108.83-134.53-210.11-152.41,44-67.75,128.52a83.5,83.5,0,0,1,13.59,16.65h0s43.56-7,66.94-28.42,39.4-5.82,42.8,5.83-15.72,79.5-42.8,93.23-47.22-8.61-59.26-49.7C4818.31,1415.25,4774.24,1435.1,4759.08,1478.1Z"/><path class="cls-25" d="M4957,1216.35c-6.67,30.24-34.29,49.86-61.67,43.82s-44.19-35.46-37.51-65.71,34.28-49.86,61.67-43.82S4963.68,1186.1,4957,1216.35Z"/><path class="cls-43" d="M4940.83,1212.78c-4.5,20.37-23.1,33.59-41.55,29.52s-29.77-23.89-25.27-44.27,23.09-33.59,41.55-29.52S4945.32,1192.4,4940.83,1212.78Z"/><path class="cls-23" d="M4672.57,1251.17s22.43,35,29.73,67.29,58.58,69.69,93.28,74,84.38-48.66,98.51-79.46,8.83-94.71.51-121.47S4809.36,1074,4738.46,1113,4636.53,1190.71,4672.57,1251.17Z"/><path class="cls-47" d="M4681,1268.14s-1.17-9.37,12.36-16c15.5-7.54,21.91,5.17,23.92,2.61s-8-17.59-25.19-13.84S4674.31,1261.54,4681,1268.14Z"/><path class="cls-47" d="M4757.28,1228.86s36.78-35.7,57.89-26.46,4.4-5.21-6.31-9.82c-21.33-9.16-48.28,21-51.93,12.79-1.29-2.89-14.7,13.15-12.09,20.38S4749.42,1235.78,4757.28,1228.86Z"/><path class="cls-25" d="M4734.54,1310.27s1.51-2,3.67-5.09,17.08-18.7,23.93-9.75,7.19,11.18.36,18.69c-4.86,5.35-28.43-2.13-28.43-2.13"/><path class="cls-48" d="M4745.82,1303.3l2.36-1.29,11.21-6.15.74-.4a2.14,2.14,0,0,1,2.93.79l4.21,7.68a2.14,2.14,0,0,1-.9,2.9l-.74.41s-3.67,2.87-2.85,5.76c0,0,.82,1.27-3.7,3.75l-2.16,1.19-8.84,4.14a5.45,5.45,0,0,1-7.23-1.25l-.73.41h0a2.16,2.16,0,0,1-2.94-.8l-3.11-8.45s-.21-2.15,2.54-3.63Z"/><path class="cls-37" d="M4803.83,1257.66l-10.59,3.53-6.33-19a5.59,5.59,0,0,1,.3-4.24,5.52,5.52,0,0,1,3.23-2.82h0a5.58,5.58,0,0,1,7.07,3.53Z"/><path class="cls-37" d="M4722,1296.84l-9.23,6.3-11.26-16.52a5.59,5.59,0,0,1,1.46-7.76h0a5.61,5.61,0,0,1,4.05-.9,5.54,5.54,0,0,1,3.71,2.37Z"/><path class="cls-49" d="M4877.24,1271.3c13.5,8.52,13.79,32.32.65,53.17s-34.76,30.85-48.26,22.33-13.79-32.32-.65-53.17S4863.74,1262.79,4877.24,1271.3Z"/><path class="cls-48" d="M4788,1329.91h0a1.47,1.47,0,0,0-1.44,1.48c.11,7.92-1.77,13.18-5.57,15.63-6,3.87-15.17-.34-15.26-.39a1.46,1.46,0,0,0-1.24,2.64,26.64,26.64,0,0,0,10.26,2.31,14.26,14.26,0,0,0,7.81-2.1c4.71-3,7-9.13,6.92-18.13A1.46,1.46,0,0,0,4788,1329.91Z"/><path class="cls-28" d="M5103.68,1411h0c-18.06-63.44-173.67-273-184-286.9-40.11-56-82.9-134-213.12-76.23-101.73,45.15-96.57,165.32-66,217s56.37,126,93.34,136.2l-7.78-21.85s18.22,32.13,44.86,47.06c16.18-5.85,33.07-10.15,47.38-11.06-.87-8.86-5-17.14-9.44-23.66a38.54,38.54,0,0,1-13.29.85c-34.7-4.29-86-41.66-93.28-74s-29.73-67.29-29.73-67.29,18.17-18.49,4.46-45.76c0,0,38.73,25.5,67.47,12.87l-14-6.45s44.18,2.57,72.83-16.85l-22.29-8.26s34.1,6.39,62.72-1.45c0,0,29-2.23,37,5.56s22.11,43.65,22,60.34c0,0,19-17.81-9.85-98.52a46.77,46.77,0,0,1,26.58-2c27.39,6,44.18,35.46,37.51,65.71-6.07,27.48-29.43,46.12-54.19,44.77-.25,19.67-2.72,38.76-8.73,51.86-.23.51-.51,1-.76,1.57,17.19,28.75,38.4,55.1,57.36,77.38.05,0,75.06,52.88,96.17,76.18s37.15,123.81,32.78,180.63a364.85,364.85,0,0,0-.6,36.54s31.19-22.92,28.27-116-32-168.91-32-168.91,35.38,53.87,42.45,95.4C5117.72,1495.77,5119.44,1455.78,5103.68,1411Z"/><path class="cls-50" d="M5023.31,1295.18l-4.85,20.87c-1-33.34-67.08-140.94-67.09-141a59,59,0,0,1,5.64,41.25c-6.07,27.48-29.43,46.12-54.19,44.77-.25,19.67-2.72,38.76-8.73,51.86-.23.51-.51,1-.76,1.57,17.19,28.75,38.4,55.1,57.36,77.38.05,0,75.06,52.88,96.17,76.18,8.18,9,15.58,29.62,21.34,54.75h0C5080.07,1463.26,5023.31,1295.18,5023.31,1295.18Z"/><path class="cls-50" d="M4925.75,1132.3s-131.14-17.44-172.9,5.87c0,0,4.76,18,20.83,20.39,0,0-31.13,14.08-62.4,6.31,0,0,7.1,16.51,18.27,18.94,0,0-38.36,16.51-59.24,11.17l3.88,4.85s-32.43,8.46-47,29.24c0,0-3-42.83,37.34-72.45S4825.28,1088.07,4925.75,1132.3Z"/><path class="cls-44" d="M4905.05,1103.38c-17.7-9.64-211.08-15.16-255.94-2.8l-.2.06c-43.45,7.92-87.9,26.24-117.81,64.95-50.56,65.44,96,63.48,96,63.48s26.32-114.33,169.08-107.53c0,0,89.27-3.85,129.53,10.76C4925.75,1132.3,4922.75,1113,4905.05,1103.38Z"/><path class="cls-51" d="M4571.25,1135.25c-59.67,41.48-50.68,64.26-36.66,76.55,29,18.11,92.55,17.27,92.55,17.27s21.64-94,132.08-106.46h0S4631,1093.74,4571.25,1135.25Z"/><path class="cls-2" d="M4894.83,1150.44a2.91,2.91,0,0,0-4.11.3l-55.29,63.94c-9.52-17.55-26.63-28.76-44.8-28.76a41.46,41.46,0,0,0-17.16,3.67c-23.32,10.55-32.54,40.72-20.53,67.26a58.11,58.11,0,0,0,17.09,21.84c-20.68,1.69-31.19,8.61-36.48,14.8a69.67,69.67,0,0,0-5.7-19.92c-9.43-20.84-27.38-34.85-44.67-34.85a29.37,29.37,0,0,0-12.13,2.57c-9.53,4.32-16.11,13.47-18.53,25.77-2.35,11.94-.48,25.51,5.26,38.2,9.43,20.85,27.38,34.85,44.68,34.85a29.13,29.13,0,0,0,12.12-2.57c11.66-5.28,18.41-17.84,19.32-32.79h.08c0-.21,3.18-20.11,44.35-20.62a46.9,46.9,0,0,0,21.5,5.38,41.39,41.39,0,0,0,17.17-3.68c11.36-5.14,19.74-15,23.59-27.81a56.15,56.15,0,0,0-2.36-37.67l56.89-65.81A2.92,2.92,0,0,0,4894.83,1150.44Zm-182.65,181.79a23.5,23.5,0,0,1-9.72,2c-15.05,0-30.87-12.62-39.37-31.42-5.24-11.59-7-23.91-4.85-34.67,2-10.41,7.45-18.07,15.21-21.59a23.52,23.52,0,0,1,9.73-2c15,0,30.86,12.63,39.36,31.43C4733.22,1299.58,4728.57,1324.82,4712.18,1332.23ZM4835,1256.35c-3.36,11.16-10.61,19.75-20.42,24.18a35.49,35.49,0,0,1-14.76,3.16c-17.23,0-33.55-11.48-41.58-29.25-10.68-23.6-2.78-50.31,17.62-59.53a35.5,35.5,0,0,1,14.76-3.17c17.22,0,33.55,11.49,41.58,29.25A50.55,50.55,0,0,1,4835,1256.35Z"/><path class="cls-52" d="M5113.87,1933.52s17.24,48.07-10.93,107.79c-22,46.59-36.41,64.1-36.41,64.1l7.28,7.28L4999.64,2203h-6s-29.13-142.76-185-91.78l-7.28,14.57v-20.39L4832,2028.2l-129.61-39.81-5.1,3.88-95.45-34s-54.4-113.67-5.82-184.51h96.14l5.13,10.68s192.45-8.74,259.72,15.54S5113.87,1933.52,5113.87,1933.52Z"/><path class="cls-18" d="M4801.41,2125.8l7.28-14.57c155.87-51,185,91.78,185,91.78h5.94l74.18-90.32-7.28-7.28s14.45-17.51,36.41-64.1c28.17-59.72,10.93-107.79,10.93-107.79S5024.28,1824.27,4957,1800s-259.73-15.54-259.73-15.54l-5.12-10.68H4596c-48.58,70.84,5.82,184.51,5.82,184.51l95.44,34,5.11-3.88c-37.36-103.43,3.85-142.76,11.13-132.08s37.39,36.42,49,45.16,32,91.29,41.76,99.87c7.47,6.61-35.89,3.06-56.31,1.06l81.68,25.09c14.49-12.44,34.41-27.11,49.17-31.74,24.52-7.7,105.12-65.15,101.24-48.15s65.55-16.51,87.51-17.48,31,83.52,29,94.68-48.55,32-122.85.49S4832,2028.2,4832,2028.2l-30.59,77.21Z"/><path class="cls-53" d="M4697.28,1784.45l-5.12-10.68H4596c-48.58,70.84,5.82,184.51,5.82,184.51l95.44,34,5.11-3.88C4626.19,1854.37,4697.28,1784.45,4697.28,1784.45Z"/><path class="cls-54" d="M4601.84,1958.28l95.44,34,5.11-3.88c-36.53-64.24-39.18-113.71-32.07-147.86v0c-13.84,33.72-18.94,14.35-31.2-14.06s-39.45,40.79-46,56.57-13.84-66-13.84-66l-1.27,3.36C4567.14,1885.67,4601.84,1958.28,4601.84,1958.28Z"/><polygon class="cls-55" points="4590.19 1928.18 4685.99 1955.52 4681.18 1943.52 4586.03 1914.52 4590.19 1928.18"/><path class="cls-53" d="M4801.41,2125.8l7.28-14.57c155.87-51,185,91.78,185,91.78h5.94l74.18-90.32-7.28-7.28C4942.71,1970.91,4832,2028.2,4832,2028.2l-30.59,77.21Z"/><path class="cls-54" d="M4918.54,2091.18c31.19-2.58.13-40.4-25.45-55s74.17-4.12,74.84-4c-78.45-33.68-135.93-4-135.93-4l-30.59,77.21v20.39l7.28-14.57c48.71-15.93,85-12.94,112-1.3C4920.67,2109.93,4887.35,2093.75,4918.54,2091.18Z"/><polygon class="cls-55" points="4965.85 2145.36 5022.34 2064.58 5029.29 2070.09 4970.61 2151.78 4965.85 2145.36"/><path class="cls-44" d="M4950.69,1391.93s75.05,52.87,96.17,76.18,37.15,123.81,32.78,180.63,10.19,177,26.22,220.68,8,64.1,8,64.1-59.72-46.62-95.41-38.6-92.5,102.69-167.52,106.33-64.14-103.42-95.44-120.9-2.89-85.22-5.07-128.19-1.46-60.45-1.46-60.45-59-22.58-78.66-37.88c0,0,29.86-176.26,40.06-192.28s68.76-43.81,107.94-46.3c0,0,9.31,63.22,38,64.67S4950.69,1391.93,4950.69,1391.93Z"/><path class="cls-51" d="M4901,1919.92c-36.42,29.14-74.29,69.92-123.33-25.73,0,0,21.36,98.57,66.52,88.86s112.16-78.18,136-88.86C4980.1,1894.19,4937.37,1890.79,4901,1919.92Z"/><path class="cls-51" d="M5022.34,1865.54s40.79,4.85,60.7,17.48,25.25,23.79,25.25,23.79S5091.78,1839.32,5022.34,1865.54Z"/><path class="cls-51" d="M5016.27,1734.64c2.19-10.16,30.59-86.63,23.31-120.87s1,45.52-39.95,124l-203.32,149.62s29.86,1.7,64.82-22.34,77.94-45.15,102-35c0,0-14.07-19.43-30.59-16.75l35.45-28.4s22.82,5.82,27.92,0,26.46-40.79,26.46-40.79S5014.09,1744.8,5016.27,1734.64Z"/><path class="cls-51" d="M4802.87,1771c14.56-9.9,70.89-94.87,70.89-94.87l-10.46-18s67-88.15,76.5-116.55-83.52,108.76-83.52,108.76l-32.05,46.21,6.54,6s-26.93,56.47-48.3,68.42C4782.47,1771,4788.3,1780.94,4802.87,1771Z"/><path class="cls-51" d="M4738.77,1549.27c-.28,1.54-.2,6.22.11,12.75C4739.13,1552.71,4739.16,1547.09,4738.77,1549.27Z"/><path class="cls-51" d="M4735.86,1640.24l-58.73-25.43s39.31,38,68.44,35.62c0,0-5.4-60.83-6.69-88.41C4738.19,1587.34,4735.86,1640.24,4735.86,1640.24Z"/><path class="cls-56" d="M4824.23,1696.64s90.8,87.84,166.06,76.9l22.83-30.36s-118-44.68-156.84-92.75Z"/><path class="cls-56" d="M4652.34,1648.74s51,36.66,96.63,43l-3.4-41.28s-57.78-19.42-77.2-44.67Z"/><path class="cls-57" d="M4585.33,1430.47s17.48-9.22,24.77-2.42,15,30.1,5.34,42.24-25.74,37.87-57.78,61.18-42.73,26.71-42.73,26.71,31.56,1,55.84-10.2,53.89-29.62,62.15-25.25,13.6,30.11-4.86,45.16-83,55.84-91.77,92.74,30.59,109,33.51,123.58l-5.83-3.64s11.8,31.34,11.87,51l-8.23-6.56s6.56,30.6,4.37,44.43-13.11,24.77-13.11,24.77,1.46,38.6,6.56,51,22.28,110.71,10.41,126.73l-4.59-10.92s-10.92,43-24,58.27l-2.19-11.66s-9,31.32-32.53,48.07v-15.29s-71.62,58.27-71.62,110,2.18,62.64,14.57,64.09,50.25,10.2,56.08,21.85c0,0,24,24,9.47,35.69,0,0-8.74,14.57-21.85,16,0,0-9.47,12.39-29.87,9.47,0,0-37.14-2.91-54.62-22.58s-23.31-99.78-23.31-99.78-5.1,59.73-7.28,104.88,3.64,110,18.21,116.54,66.28,32.77,66.28,52.44c0,0-2.92,11.65-14.57,11.65,0,0-7.28,12.38-18.21,10.2,0,0-11.65,12.38-24.76,7.28,0,0-.73,12.38-20.4,5.83s-58.26-30.59-69.19-40.79-27-100.51-26.22-110l-6.56,17.48s-15.29-43-13.1-67.73L4261,2398.2s-9.47-35.69,0-55.35l-18.21,31.32v-39.33s-16,36.41-29.13,50.25v-8.74s-13.84,14.57-37.15,32.78v-8.74s-.73,5.1-32.05,27v-8s-29.13,43-56.08,42.25-61.91.73-61.91.73,22.58,25.49,21.12,43.7c0,0-5.82,24.76-14.56,27.67,0,0-8.74,18.21-24,19.67,0,0,12.38,8-5.83,12.38s-114.35-24-168.24-25.49-88.86-16-100.52-28.41,0-39.33,0-39.33-60.45,18.21-131.83-16l10.93-5.83s-64.15-8.74-97.63-83l11,3.64s-55.36-76.47-34.24-135.47l5.1,8s13.28-105.35,107.46-138.34,139.77,39.59,130.77,83.38c0,0-38.66-47-85.71-20.41-28.1,15.88-57.66,84.6-4.27,124.79s117-49.79,137.37-85.18,51-103.78,144-177.56,248.34-205.15,304.73-279.53c0,0-12.6-3.8-11.4-16.3s36.59-53.29,64.19-122.87,73.18-129.57,123-145.16,90,3.59,116.37-7.8S4585.33,1430.47,4585.33,1430.47Z"/><path class="cls-58" d="M3931.77,2462.16c109.25-102.11-49.53-178.23-49.53-178.23l5.83,18.13c-37.88-27.68-80.12-18.13-80.12-18.13l8.74,12.11c-40.79,2.72-65.07,63.8-65.07,63.8s-1.94-38.84-.48-75.91c.71-18.23,8.51-36.88,16.25-51.14a304.06,304.06,0,0,1-24.9,31v0s-29.22,93.6-91.86,96-83-124.79-83-124.79l-2.91,20.4c-27.12-103.84,58.08-154.74,59-155.27a160.82,160.82,0,0,0-18.52,5.27c-94.18,33-107.46,138.34-107.46,138.34l-5.1-8c-21.12,59,34.24,135.47,34.24,135.47l-11-3.64c33.48,74.29,97.63,83,97.63,83l-10.93,5.83c71.38,34.23,131.83,16,131.83,16s-11.65,27,0,39.33,46.62,26.95,100.52,28.41,150,29.86,168.24,25.49,5.83-12.38,5.83-12.38c15.3-1.46,24-19.67,24-19.67,8.74-2.91,14.56-27.67,14.56-27.67,1.46-18.21-21.12-43.7-21.12-43.7s6.22-.26,15.37-.51l-3.72-6.78Z"/><path class="cls-58" d="M4353.12,2511.82l18.84,5.83a572.66,572.66,0,0,1-29.41-67c-13.11-36.41-1.45-154.6-1.45-154.6l-14.57,28c-1.46-30.5,22.94-116,22.94-116l-13.58,18.28c18.09-55.35,44.54-100.51,44.54-100.51C4363,2152,4318.52,2163,4318.52,2163c-174.08,45.88-75.75,171.89-75.75,171.89v39.33l18.21-31.32c-9.47,19.66,0,55.35,0,55.35l14.57-15.29c-2.19,24.76,13.1,67.73,13.1,67.73l6.56-17.48c-.73,9.47,15.3,99.79,26.22,110s49.53,34.23,69.19,40.79C4341.1,2561.35,4353.12,2511.82,4353.12,2511.82Z"/><path class="cls-58" d="M4512.5,2140.37v15.29c23.55-16.75,32.53-48.07,32.53-48.07l2.19,11.66c13.11-15.3,24-58.27,24-58.27l4.59,10.92c11.87-16-5.32-114.35-10.41-126.73s-6.56-51-6.56-51,10.93-10.93,13.11-24.77-4.37-44.43-4.37-44.43l8.23,6.56c-.07-19.64-11.87-51-11.87-51l5.83,3.64c-1.56-7.8-13.54-32.06-23-58.6-27.05-6-46.91,9.68-46.91,9.68,18.93,15.9,32,84.85,32,84.85-1.39-11.19-26.22-32.29-26.22-32.29,27.62,43.49,0,99.54,0,99.54L4485.84,1868c15.1,51,13.06,133.37,13.06,133.37L4480,2172.14A307.75,307.75,0,0,1,4512.5,2140.37Z"/><path class="cls-59" d="M4219.24,1766.76s43.19,25.53,84.71,0,58.27-168.28,94-191.59,54.62-13.84,54.62-13.84-36.41-29.86-62.64,4.37-59,147-69.19,163.15c-18,28.41-73.29,31.79-88.72,22.09Z"/><path class="cls-59" d="M4241.31,2267.1l-13.11,18.21c2.19-32.78,20.4-59,20.4-59l-12.39,7.29c14.57-46.62,82.31-70.65,82.31-70.65-54.63-10.93-96.14,30.59-96.14,30.59l5.82-16.76c-32.77,10.2-85.21,147.13-113.62,161.7s-66.28.73-66.28.73c13.84,13.83-4.37,39.33-75-24.77-59.88-54.32-105.09-51.62-117.49-49.53,28.84-3.22,107.24,60.58,123.32,80.85,16.75,21.12,6.55,88.13-47.34,116.4s-115.08,0-115.08,0,52.44,38,98.32,19.8,114.82-19.8,115-19.8c9.58-.34,36.55-1.18,58.31-.59,27,.73,56.08-42.25,56.08-42.25v8c31.32-21.85,32.05-27,32.05-27v8.74c23.31-18.21,37.15-32.78,37.15-32.78v8.74c13.11-13.84,29.13-50.25,29.13-50.25C4232.57,2299.88,4241.31,2267.1,4241.31,2267.1Z"/><path class="cls-59" d="M4469.28,2397.47c20.4,2.92,29.87-9.47,29.87-9.47,13.11-1.45,21.85-16,21.85-16,14.56-11.65-9.47-35.69-9.47-35.69-5.83-11.65-43.7-20.39-56.08-21.85s-14.57-12.38-14.57-64.09,71.62-110,71.62-110v15.29c23.55-16.75,32.53-48.07,32.53-48.07l2.19,11.66c13.11-15.3,24-58.27,24-58.27l4.59,10.92c6.62-8.94,4.2-43.51-.13-74.47-7.72,41.09-103.24,124.07-81.66,100.69,23.31-25.25,18.45-53.41,18.45-53.41l-13.6,8.74c7.77-22.33,0-52.11,0-52.11-6.79,54.72-72.83,139.51-90.31,175.44s-16.84,103-16.84,103.06c1.56,17.42,8,78.26,22.91,95C4432.14,2394.56,4469.28,2397.47,4469.28,2397.47Z"/><path class="cls-59" d="M4376.06,1727.15s-1,16.51,28.65,26.71,85.45-16.75,110.7-18.57,36.71,4.54,36.74,4.55c-6.88-17.43-13.67-37.17-16.14-54.56L4376.06,1699S4366.83,1714.53,4376.06,1727.15Z"/><path class="cls-59" d="M3751.62,2359.84c-2.91-21.85,21.42-91.77,21.42-91.77l-10.25,10.68c4.37-29.13,20.5-70.72,20.5-70.72-8,13.9-22.7,36.21-40.8,55.76v0C3723.62,2317.82,3751.62,2359.84,3751.62,2359.84Z"/><path class="cls-59" d="M3661.79,2414.71c-48.47-2.89-82.54-77.69-82.54-77.69l-1,22.82c-36.91-40.3-37.88-103.42-37.88-103.42l-8.74,18.45c-25.08-92.6,51.35-159.24,52.38-160.13-75.08,40-86.37,129.05-86.37,129.05l-5.1-8c-21.12,59,34.24,135.47,34.24,135.47l-11-3.64c33.48,74.29,97.63,83,97.63,83l-10.93,5.83c68.37,32.79,126.67,17.48,131.48,16.12l25.59-86C3739.94,2386.55,3726.86,2418.6,3661.79,2414.71Z"/><path class="cls-59" d="M4396.94,1883s17.48-18.94,14.56-42.24l10.68,21.37s13.6-23.32,3.89-50.51l13,11.65s-1.35-30.16-11.06-45.18c0,0,5.34,20.91,3.89,26.25L4418,1792.7s6.61,35.94,3.21,45.16l-17-21.36S4403.73,1870.88,4396.94,1883Z"/><path class="cls-59" d="M3872.77,2213.93s36.42,5.83,56.81,22.58l-5.83-17.48s47.35,15.29,59.73,39.33l-8-27.68s43,34.4,51,53.25c0,0-7.28-38.83-62.64-75.9l6.56,22.65s-39.33-26.95-57.54-29.13l6.55,16S3886.61,2213.93,3872.77,2213.93Z"/><path class="cls-52" d="M4334.46,1983.56l-10.2-61.91a5.82,5.82,0,0,0-9.62-3.4l-48.07,43a5.82,5.82,0,0,0,2.07,9.89l58.27,18.93a5.6,5.6,0,0,0,1.8.29,5.83,5.83,0,0,0,5.75-6.77Zm-52.58-20.4,32.61-29.15,6.92,42Z"/><path class="cls-60" d="M4281.88,1963.16s22-7.78,32.61-29.15l-90.41-172.87s-25.77,5.77-27,30.32C4197.11,1791.46,4251.81,1923.85,4281.88,1963.16Z"/><path class="cls-60" d="M4321.41,1976l242.64-35.15s6.23-23.36-5.18-46.66L4314.49,1934S4306.58,1947.59,4321.41,1976Z"/><path class="cls-61" d="M4558.87,1894.19l-205.74,33.52s132.9-16.72,119.8,0,12.91,24.47,12.91,24.47h0l78.21-11.33S4570.28,1917.49,4558.87,1894.19Z"/><path class="cls-60" d="M4281.88,1963.16s-13.52,180.87-8.71,224.2c0,0,33.79-20.07,49-25.44l-.8-185.92S4299,1959.55,4281.88,1963.16Z"/><path class="cls-61" d="M4322.21,2161.92l-.18-43.41s-27.55,57.52-29,42.6c-.93-9.49-10.66-7.1-20.86,4.75.1,8.83.41,16.2,1,21.5C4273.17,2187.36,4307,2167.29,4322.21,2161.92Z"/><path class="cls-52" d="M4589.59,1428.55s9.34-8.33,17.72-8.15,18.93,24,14.75,26-11.84-5.28-17.3-4.92S4579.16,1437.06,4589.59,1428.55Z"/><path class="cls-52" d="M4482.48,1476.05c3.2,4.87,3.16,10.55-.09,12.69s-8.47-.08-11.68-5-3.17-10.55.08-12.69S4479.27,1471.18,4482.48,1476.05Z"/><path class="cls-62" d="M4550.8,1554.51s21.18-9.56,33.93-19,43.33-28.41,61.18-21.49,16.52,13.48,14.63,15.66-20.75-11.23-37.54-6.34S4575.5,1553.51,4550.8,1554.51Z"/><path class="cls-25" d="M4677,1658.45s-10.55,39.72-19.56,38.19-130.4-46.21-130.4-46.21l-14.57,69.93s196.57,117,223.84,106.33,12.63-135,12.63-135Z"/><path class="cls-63" d="M4840.74,1709.67s68,57.3,127.22,63.13c0,0-128.19,114.59-177.72,114.59s-212.68-168-256.86-164.12-98.57,27.19-116.05,22.82-38.36-8.74-32.53-25.73c0,0-16-6.8-8.74-21.37,0,0-31.08-8.74-20.88-21.36s5.34,1,32.53-2.43,47.1-6.8,47.1-6.8-52.93-7.77-53.9-18.94,42.73-10.68,70.89-15.53,31.08-7.29,27.68-9.72-39.81-18.93-32-35.93,9.23,5.34,37.39,4.86,45.65,17,56.81,32.53,124.79,92.74,155.87,112.65,82.06,39.33,96.14,30.59S4840.74,1709.67,4840.74,1709.67Z"/><path class="cls-43" d="M4840.74,1709.67s21.33,35.69,55.09,51.47,18.16,48.89-8.26,76.39c42.52-30.9,80.39-64.73,80.39-64.73C4908.72,1767,4840.74,1709.67,4840.74,1709.67Z"/><path class="cls-43" d="M4383.9,1724.28s27.66,6,35.31,5.67,44.25-13.48,46.43-16.57-43,11.47-45.34,11.83-37.93-6.17-37.93-6.17l2.43,1.32Z"/><path class="cls-43" d="M4374.73,1702.44s39.2,4.56,44.48,3.11,45.34-12.93,42.24-14.21-42.24,6.85-44.61,7.25-44.35-.76-44.35-.76l3.57,1.16Z"/><path class="cls-64" d="M0,2245.19c24-15.46,263.45-14.46,341.29,206.58,0,0,163.28-62.27,231.33,190.15,0,0,195.81-124.79,401.36,126.69,0,0,153.55-77.84,236.44,23.95,0,0,561.17-107.78,777.08,119.75H0Z"/><path class="cls-64" d="M5774.94,2100.18s-147.56,27.79-129.86,195.66c0,0-123.95-16.25-141.66,137.79,0,0-330.2-66.87-398.25,191.15,0,0-225-13.5-367.86,163.57,0,0-399.5-123.95-498.43,124H5774.94Z"/></g></svg>