<svg xmlns="http://www.w3.org/2000/svg" viewBox="0 0 5774.95 2912.31"><defs><style>.cls-1{fill:#ffcab1;}.cls-2{fill:#ef9f73;}.cls-3{fill:#f2819f;}.cls-4{fill:#d67095;}.cls-5{fill:#561064;}.cls-6{fill:#440e51;}.cls-7{fill:#ffb588;}.cls-8{fill:#7d2193;}.cls-9{fill:#d65479;}.cls-10{fill:#2c2636;}.cls-11{fill:#e080a0;}.cls-12{fill:#440f51;}.cls-13{fill:#d86c98;}.cls-14{fill:#fff;}.cls-15{fill:#403379;}.cls-16{fill:#362e6d;}.cls-17{fill:#504793;}.cls-18{fill:#474289;}.cls-19{fill:#958fe2;}.cls-20{fill:#f9bbcf;}.cls-21{fill:#c58059;}.cls-22{fill:#bf7956;}.cls-23{fill:#a86547;}.cls-24{fill:#353535;}.cls-25{fill:#1e1d1d;}.cls-26{fill:#e03451;}.cls-27{fill:#efcdca;}</style></defs><g id="OBJECTS"><path class="cls-1" d="M4596,1773.77s-128.19-4.86-144.22,30.1,7.29,100.51,40.79,161.69,128.57,246.19,128.57,246.19-115.46,42.24-134.4,67-11.65,33.51-11.65,33.51H4722s-16.75-88.86-32.78-144.22-54.12-187.91-58.38-211.22S4635.82,1802.24,4596,1773.77Z"/><path class="cls-2" d="M4601.84,1958.28l-52.44-19.39s52.44,25.11,61.18,44.83S4689.24,2168,4689.24,2168L4636,1970.45Z"/><path class="cls-3" d="M4619.1,2207.73s42,40,83.29,11.57c0,0,41.72,74,40.27,99.27H4455.2s-4.85-24.28,14.57-39.33S4619.1,2207.73,4619.1,2207.73Z"/><path class="cls-4" d="M4702.39,2219.3c-41.24,28.44-83.29-11.57-83.29-11.57s20.62,33.63,56.06,37,29.14,31.08,14.08,32.54-84.48,10.68-60.69,17-159.27,15.54-159.27,15.54v8.74h273.38C4744.11,2293.32,4702.39,2219.3,4702.39,2219.3Z"/><path class="cls-5" d="M4736.42,2290.87s7.69-1.43,14,11.68,14.08,37.38,8.25,37.38H4436.27s6.72-37.62,20.35-41.63c0,0,9.75,2.79,12.66,11.53,0,0,166.07,0,181.61-3.89S4708.33,2289.38,4736.42,2290.87Z"/><path class="cls-1" d="M4801.41,2125.8s-32.53,69.44-25.74,98.57,42.73,64.09,76.72,72.83,93.23-19.42,93.23-19.42-9.71,96.14,29.14,96.14,58.26-94.2,61.18-132.07-4.86-76.72-4.86-76.72S4900,2048.6,4825.2,2080.64Z"/><path class="cls-2" d="M4945.62,2277.78s21.49,44.31,44.39,19.61,25.73-60.95,25.73-60.95C5002.46,2265.15,4945.62,2277.78,4945.62,2277.78Z"/><path class="cls-2" d="M4937.61,2261.27c67.37-22.21,91.68-94.37,91.68-94.37L4999.63,2203h-5.94C4968.57,2250.71,4937.61,2261.27,4937.61,2261.27Z"/><path class="cls-2" d="M4808.69,2111.23l-7.28,14.57s125.27-61.91,192.28,77.21C4993.69,2203,4963.1,2047.14,4808.69,2111.23Z"/><path class="cls-3" d="M5060,2279.48c-2.91-34.23-23.38-121.47-23.38-121.47l-7.3,8.89v25.51c-7.72,31.35-21.28,73.75-39.28,80.52-29.09,10.92-44.39,4.85-44.39,4.85l-25.79,10.32s6.85,109.37,30.89,123.94,66.28,6.56,75,0S5062.89,2313.71,5060,2279.48Z"/><path class="cls-4" d="M4936.38,2294.05c4.14,1.46,31.73,28.52,53.63,3.34s35.55-75.45,39.28-58,21.63-8.59,17.28-36.41h0c-5.24-24.77-10-45-10-45l-7.3,8.89v25.51c-7.72,31.35-21.28,73.75-39.28,80.52-29.09,10.92-44.39,4.85-44.39,4.85l-25.79,10.32s2.51,39.93,9.8,74.75l6.75,1.79S4932.24,2292.59,4936.38,2294.05Z"/><path class="cls-5" d="M4919.83,2288.1s1,103.55,13.41,123.94,64.09,34.23,99.06,16.75,36.41-134.74,35-159.51S5036.59,2158,5036.59,2158s15.37,88,16.83,109.82-26.22,126.16-29.14,130.09l-10.19-20.84-57.54,8-4.37,12.83s-8-6.27-14.57-28.85S4919.83,2288.1,4919.83,2288.1Z"/><path class="cls-6" d="M4949,2408.88l3.16-11s-8-6.27-14.57-28.85-17.78-81-17.78-81,.63,63.42,6.84,100.77c.3-7.26.62-18.29,3-26C4934.16,2347.81,4949,2408.88,4949,2408.88Z"/><path class="cls-7" d="M4797,1377.66s19.29,17.29,21.28,37.59c0,0-44.07,19.84-59.23,62.85s18.88,107.66,82.61,87.32,150.35-86.09,157.62-106.17-108.49-108.83-134.53-210.11S4712.37,1293.19,4797,1377.66Z"/><path class="cls-2" d="M4759.08,1478.1c-15.16,43,18.88,107.66,82.61,87.32s150.35-86.09,157.62-106.17-108.49-108.83-134.53-210.11-152.41,44-67.75,128.52a83.5,83.5,0,0,1,13.59,16.65h0s43.56-7,66.94-28.42,39.4-5.82,42.8,5.83-15.72,79.5-42.8,93.23-47.22-8.61-59.26-49.7C4818.31,1415.25,4774.24,1435.1,4759.08,1478.1Z"/><path class="cls-7" d="M4957,1216.35c-6.67,30.24-34.29,49.86-61.67,43.82s-44.19-35.46-37.51-65.71,34.28-49.86,61.67-43.82S4963.68,1186.1,4957,1216.35Z"/><path class="cls-2" d="M4940.83,1212.78c-4.5,20.37-23.1,33.59-41.55,29.52s-29.77-23.89-25.27-44.27,23.09-33.59,41.55-29.52S4945.32,1192.4,4940.83,1212.78Z"/><path class="cls-1" d="M4672.57,1251.17s22.43,35,29.73,67.29,58.58,69.69,93.28,74,84.38-48.66,98.51-79.46,8.83-94.71.51-121.47S4809.36,1074,4738.46,1113,4636.53,1190.71,4672.57,1251.17Z"/><path class="cls-8" d="M4681,1268.14s-1.17-9.37,12.36-16c15.5-7.54,21.91,5.17,23.92,2.61s-8-17.59-25.19-13.84S4674.31,1261.54,4681,1268.14Z"/><path class="cls-8" d="M4757.28,1228.86s36.78-35.7,57.89-26.46,4.4-5.21-6.31-9.82c-21.33-9.16-48.28,21-51.93,12.79-1.29-2.89-14.7,13.15-12.09,20.38S4749.42,1235.78,4757.28,1228.86Z"/><path class="cls-7" d="M4734.54,1310.27s1.51-2,3.67-5.09,17.08-18.7,23.93-9.75,7.19,11.18.36,18.69c-4.86,5.35-28.43-2.13-28.43-2.13"/><path class="cls-9" d="M4745.82,1303.3l2.36-1.29,11.21-6.15.74-.4a2.14,2.14,0,0,1,2.93.79l4.21,7.68a2.14,2.14,0,0,1-.9,2.9l-.74.41s-3.67,2.87-2.85,5.76c0,0,.82,1.27-3.7,3.75l-2.16,1.19-8.84,4.14a5.45,5.45,0,0,1-7.23-1.25l-.73.41h0a2.16,2.16,0,0,1-2.94-.8l-3.11-8.45s-.21-2.15,2.54-3.63Z"/><path class="cls-10" d="M4803.83,1257.66l-10.59,3.53-6.33-19a5.59,5.59,0,0,1,.3-4.24,5.52,5.52,0,0,1,3.23-2.82h0a5.58,5.58,0,0,1,7.07,3.53Z"/><path class="cls-10" d="M4722,1296.84l-9.23,6.3-11.26-16.52a5.59,5.59,0,0,1,1.46-7.76h0a5.61,5.61,0,0,1,4.05-.9,5.54,5.54,0,0,1,3.71,2.37Z"/><path class="cls-11" d="M4877.24,1271.3c13.5,8.52,13.79,32.32.65,53.17s-34.76,30.85-48.26,22.33-13.79-32.32-.65-53.17S4863.74,1262.79,4877.24,1271.3Z"/><path class="cls-9" d="M4788,1329.91h0a1.47,1.47,0,0,0-1.44,1.48c.11,7.92-1.77,13.18-5.57,15.63-6,3.87-15.17-.34-15.26-.39a1.46,1.46,0,0,0-1.24,2.64,26.64,26.64,0,0,0,10.26,2.31,14.26,14.26,0,0,0,7.81-2.1c4.71-3,7-9.13,6.92-18.13A1.46,1.46,0,0,0,4788,1329.91Z"/><path class="cls-5" d="M5103.68,1411h0c-18.06-63.44-173.67-273-184-286.9-40.11-56-82.9-134-213.12-76.23-101.73,45.15-96.57,165.32-66,217s56.37,126,93.34,136.2l-7.78-21.85s18.22,32.13,44.86,47.06c16.18-5.85,33.07-10.15,47.38-11.06-.87-8.86-5-17.14-9.44-23.66a38.54,38.54,0,0,1-13.29.85c-34.7-4.29-86-41.66-93.28-74s-29.73-67.29-29.73-67.29,18.17-18.49,4.46-45.76c0,0,38.73,25.5,67.47,12.87l-14-6.45s44.18,2.57,72.83-16.85l-22.29-8.26s34.1,6.39,62.72-1.45c0,0,29-2.23,37,5.56s22.11,43.65,22,60.34c0,0,19-17.81-9.85-98.52a46.77,46.77,0,0,1,26.58-2c27.39,6,44.18,35.46,37.51,65.71-6.07,27.48-29.43,46.12-54.19,44.77-.25,19.67-2.72,38.76-8.73,51.86-.23.51-.51,1-.76,1.57,17.19,28.75,38.4,55.1,57.36,77.38.05,0,75.06,52.88,96.17,76.18s37.15,123.81,32.78,180.63a364.85,364.85,0,0,0-.6,36.54s31.19-22.92,28.27-116-32-168.91-32-168.91,35.38,53.87,42.45,95.4C5117.72,1495.77,5119.44,1455.78,5103.68,1411Z"/><path class="cls-12" d="M5023.31,1295.18l-4.85,20.87c-1-33.34-67.08-140.94-67.09-141a59,59,0,0,1,5.64,41.25c-6.07,27.48-29.43,46.12-54.19,44.77-.25,19.67-2.72,38.76-8.73,51.86-.23.51-.51,1-.76,1.57,17.19,28.75,38.4,55.1,57.36,77.38.05,0,75.06,52.88,96.17,76.18,8.18,9,15.58,29.62,21.34,54.75h0C5080.07,1463.26,5023.31,1295.18,5023.31,1295.18Z"/><path class="cls-12" d="M4925.75,1132.3s-131.14-17.44-172.9,5.87c0,0,4.76,18,20.83,20.39,0,0-31.13,14.08-62.4,6.31,0,0,7.1,16.51,18.27,18.94,0,0-38.36,16.51-59.24,11.17l3.88,4.85s-32.43,8.46-47,29.24c0,0-3-42.83,37.34-72.45S4825.28,1088.07,4925.75,1132.3Z"/><path class="cls-3" d="M4905.05,1103.38c-17.7-9.64-211.08-15.16-255.94-2.8l-.2.06c-43.45,7.92-87.9,26.24-117.81,64.95-50.56,65.44,96,63.48,96,63.48s26.32-114.33,169.08-107.53c0,0,89.27-3.85,129.53,10.76C4925.75,1132.3,4922.75,1113,4905.05,1103.38Z"/><path class="cls-13" d="M4571.25,1135.25c-59.67,41.48-50.68,64.26-36.66,76.55,29,18.11,92.55,17.27,92.55,17.27s21.64-94,132.08-106.46h0S4631,1093.74,4571.25,1135.25Z"/><path class="cls-14" d="M4894.83,1150.44a2.91,2.91,0,0,0-4.11.3l-55.29,63.94c-9.52-17.55-26.63-28.76-44.8-28.76a41.46,41.46,0,0,0-17.16,3.67c-23.32,10.55-32.54,40.72-20.53,67.26a58.11,58.11,0,0,0,17.09,21.84c-20.68,1.69-31.19,8.61-36.48,14.8a69.67,69.67,0,0,0-5.7-19.92c-9.43-20.84-27.38-34.85-44.67-34.85a29.37,29.37,0,0,0-12.13,2.57c-9.53,4.32-16.11,13.47-18.53,25.77-2.35,11.94-.48,25.51,5.26,38.2,9.43,20.85,27.38,34.85,44.68,34.85a29.13,29.13,0,0,0,12.12-2.57c11.66-5.28,18.41-17.84,19.32-32.79h.08c0-.21,3.18-20.11,44.35-20.62a46.9,46.9,0,0,0,21.5,5.38,41.39,41.39,0,0,0,17.17-3.68c11.36-5.14,19.74-15,23.59-27.81a56.15,56.15,0,0,0-2.36-37.67l56.89-65.81A2.92,2.92,0,0,0,4894.83,1150.44Zm-182.65,181.79a23.5,23.5,0,0,1-9.72,2c-15.05,0-30.87-12.62-39.37-31.42-5.24-11.59-7-23.91-4.85-34.67,2-10.41,7.45-18.07,15.21-21.59a23.52,23.52,0,0,1,9.73-2c15,0,30.86,12.63,39.36,31.43C4733.22,1299.58,4728.57,1324.82,4712.18,1332.23ZM4835,1256.35c-3.36,11.16-10.61,19.75-20.42,24.18a35.49,35.49,0,0,1-14.76,3.16c-17.23,0-33.55-11.48-41.58-29.25-10.68-23.6-2.78-50.31,17.62-59.53a35.5,35.5,0,0,1,14.76-3.17c17.22,0,33.55,11.49,41.58,29.25A50.55,50.55,0,0,1,4835,1256.35Z"/><path class="cls-15" d="M5113.87,1933.52s17.24,48.07-10.93,107.79c-22,46.59-36.41,64.1-36.41,64.1l7.28,7.28L4999.64,2203h-6s-29.13-142.76-185-91.78l-7.28,14.57v-20.39L4832,2028.2l-129.61-39.81-5.1,3.88-95.45-34s-54.4-113.67-5.82-184.51h96.14l5.13,10.68s192.45-8.74,259.72,15.54S5113.87,1933.52,5113.87,1933.52Z"/><path class="cls-16" d="M4801.41,2125.8l7.28-14.57c155.87-51,185,91.78,185,91.78h5.94l74.18-90.32-7.28-7.28s14.45-17.51,36.41-64.1c28.17-59.72,10.93-107.79,10.93-107.79S5024.28,1824.27,4957,1800s-259.73-15.54-259.73-15.54l-5.12-10.68H4596c-48.58,70.84,5.82,184.51,5.82,184.51l95.44,34,5.11-3.88c-37.36-103.43,3.85-142.76,11.13-132.08s37.39,36.42,49,45.16,32,91.29,41.76,99.87c7.47,6.61-35.89,3.06-56.31,1.06l81.68,25.09c14.49-12.44,34.41-27.11,49.17-31.74,24.52-7.7,105.12-65.15,101.24-48.15s65.55-16.51,87.51-17.48,31,83.52,29,94.68-48.55,32-122.85.49S4832,2028.2,4832,2028.2l-30.59,77.21Z"/><path class="cls-17" d="M4697.28,1784.45l-5.12-10.68H4596c-48.58,70.84,5.82,184.51,5.82,184.51l95.44,34,5.11-3.88C4626.19,1854.37,4697.28,1784.45,4697.28,1784.45Z"/><path class="cls-18" d="M4601.84,1958.28l95.44,34,5.11-3.88c-36.53-64.24-39.18-113.71-32.07-147.86v0c-13.84,33.72-18.94,14.35-31.2-14.06s-39.45,40.79-46,56.57-13.84-66-13.84-66l-1.27,3.36C4567.14,1885.67,4601.84,1958.28,4601.84,1958.28Z"/><polygon class="cls-19" points="4590.19 1928.18 4685.99 1955.52 4681.18 1943.52 4586.03 1914.52 4590.19 1928.18"/><path class="cls-17" d="M4801.41,2125.8l7.28-14.57c155.87-51,185,91.78,185,91.78h5.94l74.18-90.32-7.28-7.28C4942.71,1970.91,4832,2028.2,4832,2028.2l-30.59,77.21Z"/><path class="cls-18" d="M4918.54,2091.18c31.19-2.58.13-40.4-25.45-55s74.17-4.12,74.84-4c-78.45-33.68-135.93-4-135.93-4l-30.59,77.21v20.39l7.28-14.57c48.71-15.93,85-12.94,112-1.3C4920.67,2109.93,4887.35,2093.75,4918.54,2091.18Z"/><polygon class="cls-19" points="4965.85 2145.36 5022.34 2064.58 5029.29 2070.09 4970.61 2151.78 4965.85 2145.36"/><path class="cls-3" d="M4950.69,1391.93s75.05,52.87,96.17,76.18,37.15,123.81,32.78,180.63,10.19,177,26.22,220.68,8,64.1,8,64.1-59.72-46.62-95.41-38.6-92.5,102.69-167.52,106.33-64.14-103.42-95.44-120.9-2.89-85.22-5.07-128.19-1.46-60.45-1.46-60.45-59-22.58-78.66-37.88c0,0,29.86-176.26,40.06-192.28s68.76-43.81,107.94-46.3c0,0,9.31,63.22,38,64.67S4950.69,1391.93,4950.69,1391.93Z"/><path class="cls-13" d="M4901,1919.92c-36.42,29.14-74.29,69.92-123.33-25.73,0,0,21.36,98.57,66.52,88.86s112.16-78.18,136-88.86C4980.1,1894.19,4937.37,1890.79,4901,1919.92Z"/><path class="cls-13" d="M5022.34,1865.54s40.79,4.85,60.7,17.48,25.25,23.79,25.25,23.79S5091.78,1839.32,5022.34,1865.54Z"/><path class="cls-13" d="M5016.27,1734.64c2.19-10.16,30.59-86.63,23.31-120.87s1,45.52-39.95,124l-203.32,149.62s29.86,1.7,64.82-22.34,77.94-45.15,102-35c0,0-14.07-19.43-30.59-16.75l35.45-28.4s22.82,5.82,27.92,0,26.46-40.79,26.46-40.79S5014.09,1744.8,5016.27,1734.64Z"/><path class="cls-13" d="M4802.87,1771c14.56-9.9,70.89-94.87,70.89-94.87l-10.46-18s67-88.15,76.5-116.55-83.52,108.76-83.52,108.76l-32.05,46.21,6.54,6s-26.93,56.47-48.3,68.42C4782.47,1771,4788.3,1780.94,4802.87,1771Z"/><path class="cls-13" d="M4738.77,1549.27c-.28,1.54-.2,6.22.11,12.75C4739.13,1552.71,4739.16,1547.09,4738.77,1549.27Z"/><path class="cls-13" d="M4735.86,1640.24l-58.73-25.43s39.31,38,68.44,35.62c0,0-5.4-60.83-6.69-88.41C4738.19,1587.34,4735.86,1640.24,4735.86,1640.24Z"/><path class="cls-20" d="M4824.23,1696.64s90.8,87.84,166.06,76.9l22.83-30.36s-118-44.68-156.84-92.75Z"/><path class="cls-20" d="M4652.34,1648.74s51,36.66,96.63,43l-3.4-41.28s-57.78-19.42-77.2-44.67Z"/><path class="cls-21" d="M4585.33,1430.47s17.48-9.22,24.77-2.42,15,30.1,5.34,42.24-25.74,37.87-57.78,61.18-42.73,26.71-42.73,26.71,31.56,1,55.84-10.2,53.89-29.62,62.15-25.25,13.6,30.11-4.86,45.16-83,55.84-91.77,92.74,30.59,109,33.51,123.58l-5.83-3.64s11.8,31.34,11.87,51l-8.23-6.56s6.56,30.6,4.37,44.43-13.11,24.77-13.11,24.77,1.46,38.6,6.56,51,22.28,110.71,10.41,126.73l-4.59-10.92s-10.92,43-24,58.27l-2.19-11.66s-9,31.32-32.53,48.07v-15.29s-71.62,58.27-71.62,110,2.18,62.64,14.57,64.09,50.25,10.2,56.08,21.85c0,0,24,24,9.47,35.69,0,0-8.74,14.57-21.85,16,0,0-9.47,12.39-29.87,9.47,0,0-37.14-2.91-54.62-22.58s-23.31-99.78-23.31-99.78-5.1,59.73-7.28,104.88,3.64,110,18.21,116.54,66.28,32.77,66.28,52.44c0,0-2.92,11.65-14.57,11.65,0,0-7.28,12.38-18.21,10.2,0,0-11.65,12.38-24.76,7.28,0,0-.73,12.38-20.4,5.83s-58.26-30.59-69.19-40.79-27-100.51-26.22-110l-6.56,17.48s-15.29-43-13.1-67.73L4261,2398.2s-9.47-35.69,0-55.35l-18.21,31.32v-39.33s-16,36.41-29.13,50.25v-8.74s-13.84,14.57-37.15,32.78v-8.74s-.73,5.1-32.05,27v-8s-29.13,43-56.08,42.25-61.91.73-61.91.73,22.58,25.49,21.12,43.7c0,0-5.82,24.76-14.56,27.67,0,0-8.74,18.21-24,19.67,0,0,12.38,8-5.83,12.38s-114.35-24-168.24-25.49-88.86-16-100.52-28.41,0-39.33,0-39.33-60.45,18.21-131.83-16l10.93-5.83s-64.15-8.74-97.63-83l11,3.64s-55.36-76.47-34.24-135.47l5.1,8s13.28-105.35,107.46-138.34,139.77,39.59,130.77,83.38c0,0-38.66-47-85.71-20.41-28.1,15.88-57.66,84.6-4.27,124.79s117-49.79,137.37-85.18,51-103.78,144-177.56,248.34-205.15,304.73-279.53c0,0-12.6-3.8-11.4-16.3s36.59-53.29,64.19-122.87,73.18-129.57,123-145.16,90,3.59,116.37-7.8S4585.33,1430.47,4585.33,1430.47Z"/><path class="cls-22" d="M3931.77,2462.16c109.25-102.11-49.53-178.23-49.53-178.23l5.83,18.13c-37.88-27.68-80.12-18.13-80.12-18.13l8.74,12.11c-40.79,2.72-65.07,63.8-65.07,63.8s-1.94-38.84-.48-75.91c.71-18.23,8.51-36.88,16.25-51.14a304.06,304.06,0,0,1-24.9,31v0s-29.22,93.6-91.86,96-83-124.79-83-124.79l-2.91,20.4c-27.12-103.84,58.08-154.74,59-155.27a160.82,160.82,0,0,0-18.52,5.27c-94.18,33-107.46,138.34-107.46,138.34l-5.1-8c-21.12,59,34.24,135.47,34.24,135.47l-11-3.64c33.48,74.29,97.63,83,97.63,83l-10.93,5.83c71.38,34.23,131.83,16,131.83,16s-11.65,27,0,39.33,46.62,26.95,100.52,28.41,150,29.86,168.24,25.49,5.83-12.38,5.83-12.38c15.3-1.46,24-19.67,24-19.67,8.74-2.91,14.56-27.67,14.56-27.67,1.46-18.21-21.12-43.7-21.12-43.7s6.22-.26,15.37-.51l-3.72-6.78Z"/><path class="cls-22" d="M4353.12,2511.82l18.84,5.83a572.66,572.66,0,0,1-29.41-67c-13.11-36.41-1.45-154.6-1.45-154.6l-14.57,28c-1.46-30.5,22.94-116,22.94-116l-13.58,18.28c18.09-55.35,44.54-100.51,44.54-100.51C4363,2152,4318.52,2163,4318.52,2163c-174.08,45.88-75.75,171.89-75.75,171.89v39.33l18.21-31.32c-9.47,19.66,0,55.35,0,55.35l14.57-15.29c-2.19,24.76,13.1,67.73,13.1,67.73l6.56-17.48c-.73,9.47,15.3,99.79,26.22,110s49.53,34.23,69.19,40.79C4341.1,2561.35,4353.12,2511.82,4353.12,2511.82Z"/><path class="cls-22" d="M4512.5,2140.37v15.29c23.55-16.75,32.53-48.07,32.53-48.07l2.19,11.66c13.11-15.3,24-58.27,24-58.27l4.59,10.92c11.87-16-5.32-114.35-10.41-126.73s-6.56-51-6.56-51,10.93-10.93,13.11-24.77-4.37-44.43-4.37-44.43l8.23,6.56c-.07-19.64-11.87-51-11.87-51l5.83,3.64c-1.56-7.8-13.54-32.06-23-58.6-27.05-6-46.91,9.68-46.91,9.68,18.93,15.9,32,84.85,32,84.85-1.39-11.19-26.22-32.29-26.22-32.29,27.62,43.49,0,99.54,0,99.54L4485.84,1868c15.1,51,13.06,133.37,13.06,133.37L4480,2172.14A307.75,307.75,0,0,1,4512.5,2140.37Z"/><path class="cls-23" d="M4219.24,1766.76s43.19,25.53,84.71,0,58.27-168.28,94-191.59,54.62-13.84,54.62-13.84-36.41-29.86-62.64,4.37-59,147-69.19,163.15c-18,28.41-73.29,31.79-88.72,22.09Z"/><path class="cls-23" d="M4241.31,2267.1l-13.11,18.21c2.19-32.78,20.4-59,20.4-59l-12.39,7.29c14.57-46.62,82.31-70.65,82.31-70.65-54.63-10.93-96.14,30.59-96.14,30.59l5.82-16.76c-32.77,10.2-85.21,147.13-113.62,161.7s-66.28.73-66.28.73c13.84,13.83-4.37,39.33-75-24.77-59.88-54.32-105.09-51.62-117.49-49.53,28.84-3.22,107.24,60.58,123.32,80.85,16.75,21.12,6.55,88.13-47.34,116.4s-115.08,0-115.08,0,52.44,38,98.32,19.8,114.82-19.8,115-19.8c9.58-.34,36.55-1.18,58.31-.59,27,.73,56.08-42.25,56.08-42.25v8c31.32-21.85,32.05-27,32.05-27v8.74c23.31-18.21,37.15-32.78,37.15-32.78v8.74c13.11-13.84,29.13-50.25,29.13-50.25C4232.57,2299.88,4241.31,2267.1,4241.31,2267.1Z"/><path class="cls-23" d="M4469.28,2397.47c20.4,2.92,29.87-9.47,29.87-9.47,13.11-1.45,21.85-16,21.85-16,14.56-11.65-9.47-35.69-9.47-35.69-5.83-11.65-43.7-20.39-56.08-21.85s-14.57-12.38-14.57-64.09,71.62-110,71.62-110v15.29c23.55-16.75,32.53-48.07,32.53-48.07l2.19,11.66c13.11-15.3,24-58.27,24-58.27l4.59,10.92c6.62-8.94,4.2-43.51-.13-74.47-7.72,41.09-103.24,124.07-81.66,100.69,23.31-25.25,18.45-53.41,18.45-53.41l-13.6,8.74c7.77-22.33,0-52.11,0-52.11-6.79,54.72-72.83,139.51-90.31,175.44s-16.84,103-16.84,103.06c1.56,17.42,8,78.26,22.91,95C4432.14,2394.56,4469.28,2397.47,4469.28,2397.47Z"/><path class="cls-23" d="M4376.06,1727.15s-1,16.51,28.65,26.71,85.45-16.75,110.7-18.57,36.71,4.54,36.74,4.55c-6.88-17.43-13.67-37.17-16.14-54.56L4376.06,1699S4366.83,1714.53,4376.06,1727.15Z"/><path class="cls-23" d="M3751.62,2359.84c-2.91-21.85,21.42-91.77,21.42-91.77l-10.25,10.68c4.37-29.13,20.5-70.72,20.5-70.72-8,13.9-22.7,36.21-40.8,55.76v0C3723.62,2317.82,3751.62,2359.84,3751.62,2359.84Z"/><path class="cls-23" d="M3661.79,2414.71c-48.47-2.89-82.54-77.69-82.54-77.69l-1,22.82c-36.91-40.3-37.88-103.42-37.88-103.42l-8.74,18.45c-25.08-92.6,51.35-159.24,52.38-160.13-75.08,40-86.37,129.05-86.37,129.05l-5.1-8c-21.12,59,34.24,135.47,34.24,135.47l-11-3.64c33.48,74.29,97.63,83,97.63,83l-10.93,5.83c68.37,32.79,126.67,17.48,131.48,16.12l25.59-86C3739.94,2386.55,3726.86,2418.6,3661.79,2414.71Z"/><path class="cls-23" d="M4396.94,1883s17.48-18.94,14.56-42.24l10.68,21.37s13.6-23.32,3.89-50.51l13,11.65s-1.35-30.16-11.06-45.18c0,0,5.34,20.91,3.89,26.25L4418,1792.7s6.61,35.94,3.21,45.16l-17-21.36S4403.73,1870.88,4396.94,1883Z"/><path class="cls-23" d="M3872.77,2213.93s36.42,5.83,56.81,22.58l-5.83-17.48s47.35,15.29,59.73,39.33l-8-27.68s43,34.4,51,53.25c0,0-7.28-38.83-62.64-75.9l6.56,22.65s-39.33-26.95-57.54-29.13l6.55,16S3886.61,2213.93,3872.77,2213.93Z"/><path class="cls-15" d="M4334.46,1983.56l-10.2-61.91a5.82,5.82,0,0,0-9.62-3.4l-48.07,43a5.82,5.82,0,0,0,2.07,9.89l58.27,18.93a5.6,5.6,0,0,0,1.8.29,5.83,5.83,0,0,0,5.75-6.77Zm-52.58-20.4,32.61-29.15,6.92,42Z"/><path class="cls-24" d="M4281.88,1963.16s22-7.78,32.61-29.15l-90.41-172.87s-25.77,5.77-27,30.32C4197.11,1791.46,4251.81,1923.85,4281.88,1963.16Z"/><path class="cls-24" d="M4321.41,1976l242.64-35.15s6.23-23.36-5.18-46.66L4314.49,1934S4306.58,1947.59,4321.41,1976Z"/><path class="cls-25" d="M4558.87,1894.19l-205.74,33.52s132.9-16.72,119.8,0,12.91,24.47,12.91,24.47h0l78.21-11.33S4570.28,1917.49,4558.87,1894.19Z"/><path class="cls-24" d="M4281.88,1963.16s-13.52,180.87-8.71,224.2c0,0,33.79-20.07,49-25.44l-.8-185.92S4299,1959.55,4281.88,1963.16Z"/><path class="cls-25" d="M4322.21,2161.92l-.18-43.41s-27.55,57.52-29,42.6c-.93-9.49-10.66-7.1-20.86,4.75.1,8.83.41,16.2,1,21.5C4273.17,2187.36,4307,2167.29,4322.21,2161.92Z"/><path class="cls-15" d="M4589.59,1428.55s9.34-8.33,17.72-8.15,18.93,24,14.75,26-11.84-5.28-17.3-4.92S4579.16,1437.06,4589.59,1428.55Z"/><path class="cls-15" d="M4482.48,1476.05c3.2,4.87,3.16,10.55-.09,12.69s-8.47-.08-11.68-5-3.17-10.55.08-12.69S4479.27,1471.18,4482.48,1476.05Z"/><path class="cls-26" d="M4550.8,1554.51s21.18-9.56,33.93-19,43.33-28.41,61.18-21.49,16.52,13.48,14.63,15.66-20.75-11.23-37.54-6.34S4575.5,1553.51,4550.8,1554.51Z"/><path class="cls-7" d="M4677,1658.45s-10.55,39.72-19.56,38.19-130.4-46.21-130.4-46.21l-14.57,69.93s196.57,117,223.84,106.33,12.63-135,12.63-135Z"/><path class="cls-27" d="M4840.74,1709.67s68,57.3,127.22,63.13c0,0-128.19,114.59-177.72,114.59s-212.68-168-256.86-164.12-98.57,27.19-116.05,22.82-38.36-8.74-32.53-25.73c0,0-16-6.8-8.74-21.37,0,0-31.08-8.74-20.88-21.36s5.34,1,32.53-2.43,47.1-6.8,47.1-6.8-52.93-7.77-53.9-18.94,42.73-10.68,70.89-15.53,31.08-7.29,27.68-9.72-39.81-18.93-32-35.93,9.23,5.34,37.39,4.86,45.65,17,56.81,32.53,124.79,92.74,155.87,112.65,82.06,39.33,96.14,30.59S4840.74,1709.67,4840.74,1709.67Z"/><path class="cls-2" d="M4840.74,1709.67s21.33,35.69,55.09,51.47,18.16,48.89-8.26,76.39c42.52-30.9,80.39-64.73,80.39-64.73C4908.72,1767,4840.74,1709.67,4840.74,1709.67Z"/><path class="cls-2" d="M4383.9,1724.28s27.66,6,35.31,5.67,44.25-13.48,46.43-16.57-43,11.47-45.34,11.83-37.93-6.17-37.93-6.17l2.43,1.32Z"/><path class="cls-2" d="M4374.73,1702.44s39.2,4.56,44.48,3.11,45.34-12.93,42.24-14.21-42.24,6.85-44.61,7.25-44.35-.76-44.35-.76l3.57,1.16Z"/></g></svg>