<svg xmlns="http://www.w3.org/2000/svg" viewBox="0 0 5774.95 2912.31"><defs><style>.cls-1{fill:#ffcab1;}.cls-2{fill:#f85;}.cls-3{fill:#ffb588;}.cls-4{fill:#ffa70e;}.cls-5{fill:#e28c10;}.cls-6{fill:#561064;}.cls-7{fill:#481056;}.cls-8{fill:#8b5a94;}.cls-9{fill:#7e5189;}.cls-10{fill:#fff;}.cls-11{fill:#362e6d;}.cls-12{fill:#21214f;}.cls-13{fill:#292659;}.cls-14{fill:#f20f45;}.cls-15{fill:#bc1d52;}.cls-16{fill:#c4493a;}.cls-17{fill:#2c2636;}.cls-18{fill:#c04336;}.cls-19{fill:#df7660;}.cls-20{fill:#ea344f;}.cls-21{fill:#e0a38b;}.cls-22{fill:#4c105b;}</style></defs><g id="OBJECTS"><path class="cls-1" d="M1041.92,1603.06s4.4,255.36,75.06,303.12V1623.24Z"/><path class="cls-1" d="M1647.26,879.68s33.43-51.12,50.54-86.94,22.88-61.28,26.76-72.92,2.39-31.34,0-46.56,12.24-19.1,19.4-18.5c0,0,12.53-20.6,32.83-9.55,0,0,11.94-9.85,23,3.88,0,0,8.06-3.59,16.71,8,0,0,12.24,42.38,8.36,46.86a29.31,29.31,0,0,1-8.06,6.57s-23.88,31-29,39.1-34.75,123.44-51.4,177.67Z"/><path class="cls-2" d="M1746.35,744.59s9.94-8.55,20.69-5.37,13.53,3.38,15.62.8,7.13-6.92,10.87-6.65l.69,2.15a12.35,12.35,0,0,0-10.07,4.89s-1,4.38-9.15,2.39S1757.49,739.42,1746.35,744.59Z"/><path class="cls-2" d="M1744,654.76s48.75,24.57,59.69,52.23C1803.65,707,1791.31,662.22,1744,654.76Z"/><path class="cls-2" d="M1776.79,645.21l31.89,62.2C1806.94,674.21,1776.79,645.21,1776.79,645.21Z"/><path class="cls-2" d="M1799.77,649.09l12.83,56.11C1818.57,679.73,1799.77,649.09,1799.77,649.09Z"/><path class="cls-2" d="M1784.35,703.6l2.29-1.39s-15.42-10.15-27.56-11.14S1735.2,676,1733,671.57c0,0,6,17.11,22.89,21.69A168.07,168.07,0,0,1,1784.35,703.6Z"/><path class="cls-2" d="M1752.71,715.54s9.35,1.79,13.13,4.78,15.7.83,19.3,1,6.92,8,6.92,8-1.36-6.87-4.84-11a127.3,127.3,0,0,1-13.42.84C1767.24,719.12,1764.85,714.15,1752.71,715.54Z"/><polygon class="cls-2" points="1736.43 927.34 1739.86 915.95 1647.26 879.68 1736.43 927.34"/><polygon class="cls-3" points="1209.39 2433.8 1209.39 2474.43 1309.67 2474.43 1309.67 2423.1 1209.39 2433.8"/><path class="cls-4" d="M1201.63,2454.14s56.71,29.85,113.41,0c0,0,16.72,68.05,14.93,84.76,0,0-62.68,41.19-121.77,43.58s-96.11-14.33-96.11-14.33,5.38-39.76,29.85-49.73S1199.84,2478.61,1201.63,2454.14Z"/><path class="cls-5" d="M1208.2,2582.48c59.09-2.39,121.77-43.58,121.77-43.58,1.79-16.71-14.93-84.76-14.93-84.76-56.7,29.85-113.41,0-113.41,0-.65,8.92-5.53,18.54-12.62,27.66h0s20.37-18.12,45.44-3.79,68.65-14.25,65.06-.86-47.55,55.77-36.41,65.32-95.1,38.21-95.1,38.21l.48.57A276.43,276.43,0,0,0,1208.2,2582.48Z"/><path class="cls-6" d="M1119.46,2551.24l-9.55,4.37-17.51,27.1s31.83,33.39,113.81,26.63,137.29-52.13,137.29-52.13-8.77-31.84-14.33-33L1274.25,2552l-1.19,10.35s-70,20.69-105,18.31l-5.58-20.7Z"/><path class="cls-6" d="M1193.87,1914.14l9.55,448.08h-9.55l4.78,75.64s54.91,25.5,121.77,0L1326,2363l-12.74,2.39,25.47-424.6Z"/><path class="cls-7" d="M1193.87,1957.51s74,20.3,119.38,19.1l4.34,316.48,21.13-352.29-144.85-26.66Z"/><path class="cls-8" d="M1198.65,2437.86s54.91,25.5,121.77,0L1326,2363l-12.74,2.39c-54.91,13.93-109.83-3.18-109.83-3.18h-9.55Z"/><path class="cls-9" d="M1326,2363l-12.74,2.39c-24.74,6.28-49.47,6.24-69.19,4.32,0,0,61.08,45.84,56.18,74.44a174.2,174.2,0,0,0,20.18-6.3Z"/><polygon class="cls-3" points="1477.6 2433.8 1477.6 2474.43 1377.32 2474.43 1377.32 2423.1 1477.6 2433.8"/><path class="cls-4" d="M1485.36,2454.14s-56.7,29.85-113.41,0c0,0-16.71,68.05-14.92,84.76,0,0,62.67,41.19,121.77,43.58s96.1-14.33,96.1-14.33-5.37-39.76-29.85-49.73S1487.15,2478.61,1485.36,2454.14Z"/><path class="cls-5" d="M1478.8,2582.48c-59.1-2.39-121.77-43.58-121.77-43.58-1.79-16.71,14.92-84.76,14.92-84.76,56.71,29.85,113.41,0,113.41,0,.65,8.92,5.54,18.54,12.62,27.66h0s-20.37-18.12-45.44-3.79-68.64-14.25-65.06-.86,47.55,55.77,36.41,65.32,95.11,38.21,95.11,38.21l-.49.57A276.34,276.34,0,0,1,1478.8,2582.48Z"/><path class="cls-6" d="M1567.54,2551.24l9.55,4.37,17.51,27.1s-31.84,33.39-113.81,26.63-137.29-52.13-137.29-52.13,8.76-31.84,14.33-33l54.91,27.85,1.19,10.35s70,20.69,105.06,18.31l5.57-20.7Z"/><path class="cls-6" d="M1493.12,1914.14l-9.55,448.08h9.55l-4.77,75.64s-54.92,25.5-121.77,0L1361,2363l12.73,2.39-25.47-424.6Z"/><path class="cls-7" d="M1493.12,1957.51s-74,20.3-119.38,19.1l-4.34,316.48-21.13-352.29,144.85-26.66Z"/><path class="cls-8" d="M1488.35,2437.86s-54.92,25.5-121.77,0L1361,2363l12.73,2.39c54.92,13.93,109.83-3.18,109.83-3.18h9.55Z"/><path class="cls-9" d="M1361,2363l12.73,2.39c24.75,6.28,49.47,6.24,69.2,4.32,0,0-61.08,45.84-56.19,74.44a174.06,174.06,0,0,1-20.17-6.3Z"/><path class="cls-3" d="M1218.47,1033.77s-5.36,55-41.18,82.1c0,0,41.25,122.56,104.59,122.56S1363,1132.06,1363,1132.06s-38.51-17.09-38.51-99.07Z"/><path class="cls-2" d="M1363,1132.06s-38.51-17.09-38.51-99.07l-106.06.78a128.51,128.51,0,0,1-2.46,14.12h0s44.64,43.51,92.9,31.57c0,0,18.6,70.43-25.67,112.81v46.09C1345.46,1236.83,1363,1132.06,1363,1132.06Z"/><path class="cls-4" d="M1198.59,1088.88s-108.84,55.64-127.95,74.74-99.08,365.31-99.08,365.31,59.24,102.67,145.42,94.31L1099.3,1921.7s300.84,54.91,469.17-21.49l-78.8-650.63s193.4-93.36,210.12-118.91,63.27-189.1,63.27-189.1l-115.8-61.89-72.82,93L1326,1058.9s9.24,113.83-42.72,133.37C1283.24,1192.27,1217.48,1174.37,1198.59,1088.88Z"/><path class="cls-5" d="M1139.09,1294.94c-4-35-38,280.77-38.08,328.61l16-.31S1143.07,1330,1139.09,1294.94Z"/><path class="cls-5" d="M1483,1011.58l-4.33-5.66-152.71,53s9.24,113.83-42.72,133.37c0,0,41,5,62.53-71.63l7.17,62,27.63-41.07c-29.14,163.6-82.78,463.4-90.26,495.63-10.35,44.57-34.23,84.36-34.23,84.36l-142.46-14.32-1.95,5.71L1099.3,1921.7s173.93,31.73,331.29,13.36c-22.73,2.73-85.38-14.74-87.74-45.6-2.37-31-43.79-10.34-62.09,2.39s122.56-256.27,125.74-288.79-90.73,128.82-105,151.56,31-171.57,58.63-311.64c17.72-90,28.86-232.1,34.56-322.34h0c1-16,1.84-30.31,2.52-42.46,6.19-.64,18.1-2.74,27.65-9.73l-10.35-6.7s31,3.18,44.57-7.16l-10.34-9.55S1474.34,1045.77,1483,1011.58Z"/><path class="cls-10" d="M1213.18,1410.24h0a45.85,45.85,0,0,1-45.84-45.84v-72.16H1259v72.16a45.84,45.84,0,0,1-45.84,45.84Z"/><path class="cls-11" d="M1399.44,1033l-32.13,11.07s-51.15,560.13-113.42,667l0,.09a60.57,60.57,0,0,0-17.9-10.26c-41.16-15.52-190.44-10.74-190.44-10.74s-48.94,187.43-29.84,211.3,143.26,50.14,185.84,39.4S1252.1,1856,1265,1805.9c7.11-27.62,10-51.94,4.38-70.84C1291.18,1662.6,1387.53,1327.7,1399.44,1033Z"/><path class="cls-12" d="M1201.57,1940.8c42.58-10.75,50.53-84.76,63.44-134.9,7.11-27.62,10-51.94,4.38-70.84,21.79-72.46,118.14-407.36,130-702.07l-32.13,11.07s-51.15,560.13-113.42,667l0,.09a60.57,60.57,0,0,0-17.9-10.26,83.86,83.86,0,0,0-10.13-2.95c.43.24,22.28,12.15,25.43,36.38,3.18,24.47,0,43,0,43s-37.75,127.53-45.94,136.89c0,0-8.32,33.59-75,25.39C1159,1943.68,1185.84,1944.76,1201.57,1940.8Z"/><path class="cls-13" d="M1024,1784.31s56.2,49.44,80.08,54.22,140.08-55.71,147.24-61.28c0,0-24.22,117.79-45.94,136.89,0,0,16.49-49.35,17.29-78,0,0-100.28,33.43-118.59,30.24S1024,1784.31,1024,1784.31Z"/><path class="cls-10" d="M1129.7,1806.15c-4,12.8-13.87,21.1-22.07,18.54s-11.62-15-7.63-27.8,13.88-21.1,22.08-18.54S1133.7,1793.35,1129.7,1806.15Z"/><path class="cls-4" d="M1813.7,1488.59s21.14,16.46,36,30.06l-5.59-.78s28.89,39.92,32.31,53.71l-3.77-3.22s13.69,32.49,8.44,49.91l-3.69-5.94s4.09,44.1-11.7,53.73c0,0-14.25-24.58-15.14-53.49l-2.72,5.34s-11.9-30.52-14.17-48.29l-2.32,7S1799.5,1524.4,1813.7,1488.59Z"/><path class="cls-5" d="M1850.58,1612.57l-2.72,5.34s-11.9-30.52-14.17-48.29l-2.32,7s-31.87-52.17-17.67-88c0,0,33.76,46.47,43.2,77.37l-6.19-7.25s21.64,70.32,15,107.35C1865.72,1666.06,1851.47,1641.48,1850.58,1612.57Z"/><path class="cls-6" d="M1784,712.06s11,19.1,12.54,34,11.88,18,19.69,16.12c13-3.08,16.92-13.64,9.42-34.32a219.31,219.31,0,0,0-8.52-20.6s-3.58,1.2-4.48-2.08c0,0-6.86,5.07-8.95,1.79,0,0-8.06,7.16-10.45,3.88s-6.56-8.66-6.56-8.66S1779.91,704.25,1784,712.06Z"/><path class="cls-6" d="M1816.16,1467.09V744.59a2.39,2.39,0,1,0-4.77,0v722.5a13.13,13.13,0,1,0,4.77,0Z"/><path class="cls-14" d="M1811.44,1485.13s-20.53,24.9-34.45,44.8l6.36-2.39s-23.47,54.52-23.87,71.63l3.58-4.78s-7.56,41.79,3.18,60.89l2.79-8s6.76,52.92,27.85,60.09c0,0,10.3-32.63,3.76-66.86l4.6,5.57s6-39,4-60.48l4.55,7.56S1837.54,1523.5,1811.44,1485.13Z"/><path class="cls-15" d="M1800.64,1640.55l4.6,5.57s6-39,4-60.48l4.55,7.56s23.77-69.7-2.33-108.07c0,0-27.49,63.5-30.47,102.3l5.37-10.15s-7,88.34,10.54,130.13C1796.88,1707.41,1807.18,1674.78,1800.64,1640.55Z"/><path class="cls-3" d="M1426.51,997.36a78.18,78.18,0,0,0,9.22-15c6.61-14,7.66-28,2.64-37.31a20.06,20.06,0,0,0-5.24-6.36c-10.35-8.11-27.4-4.52-42.51,7.5a78.26,78.26,0,0,0-12.82,13c-17.1,21.83-20.07,48.07-6.61,58.61.25.2.53.34.79.52C1385.59,1028,1409.73,1018.78,1426.51,997.36Z"/><path class="cls-3" d="M1153.77,898.48c-15.82,6.48-20.12,32.53-9.61,58.2,9.56,23.33,28,38.24,43.21,35.92a19.82,19.82,0,0,0,4.46-1.17c15.81-6.48,20.11-32.54,9.6-58.2a77.6,77.6,0,0,0-10-17.66C1180.25,901,1165.49,893.68,1153.77,898.48Z"/><path class="cls-1" d="M1268.45,1067.1a101.05,101.05,0,0,0,115.9-83l20.7-125-198.87-32.93-20.7,125a101.06,101.06,0,0,0,83,115.9Z"/><path class="cls-16" d="M1321.49,931s30.49-10.24,46.41,10,7.92-11.8-10.34-20.47-26.84-2.95-26.84-2.95-1.88-3.39-4.69-4.26C1318.21,910.9,1308.4,934.27,1321.49,931Z"/><path class="cls-16" d="M1255,918.62s-25.16-20-47-6.45-3.41-13.8,16.72-15.71,26.23,6.4,26.23,6.4,2.92-2.55,5.87-2.4C1265,900.85,1266.2,926.17,1255,918.62Z"/><path class="cls-17" d="M1319,968.81a2.55,2.55,0,0,1,.72-4.55l.52-.31c18.18-10.85,30.37.49,37.4,11.92a2.55,2.55,0,1,1-4.35,2.68c-12.76-20.74-26.06-12.82-30.43-10.21-1.1.65-1.89,1.13-3,.85A2.47,2.47,0,0,1,1319,968.81Z"/><path class="cls-17" d="M1210.8,943.77a2.58,2.58,0,0,1-1-2.72,2.55,2.55,0,0,1,1.75-1.84c.14-.07.31-.18.53-.31,18.17-10.84,30.37.5,37.4,11.93a2.56,2.56,0,0,1-4.36,2.67c-12.77-20.75-26.06-12.82-30.43-10.21-1.1.66-1.89,1.13-3,.86A2.67,2.67,0,0,1,1210.8,943.77Z"/><path class="cls-18" d="M1253.79,1016.18l35.69,9S1268.83,1055.2,1253.79,1016.18Z"/><path class="cls-19" d="M1311.48,1047.05c-6.17-6.7-.87-21.62,11.84-33.34s28-15.79,34.19-9.09.87,21.62-11.84,33.34S1317.66,1053.75,1311.48,1047.05Z"/><path class="cls-19" d="M1205.42,976.33c-8.24,3.87-9,19.69-1.62,35.34s20,25.19,28.23,21.32,9-19.69,1.62-35.34S1213.67,972.46,1205.42,976.33Z"/><path class="cls-20" d="M1293.85,989l-.86-.2-13-3-2.75-.63-13.06-3-.85-.2a2.07,2.07,0,0,0-2.62,1.15l-1.6,6.92c-.22.92.61,1.9,1.85,2.18l.85.2s4.56,1.68,4.71,4.15c0,0-.39,1.17,4.88,2.39l2.52.58,2.75.64,2.52.58c5.27,1.22,5.43,0,5.43,0,1.22-2.14,6-1.66,6-1.66l.86.2a2.06,2.06,0,0,0,2.62-1.15l1.6-6.92C1295.91,990.24,1295.08,989.27,1293.85,989Z"/><path class="cls-21" d="M1262.2,981.89s16.82-15.32,32.65,7.55Z"/><path class="cls-6" d="M1450.81,1001.24c10.06,5.08,22.13-18.09,22.13-18.09s-12.07,7-20.79-7.68c-7.69-12.93,19.55-161.22-78.85-219v0s20.84-2.38,19.33-30.55S1283,641.35,1233.17,664c0,0,19-.5,25.85,2.51,0,0-54.52.51-71.63,25.66l17.61-6.54s-52,47.53-2.36,81.61h0c-47.76,43.53-61.89,116.28-69.08,129.78-11.4,21.41-53.68,33.35-53.68,33.35,17.44,14.75,45.63,4,45.63,4-8,16.71-38.23,25.19-38.23,25.19,6.71,1.65,26.16,3,26.16,3-13.42,19.08-64.09,20.53-64.09,20.53,19.07,31.27,67.44,42.68,67.44,42.68L1098,1036.19c26.16,23.27,74.78,14.08,74.78,14.08L1157,1068.45c14.53,3.54,38.71-2.33,55.4-7.25,1.19-6.61,6-17.88,6-17.88a101.38,101.38,0,0,1-31.14-50.72c-15.16,2.3-33.62-12.61-43.17-35.92-10.51-25.67-6.21-51.72,9.61-58.2,8.3-3.4,18.1-.64,27.07,6.39.3.54,5.68,10.76,3.29,22.38-2.46,11.93-5.82,43.17,1.23,55.9,0,0,7-75.39,24.33-82.83l43.22-18.51-16.13,20.62c40,5.54,84.79-11.87,84.79-11.87l-6.35,11.87c38.06-2.36,69-31.39,69-31.39-12.13,17.23,0,50.27,0,50.27l7.81-18.88c-1,3.86-.85,8.87-.09,14.05h0s-9.13,82.76-16.5,95.41c0,0,21.58-26.55,30.59-74.66,10.29-4,20.17-3.89,27.07,1.51a20.06,20.06,0,0,1,5.24,6.36c5,9.3,4,23.28-2.64,37.31a78.18,78.18,0,0,1-9.22,15c-16.76,21.4-40.87,30.56-54.49,21a101.27,101.27,0,0,1-41.84,39.25c-1.82.92-3.69,1.74-5.57,2.55l0,0a.08.08,0,0,1,0,0c22.67,24.47,85.31,9.18,85.31,9.18-20.79-8.56-16.1-27.07-16.1-27.07,13.82,20.68,51,7.93,51,7.93-7.37-4.23-11.4-14.08-11.4-14.08,43.77,14.47,49.63-24.61,49.63-24.61C1457.92,1026.17,1450.81,1001.24,1450.81,1001.24Z"/><path class="cls-22" d="M1384.25,921.31l7.81-18.88c-1,3.86-.85,8.87-.09,14.05h0s-9.13,82.76-16.5,95.41c0,0,21.58-26.55,30.59-74.66,10.29-4,20.17-3.89,27.07,1.51a20.06,20.06,0,0,1,5.24,6.36c5,9.3,4,23.28-2.64,37.31a78.18,78.18,0,0,1-9.22,15c-16.76,21.4-40.87,30.56-54.49,21a101.27,101.27,0,0,1-41.84,39.25c-1.82.92-3.69,1.74-5.57,2.55l0,0a.08.08,0,0,1,0,0c22.67,24.47,85.31,9.18,85.31,9.18-20.79-8.56-16.1-27.07-16.1-27.07,13.82,20.68,51,7.93,51,7.93-7.37-4.23-11.4-14.08-11.4-14.08,43.77,14.47,49.63-24.61,49.63-24.61-25.08,14.59-32.19-10.34-32.19-10.34,10.06,5.08,22.13-18.09,22.13-18.09s-12.07,7-20.79-7.68c-7.69-12.93,19.55-161.22-78.85-219v0s20.84-2.38,19.33-30.55S1283,641.35,1233.17,664c0,0,43.6-10.73,75.74,17.33,0,0-16.22-4.18-27,0,0,0,33.43,19.1,44.77,32.23s-101.31,34.54-124.08,53.68c0,0,75.92-21.53,106.27,0s4.57,57.94-17.76,68.69c0,0,20.65,4.18,51.69-13.73,0,0,4.2,27.46-8.35,40.59,0,0,30.8-7.76,42-26.86,0,0,5.64,26.86-13.69,38.8,0,0,18.29-5.37,26-19.1,0,0,2.83,4.57-4.55,15.42-.42.59-.75,1.25-1.11,1.88-.47.88-1,1.89-1.51,3.06C1374.23,893.89,1384.25,921.31,1384.25,921.31Z"/><path class="cls-4" d="M1202.64,767.23s81.74-40.79,170.66-10.82C1373.3,756.41,1286.09,682.83,1202.64,767.23Z"/></g></svg>