<svg xmlns="http://www.w3.org/2000/svg" viewBox="0 0 400 300" width="406" height="306" class="illustration styles_illustrationTablet__1DWOa"><g id="_106_dog_walking" data-name="#106_dog_walking"><path d="M117.43,248.34a.57.57,0,0,1-.18,0,.5.5,0,0,1-.29-.64,46.59,46.59,0,0,1,31.47-28.31,17,17,0,0,1,8.29-.46,8.6,8.6,0,0,1,5,3.46A26.94,26.94,0,0,1,203.55,202a9.2,9.2,0,0,1,3.65-8.13c2.35-1.85,5.53-2.88,9.7-3.16a35.89,35.89,0,0,1,38.28,35.51A27.88,27.88,0,0,1,271,233.8c2.14,2.07,3.72,5,3.1,7.47a10.44,10.44,0,0,1,7.5-.2,10.72,10.72,0,0,1,5.14,3.62.61.61,0,0,1,.26-.15.49.49,0,0,1,.59.39l.49,2.31a.5.5,0,0,1-.36.58.49.49,0,0,1-.6-.32,9.64,9.64,0,0,0-13.8-4.66.5.5,0,0,1-.63-.06.51.51,0,0,1-.06-.64c1.54-2.22-.06-5.43-2.32-7.62a27,27,0,0,0-15.73-7.37.5.5,0,0,1-.44-.5,34.88,34.88,0,0,0-37.21-35c-4,.26-7,1.23-9.15,3-2.72,2.13-4,5.56-3,8.34a.51.51,0,0,1-.18.56.49.49,0,0,1-.59,0,25.95,25.95,0,0,0-41.38,21.18.52.52,0,0,1-.46.51.53.53,0,0,1-.54-.41c-.46-2.64-2.93-4.39-5.17-5a16.15,16.15,0,0,0-7.8.46A45.6,45.6,0,0,0,117.89,248,.48.48,0,0,1,117.43,248.34Z" fill="#d1d3d4"></path><circle cx="239.98" cy="103.45" r="52.78" fill="#fff"></circle><path d="M240,156.73a53.28,53.28,0,1,1,53.28-53.28A53.34,53.34,0,0,1,240,156.73Zm0-105.56a52.28,52.28,0,1,0,52.28,52.28A52.34,52.34,0,0,0,240,51.17Z" fill="#d1d3d4"></path><path d="M240,249.83a.51.51,0,0,1-.5-.5V62.89a.5.5,0,0,1,.5-.5.5.5,0,0,1,.5.5V249.33A.5.5,0,0,1,240,249.83Z" fill="#d1d3d4"></path><path d="M240,125.15a.49.49,0,0,1-.32-.12.51.51,0,0,1-.06-.71l21-24.72a.5.5,0,1,1,.76.65l-21,24.72A.49.49,0,0,1,240,125.15Z" fill="#d1d3d4"></path><path d="M240,108.7a.52.52,0,0,1-.29-.09l-26.75-19a.5.5,0,0,1,.58-.82l26.75,19a.5.5,0,0,1-.29.91Z" fill="#d1d3d4"></path><path d="M341.91,249.83H58.09a.51.51,0,0,1-.5-.5.5.5,0,0,1,.5-.5H341.91a.5.5,0,0,1,.5.5A.51.51,0,0,1,341.91,249.83Z" fill="#d1d3d4"></path><path d="M240,86a.49.49,0,0,1-.37-.16.5.5,0,0,1,0-.71l10.49-9.4a.5.5,0,1,1,.67.75l-10.5,9.4A.5.5,0,0,1,240,86Z" fill="#d1d3d4"></path><path d="M251.9,111.1a.49.49,0,0,1-.49-.41.51.51,0,0,1,.41-.58l14.54-2.4a.5.5,0,1,1,.17,1L252,111.1Z" fill="#d1d3d4"></path><path d="M240,135.72a.47.47,0,0,1-.28-.09l-21.82-15a.5.5,0,0,1,.56-.82l21.83,15a.5.5,0,0,1,.12.69A.49.49,0,0,1,240,135.72Z" fill="#d1d3d4"></path><path d="M227.16,99.55a.5.5,0,0,1-.46-.3l-6.61-15.86A.5.5,0,1,1,221,83l6.61,15.85a.49.49,0,0,1-.26.65A.48.48,0,0,1,227.16,99.55Z" fill="#d1d3d4"></path><path d="M96.48,109.44s-6,16.78-6.8,21.38,1,36.16,3.4,42.15,7.19,7,7.19,5.39v-6.79s2.6,4.4,3.4,1.4-3.55-7.86-3.55-9.46.35-29.29.95-31.29,7.33-19.1,7.33-19.1" fill="#fff"></path><path d="M99.33,179.54c-1.87,0-5-2-6.71-6.39-2.49-6.22-4.18-38.12-3.43-42.42C90,126.15,95.76,110,96,109.28a.5.5,0,1,1,.94.33c-.06.17-6,16.79-6.77,21.3-.85,4.89,1.07,36.14,3.37,41.87,1.82,4.56,5,5.94,6,5.74.21,0,.21-.11.21-.16v-6.79a.49.49,0,0,1,.37-.48.49.49,0,0,1,.56.23c.65,1.08,1.69,2.26,2.1,2.19.1,0,.26-.19.39-.67.44-1.67-1-4.16-2.16-6.16a8.32,8.32,0,0,1-1.41-3.17c0-.28.32-29.26,1-31.44.6-2,7.07-18.44,7.34-19.14a.51.51,0,0,1,.65-.28.5.5,0,0,1,.28.65c-.07.17-6.72,17.11-7.31,19.06s-.93,28.79-.93,31.15a9.25,9.25,0,0,0,1.28,2.67c1.25,2.16,2.8,4.85,2.25,6.92-.23.85-.63,1.32-1.21,1.4-.77.1-1.56-.6-2.17-1.34v5.2a1.16,1.16,0,0,1-1,1.15A2.77,2.77,0,0,1,99.33,179.54Z" fill="#231f20"></path><path d="M143.9,114.87s19.17,25.7,20.77,27.33,8.64,3.8,8.94,4.39-.3,6.88-1.35,8.08-5.39,1.2-6.89,0-4-6.44-4-6.44l-23.14-15Z" fill="#fff"></path><path d="M169,156.06a6.67,6.67,0,0,1-3.89-1c-1.45-1.16-3.71-5.65-4.12-6.49l-23-14.9a.52.52,0,0,1-.21-.57l5.71-18.38a.49.49,0,0,1,.39-.34.49.49,0,0,1,.49.19c.19.26,19.17,25.7,20.73,27.28.87.89,3.76,2.06,5.87,2.91,2.39,1,3,1.24,3.16,1.6.44.87-.31,7.37-1.42,8.64C172,155.7,170.51,156.06,169,156.06Zm-30.17-23,22.82,14.78a.55.55,0,0,1,.17.2c.7,1.43,2.76,5.34,3.91,6.27,1.37,1.1,5.4,1,6.21.06s1.45-6.51,1.28-7.49a26.52,26.52,0,0,0-2.65-1.16c-2.31-.93-5.19-2.1-6.21-3.14-1.46-1.49-16.94-22.19-20.23-26.6Z" fill="#231f20"></path><polygon points="92.34 213.67 117.74 194.06 116.56 170.77 138.88 171.97 137.94 201.54 94.24 226.51 92.34 213.67" fill="#fff"></polygon><path d="M94.24,227a.5.5,0,0,1-.5-.43l-1.9-12.84a.52.52,0,0,1,.19-.47l25.2-19.45-1.17-23a.51.51,0,0,1,.53-.53l22.32,1.2a.5.5,0,0,1,.47.52l-.95,29.56a.49.49,0,0,1-.25.42l-43.7,25A.51.51,0,0,1,94.24,227Zm-1.36-13.12,1.74,11.82,42.82-24.47.93-28.8-21.28-1.14L118.24,194a.49.49,0,0,1-.2.42Z" fill="#231f20"></path><polygon points="117.74 179.4 144 236.42 155.12 235.7 137.74 171.28 117.74 179.4" fill="#fff"></polygon><path d="M144,236.92a.49.49,0,0,1-.45-.29l-26.27-57a.52.52,0,0,1,0-.39.48.48,0,0,1,.28-.28l20-8.12a.53.53,0,0,1,.41,0,.49.49,0,0,1,.26.32l17.38,64.42a.48.48,0,0,1-.08.42.49.49,0,0,1-.37.21l-11.12.72Zm-25.59-57.26,25.9,56.24,10.17-.66L137.4,172Z" fill="#231f20"></path><path d="M144,236.42l4.62,12.67s26.25-8.7,28-10.35-3.93-3.82-5-3.51-5.39,1.31-6.89,1.08-11-3.89-11-3.89Z" fill="#231f20"></path><path d="M148.62,249.59a.49.49,0,0,1-.46-.33l-4.63-12.67a.5.5,0,0,1,.28-.63l9.7-4a.48.48,0,0,1,.37,0c2.61,1,9.67,3.68,10.86,3.86,1.35.21,5.43-.73,6.68-1.07s4.93,1.08,5.79,2.6a1.36,1.36,0,0,1-.28,1.75c-1.75,1.68-25.45,9.57-28.15,10.46A.45.45,0,0,1,148.62,249.59Zm-4-12.89,4.29,11.76c10.51-3.49,26.14-8.94,27.33-10.08a.38.38,0,0,0,.09-.54c-.67-1.19-4.07-2.3-4.65-2.13-1,.28-5.45,1.35-7.1,1.09-1.44-.22-9.51-3.31-10.89-3.84Z" fill="#231f20"></path><path d="M92.34,213.67l-13.71,6.77s-3,23.45-2.44,25.76,5.27-1.49,5.56-2.59A53.57,53.57,0,0,1,86,235.19c.95-1.18,8.2-8.68,8.2-8.68Z" fill="#231f20"></path><path d="M77.1,247.44h0a1.37,1.37,0,0,1-1.38-1.12c-.56-2.34,2.13-23.54,2.44-25.95a.49.49,0,0,1,.27-.38l13.71-6.77a.51.51,0,0,1,.45,0,.48.48,0,0,1,.26.37l1.9,12.83a.5.5,0,0,1-.14.42c-.07.08-7.23,7.5-8.16,8.65a53.79,53.79,0,0,0-4.2,8.23C81.93,244.87,78.85,247.44,77.1,247.44Zm2-26.68c-1.2,9.4-2.81,23.71-2.42,25.33.06.26.17.35.42.35h0c1.37,0,4-2.37,4.17-3a54.11,54.11,0,0,1,4.38-8.6c.89-1.1,6.93-7.38,8.06-8.54L92,214.42Z" fill="#231f20"></path><path d="M109,140s-4.94,14.18-2.27,25.17,12.46,24,12.46,24l24.35-7-1.78-39.36Z" fill="#231f20"></path><path d="M119.16,189.59a.52.52,0,0,1-.4-.2c-.1-.13-9.88-13.18-12.55-24.14s2.09-24.86,2.29-25.45a.49.49,0,0,1,.51-.33l32.76,2.8a.5.5,0,0,1,.46.47L144,182.1a.5.5,0,0,1-.36.5l-24.36,7Zm-9.84-49.1c-.74,2.29-4.51,14.78-2.14,24.53s10.76,21.57,12.17,23.49L143,181.75l-1.75-38.53Z" fill="#231f20"></path><path d="M143.51,182.62a.49.49,0,0,1-.47-.34c-.08-.25-8.48-25.17-10.64-29.49a.5.5,0,0,1,.22-.66.49.49,0,0,1,.67.22c2.19,4.37,10.35,28.59,10.69,29.61a.5.5,0,0,1-.31.64Z" fill="#fff"></path><path d="M135.63,163a.5.5,0,0,1-.46-.31c-.09-.22-.11-.25,1.88-7.25a.49.49,0,0,1,.61-.34.51.51,0,0,1,.35.62c-.69,2.42-1.8,6.37-1.89,6.81a.48.48,0,0,1-.3.42A.45.45,0,0,1,135.63,163Z" fill="#fff"></path><path d="M109,140V115.69l-5,13.79-14.5-6.81S96.65,98,105.91,93.52s36.92-4.88,40.51.21-4.69,49-4.69,49Z" fill="#0d6efd"></path><path d="M116.89,76.1s-7.5,3.3-7.2,6.4,14.52-1.63,14.52-1.63Z" fill="#231f20"></path><path d="M112.06,84a4.28,4.28,0,0,1-2.21-.44,1.38,1.38,0,0,1-.65-1c-.33-3.35,6.69-6.54,7.49-6.89a.47.47,0,0,1,.47,0l7.33,4.76a.5.5,0,0,1-.12.89C123.38,81.67,116.13,84,112.06,84Zm4.79-7.36c-2.14,1-6.87,3.62-6.66,5.78a.37.37,0,0,0,.21.3c1.5,1,8.18-.62,12.67-2Z" fill="#231f20"></path><path d="M141,68.87c-.14-.31-.3-.61-.47-.91-1.94-3.36-8-2.92-11.21-2.32a17.91,17.91,0,0,0-8.34,3.53c-4.68,3.9-4.25,12-2.3,17.22a.48.48,0,0,1,0,.48.51.51,0,0,1-.32.1l-1.42.09a2.27,2.27,0,0,0,.79,1.38A12.77,12.77,0,0,0,128.6,91.6c5.46-.87,12.68-5.12,13.65-11A19.73,19.73,0,0,0,141,68.87Z" fill="#fff"></path><path d="M126.38,92.29a12.88,12.88,0,0,1-9.06-3.48,2.74,2.74,0,0,1-.94-1.73.51.51,0,0,1,.48-.54l1.25-.07c-2.11-5.79-2.23-13.76,2.49-17.7a18.26,18.26,0,0,1,8.58-3.64c2.79-.51,9.53-1.29,11.74,2.58a10.54,10.54,0,0,1,.5.94h0a20.31,20.31,0,0,1,1.34,12c-1.07,6.54-8.88,10.65-14.08,11.48A14.76,14.76,0,0,1,126.38,92.29Zm-8.79-4.76a3.05,3.05,0,0,0,.46.55,12.27,12.27,0,0,0,10.47,3c5.67-.9,12.34-5.22,13.23-10.63a19.33,19.33,0,0,0-1.26-11.37h0c-.14-.29-.3-.59-.46-.87-1.94-3.39-8.65-2.45-10.66-2.08a17.31,17.31,0,0,0-8.11,3.42c-4.17,3.48-4.24,11-2.14,16.65a1,1,0,0,1-.11,1,1,1,0,0,1-.67.28Z" fill="#231f20"></path><path d="M137.24,89.88l.17,7.74s-2.57,4.65-7.49,3.19a10.22,10.22,0,0,1-6.47-5.91l.76-14S128,79.09,127.32,71c0,0,4.69-.54,12.14-1.11,0,0,2.52,12.36,1.72,16.19S137.24,89.88,137.24,89.88Z" fill="#fff"></path><path d="M131.78,101.61a7.1,7.1,0,0,1-2-.3A10.63,10.63,0,0,1,123,95.07a.41.41,0,0,1,0-.19l.76-14a.51.51,0,0,1,.29-.44s3.46-1.79,2.82-9.33a.51.51,0,0,1,.45-.56s4.79-.55,12.16-1.11a.5.5,0,0,1,.54.41c.11.51,2.54,12.51,1.73,16.39a4.81,4.81,0,0,1-3.92,4.14l.15,7.27a.58.58,0,0,1-.06.26S135.74,101.61,131.78,101.61ZM124,94.82a9.79,9.79,0,0,0,6.1,5.5c4.09,1.21,6.39-2.14,6.82-2.83l-.17-7.6a.56.56,0,0,1,.15-.37.51.51,0,0,1,.37-.15h0c.12,0,2.74,0,3.44-3.38S139.48,72.7,139,70.46c-5.75.44-9.81.87-11.17,1,.44,6.75-2.26,9.1-3.16,9.69Zm13.27-4.94h0Z" fill="#231f20"></path><path d="M127.14,80.77a3.26,3.26,0,0,0-1-1.79,5.86,5.86,0,0,0-1.7-1,2.51,2.51,0,0,0-1-.24,1.9,1.9,0,0,0-.72.23,2.52,2.52,0,0,0-1.26,1.19,3,3,0,0,0-.14,1.42,5.7,5.7,0,0,0,.31,1.53,3.94,3.94,0,0,0,5.11,2.32" fill="#fff"></path><path d="M125.28,85.24a4.48,4.48,0,0,1-4.19-2.92,6,6,0,0,1-.33-1.66,3.47,3.47,0,0,1,.17-1.67,3,3,0,0,1,1.51-1.46,2.52,2.52,0,0,1,.91-.27,2.79,2.79,0,0,1,1.27.28,6,6,0,0,1,1.85,1,3.77,3.77,0,0,1,1.18,2.08.53.53,0,0,1-.41.61.51.51,0,0,1-.6-.41,2.81,2.81,0,0,0-.86-1.51,5.18,5.18,0,0,0-1.55-.87,2.14,2.14,0,0,0-.81-.2,1.4,1.4,0,0,0-.52.17,2,2,0,0,0-1,.93,2.71,2.71,0,0,0-.1,1.18,5.22,5.22,0,0,0,.28,1.39,3.46,3.46,0,0,0,1.8,1.94,3.52,3.52,0,0,0,2.65.08.51.51,0,0,1,.37,1A4.45,4.45,0,0,1,125.28,85.24Z" fill="#231f20"></path><path d="M137.15,93.72a6.49,6.49,0,0,1-5-1.91c-2.08-2.23-1.83-3.44-1.83-3.44S133.74,90.48,137,90Z" fill="#231f20"></path><path d="M136.76,94.23a6.89,6.89,0,0,1-5-2.08c-2.2-2.35-2-3.73-2-3.88a.51.51,0,0,1,.29-.36.5.5,0,0,1,.46,0s3.33,2,6.4,1.56a.5.5,0,0,1,.39.11.51.51,0,0,1,.18.37l.11,3.72a.49.49,0,0,1-.44.51A2.79,2.79,0,0,1,136.76,94.23ZM131,89.29a7.34,7.34,0,0,0,1.52,2.17,5.93,5.93,0,0,0,4.13,1.78l-.08-2.7A11.56,11.56,0,0,1,131,89.29Z" fill="#231f20"></path><path d="M135.63,78s2.55,3.93,1.92,4.6-2.36.19-2.36.19" fill="#fff"></path><path d="M136.39,83.45a6,6,0,0,1-1.33-.18.52.52,0,0,1-.35-.62.5.5,0,0,1,.61-.35c.59.16,1.58.25,1.87,0a13.39,13.39,0,0,0-2-4,.5.5,0,0,1,.84-.55c1.84,2.83,2.46,4.59,1.87,5.22A2,2,0,0,1,136.39,83.45Z" fill="#231f20"></path><path d="M135.71,85.59s-2.92.9-3.67-1.93" fill="#fff"></path><path d="M134.68,86.22a3.37,3.37,0,0,1-1.65-.39,3.12,3.12,0,0,1-1.47-2,.49.49,0,0,1,.35-.61.5.5,0,0,1,.61.36,2.16,2.16,0,0,0,1,1.41,3,3,0,0,0,2.05.16.5.5,0,0,1,.29,1A4.45,4.45,0,0,1,134.68,86.22Z" fill="#231f20"></path><ellipse cx="131.21" cy="77.81" rx="0.64" ry="0.91" transform="translate(-12.8 27.48) rotate(-11.4)" fill="#231f20"></ellipse><ellipse cx="138" cy="77.96" rx="0.64" ry="0.91" transform="translate(-12.69 28.83) rotate(-11.4)" fill="#231f20"></ellipse><path d="M116.89,76.1,142.15,71s.2-10.7-13.58-9.9S116.89,76.1,116.89,76.1Z" fill="#fff"></path><path d="M116.89,76.62a.5.5,0,0,1-.29-.09.53.53,0,0,1-.22-.35c0-.27-.95-6.74,2.77-11.31,2.11-2.59,5.27-4,9.39-4.26,4.83-.28,8.53.78,11,3.17A10.58,10.58,0,0,1,142.67,71a.51.51,0,0,1-.41.5L117,76.61Zm13.12-15c-.46,0-.93,0-1.41,0-3.82.22-6.73,1.52-8.65,3.87-2.83,3.49-2.73,8.36-2.6,10l24.27-4.89a9.62,9.62,0,0,0-2.8-6.09C136.8,62.57,133.84,61.59,130,61.59Z" fill="#231f20"></path><path d="M132.78,72.91s-.28-4.07,2.93-4.61c3.7-.64,4.06,3.2,4.06,3.2Z" fill="#231f20"></path><path d="M132.78,73.41a.51.51,0,0,1-.31-.11.48.48,0,0,1-.19-.36c-.11-1.56.45-4.64,3.34-5.13a3.72,3.72,0,0,1,3,.62,4.71,4.71,0,0,1,1.59,3,.5.5,0,0,1-.4.53l-7,1.41Zm3.71-4.69a4.37,4.37,0,0,0-.7.07c-2.08.35-2.46,2.47-2.51,3.51l5.91-1.19a3.45,3.45,0,0,0-1.13-1.9A2.53,2.53,0,0,0,136.49,68.72Z" fill="#231f20"></path><path d="M162.63,194.56a.5.5,0,0,1-.5-.5c0-13.39,0-27.24,4.18-40.29.57-1.76,1.42-2.69,2.53-2.78s2,.66,2.78,2.07a16,16,0,0,1,.77,1.69l.15.15a8.71,8.71,0,0,1,1.54,2.72c1.74,4.24,3.47,9.15,2.11,13.78-.33,1.1-1.14,2.31-2.39,2.11a2.21,2.21,0,0,1-1.49-1.32,5.53,5.53,0,0,1-2,2.94,2,2,0,0,1-1.38.42c-1.11-.12-1.6-1.35-1.76-1.76a24.59,24.59,0,0,1-.39-16.85c.62-1.8,1.48-2.82,2.63-3.12a1.36,1.36,0,0,1,.29-.06c0-.06,0-.11,0-.16a1.44,1.44,0,0,1,.41-.95l0,0a1.52,1.52,0,0,0-1.21-.64c-.67,0-1.23.75-1.66,2.08-4.16,12.9-4.15,26.67-4.13,40a.51.51,0,0,1-.5.5Zm7-39.76c-.77.23-1.39,1-1.88,2.46a23.66,23.66,0,0,0,.38,16.17c.29.72.6,1.09.94,1.13a1.19,1.19,0,0,0,.71-.25,5.72,5.72,0,0,0,2-3.68A38.57,38.57,0,0,1,169.58,154.8Zm3.15,15.75.3.78c.29.75.59,1.13.94,1.19.59.11,1.08-.78,1.26-1.4,1.21-4.12-.25-8.6-1.84-12.54a35.6,35.6,0,0,1-.53,11.31C172.82,170.11,172.78,170.33,172.73,170.55Zm-2.14-15.74a37.38,37.38,0,0,0,1.48,13.75c.69-4.3,1-9-.53-13.23A2.7,2.7,0,0,0,170.59,154.81Zm.09-1,.23.06-.1-.2-.11,0s0,0,0,.09Z" fill="#231f20"></path><path d="M164.62,147.1s-.82,5.17,3.82,4.12c0,0-.67,4,.6,3.82s2.78-4.71,2.77-7" fill="#fff"></path><path d="M169,155.55a1,1,0,0,1-.71-.31c-.62-.66-.54-2.35-.41-3.41a3.25,3.25,0,0,1-2.7-.73c-1.44-1.35-1-4-1-4.07a.49.49,0,0,1,.57-.42.51.51,0,0,1,.42.57s-.33,2.2.72,3.19a2.66,2.66,0,0,0,2.49.37.51.51,0,0,1,.46.12.53.53,0,0,1,.15.45c-.25,1.46-.23,3,.05,3.25.78-.1,2.33-4.1,2.32-6.56a.5.5,0,0,1,.5-.5h0a.5.5,0,0,1,.5.5c0,2.08-1.37,7.33-3.21,7.54Z" fill="#231f20"></path><polygon points="143.51 104.69 151.22 123.07 135.19 132.86 143.51 104.69" fill="#0d6efd"></polygon><path d="M143,136.34h-.12a.5.5,0,0,1-.36-.61c3.08-12.18,4.17-35.94,3.56-37.7a.5.5,0,0,1,.66-.74c1.47,1-.47,27.68-3.25,38.69A.5.5,0,0,1,143,136.34Zm3.19-38.22ZM146,98Z" fill="#231f20"></path><path d="M105.91,123.51a.51.51,0,0,1-.44-.25.51.51,0,0,1,.11-.63c.73-1,6.94-15.39,7.92-19a.5.5,0,0,1,1,.26c-.67,2.52-7.37,19-8.3,19.59A.47.47,0,0,1,105.91,123.51Z" fill="#231f20"></path><path d="M280.82,209.13s-10.56,13.75-10.8,14.74-2.71,18.38-2,19.38,4.42,1.5,3.93,3-9,2-9.51,0,1-25.3,0-27S268.05,203,268.05,203Z" fill="#231f20"></path><path d="M266.69,248h-.29c-1.48,0-4-.29-4.41-1.65-.25-.87-.14-4.78.08-11.09.19-5.93.49-14.91,0-15.81-1.1-1.81,4-13.22,5.56-16.68a.45.45,0,0,1,.28-.26.48.48,0,0,1,.39,0L281,208.68a.47.47,0,0,1,.27.33.49.49,0,0,1-.09.42c-4,5.19-10.42,13.74-10.72,14.57-.37,1.46-2.53,17.7-2,19a5.3,5.3,0,0,0,1.55.82c1.28.55,2.87,1.22,2.43,2.56S268.38,248,266.69,248Zm1.6-44.36c-3,6.7-5.92,14.32-5.39,15.28s.47,7.15.16,16.37c-.16,4.92-.33,10-.11,10.78.1.34,1,.78,2.82.9,2.94.2,5.55-.5,5.74-.93s-1-.93-1.87-1.32a4.93,4.93,0,0,1-2-1.19c-1-1.36,1.84-19.64,1.88-19.8.24-1,7.68-10.73,10.52-14.44Z" fill="#231f20"></path><path d="M222.6,206.43s9.58,8.84,8.11,12.77-5.16,15.72-5.16,15.72,3.69,12.67,7.13,12.6,10.07,2,9.82,0-3.19-2.28-3.93-2.77-3.44-1-3.93-1.5-3.93-8.08-3.19-8.57,11.79-13,12.53-17.45-2.71-21.37-2.71-21.37S227.27,196.35,222.6,206.43Z" fill="#231f20"></path><path d="M240.89,248.91a29,29,0,0,1-3.9-.44,28.35,28.35,0,0,0-4.3-.45h0c-3.7,0-7.19-11.63-7.58-13a.48.48,0,0,1,0-.29c0-.12,3.71-11.85,5.17-15.75,1.11-3-5.38-9.83-8-12.23a.49.49,0,0,1-.11-.57c4.74-10.24,18.52-10.84,19.11-10.86a.49.49,0,0,1,.5.4c.14.7,3.45,17.09,2.71,21.56S233.33,233.7,231.84,235c-.07,1.09,2.61,7.26,3.16,7.91a9.37,9.37,0,0,0,1.77.64,9.67,9.67,0,0,1,2.08.78,4.83,4.83,0,0,0,.83.32c1.24.4,3.1,1,3.32,2.81a1.08,1.08,0,0,1-.32,1A2.52,2.52,0,0,1,240.89,248.91Zm-8-1.89a29.92,29.92,0,0,1,4.3.47c1.85.28,4.38.66,4.84.22,0,0,0,0,0-.13-.15-1.18-1.58-1.64-2.63-2a4.69,4.69,0,0,1-1.09-.44,9.52,9.52,0,0,0-1.81-.65,6.6,6.6,0,0,1-2.19-.89c-.6-.58-3.57-7.24-3.44-8.75a.77.77,0,0,1,.32-.61c.91-.67,11.62-12.93,12.31-17.11.65-3.89-2.09-18.1-2.61-20.76-2.32.19-13.49,1.51-17.66,9.92,1.78,1.68,9.42,9.19,8,13.07-1.37,3.63-4.68,14.19-5.11,15.55,1.4,4.74,4.38,12.09,6.58,12.09Z" fill="#231f20"></path><polygon points="303.7 162.45 297.8 147.34 311.19 162.45 303.7 162.45" fill="#231f20"></polygon><path d="M311.19,163H303.7a.5.5,0,0,1-.47-.32l-5.89-15.1a.5.5,0,0,1,.84-.52l13.39,15.11a.51.51,0,0,1,.08.54A.5.5,0,0,1,311.19,163ZM304,162h6l-10.79-12.18Z" fill="#231f20"></path><path d="M296.82,165.52c0,.74-27.51,16-45.45,13s-29.48-4.42-37.58,9.58-5.16,27.52-10.32,31.94-15.72,3.44-15.72,4.18-1.23,8.59,0,14.24,3.93,7.87,5.65,6.88-1.72-12.53-.49-16.46c0,0,7.61,1.72,17.68-2.21s14.74-18.2,22.85-21.13,12.53-.51,13.76,0,7.12,11.06,18.18,11.55,15.72-1.72,15.72-1.72-1.72,14.25,2,15,16.22.49,18.18,2.45c1.6,1.6,3.23,4.1,3.41,6.38a8.53,8.53,0,0,0,.62,3.38,2,2,0,0,0,.81.88c1,.53,2.18-.17,2.87-1,2.47-3.08.5-4.91-1-7.73-1.06-2-2.64-5.75-5-6.53-2.95-1-12-3.69-12-3.69s-1.72-11.54-.74-14.74,20.63-31.69,23.58-33.41,16.46-2.45,19.65-6.88a6.12,6.12,0,0,0,0-7.86s-11.05.74-18.17-1a34.24,34.24,0,0,0-14.25,0l-9.34-13.27Z" fill="#231f20"></path><path d="M192.55,246.09a2.68,2.68,0,0,1-1.08-.24c-1.82-.82-3.4-3.53-4.21-7.26-1-4.76-.36-11.07-.1-13.44.05-.48.09-.79.09-.91,0-.69.66-.74,2.87-.89,3.33-.24,9.53-.68,13-3.67,2.26-1.94,2.89-5.9,3.69-10.92.95-5.93,2.14-13.32,6.52-20.89,8.5-14.69,20.91-12.65,38.1-9.82,16.68,2.74,42.35-10.67,44.8-12.66l-5.08-17.91a.5.5,0,0,1,.89-.42l9.14,13a34.52,34.52,0,0,1,14.15.07c7,1.68,17.92,1,18,1a.5.5,0,0,1,.4.16,6.68,6.68,0,0,1,0,8.5c-2.18,3-8.64,4.35-13.82,5.42a27.17,27.17,0,0,0-6,1.59c-2.9,1.7-22.51,30.4-23.35,33.13s.44,12.34.7,14.2c1.62.48,9.14,2.73,11.75,3.6,2.24.75,3.74,3.72,4.83,5.89.16.32.31.62.45.88.25.48.52.93.77,1.36,1.25,2.11,2.43,4.1.17,6.93-.82,1-2.27,1.83-3.5,1.16a2.56,2.56,0,0,1-1-1.09,7.37,7.37,0,0,1-.65-3l0-.52c-.18-2.25-1.87-4.67-3.26-6.06-1.15-1.15-7.21-1.51-11.64-1.77a59.18,59.18,0,0,1-6.28-.55c-.68-.14-3.92-1.48-2.46-14.71-1.78.6-6.54,1.83-15.16,1.45-8.88-.39-14.42-7-17.08-10.2A9.24,9.24,0,0,0,247,206l-.31-.14c-1.57-.69-5.74-2.52-13.08.15-3.73,1.35-6.76,5.26-10,9.41-3.67,4.73-7.45,9.61-12.85,11.72-8.79,3.43-15.66,2.63-17.5,2.32-.39,2,.1,5.46.54,8.58.65,4.65.94,7.1-.17,7.74A2.23,2.23,0,0,1,192.55,246.09Zm-4.32-21.56c0,.18,0,.42-.08.72-.25,2.34-.91,8.53.09,13.13.87,4,2.45,6,3.64,6.55a1.35,1.35,0,0,0,1.27,0c.58-.33,0-4.34-.32-6.73-.51-3.64-1-7.39-.4-9.45a.5.5,0,0,1,.59-.33c.07,0,7.6,1.63,17.39-2.19,5.14-2,8.85-6.78,12.43-11.4,3.31-4.27,6.43-8.29,10.43-9.74,7.72-2.8,12.15-.86,13.82-.13l.3.13c.36.15.74.6,1.65,1.68,2.57,3.07,7.91,9.47,16.36,9.84,10.77.48,15.44-1.65,15.49-1.67a.48.48,0,0,1,.5.05.49.49,0,0,1,.21.46c-.65,5.33-.79,14,1.56,14.44a56.78,56.78,0,0,0,6.15.53c6.36.38,11,.74,12.29,2.06,1.58,1.58,3.34,4.17,3.54,6.69l0,.54a6.76,6.76,0,0,0,.53,2.64,1.59,1.59,0,0,0,.61.68c.69.38,1.65-.17,2.24-.91,1.83-2.28,1-3.68-.25-5.79-.26-.45-.54-.91-.79-1.4-.15-.27-.3-.57-.46-.9-1-1.9-2.41-4.77-4.26-5.39-2.9-1-11.93-3.65-12-3.68a.5.5,0,0,1-.35-.41c-.07-.47-1.72-11.69-.72-15s20.79-31.93,23.81-33.69c1.11-.65,3.39-1.12,6.28-1.71,4.76-1,11.26-2.32,13.22-5,2.55-3.53.74-6.33.18-7-1.73.1-11.47.58-18.07-1a33.77,33.77,0,0,0-14,0,.5.5,0,0,1-.52-.2L293,150l4.35,15.35a.59.59,0,0,1,0,.13.76.76,0,0,1-.31.55c-2.35,2-28.39,15.82-45.72,13-18.46-3-29.29-4.1-37.07,9.34-4.29,7.4-5.45,14.69-6.39,20.54-.83,5.22-1.49,9.34-4,11.52-3.75,3.21-10.16,3.66-13.61,3.9C189.4,224.4,188.59,224.46,188.23,224.53Z" fill="#231f20"></path><path d="M221.81,186.47c-3.8,0-9.87-.79-12.8-5.45-3.94-6.26-4.07-8.28-4-8.75a1,1,0,1,1,2,.22h0s.1,1.71,3.72,7.46,14,4.35,14.11,4.34a1,1,0,1,1,.3,2A22.86,22.86,0,0,1,221.81,186.47Z" fill="#231f20"></path><path d="M227.33,210.62a.5.5,0,0,1-.3-.11.49.49,0,0,1-.09-.69c.06-.08,5.75-7.28,14.76-6.16a.51.51,0,0,1,.43.56.5.5,0,0,1-.56.43c-8.42-1.05-13.79,5.71-13.84,5.78A.53.53,0,0,1,227.33,210.62Z" fill="#fff"></path><path d="M269.45,218.37a29.67,29.67,0,0,1-8.59-1.54.51.51,0,0,1-.31-.64.5.5,0,0,1,.64-.3c.08,0,8.43,2.9,12.68.58a.5.5,0,0,1,.48.88A10.31,10.31,0,0,1,269.45,218.37Z" fill="#fff"></path><circle cx="334.4" cy="162.22" r="2.01" fill="#231f20"></circle><path d="M334.4,164.73a2.51,2.51,0,1,1,2.51-2.51A2.52,2.52,0,0,1,334.4,164.73Zm0-4a1.51,1.51,0,1,0,1.51,1.51A1.52,1.52,0,0,0,334.4,160.71Z" fill="#231f20"></path><path d="M311.84,163.34a1,1,0,0,0,0,2A1,1,0,0,0,311.84,163.34Z" fill="#fff"></path><polygon points="278.05 172.79 297.8 198.69 302.64 194 285 169.22 278.05 172.79" fill="#fff"></polygon><path d="M297.8,199.19h0a.48.48,0,0,1-.36-.19l-19.76-25.91a.51.51,0,0,1-.09-.41.53.53,0,0,1,.26-.34l6.95-3.56a.49.49,0,0,1,.63.15l17.65,24.78a.5.5,0,0,1-.06.65l-4.84,4.69A.5.5,0,0,1,297.8,199.19Zm-19-26.23,19.05,25,4.13-4-17.15-24.07Z" fill="#231f20"></path><path d="M315,170.11a.5.5,0,0,1-.07-1c7.06-.91,19.34-1.9,19.46-1.91a.5.5,0,0,1,.54.46.52.52,0,0,1-.46.54c-.12,0-12.38,1-19.41,1.9Z" fill="#fff"></path><path d="M308,160.15h-.05a41.87,41.87,0,0,0-5.83,0,.5.5,0,0,1-.07-1,43.12,43.12,0,0,1,6,0,.5.5,0,0,1-.06,1Z" fill="#fff"></path><path d="M273.1,171.6c-16.76,0-40-4.42-57.91-8.55-23.47-5.39-43.33-11.43-43.52-11.5a.5.5,0,0,1-.34-.62.51.51,0,0,1,.63-.33c.79.24,79.32,24.07,110.48,19.4a.5.5,0,0,1,.15,1A65.25,65.25,0,0,1,273.1,171.6Z" fill="#231f20"></path></g></svg>