<svg xmlns="http://www.w3.org/2000/svg" viewBox="0 0 2750.97 1031.01"><defs><style>.cls-1{fill:#c5ddff;}.cls-2{fill:#3f8afa;}.cls-3{opacity:0.5;}.cls-4,.cls-5,.cls-6{fill:none;stroke:#3f8afa;}.cls-4{stroke-linecap:round;stroke-linejoin:round;}.cls-4,.cls-5{stroke-width:0.9px;}.cls-5,.cls-6{stroke-miterlimit:10;}</style></defs><g id="Capa_1" data-name="Capa 1"><path class="cls-1" d="M1920,794.58C1040.48,1231,858.4,583.45,0,802.78v251.13l1920,4.54Z" transform="translate(830.97 -54.52)"/><path class="cls-2" d="M1920,821.66C1008.22,1177.08,814.6,635.87,0,829.87V1081l1920,4.54Z" transform="translate(830.97 -54.52)"/></g><g id="Capa_3" data-name="Capa 3"><g class="cls-3"><path class="cls-4" d="M56.93,707.94a1.76,1.76,0,0,1-2.93.84l-1.77-1.42c-1.13-.89-.92-2,.47-2.34l3.35-1c1.39-.4,2.12.39,1.64,1.74Z" transform="translate(830.97 -54.52)"/><path class="cls-4" d="M73.4,685.49a23.5,23.5,0,0,1-2.57-5.88L66.71,665.2a1.74,1.74,0,0,0-3.19-.38c-1.26,2.23-3.28,5.85-4.86,8.7a1.7,1.7,0,0,1-1.49.89c-4.92,0-16.91,3.45-21.08,6a1.7,1.7,0,0,1-1.73,0c-2.85-1.59-6.49-3.59-8.73-4.83a1.75,1.75,0,0,0-2.52,2l4.12,14.41a25,25,0,0,1,.93,6.55,24.42,24.42,0,0,0,28.55,23.71A24.45,24.45,0,0,0,73.4,685.49Z" transform="translate(830.97 -54.52)"/><path class="cls-4" d="M29.94,692a14.92,14.92,0,0,1,2-4.36,3.06,3.06,0,0,0-.58-4L24,677.41" transform="translate(830.97 -54.52)"/><path class="cls-4" d="M68.51,681a15,15,0,0,0-4-2.66,3,3,0,0,1-1.61-3.68l3-9.23" transform="translate(830.97 -54.52)"/><path class="cls-4" d="M48.22,713.5a4.36,4.36,0,0,0,7.59-3.93" transform="translate(830.97 -54.52)"/><path class="cls-4" d="M64.33,708.9a4.36,4.36,0,0,1-8.52.67" transform="translate(830.97 -54.52)"/><path class="cls-4" d="M56.08,716.75a3.63,3.63,0,0,0,3.3-1" transform="translate(830.97 -54.52)"/><circle class="cls-4" cx="874.32" cy="646.37" r="3.49"/><line class="cls-4" x1="874.09" y1="645.53" x2="874.56" y2="647.21"/><circle class="cls-4" cx="892.77" cy="641.1" r="3.49"/><line class="cls-4" x1="892.53" y1="640.26" x2="893.01" y2="641.94"/></g><g class="cls-3"><path class="cls-4" d="M284,628.37a4.21,4.21,0,0,1-5.3,2.7l-8-2.59a4.22,4.22,0,0,1-2.71-5.29l5.71-17.6a6.7,6.7,0,0,1,5.49-4.28l.64,0a12.11,12.11,0,0,1,7.43,2.4l.5.42a6.7,6.7,0,0,1,1.93,6.68Z" transform="translate(830.97 -54.52)"/><path class="cls-4" d="M278.1,619.38l-.78,2.4c-.42,1.3-3.68,1.46-8.78-.19" transform="translate(830.97 -54.52)"/><path class="cls-4" d="M277.32,621.78c-.42,1.3,2.12,3.34,7.22,5" transform="translate(830.97 -54.52)"/><path class="cls-4" d="M285.49,612.94a1.36,1.36,0,0,0,0-2.66c-1.33-.43-2.71,2.65-5,1.9s-1.63-4.06-3-4.49a1.36,1.36,0,0,0-1.58,2.14" transform="translate(830.97 -54.52)"/><path class="cls-4" d="M280,627.07c-1.41.43-2.71,0-4.26-.49s-2.85-.93-3.74-2.1" transform="translate(830.97 -54.52)"/><path class="cls-4" d="M273.92,596.81c-.29.89-.88,1.49-1.32,1.34s-.57-1-.28-1.85.88-1.49,1.32-1.34S274.21,595.93,273.92,596.81Z" transform="translate(830.97 -54.52)"/><ellipse class="cls-4" cx="295.51" cy="603.81" rx="1.68" ry="0.84" transform="translate(460.97 644.25) rotate(-72.04)"/><path class="cls-4" d="M279.41,585.32s-1-4.74-1.9-5-3.39,7.74-3.39,7.74" transform="translate(830.97 -54.52)"/><path class="cls-4" d="M273.43,633.78c7.93,2.57,19.73,4.43,25-3.4s.6-15.91.11-19.41a14.39,14.39,0,0,1,.73-7.72c3.63-11.2-10.76-15.87-10.76-15.87s-14.4-4.66-18,6.54a14.44,14.44,0,0,1-3.93,6.68c-2.46,2.55-10.95,6.5-11.3,15.78S265.5,631.2,273.43,633.78Z" transform="translate(830.97 -54.52)"/><path class="cls-4" d="M297,591s3.59-3.26,4.49-3-1.79,8.26-1.79,8.26" transform="translate(830.97 -54.52)"/></g><g class="cls-3"><path class="cls-4" d="M277.93,720.49a22.55,22.55,0,1,1-44.12,0" transform="translate(830.97 -54.52)"/><path class="cls-4" d="M248.35,703.92a22.56,22.56,0,0,1,15,0" transform="translate(830.97 -54.52)"/><path class="cls-4" d="M238,716.73a5.23,5.23,0,0,1-8.47,1.57c-4.24-4.24-4-11.4.63-16a12.44,12.44,0,0,1,18.17,1.26" transform="translate(830.97 -54.52)"/><path class="cls-4" d="M243.66,711.09c-4.23-3.76,1.09-12.22-9.4-11.28" transform="translate(830.97 -54.52)"/><path class="cls-4" d="M273.53,716.73A5.23,5.23,0,0,0,282,718.3c4.24-4.24,3.95-11.4-.63-16a12.44,12.44,0,0,0-18.17,1.26" transform="translate(830.97 -54.52)"/><path class="cls-4" d="M267.89,711.09c4.23-3.76-1.09-12.22,9.4-11.28" transform="translate(830.97 -54.52)"/><path class="cls-4" d="M255.87,727.06a3.77,3.77,0,0,0-3.76,3.76v7.52c0,2.08,1.69,2.82,3.76,2.82s3.76-.74,3.76-2.82v-7.52A3.76,3.76,0,0,0,255.87,727.06Z" transform="translate(830.97 -54.52)"/><path class="cls-4" d="M255.87,741.16a10.59,10.59,0,0,1-6.58-1.88" transform="translate(830.97 -54.52)"/><path class="cls-4" d="M255.87,741.16a10.55,10.55,0,0,0,6.58-1.88" transform="translate(830.97 -54.52)"/><path class="cls-4" d="M253.05,743.52a8.87,8.87,0,0,0,5.64,0" transform="translate(830.97 -54.52)"/><path class="cls-4" d="M246.47,727.06a.94.94,0,1,1-.93-.94A.94.94,0,0,1,246.47,727.06Z" transform="translate(830.97 -54.52)"/><path class="cls-4" d="M267.15,727.06a.94.94,0,1,1-.94-.94A.94.94,0,0,1,267.15,727.06Z" transform="translate(830.97 -54.52)"/></g><g class="cls-3"><path class="cls-4" d="M472.3,737c-4.16,2.45-15.42.17-19.5,2.58l.75-2.68a7.07,7.07,0,0,1-4.44.39l.18-2.34-3-1.18,2.89-1.71s-4.22-1.87-5.24-3.6a34.91,34.91,0,0,1,3.15-2.59" transform="translate(830.97 -54.52)"/><ellipse class="cls-4" cx="459.12" cy="729.11" rx="0.67" ry="0.64" transform="translate(524.42 279.43) rotate(-30.5)"/><ellipse class="cls-4" cx="471.83" cy="721.63" rx="0.67" ry="0.64" transform="translate(529.99 284.85) rotate(-30.5)"/><ellipse class="cls-4" cx="471.16" cy="735.02" rx="2.68" ry="2.24" transform="translate(523.09 286.36) rotate(-30.5)"/><path class="cls-4" d="M460.92,717.65c-.65-1.11-6.34-1.53-6.32-1.48A12.22,12.22,0,0,0,456,718a55.26,55.26,0,0,1-5.46-.9l1.3,2.2a12.42,12.42,0,0,1-3.8,1.5,4.36,4.36,0,0,0,2.56,1.67" transform="translate(830.97 -54.52)"/><path class="cls-4" d="M451.39,729.21a7.79,7.79,0,0,1-1.7-4.2l2.64-.81-1-1.66c-2.36-.46-5.27,1.62-5.27,1.62s1.77,3,4.33,3.39" transform="translate(830.97 -54.52)"/><path class="cls-4" d="M472.3,737c4.15-2.44,7.62-13.4,11.7-15.81l-2.71-.63a7,7,0,0,0,2.49-3.7l-2.13-1,.44-3.23-2.89,1.7s.4-4.6-.62-6.32a34.67,34.67,0,0,0-3.79,1.49" transform="translate(830.97 -54.52)"/><path class="cls-4" d="M460.92,717.65c-.65-1.11,1.75-6.29,1.77-6.25a11.49,11.49,0,0,1,1,2.07,53.26,53.26,0,0,0,1.86-5.21l1.3,2.2a12.34,12.34,0,0,0,3.14-2.59,4.36,4.36,0,0,1,.23,3" transform="translate(830.97 -54.52)"/><path class="cls-4" d="M475.66,714.91a7.87,7.87,0,0,0-2.85-3.52l-2,1.91-1-1.65c.74-2.29,4-3.83,4-3.83s1.76,3,.86,5.44" transform="translate(830.97 -54.52)"/><polyline class="cls-4" points="1307.49 653.94 1305.8 649.74 1304.39 651.31 1303.02 647.66 1301.61 649.23 1300.31 647.03 1298.32 648.94 1296.44 647.07 1295.36 649.2 1293.16 646.78 1291.82 649.8 1289.62 647.38 1288.61 650.95 1285.83 648.87 1285.39 652.1 1282.36 650.91 1282.83 654.35 1279.22 653.51 1280.27 656.61 1276.98 656.31 1278.03 659.41 1275.64 659.33 1276.37 661.88 1273.73 662.69 1275.03 664.89 1272.97 665.36 1275.5 668.33 1273.44 668.8 1276.29 672.32"/></g><g class="cls-3"><ellipse class="cls-4" cx="765.67" cy="681.2" rx="0.61" ry="1.82" transform="translate(801.95 -20.42) rotate(-2.5)"/><ellipse class="cls-4" cx="777.81" cy="680.67" rx="0.61" ry="1.82" transform="translate(801.98 -19.9) rotate(-2.5)"/><path class="cls-4" d="M763.24,667.34a14,14,0,0,1,15.78-.69" transform="translate(830.97 -54.52)"/><path class="cls-4" d="M761.9,676.51a5.47,5.47,0,0,1-6.41-.72c-2.23-2-1.32-4.54.52-6.93,1.59-2,4.42-3.33,6.86-1.13a5.36,5.36,0,0,1,1.71,3.19" transform="translate(830.97 -54.52)"/><line class="cls-4" x1="1602" y1="638" x2="1600.73" y2="636.84"/><line class="cls-4" x1="1604.43" y1="637.9" x2="1605.59" y2="636.63"/><path class="cls-4" d="M772.32,694.29l.08,1.82a3.27,3.27,0,0,1-3.61.76" transform="translate(830.97 -54.52)"/><path class="cls-4" d="M772.4,696.11a3.28,3.28,0,0,0,3.67.45" transform="translate(830.97 -54.52)"/><line class="cls-4" x1="1602.87" y1="644.04" x2="1604.09" y2="643.99"/><path class="cls-4" d="M772.67,702.18c-8.12.35-12.22-1.29-12.22-1.29L761,699l-3,.13.5-2.45-3,.13-.23-5.46-1.8.69c-.1-2.32,1.56-6.15,1.56-6.15l-1.8.69c-.06-1.52,2.75-6.81,2.75-6.81l-1.22.05s1.22-2.45,2.3-3.14" transform="translate(830.97 -54.52)"/><path class="cls-4" d="M772.67,702.17c8.11-.35,12.05-2.35,12.05-2.35L784,698l3-.13-.71-2.4,3-.14-.24-5.46,1.85.53c-.1-2.31-2.09-6-2.09-6l1.85.53c-.07-1.52-3.32-6.54-3.32-6.54l1.21,0a10.57,10.57,0,0,0-2.56-2.93" transform="translate(830.97 -54.52)"/><path class="cls-4" d="M760.71,679c1.43-.33,2.33-2.46-.24-5.46l3.09,1.08s-.91-3.53-2.66-5.35c0,0,3.45.76,5,3.42" transform="translate(830.97 -54.52)"/><path class="cls-4" d="M781.16,675.66a5.45,5.45,0,0,0,6.32-1.27c2-2.22.92-4.64-1.13-6.86-1.75-1.89-4.69-2.93-6.93-.52a5.37,5.37,0,0,0-1.42,3.32" transform="translate(830.97 -54.52)"/><path class="cls-4" d="M782.56,678c-1.46-.2-2.53-2.24-.24-5.46l-3,1.35s.6-3.6,2.18-5.57c0,0-3.37,1.06-4.69,3.86" transform="translate(830.97 -54.52)"/></g><g class="cls-3"><path class="cls-4" d="M554.17,656.54c.35,1.23-1.58,2.86-1.58,2.86s-2.51-.36-2.86-1.59a2.31,2.31,0,1,1,4.44-1.27Z" transform="translate(830.97 -54.52)"/><path class="cls-4" d="M553,660.88c-3,3-6.75,1.63-7.94-2.54-.69-2.4-2-4-3.71-4.55" transform="translate(830.97 -54.52)"/><path class="cls-4" d="M553,660.88c4.12.92,6.59-2.19,5.4-6.35-.69-2.41-.48-4.48.73-5.83" transform="translate(830.97 -54.52)"/><line class="cls-4" x1="1383.98" y1="606.36" x2="1383.56" y2="604.88"/><path class="cls-4" d="M556.19,660.77c.35,1.23-.69,2.6-2.33,3.07s-3.25-.14-3.6-1.37" transform="translate(830.97 -54.52)"/><circle class="cls-4" cx="1374.02" cy="593.98" r="0.77"/><circle class="cls-4" cx="1385.88" cy="590.59" r="0.77"/><path class="cls-4" d="M541.35,631.35c-6.88-3-12.59-10-15.46-9.2-1.85.53,7.76,21.82,7.32,22.76-3,6.19-2.54,13.55-2.54,13.55s2.66-1.24,3.71-1.06l-.11,2.43s8.84,0,13.38,2.14" transform="translate(830.97 -54.52)"/><path class="cls-4" d="M547.28,629.66c4.23-6.23,5.38-15.17,8.25-16,1.85-.53,5,22.62,5.83,23.18,5.8,3.68,9.32,10.15,9.32,10.15s-2.9.36-3.7,1.06l1.37,2s-7.46,4.72-10.22,8.9" transform="translate(830.97 -54.52)"/><path class="cls-4" d="M526.1,622.89c1.68,1.66,11.44,12,11.44,12l-3.91.32s2.22,2.17,2.54,3.28a2.94,2.94,0,0,1-.85,2.64" transform="translate(830.97 -54.52)"/><path class="cls-4" d="M555.74,614.41c-.55,2.29-3.38,16.2-3.38,16.2l3.49-1.81s-.74,3-.42,4.13a2.94,2.94,0,0,0,2.12,1.8" transform="translate(830.97 -54.52)"/><path class="cls-4" d="M547.08,629.81a18.53,18.53,0,0,0-2.79.6,17.67,17.67,0,0,0-2.69,1" transform="translate(830.97 -54.52)"/><path class="cls-4" d="M538,653.16a10,10,0,0,0-7.3,5.3" transform="translate(830.97 -54.52)"/><path class="cls-4" d="M561.68,646.37a10,10,0,0,1,9,.63" transform="translate(830.97 -54.52)"/></g><g class="cls-3"><path class="cls-5" d="M829.76,789.48c1.19-.36,5.28-1,7.2-.61" transform="translate(830.97 -54.52)"/><path class="cls-5" d="M832.89,807.2c2,.46,8.66.54,11.6-3.27.3-.38-.44-1.77-.44-1.77" transform="translate(830.97 -54.52)"/><path class="cls-5" d="M829.08,805.52c-1.09-2,3.32-6.79,5.58-6.29" transform="translate(830.97 -54.52)"/><path class="cls-5" d="M837.05,807.29c1.83-1.33-.13-7.56-2.39-8.06" transform="translate(830.97 -54.52)"/><polyline class="cls-5" points="1665.1 747.11 1664.57 749.5 1662.79 749.94"/><line class="cls-5" x1="1664.57" y1="749.5" x2="1665.98" y2="750.65"/><line class="cls-5" x1="1664.3" y1="746.93" x2="1665.89" y2="747.28"/><path class="cls-5" d="M830.85,797.55a.81.81,0,0,1-1,.62.82.82,0,1,1,1-.62Z" transform="translate(830.97 -54.52)"/><path class="cls-5" d="M840.42,799.68a.82.82,0,1,1-.62-1A.83.83,0,0,1,840.42,799.68Z" transform="translate(830.97 -54.52)"/><path class="cls-5" d="M829.76,789.48c-.82-1-7.51-9.22-11.93-12.39-1.05-.76-4-.84-4.34.7-.57,2.59-.1,9.35,1.33,12.85.61,1.49,2.87,5.66,6.11,6.38l4,.89s-1.25,1-1.15,1.42c1.05,4.69,7.08,7.43,9.12,7.88" transform="translate(830.97 -54.52)"/><path class="cls-5" d="M843.29,792.48c-.93-.83-4.35-3.17-6.27-3.6" transform="translate(830.97 -54.52)"/><path class="cls-5" d="M843.29,792.48c1.17-.57,10.7-5.16,16.05-6.17,1.27-.24,4,.94,3.63,2.48-.58,2.6-3.87,8.51-6.64,11.08-1.19,1.09-5,3.9-8.24,3.18l-4-.89" transform="translate(830.97 -54.52)"/><path class="cls-5" d="M821.73,797.19c1.13.25,5.7-3.05,6-4.51.22-1,.18-.8.18-.8" transform="translate(830.97 -54.52)"/><path class="cls-5" d="M847.24,802.86c-1.13-.25-3.87-5.18-3.54-6.64l.17-.8" transform="translate(830.97 -54.52)"/></g><g class="cls-3"><ellipse class="cls-5" cx="617.65" cy="743.95" rx="2.7" ry="2.03" transform="translate(661.69 127.56) rotate(-14.77)"/><path class="cls-5" d="M603.84,714.77A7.56,7.56,0,0,0,596,712c-4.57,1.2-6.66,3.85-5.46,8.41,1.4,5.32,6.08,8.66,8.63,8.9" transform="translate(830.97 -54.52)"/><path class="cls-5" d="M601.24,724.1c-1.83,5.14-4.81,10.86-3,17.59,2,7.49,7.62,9,14.69,8.06" transform="translate(830.97 -54.52)"/><path class="cls-5" d="M600.05,712.06c2.7,1.55,2.8,6.11,2,9.28" transform="translate(830.97 -54.52)"/><path class="cls-5" d="M610.24,715.88c-1.87.49-4.34,1.41-6.4-1.11" transform="translate(830.97 -54.52)"/><path class="cls-5" d="M604.13,724.47s-1.54-3.52-4-4.53" transform="translate(830.97 -54.52)"/><path class="cls-5" d="M602.31,725.52a3.41,3.41,0,0,0-2.78-2.63" transform="translate(830.97 -54.52)"/><path class="cls-5" d="M615.27,711.76a7.54,7.54,0,0,1,5.48-6.33c4.57-1.21,7.7.06,8.9,4.62,1.4,5.32-1,10.54-3.12,12" transform="translate(830.97 -54.52)"/><path class="cls-5" d="M622.13,718.59c4.13,3.57,9.54,7.08,11.32,13.8,2,7.5-2.19,11.6-8.81,14.26" transform="translate(830.97 -54.52)"/><path class="cls-5" d="M617.23,707.53c-1.59,2.68.58,6.7,2.82,9.07" transform="translate(830.97 -54.52)"/><path class="cls-5" d="M610.24,715.88c1.88-.5,4.47-.92,5-4.12" transform="translate(830.97 -54.52)"/><path class="cls-5" d="M619.8,720.34s-.4-3.82,1.23-5.91" transform="translate(830.97 -54.52)"/><path class="cls-5" d="M621.9,720.35A3.38,3.38,0,0,1,623,716.7" transform="translate(830.97 -54.52)"/><path class="cls-5" d="M618.16,745.9l.17.66c.51,1.91-2,5.41-7.18,1.89" transform="translate(830.97 -54.52)"/><path class="cls-5" d="M618.16,745.9l.17.66c.51,1.91,4.42,3.72,7.18-1.9" transform="translate(830.97 -54.52)"/><path class="cls-5" d="M607.2,733.44c.28,1.08.22,2-.14,2.13s-.89-.71-1.17-1.79-.22-2,.14-2.13S606.91,732.36,607.2,733.44Z" transform="translate(830.97 -54.52)"/><ellipse class="cls-5" cx="622.21" cy="729.48" rx="0.68" ry="2.03" transform="translate(665.53 128.25) rotate(-14.77)"/></g><path class="cls-6" d="M-239.84,678.78l-1.37,1.37a3.25,3.25,0,0,1-4.61,0l-1.38-1.37" transform="translate(830.97 -54.52)"/><ellipse class="cls-6" cx="571.81" cy="608.62" rx="0.92" ry="2.76"/><ellipse class="cls-6" cx="603.09" cy="608.62" rx="0.92" ry="2.76"/><path class="cls-6" d="M-243.51,685.6c0,2.33-2.47,4.22-5.52,4.22s-5.52-1.89-5.52-4.22a3.85,3.85,0,0,1,1.84-3.14" transform="translate(830.97 -54.52)"/><path class="cls-6" d="M-243.51,685.6c0,2.33,2.47,4.22,5.52,4.22s5.52-1.89,5.52-4.22a3.85,3.85,0,0,0-1.84-3.14" transform="translate(830.97 -54.52)"/><line class="cls-6" x1="587.46" y1="632.87" x2="587.46" y2="627.94"/><path class="cls-6" d="M-267.43,625.42c-3.1-11.39-12.88-31.28-12.88-31.28l7.36,3.68-3.68-12.88,9.2,11,1.84-7.36s12.88,18.4,12.88,49.68" transform="translate(830.97 -54.52)"/><path class="cls-6" d="M-219.59,658.54c-2.15-9.51,5.77-21.18,3.68-27.6-1.61-5-5.9-5-7.36-1.84-7,15.06,7.37,28.52,7.37,47.84,0,14.22-12.36,22.08-27.6,22.08h0c-15.24,0-27.6-7.86-27.6-22.08,0-19.32,14.39-32.78,7.37-47.84-1.45-3.13-5.75-3.11-7.36,1.84-2.09,6.42,5.83,18.09,3.68,27.6" transform="translate(830.97 -54.52)"/><path class="cls-6" d="M-234.32,638.3a22.78,22.78,0,0,0-9.19-2h0a22.79,22.79,0,0,0-9.2,2" transform="translate(830.97 -54.52)"/><path class="cls-6" d="M-219.59,625.42c3.11-11.39,12.88-31.28,12.88-31.28l-7.36,3.68,3.68-12.88-9.2,11-1.84-7.36s-12.88,18.4-12.88,49.68" transform="translate(830.97 -54.52)"/><path class="cls-6" d="M-239.83,691.66l-.87.87a4,4,0,0,1-5.62,0l-.87-.87" transform="translate(830.97 -54.52)"/><path class="cls-6" d="M-262.84,645.14c2.31-8.87,3.68-24.78-.91-36.28" transform="translate(830.97 -54.52)"/><path class="cls-6" d="M-224.19,645.14c-2.31-8.87-3.68-24.78.91-36.28" transform="translate(830.97 -54.52)"/><path class="cls-6" d="M-376,699c-14.23,0-25.76-7.86-25.76-22.08,0-19.32,8.34-32.89,9.11-36.76" transform="translate(830.97 -54.52)"/><path class="cls-6" d="M-376,699c14.23,0,25.76-7.86,25.76-22.08,0-19.32-8.34-32.89-9.11-36.76" transform="translate(830.97 -54.52)"/><path class="cls-6" d="M-381.51,629.28a9.35,9.35,0,0,1,5.52-2,9.37,9.37,0,0,1,5.53,2" transform="translate(830.97 -54.52)"/><line class="cls-6" x1="454.98" y1="633.46" x2="449.46" y2="629.78"/><line class="cls-6" x1="454.98" y1="633.46" x2="460.5" y2="629.78"/><path class="cls-6" d="M-376,688v3.68c0,4.71-14.72,10.27-14.72-1.84" transform="translate(830.97 -54.52)"/><path class="cls-6" d="M-376,691.66c0,4.71,14.72,10.27,14.72-1.84" transform="translate(830.97 -54.52)"/><ellipse class="cls-6" cx="439.34" cy="603.1" rx="0.92" ry="2.76"/><ellipse class="cls-6" cx="470.62" cy="603.1" rx="0.92" ry="2.76"/><path class="cls-6" d="M-376,627.26c0-4.83-12.11-35.73-25.76-42.32" transform="translate(830.97 -54.52)"/><path class="cls-6" d="M-392.64,640.18c7.45-27.44-9.11-37.76-9.11-55.24" transform="translate(830.97 -54.52)"/><path class="cls-6" d="M-401.75,584.94c0,35.26,10,51.64,10,51.64" transform="translate(830.97 -54.52)"/><path class="cls-6" d="M-376,627.26c0-4.83,12.11-35.73,25.76-42.32" transform="translate(830.97 -54.52)"/><path class="cls-6" d="M-359.34,640.18c-7.45-27.44,9.11-37.76,9.11-55.24" transform="translate(830.97 -54.52)"/><path class="cls-6" d="M-350.23,584.94c0,35.26-10,51.64-10,51.64" transform="translate(830.97 -54.52)"/><path class="cls-6" d="M-508.47,695.34c-13.22,0-36.68-22.08-49.68-22.08l5.52-5.52a19.2,19.2,0,0,1-11-5.52l3.68-5.52-5.52-7.36h9.2s-7.36-10.81-7.36-16.56c0-.46,11-1.84,11-1.84" transform="translate(830.97 -54.52)"/><circle class="cls-6" cx="302.26" cy="602.18" r="1.84"/><circle class="cls-6" cx="342.74" cy="602.18" r="1.84"/><ellipse class="cls-6" cx="322.5" cy="634.38" rx="7.36" ry="6.44"/><path class="cls-6" d="M-508.47,630.94c0-3.68-12.88-13-12.88-12.88a34.91,34.91,0,0,0,.62,6.51,148.33,148.33,0,0,1-11.66-10.19v7.36c-3.92.57-11-1.84-11-1.84a12.77,12.77,0,0,0,3.7,7.86" transform="translate(830.97 -54.52)"/><path class="cls-6" d="M-547.11,645.66c-.8-8.17,1.84-12.88,1.84-12.88l7.36,1.84V629.1c-4.94-4.6-14.72-3.68-14.72-3.68s0,10,5.52,14.72" transform="translate(830.97 -54.52)"/><path class="cls-6" d="M-508.47,695.34c13.23,0,36.69-22.08,49.68-22.08l-5.52-5.52a19.2,19.2,0,0,0,11-5.52l-3.68-5.52,5.52-7.36h-9.2s7.36-10.81,7.36-16.56c0-.46-11-1.84-11-1.84" transform="translate(830.97 -54.52)"/><path class="cls-6" d="M-508.47,630.94c0-3.68,12.88-13,12.88-12.88a34.91,34.91,0,0,1-.62,6.51,148.33,148.33,0,0,0,11.66-10.19v7.36c3.92.57,11-1.84,11-1.84a12.77,12.77,0,0,1-3.7,7.86" transform="translate(830.97 -54.52)"/><path class="cls-6" d="M-469.83,645.66c.81-8.17-1.84-12.88-1.84-12.88l-7.36,1.84V629.1c4.95-4.6,14.72-3.68,14.72-3.68s0,10-5.52,14.72" transform="translate(830.97 -54.52)"/><polyline class="cls-6" points="372.18 576.42 374.02 563.54 368.5 565.38 370.34 554.34 364.82 556.18 364.82 548.82 357.46 550.66 355.62 543.3 350.1 546.98 348.26 537.78 340.9 543.3 339.06 534.1 331.7 541.46 328.02 532.26 322.5 539.62 316.98 532.26 313.3 541.46 305.94 534.1 304.1 543.3 296.74 537.78 294.9 546.98 289.38 543.3 287.54 550.66 280.18 548.82 280.18 556.18 274.66 554.34 276.5 565.38 270.98 563.54 272.82 576.42"/><ellipse class="cls-6" cx="171.62" cy="580.1" rx="1.84" ry="5.52"/><ellipse class="cls-6" cx="208.42" cy="580.1" rx="1.84" ry="5.52"/><path class="cls-6" d="M-664.87,592.33a44.64,44.64,0,0,1,23.92-7.39,44.6,44.6,0,0,1,23.93,7.4" transform="translate(830.97 -54.52)"/><path class="cls-6" d="M-670.16,619.9a16.58,16.58,0,0,1-19.3-3c-6.47-6.47-3.4-13.93,2.51-20.91,5.06-6,13.8-9.51,20.91-2.51a16.27,16.27,0,0,1,4.75,9.87" transform="translate(830.97 -54.52)"/><line class="cls-6" x1="186.34" y1="615.06" x2="182.66" y2="611.38"/><line class="cls-6" x1="193.7" y1="615.06" x2="197.38" y2="611.38"/><path class="cls-6" d="M-640.95,675.1v5.52s-5.06,4.94-11,1.84" transform="translate(830.97 -54.52)"/><path class="cls-6" d="M-640.95,680.62s5.06,4.94,11,1.84" transform="translate(830.97 -54.52)"/><line class="cls-6" x1="188.18" y1="633.46" x2="191.86" y2="633.46"/><path class="cls-6" d="M-640.95,699c-24.61,0-36.8-5.52-36.8-5.52l1.84-5.52h-9.2l1.84-7.36h-9.2V664.06L-698,665.9c0-7,5.52-18.4,5.52-18.4l-5.52,1.84c0-4.6,9.2-20.24,9.2-20.24h-3.68s4-7.25,7.36-9.2" transform="translate(830.97 -54.52)"/><path class="cls-6" d="M-640.95,699c24.61,0,36.8-5.52,36.8-5.52L-606,688h9.2l-1.84-7.36h9.2V664.06l5.52,1.84c0-7-5.52-18.4-5.52-18.4l5.52,1.84c0-4.6-9.2-20.24-9.2-20.24h3.68s-4-7.25-7.36-9.2" transform="translate(830.97 -54.52)"/><path class="cls-6" d="M-674.07,627.26c4.37-.81,7.36-7.13,0-16.56l9.2,3.68s-2.3-10.81-7.36-16.56c0,0,10.35,2.76,14.72,11" transform="translate(830.97 -54.52)"/><path class="cls-6" d="M-611.74,619.9a16.58,16.58,0,0,0,19.3-3C-586,610.42-589,603-594.95,596c-5.06-6-13.8-9.51-20.91-2.51a16.27,16.27,0,0,0-4.75,9.87" transform="translate(830.97 -54.52)"/><path class="cls-6" d="M-607.83,627.26c-4.37-.81-7.36-7.13,0-16.56l-9.2,3.68s2.3-10.81,7.36-16.56c0,0-10.35,2.76-14.72,11" transform="translate(830.97 -54.52)"/><ellipse class="cls-6" cx="57.65" cy="629.99" rx="7.38" ry="5.53"/><path class="cls-6" d="M-789.45,597.84a20.63,20.63,0,0,0-18.9-12.9c-12.9,0-20.28,5.53-20.28,18.41,0,15,10,27.11,16.59,29.53" transform="translate(830.97 -54.52)"/><path class="cls-6" d="M-802.82,620.66C-811.24,633-823.1,646-823.1,665c0,21.17,13.85,29.1,33.19,31.51" transform="translate(830.97 -54.52)"/><path class="cls-6" d="M-797.58,588c6.06,6,3.14,18.1-1.14,25.93" transform="translate(830.97 -54.52)"/><path class="cls-6" d="M-773.31,605.22c-5.31,0-12.45.69-16.14-7.38" transform="translate(830.97 -54.52)"/><path class="cls-6" d="M-795.44,623.66s-1.61-10.37-7.38-14.75" transform="translate(830.97 -54.52)"/><path class="cls-6" d="M-801,625.15c.34-4.95-3.86-8.47-5.53-8.87" transform="translate(830.97 -54.52)"/><path class="cls-6" d="M-757.18,597.84a20.63,20.63,0,0,1,18.9-12.9c12.9,0,20.28,5.53,20.28,18.41,0,15-10,27.11-16.59,29.53" transform="translate(830.97 -54.52)"/><path class="cls-6" d="M-743.81,620.66C-735.39,633-723.53,646-723.53,665c0,21.17-13.85,29.1-33.19,31.51" transform="translate(830.97 -54.52)"/><path class="cls-6" d="M-749,588c-6.06,6-3.14,18.1,1.14,25.93" transform="translate(830.97 -54.52)"/><path class="cls-6" d="M-773.31,605.22c5.3,0,12.44.69,16.13-7.38" transform="translate(830.97 -54.52)"/><path class="cls-6" d="M-751.19,623.66s1.61-10.37,7.38-14.75" transform="translate(830.97 -54.52)"/><path class="cls-6" d="M-745.66,625.15c-.34-4.95,3.86-8.47,5.53-8.87" transform="translate(830.97 -54.52)"/><path class="cls-6" d="M-773.31,690v1.85c0,5.41-9.07,12.91-20.29,0" transform="translate(830.97 -54.52)"/><path class="cls-6" d="M-773.31,690v1.85c0,5.41,9.06,12.91,20.28,0" transform="translate(830.97 -54.52)"/><path class="cls-6" d="M-793.6,649.47c0,3.06-.82,5.53-1.84,5.53s-1.84-2.47-1.84-5.53.82-5.53,1.84-5.53S-793.6,646.42-793.6,649.47Z" transform="translate(830.97 -54.52)"/><ellipse class="cls-6" cx="79.78" cy="594.95" rx="1.84" ry="5.53"/><path class="cls-6" d="M-233.56,548.14a14.63,14.63,0,0,1,1.06,5.52c0,7.11-4.94,12.88-11,12.88a10.16,10.16,0,0,1-7.36-3.28,13.87,13.87,0,0,1-3.68-9.6,14.63,14.63,0,0,1,1.06-5.52" transform="translate(830.97 -54.52)"/><path class="cls-6" d="M-234.34,544.46c0,4.06-4.12,9.2-9.2,9.2s-9.2-5.14-9.2-9.2,4.12-5.52,9.2-5.52S-234.34,540.39-234.34,544.46Z" transform="translate(830.97 -54.52)"/><path class="cls-6" d="M-243.54,553.66v5.52s-5.4,6.55-9.34,1.33" transform="translate(830.97 -54.52)"/><path class="cls-6" d="M-243.54,553.66v5.52s5.41,6.55,9.34,1.33" transform="translate(830.97 -54.52)"/><path class="cls-6" d="M-256.73,522.53a1.69,1.69,0,0,1-1.68,1.69,1.69,1.69,0,0,1-1.69-1.69,1.69,1.69,0,0,1,1.69-1.69A1.69,1.69,0,0,1-256.73,522.53Z" transform="translate(830.97 -54.52)"/><path class="cls-6" d="M-227.29,522.53a1.69,1.69,0,0,1-1.68,1.69,1.69,1.69,0,0,1-1.69-1.69,1.69,1.69,0,0,1,1.69-1.69A1.69,1.69,0,0,1-227.29,522.53Z" transform="translate(830.97 -54.52)"/><path class="cls-6" d="M-232.5,556.34c7.65-4.32,12.88-13.47,12.88-26.6,0-9.44-1.67-19.13-5.52-26.45,24-8.56,29.8-37.21,27.34-43.47-2.84-7.22-9.89-7.36-12.88-7.36-15.3,0-23,31-29.51,38.91a20.11,20.11,0,0,0-3.35-.27,20.11,20.11,0,0,0-3.35.27c-6.49-7.89-14.21-38.91-29.51-38.91-3,0-10,.14-12.88,7.36-2.46,6.26,3.35,34.91,27.35,43.47-3.85,7.32-5.53,17-5.53,26.45,0,13.13,5.23,22.28,12.88,26.6" transform="translate(830.97 -54.52)"/><path class="cls-6" d="M-261.94,503.29a24.86,24.86,0,0,1,7.36-8.51" transform="translate(830.97 -54.52)"/><path class="cls-6" d="M-225.14,503.29a24.86,24.86,0,0,0-7.36-8.51" transform="translate(830.97 -54.52)"/><path class="cls-6" d="M-228.82,485.58c2.55-7.06-.23-17.7,5.1-24.74" transform="translate(830.97 -54.52)"/><path class="cls-6" d="M-258.41,485.58c-2.55-7.06.23-17.7-5.1-24.74" transform="translate(830.97 -54.52)"/><path class="cls-6" d="M-376,504.05c-3.46,0-12.41-3-16.16-1.5-3.21,1.26-3.46,6.77,6.93,9.42,6,1.53,9.23,2.35,9.23,7.06" transform="translate(830.97 -54.52)"/><path class="cls-6" d="M-376,519.34c0,7.15-9,6.72-11,14.08-1.66,5.9-1.53,9.66-5.52,12.88-2.78,2.25-13.34,3.68-14.72,0-.61-1.63-1.84-9.55-1.84-18.4,0-39.26,18.26-47.84,33.12-47.84" transform="translate(830.97 -54.52)"/><path class="cls-6" d="M-376,564.7c-19.63-.92-21.31-7.21-22.08-14.72" transform="translate(830.97 -54.52)"/><path class="cls-6" d="M-396.23,559.18c-16.71-.77-36.8-7.85-36.8-29.44,0-24.69,11-40.48,11-40.48" transform="translate(830.97 -54.52)"/><path class="cls-6" d="M-355.75,559.18c16.71-.77,36.8-7.85,36.8-29.44,0-24.69-11-40.48-11-40.48" transform="translate(830.97 -54.52)"/><ellipse class="cls-6" cx="416.34" cy="440.26" rx="1.84" ry="3.68"/><path class="cls-6" d="M-422,489.26c1.84-22.08,12-25.07,16.56-27.6,0,0,1.43,4,1.84,3.68,3.22-2.46,8-7.36,12.88-7.36v3.68s10.12-7.36,14.72-7.36" transform="translate(830.97 -54.52)"/><path class="cls-6" d="M-376,550c-2.07,0-11-.46-14.72-3.68" transform="translate(830.97 -54.52)"/><line class="cls-6" x1="454.98" y1="495.46" x2="454.98" y2="477.06"/><path class="cls-6" d="M-376,504.05c3.46,0,12.41-3,16.16-1.5,3.21,1.26,3.47,6.77-6.92,9.42-6,1.53-9.24,2.35-9.24,7.06" transform="translate(830.97 -54.52)"/><path class="cls-6" d="M-376,519.34c0,7.15,9,6.72,11,14.08,1.66,5.9,1.53,9.66,5.52,12.88,2.79,2.25,13.34,3.68,14.72,0,.61-1.63,1.84-9.55,1.84-18.4,0-39.26-18.26-47.84-33.12-47.84" transform="translate(830.97 -54.52)"/><path class="cls-6" d="M-376,564.7c19.63-.92,21.31-7.21,22.08-14.72" transform="translate(830.97 -54.52)"/><ellipse class="cls-6" cx="493.62" cy="440.26" rx="1.84" ry="3.68"/><path class="cls-6" d="M-330,489.26c-1.84-22.08-12-25.07-16.56-27.6,0,0-1.43,4-1.84,3.68-3.22-2.46-8-7.36-12.88-7.36v3.68s-10.12-7.36-14.72-7.36" transform="translate(830.97 -54.52)"/><path class="cls-6" d="M-376,550c2.07,0,11-.46,14.72-3.68" transform="translate(830.97 -54.52)"/><line class="cls-6" x1="454.98" y1="495.46" x2="454.98" y2="477.06"/><path class="cls-6" d="M-370.47,556.55a25.18,25.18,0,0,1-5.52.79,25.18,25.18,0,0,1-5.52-.79" transform="translate(830.97 -54.52)"/><path class="cls-6" d="M-490.12,548.14a9.23,9.23,0,0,1-9.2,9.2h-18.39a9.23,9.23,0,0,1-9.2-9.2V507.67a14.69,14.69,0,0,1,8.54-12.61l1.32-.53a26.57,26.57,0,0,1,17.08,0l1.31.53a14.69,14.69,0,0,1,8.54,12.61Z" transform="translate(830.97 -54.52)"/><path class="cls-6" d="M-508.51,533.42v5.52c0,3-6.67,5.52-18.4,5.52" transform="translate(830.97 -54.52)"/><path class="cls-6" d="M-508.51,538.94c0,3,6.66,5.52,18.39,5.52" transform="translate(830.97 -54.52)"/><path class="cls-6" d="M-497.48,515c2.92-2,1.23-5.52-1.84-5.52s-3.84,7.36-9.19,7.36-6.14-7.36-9.2-7.36-4.75,3.53-1.84,5.52" transform="translate(830.97 -54.52)"/><path class="cls-6" d="M-499.32,548.14C-502,550-504.95,550-508.51,550s-6.56,0-9.2-1.84" transform="translate(830.97 -54.52)"/><path class="cls-6" d="M-532.43,489.28c0,2-.82,3.67-1.84,3.67s-1.84-1.64-1.84-3.67.83-3.68,1.84-3.68S-532.43,487.24-532.43,489.28Z" transform="translate(830.97 -54.52)"/><ellipse class="cls-6" cx="348.21" cy="434.76" rx="1.84" ry="3.68"/><path class="cls-6" d="M-528.75,461.65s-5.29-9.19-7.36-9.19-1.84,18.39-1.84,18.39" transform="translate(830.97 -54.52)"/><path class="cls-6" d="M-508.51,566.54c18.24,0,44.06-4.08,49.66-23.92,5.52-19.54-9.48-33.5-12.87-40.47-2.76-5.67-3.68-9-3.68-16.55,0-25.76-33.11-25.79-33.11-25.79s-33.12,0-33.12,25.79c0,7.51-.92,10.88-3.67,16.55-3.39,7-18.4,20.93-12.88,40.47C-552.58,562.46-526.76,566.54-508.51,566.54Z" transform="translate(830.97 -54.52)"/><path class="cls-6" d="M-488.28,461.65s5.29-9.19,7.36-9.19,1.84,18.39,1.84,18.39" transform="translate(830.97 -54.52)"/><path class="cls-6" d="M-666.29,540.78s-20.15-5.83-25.35-14.72.82-22.7,7.8-31.28c3.71-4.56,6.34-7.36,3.9-11" transform="translate(830.97 -54.52)"/><path class="cls-6" d="M-640.95,470.86c11.05-6.75,53.72,7.24,56.54,16.56,2.92,9.66-7.8,16.56-7.8,16.56" transform="translate(830.97 -54.52)"/><path class="cls-6" d="M-640.95,470.86c-11-6.75-53.71,7.24-56.53,16.56-2.93,9.66,7.79,16.56,7.79,16.56" transform="translate(830.97 -54.52)"/><path class="cls-6" d="M-615.61,540.78s20.15-5.83,25.35-14.72-.82-22.7-7.8-31.28c-3.71-4.56-6.34-7.36-3.9-11" transform="translate(830.97 -54.52)"/><path class="cls-6" d="M-652,527.9c-4.14-.46-12.88.3-12.88,9.2,0,5.82,4.14,13.18,23.92,7.36" transform="translate(830.97 -54.52)"/><path class="cls-6" d="M-629.91,527.9c4.14-.46,12.88.3,12.88,9.2,0,5.82-4.14,13.18-23.92,7.36" transform="translate(830.97 -54.52)"/><ellipse class="cls-6" cx="190.02" cy="477.06" rx="11.04" ry="7.36"/><line class="cls-6" x1="190.02" y1="489.94" x2="190.02" y2="486.26"/><path class="cls-6" d="M-628.07,548.14c-4.91,2.45-8.74,3.68-12.88,3.68s-8-1.23-12.88-3.68" transform="translate(830.97 -54.52)"/><circle class="cls-6" cx="164.26" cy="458.66" r="1.84"/><circle class="cls-6" cx="215.78" cy="458.66" r="1.84"/><line class="cls-6" x1="190.02" y1="416.34" x2="190.02" y2="420.02"/><line class="cls-6" x1="190.02" y1="427.38" x2="190.02" y2="449.46"/><path class="cls-6" d="M-793.67,553.62c-22.54-6-36.8-29.44-36.8-51.52V485.54" transform="translate(830.97 -54.52)"/><path class="cls-6" d="M-753.19,553.62c22.54-6,36.8-29.44,36.8-51.52V485.54" transform="translate(830.97 -54.52)"/><path class="cls-6" d="M-808.39,464a139.55,139.55,0,0,1,35-4.25" transform="translate(830.97 -54.52)"/><path class="cls-6" d="M-806.55,467.14c-2.15-3.07-9.35-9.2-16.56-7.36-5.35,1.36-7.36,8.28-7.36,25.76" transform="translate(830.97 -54.52)"/><path class="cls-6" d="M-813.91,472.66c-8.89,11.65-16.56,9.81-16.56,25.76" transform="translate(830.97 -54.52)"/><path class="cls-6" d="M-738.47,464a139.55,139.55,0,0,0-35-4.25" transform="translate(830.97 -54.52)"/><path class="cls-6" d="M-740.31,467.14c2.15-3.07,9.35-9.2,16.56-7.36,5.35,1.36,7.36,8.28,7.36,25.76" transform="translate(830.97 -54.52)"/><path class="cls-6" d="M-732.95,472.66c8.89,11.65,16.56,9.81,16.56,25.76" transform="translate(830.97 -54.52)"/><path class="cls-6" d="M-773.43,559.14c-9,0-27.8-2.76-27.8-23.92,0-4-1.64-5.52-1.64-5.52" transform="translate(830.97 -54.52)"/><path class="cls-6" d="M-773.43,526c3.83,0,6.35-1.53,9.2,0,4.6,2.45,4.45,7.2,1.84,9.2-3.51,2.68-7.05,7.36-11,7.36s-7.53-4.68-11-7.36c-2.61-2-2.76-6.75,1.84-9.2C-779.78,524.49-777.26,526-773.43,526Z" transform="translate(830.97 -54.52)"/><path class="cls-6" d="M-773.43,542.58v4.6s-16.83,8.18-27.55-7.93" transform="translate(830.97 -54.52)"/><path class="cls-6" d="M-773.43,559.14c9,0,27.8-2.76,27.8-23.92,0-4,1.64-5.52,1.64-5.52" transform="translate(830.97 -54.52)"/><path class="cls-6" d="M-773.43,542.58v4.6s16.83,8.18,27.55-7.93" transform="translate(830.97 -54.52)"/><circle class="cls-6" cx="33.62" cy="458.62" r="1.84"/><circle class="cls-6" cx="81.46" cy="458.62" r="1.84"/><path class="cls-6" d="M-260.29,420.42c-9-3.65-21.63-11-23.7-15.84v5.52c-3.91-3.68-8.51-9.66-9.2-14.72l-3.68,1.84c-2.45-5.52-3.68-14.42-3.68-21.16,0-25.92,15.43-54.28,57-45.08" transform="translate(830.97 -54.52)"/><path class="cls-6" d="M-226.73,420.42c9-3.65,21.63-11,23.7-15.84v5.52c3.91-3.68,8.51-9.66,9.2-14.72l3.68,1.84c2.45-5.52,3.68-14.42,3.68-21.16,0-25.92-15.42-54.28-57-45.08" transform="translate(830.97 -54.52)"/><circle class="cls-6" cx="563.54" cy="331.66" r="1.84"/><circle class="cls-6" cx="611.38" cy="331.66" r="1.84"/><path class="cls-6" d="M-261.91,400.9c4.29,2.76,15,3.68,18.4,3.68s14.11-.92,18.4-3.68" transform="translate(830.97 -54.52)"/><path class="cls-6" d="M-272.95,371.46c6.72-3.54,16.25,3.68,29.44,3.68" transform="translate(830.97 -54.52)"/><path class="cls-6" d="M-243.51,375.14c13.13,0,24.46-7.22,31.15-3.68,2.69,1.43,3.81,3.37,3.81,5.52" transform="translate(830.97 -54.52)"/><line class="cls-6" x1="583.78" y1="344.54" x2="583.78" y2="342.7"/><line class="cls-6" x1="591.14" y1="344.54" x2="591.14" y2="342.7"/><path class="cls-6" d="M-230.63,395.38c0,5.08-7.35,9.2-12.88,9.2s-12.88-4.12-12.88-9.2c0-7.29,5.77-7.36,12.88-7.36S-230.63,388-230.63,395.38Z" transform="translate(830.97 -54.52)"/><path class="cls-6" d="M-253.33,410.1a16.33,16.33,0,0,0,9.82,3.68,16.33,16.33,0,0,0,9.82-3.68" transform="translate(830.97 -54.52)"/><path class="cls-6" d="M-269.27,364.1c-10.43,2.45-13.8,11.19-13,18.4.37,3.18,2.07,7.51,3.76,9.2,4,4,1.84,11,1.84,11l5.52,1.84s-2.56,11.84,12.88,16.56c8.28,2.53,22.31,2.07,29.38,0,15.44-4.52,12.82-16.56,12.82-16.56l5.5-1.84s-2.06-6.9,1.83-11c2.07-2.21,5.67-6.44,5.67-11" transform="translate(830.97 -54.52)"/><path class="cls-6" d="M-333,371.66a44,44,0,0,1,1,9.17,44,44,0,0,1-44,44,44,44,0,0,1-44-44,44,44,0,0,1,1-9.17" transform="translate(830.97 -54.52)"/><path class="cls-6" d="M-390.7,339.32a44,44,0,0,1,14.67-2.5,43.77,43.77,0,0,1,14.68,2.51" transform="translate(830.97 -54.52)"/><path class="cls-6" d="M-410.87,364.33c-2.45,6.11-11.2,8.38-16.52,3.06-8.28-8.27-7.73-22.24,1.23-31.19s25.53-9.31,35.46,2.45" transform="translate(830.97 -54.52)"/><path class="cls-6" d="M-399.87,353.33c-8.25-7.34,2.14-23.85-18.34-22" transform="translate(830.97 -54.52)"/><path class="cls-6" d="M-341.56,364.33c2.45,6.11,11.2,8.38,16.52,3.06,8.28-8.27,7.73-22.24-1.23-31.19s-25.53-9.31-35.46,2.45" transform="translate(830.97 -54.52)"/><path class="cls-6" d="M-352.56,353.33c8.25-7.34-2.14-23.85,18.34-22" transform="translate(830.97 -54.52)"/><path class="cls-6" d="M-376,384.5a7.34,7.34,0,0,0-7.33,7.34v14.67c0,4.05,3.28,5.5,7.33,5.5s7.34-1.45,7.34-5.5V391.84A7.34,7.34,0,0,0-376,384.5Z" transform="translate(830.97 -54.52)"/><path class="cls-6" d="M-376,412c-4.89,0-8.55-.76-12.83-3.67" transform="translate(830.97 -54.52)"/><path class="cls-6" d="M-376,412c4.89,0,8.56-.76,12.84-3.67" transform="translate(830.97 -54.52)"/><path class="cls-6" d="M-381.53,416.62a17,17,0,0,0,5.5.89,17.06,17.06,0,0,0,5.51-.89" transform="translate(830.97 -54.52)"/><path class="cls-6" d="M-394.37,384.5a1.84,1.84,0,0,1-1.83,1.84A1.84,1.84,0,0,1-398,384.5a1.83,1.83,0,0,1,1.83-1.83A1.83,1.83,0,0,1-394.37,384.5Z" transform="translate(830.97 -54.52)"/><path class="cls-6" d="M-354,384.5a1.84,1.84,0,0,1-1.83,1.84,1.84,1.84,0,0,1-1.84-1.84,1.83,1.83,0,0,1,1.84-1.83A1.83,1.83,0,0,1-354,384.5Z" transform="translate(830.97 -54.52)"/><path class="cls-6" d="M-451.43,382.54c0,29.47-25.54,47.84-57,47.84s-57-18.37-57-47.84,31.64-58.88,57-58.88S-451.43,353.07-451.43,382.54Z" transform="translate(830.97 -54.52)"/><path class="cls-6" d="M-508.47,400.93c-3.35,0-12.88.63-12.88,3.68s11.75,9.49,12.88,9.2c1.13.29,12.88-6.15,12.88-9.2S-505.12,400.93-508.47,400.93Z" transform="translate(830.97 -54.52)"/><path class="cls-6" d="M-488.23,415.66c-6,6.67-18,6.44-20.24,3.68-2.18,2.76-14.26,3-20.24-3.68" transform="translate(830.97 -54.52)"/><path class="cls-6" d="M-491.91,419.31c0,6.1-7.41,11-16.56,11s-16.56-4.94-16.56-11" transform="translate(830.97 -54.52)"/><line class="cls-6" x1="322.5" y1="364.82" x2="322.5" y2="359.3"/><path class="cls-6" d="M-558.12,353.1a22.78,22.78,0,0,1-5.55-14.72c0-8.64,6.44-16.56,12.88-16.56,6.09,0,8.84,8.43,11.52,12.88" transform="translate(830.97 -54.52)"/><path class="cls-6" d="M-458.82,353.1a22.78,22.78,0,0,0,5.55-14.72c0-8.64-6.44-16.56-12.88-16.56-6.09,0-8.83,8.43-11.52,12.88" transform="translate(830.97 -54.52)"/><path class="cls-6" d="M-547.11,342.06c0-3.22.23-7.13-1.84-11" transform="translate(830.97 -54.52)"/><path class="cls-6" d="M-469.81,342.06c0-3.22-.23-7.13,1.82-11" transform="translate(830.97 -54.52)"/><circle class="cls-6" cx="302.26" cy="320.66" r="1.84"/><circle class="cls-6" cx="342.74" cy="320.66" r="1.84"/><path class="cls-6" d="M-519.51,375.17a9.19,9.19,0,0,0-2.69-6.5,9.2,9.2,0,0,0-13,0l-11,11a9.19,9.19,0,0,0,0,13,9.2,9.2,0,0,0,13,0l10-10.05" transform="translate(830.97 -54.52)"/><path class="cls-6" d="M-497.43,375.17a9.16,9.16,0,0,1,2.7-6.5,9.2,9.2,0,0,1,13,0l11,11a9.2,9.2,0,0,1,0,13,9.2,9.2,0,0,1-13,0l-10.06-10.05" transform="translate(830.97 -54.52)"/><path class="cls-6" d="M-657.51,377a1.84,1.84,0,0,1-1.84,1.84,1.84,1.84,0,0,1-1.84-1.84,1.84,1.84,0,0,1,1.84-1.84A1.84,1.84,0,0,1-657.51,377Z" transform="translate(830.97 -54.52)"/><circle class="cls-6" cx="208.42" cy="322.5" r="1.84"/><path class="cls-6" d="M-596.79,344.62c8,7.87,12.88,27.9,12.88,41.6,0,31.5-25.54,47.84-57,47.84s-57-16.34-57-47.84c0-13.7,4.83-33.74,12.88-41.6" transform="translate(830.97 -54.52)"/><path class="cls-6" d="M-670.39,334.86a73.51,73.51,0,0,1,29.44-5.68,73.51,73.51,0,0,1,29.44,5.68" transform="translate(830.97 -54.52)"/><path class="cls-6" d="M-666.71,336.54c-9.81,0-9.51-16.56-20.24-16.56-8.13,0-13.19,8-9.2,16.56,3.1,6.67,7.36,11.65,5.52,14.72" transform="translate(830.97 -54.52)"/><path class="cls-6" d="M-614.74,336.54c9.81,0,9.51-16.56,20.24-16.56,8.13,0,13.19,8,9.2,16.56-3.1,6.67-7.36,11.65-5.52,14.72" transform="translate(830.97 -54.52)"/><path class="cls-6" d="M-606,342.06c6.13-1.23,9.35-13.19,12.88-11" transform="translate(830.97 -54.52)"/><path class="cls-6" d="M-675.91,342.06c-6.13-1.23-9.35-13.19-12.88-11" transform="translate(830.97 -54.52)"/><path class="cls-6" d="M-631.75,404.62c0,4.06-2.09,3.68-9.2,3.68s-9.2.38-9.2-3.68,4.12-7.36,9.2-7.36S-631.75,400.55-631.75,404.62Z" transform="translate(830.97 -54.52)"/><line class="cls-6" x1="190.02" y1="355.62" x2="190.02" y2="359.3"/><path class="cls-6" d="M-626.23,415.66c0,5.08-6.59,11-14.72,11s-14.72-6-14.72-11" transform="translate(830.97 -54.52)"/><path class="cls-6" d="M-652,382.54c0,.15-7.36,13-7.36,22.08,0,14.95,8.24,11,18.4,11s18.4,3.83,18.4-11c0-9.12-7.51-21.93-7.36-22.08" transform="translate(830.97 -54.52)"/><line class="cls-6" x1="188.18" y1="366.66" x2="191.86" y2="366.66"/><path class="cls-6" d="M-753.16,413.8c-4.35,9.48-13.94,5.62-20.27,5.62s-15.92,3.86-20.27-5.62" transform="translate(830.97 -54.52)"/><line class="cls-6" x1="57.54" y1="363.94" x2="57.54" y2="358.34"/><path class="cls-6" d="M-762.37,403.76c0,4.05-6,8.18-11.06,8.18h0c-5.07,0-11.06-4.14-11.05-8.19s4.14-6.53,9.21-6.53h3.69C-766.52,397.22-762.37,399.71-762.37,403.76Z" transform="translate(830.97 -54.52)"/><path class="cls-6" d="M-815.21,372.34c2.86-15.45,14.83-18.37,10.38-26.81" transform="translate(830.97 -54.52)"/><path class="cls-6" d="M-731.65,372.34c-2.86-15.45-14.83-18.37-10.38-26.81" transform="translate(830.97 -54.52)"/><path class="cls-6" d="M-782.59,338.24c-1.31,5-4.79,7.29-7.29,7.29a4.38,4.38,0,0,1-4.19-2.23h0c-4-6.7-13.05-21.06-19-21.63-9.65-.92-29.11,29.37-7.82,41a4.56,4.56,0,0,0,.59.26c3.41,1.19,6.17,3.23,5,10.25A49.9,49.9,0,0,0-808,408a42.21,42.21,0,0,0,16.13,15c7.37,3.68,11.05,7.39,18.42,7.39" transform="translate(830.97 -54.52)"/><path class="cls-6" d="M-764.27,338.24c1.31,5,4.79,7.29,7.29,7.29a4.38,4.38,0,0,0,4.19-2.23h0c4-6.7,13-21.06,19-21.63,9.65-.92,29.11,29.37,7.82,41a4.56,4.56,0,0,1-.59.26c-3.41,1.19-6.17,3.23-5,10.25A49.9,49.9,0,0,1-738.88,408,42.25,42.25,0,0,1-755,423c-7.38,3.68-10.91,7.39-18.43,7.39" transform="translate(830.97 -54.52)"/><path class="cls-6" d="M-749.48,380.63a1.84,1.84,0,0,1-1.84,1.84,1.84,1.84,0,0,1-1.84-1.84,1.84,1.84,0,0,1,1.84-1.84A1.84,1.84,0,0,1-749.48,380.63Z" transform="translate(830.97 -54.52)"/><path class="cls-6" d="M-793.7,380.63a1.84,1.84,0,0,1-1.84,1.84,1.84,1.84,0,0,1-1.84-1.84,1.84,1.84,0,0,1,1.84-1.84A1.84,1.84,0,0,1-793.7,380.63Z" transform="translate(830.97 -54.52)"/><path class="cls-6" d="M-773.35,332.77c.69,3.81,4.45,8.19,8.24,9.17" transform="translate(830.97 -54.52)"/><path class="cls-6" d="M-773.35,332.77c-.69,3.81-4.46,8.19-8.25,9.17" transform="translate(830.97 -54.52)"/><path class="cls-6" d="M-259.1,236.56c2.45-1.38,11.09-4.86,15.53-4.86" transform="translate(830.97 -54.52)"/><path class="cls-6" d="M-243.57,274c4.71,0,19.3-3.07,23.89-12.87.46-1-1.83-3.68-1.83-3.68" transform="translate(830.97 -54.52)"/><path class="cls-6" d="M-252.76,272.14c-3.37-3.83,4-16.54,9.19-16.54" transform="translate(830.97 -54.52)"/><path class="cls-6" d="M-234.38,272.14c3.37-3.83-4-16.54-9.19-16.54" transform="translate(830.97 -54.52)"/><polyline class="cls-6" points="587.4 206.59 587.4 212.11 583.72 213.95"/><line class="cls-6" x1="587.4" y1="212.11" x2="591.08" y2="213.95"/><line class="cls-6" x1="585.56" y1="206.59" x2="589.24" y2="206.59"/><path class="cls-6" d="M-252.76,253.76a1.84,1.84,0,0,1-1.84,1.84,1.85,1.85,0,0,1-1.84-1.84,1.84,1.84,0,0,1,1.84-1.84A1.84,1.84,0,0,1-252.76,253.76Z" transform="translate(830.97 -54.52)"/><path class="cls-6" d="M-230.7,253.76a1.85,1.85,0,0,1-1.84,1.84,1.84,1.84,0,0,1-1.84-1.84,1.84,1.84,0,0,1,1.84-1.84A1.84,1.84,0,0,1-230.7,253.76Z" transform="translate(830.97 -54.52)"/><path class="cls-6" d="M-259.1,236.56c-2.3-1.84-21-16.58-32.26-21.4-2.67-1.15-9.19.11-9.19,3.68,0,6,4.35,20.57,9.19,27.57,2.07,3,9.08,11,16.54,11h9.25s-2.29,2.7-1.83,3.68c4.59,9.8,19.18,12.87,23.89,12.87" transform="translate(830.97 -54.52)"/><path class="cls-6" d="M-227.92,236.56c-2.45-1.38-11.09-4.86-15.53-4.86" transform="translate(830.97 -54.52)"/><path class="cls-6" d="M-227.92,236.56c2.3-1.84,21-16.58,32.26-21.4,2.67-1.15,9.19.11,9.19,3.68,0,6-4.35,20.57-9.19,27.57-2.07,3-9.08,11-16.54,11h-9.25" transform="translate(830.97 -54.52)"/><path class="cls-6" d="M-273,257.43c2.6,0,11-9.49,11-12.86v-1.84" transform="translate(830.97 -54.52)"/><path class="cls-6" d="M-214.16,257.43c-2.61,0-11-9.49-11-12.86v-1.84" transform="translate(830.97 -54.52)"/><path class="cls-6" d="M-370.47,285c0,3-5.52,5.52-5.52,5.52s-5.52-2.48-5.52-5.52A5.52,5.52,0,0,1-376,279.5,5.52,5.52,0,0,1-370.47,285Z" transform="translate(830.97 -54.52)"/><path class="cls-6" d="M-376,294.22c-8.85,4.83-16.56-.7-16.56-11,0-6-1.84-10.58-5.52-12.88" transform="translate(830.97 -54.52)"/><path class="cls-6" d="M-376,294.22c8.86,4.83,16.56-.7,16.56-11,0-6,1.84-10.58,5.52-12.88" transform="translate(830.97 -54.52)"/><line class="cls-6" x1="454.98" y1="239.7" x2="454.98" y2="236.02"/><path class="cls-6" d="M-368.63,296.06c0,3-3.29,5.52-7.36,5.52s-7.36-2.48-7.36-5.52" transform="translate(830.97 -54.52)"/><circle class="cls-6" cx="440.26" cy="204.74" r="1.84"/><circle class="cls-6" cx="469.7" cy="204.74" r="1.84"/><path class="cls-6" d="M-383.35,218.78c-13.8-11.5-22.31-31.28-29.44-31.28-4.6,0,3.48,55.19,1.84,57C-421.84,256.8-425.67,274-425.67,274s6.9-1.1,9.2,0l-1.84,5.52s20.24,5.92,29.31,13.7" transform="translate(830.97 -54.52)"/><path class="cls-6" d="M-368.63,218.78c13.8-11.5,22.31-31.28,29.44-31.28,4.6,0-3.48,55.19-1.84,57C-330.14,256.8-326.31,274-326.31,274s-6.9-1.1-9.2,0l1.84,5.52s-20.24,5.92-29.3,13.7" transform="translate(830.97 -54.52)"/><path class="cls-6" d="M-412.79,189.34c2.76,4.9,18.4,35,18.4,35l-9.2-1.84s3.68,6.44,3.68,9.2c0,3.56-3.68,5.52-3.68,5.52" transform="translate(830.97 -54.52)"/><path class="cls-6" d="M-339.19,189.34c-2.76,4.9-18.4,35-18.4,35l9.2-1.84s-3.68,6.44-3.68,9.2c0,3.56,3.68,5.52,3.68,5.52" transform="translate(830.97 -54.52)"/><path class="cls-6" d="M-369.18,219a44,44,0,0,0-6.81-.46,44,44,0,0,0-6.81.46" transform="translate(830.97 -54.52)"/><path class="cls-6" d="M-405.43,266.62c-3.37-.62-13.57-.23-20.24,7.36" transform="translate(830.97 -54.52)"/><path class="cls-6" d="M-346.55,266.62c3.37-.62,13.57-.23,20.24,7.36" transform="translate(830.97 -54.52)"/><circle class="cls-6" cx="339.06" cy="191.86" r="1.84"/><circle class="cls-6" cx="302.26" cy="191.86" r="1.84"/><path class="cls-6" d="M-502.95,282.81c0,3.56-3.29,7.73-7.36,7.73s-7.36-4.17-7.36-7.73,3.3-5.15,7.36-5.15S-502.95,279.25-502.95,282.81Z" transform="translate(830.97 -54.52)"/><line class="cls-6" x1="320.66" y1="236.02" x2="320.66" y2="241.54"/><path class="cls-6" d="M-497.43,294.22s.17,0,0,1.84c-.3,2.83-5.74,5.52-12.82,5.52h0c-7.11,0-12.57-2.69-12.88-5.52-.2-1.83,0-1.84,0-1.84" transform="translate(830.97 -54.52)"/><path class="cls-6" d="M-534.23,211.42a44,44,0,0,1,23.92-9.2" transform="translate(830.97 -54.52)"/><path class="cls-6" d="M-526.87,286.86c-4-9.09-20.24-5.52-20.24-5.52v-5.52l-11,7.36V270.3l-5.52,1.84c0-12.86,6.84-37.82,22.08-54.2" transform="translate(830.97 -54.52)"/><path class="cls-6" d="M-501.11,253.74c1.61,11.15,7.36,19.19,7.36,31.64,0,8.85-7.41,10.68-16.56,10.68s-16.56-1.83-16.56-10.68c0-12.45,5.41-20.6,7.36-31.64" transform="translate(830.97 -54.52)"/><path class="cls-6" d="M-521.35,204.06c-4.83,0-15.64-16.56-20.24-16.56s-10.58,15.18-5.52,36.8" transform="translate(830.97 -54.52)"/><path class="cls-6" d="M-534.23,211.42c5.21-4,4.83-12.88-1.84-20.24" transform="translate(830.97 -54.52)"/><path class="cls-6" d="M-486.39,211.42a44,44,0,0,0-23.92-9.2" transform="translate(830.97 -54.52)"/><path class="cls-6" d="M-493.75,286.86c4-9.09,20.24-5.52,20.24-5.52v-5.52l11,7.36V270.3l5.52,1.84c0-12.86-6.84-37.82-22.08-54.2" transform="translate(830.97 -54.52)"/><path class="cls-6" d="M-499.27,204.06c4.83,0,15.64-16.56,20.24-16.56s10.58,15.18,5.52,36.8" transform="translate(830.97 -54.52)"/><path class="cls-6" d="M-486.39,211.42c-5.21-4-4.83-12.88,1.84-20.24" transform="translate(830.97 -54.52)"/><path class="cls-6" d="M-629.91,250.06c0,5.08-4.94,1.84-11,1.84s-11,3.24-11-1.84,4.94-9.2,11-9.2S-629.91,245-629.91,250.06Z" transform="translate(830.97 -54.52)"/><path class="cls-6" d="M-668.74,258.32c3.85-6.8,9.75-12.17,18.59-13.78" transform="translate(830.97 -54.52)"/><path class="cls-6" d="M-615.28,291.07c-6.54,4.3-16,8.66-23.68,5.89a5.91,5.91,0,0,0-4,0c-7.68,2.77-17.14-1.59-23.68-5.89" transform="translate(830.97 -54.52)"/><path class="cls-6" d="M-640.95,233.5c-24.61,0-36.57,17.48-33.12,40.05,0,0-4.52,19.9,0,26.19,1.23,1.71,7.36,3.75,7.36-1.84,0-27.6,3.53-35,25.76-35" transform="translate(830.97 -54.52)"/><path class="cls-6" d="M-613.16,258.32c-3.85-6.8-9.75-12.17-18.59-13.78" transform="translate(830.97 -54.52)"/><path class="cls-6" d="M-640.95,233.5c24.61,0,36.57,17.48,33.12,40.05,0,0,4.52,19.9,0,26.19-1.23,1.71-7.36,3.75-7.36-1.84,0-27.6-3.53-35-25.76-35" transform="translate(830.97 -54.52)"/><circle class="cls-6" cx="158.74" cy="178.98" r="1.84"/><path class="cls-6" d="M-640.95,198.54c-29.44,0-46.61,5.52-51.52,27.6-2.31,10.37-5.52,16.36-5.52,27.6,0,24.84,21,30.82,21.91,38.79" transform="translate(830.97 -54.52)"/><path class="cls-6" d="M-640.95,198.54c29.44,0,46.61,5.52,51.52,27.6,2.31,10.37,5.52,16.36,5.52,27.6,0,24.84-21,30.82-21.91,38.79" transform="translate(830.97 -54.52)"/><line class="cls-6" x1="190.02" y1="197.38" x2="190.02" y2="208.42"/><circle class="cls-6" cx="221.3" cy="178.98" r="1.84"/><path class="cls-6" d="M-629.91,270.3a32.66,32.66,0,0,0-11-1.84,32.66,32.66,0,0,0-11,1.84" transform="translate(830.97 -54.52)"/><path class="cls-6" d="M-660.34,199.69c-5.45.75-12.92-8.51-24.77-8.51-7.13,0-12.88,25.76-12.88,25.76,1.38,3.45,5.52,5.52,5.52,5.52" transform="translate(830.97 -54.52)"/><path class="cls-6" d="M-684.94,210.66c4.73-6.25,10.87-16,3.85-19.12" transform="translate(830.97 -54.52)"/><path class="cls-6" d="M-621.56,199.69c5.45.75,12.93-8.51,24.77-8.51,7.13,0,12.88,25.76,12.88,25.76-1.38,3.45-5.52,5.52-5.52,5.52" transform="translate(830.97 -54.52)"/><path class="cls-6" d="M-597,210.66c-4.73-6.25-10.87-16-3.85-19.12" transform="translate(830.97 -54.52)"/><line class="cls-6" x1="190.02" y1="178.98" x2="190.02" y2="173.46"/><line class="cls-6" x1="190.02" y1="241.54" x2="190.02" y2="232.34"/><path class="cls-6" d="M-764.23,262.12c0,4.51-9.2,8.18-9.2,8.18s-9.2-3.67-9.2-8.18,4.12-6.54,9.2-6.54S-764.23,257.6-764.23,262.12Z" transform="translate(830.97 -54.52)"/><path class="cls-6" d="M-773.43,273.24c0,2.21-3.37,4.42-7.78,4.42-6.49,0-9.09-5.52-12.46-5.52" transform="translate(830.97 -54.52)"/><path class="cls-6" d="M-773.43,273.24c0,2.21,3.37,4.42,7.79,4.42,6.48,0,9.08-5.52,12.45-5.52" transform="translate(830.97 -54.52)"/><line class="cls-6" x1="57.54" y1="219.46" x2="57.54" y2="215.78"/><path class="cls-6" d="M-799.19,202.22c6.59,3.68,9.51-1.84,25.76-1.84" transform="translate(830.97 -54.52)"/><path class="cls-6" d="M-773.43,292.38c-15.64,0-19-10.56-22.08-12.88-10.58-8.05-16.56-16.56-16.56-31.28" transform="translate(830.97 -54.52)"/><circle class="cls-6" cx="37.3" cy="182.66" r="5.52"/><circle class="cls-6" cx="77.78" cy="182.66" r="5.52"/><path class="cls-6" d="M-799.19,202.22c-1.38-5.29-5.21-7.36-9.2-7.36-9.05,0-22.08,23.5-22.08,27.6a16.12,16.12,0,0,1,5.52,11c.69,9.89,8.86,20.58,14.72,11,5.3-8.63-8-33.35,1.84-42.32" transform="translate(830.97 -54.52)"/><path class="cls-6" d="M-747.67,202.22c-6.59,3.68-9.51-1.84-25.76-1.84" transform="translate(830.97 -54.52)"/><path class="cls-6" d="M-773.43,292.38c15.64,0,19-10.56,22.08-12.88,10.58-8.05,16.56-16.56,16.56-31.28" transform="translate(830.97 -54.52)"/><path class="cls-6" d="M-747.67,202.22c1.38-5.29,5.21-7.36,9.2-7.36,9.05,0,22.08,23.5,22.08,27.6a16.12,16.12,0,0,0-5.52,11c-.69,9.89-8.85,20.58-14.72,11-5.3-8.63,8-33.35-1.84-42.32" transform="translate(830.97 -54.52)"/><path class="cls-6" d="M-778.95,282.7a32,32,0,0,0,11,0" transform="translate(830.97 -54.52)"/><path class="cls-6" d="M-267.45,83.59a61.21,61.21,0,0,1,23.93-4.67,61.29,61.29,0,0,1,23.91,4.66" transform="translate(830.97 -54.52)"/><path class="cls-6" d="M-256.4,119.41a1.85,1.85,0,0,1-1.84,1.84,1.84,1.84,0,0,1-1.84-1.84,1.84,1.84,0,0,1,1.84-1.84A1.84,1.84,0,0,1-256.4,119.41Z" transform="translate(830.97 -54.52)"/><path class="cls-6" d="M-227,119.41a1.84,1.84,0,0,1-1.84,1.84,1.85,1.85,0,0,1-1.84-1.84,1.84,1.84,0,0,1,1.84-1.84A1.84,1.84,0,0,1-227,119.41Z" transform="translate(830.97 -54.52)"/><path class="cls-6" d="M-234.32,148.85c0,4.07-4.12,7.36-9.2,7.36s-9.2-3.29-9.2-7.36,4.12-5.52,9.2-5.52S-234.32,144.79-234.32,148.85Z" transform="translate(830.97 -54.52)"/><path class="cls-6" d="M-263.76,87.15s-23.59-24.08-32.56-18.41c-5.33,3.37-7.62,15.41,5.42,32.26" transform="translate(830.97 -54.52)"/><path class="cls-6" d="M-223.25,87.15s23.58-24.08,32.55-18.41c5.33,3.37,7.62,15.41-5.42,32.26" transform="translate(830.97 -54.52)"/><path class="cls-6" d="M-247.35,121.25a11,11,0,0,0-3.09-9.65,11,11,0,0,0-15.61,0l-13.8,13.8a11,11,0,0,0,0,15.62,11,11,0,0,0,15.61,0l11.85-11.85" transform="translate(830.97 -54.52)"/><path class="cls-6" d="M-239.69,121.25a11.06,11.06,0,0,1,3.08-9.65,11.05,11.05,0,0,1,15.62,0l13.8,13.8a11.05,11.05,0,0,1,0,15.62,11,11,0,0,1-15.61,0l-11.85-11.85" transform="translate(830.97 -54.52)"/><line class="cls-6" x1="587.45" y1="101.7" x2="587.45" y2="109.06"/><path class="cls-6" d="M-225.41,138.43a27.65,27.65,0,0,1,2.13,10.42c0,10.68-16.48,14.73-20.24,14.73s-20.24-4.05-20.24-14.73a27.65,27.65,0,0,1,2.13-10.42" transform="translate(830.97 -54.52)"/><path class="cls-6" d="M-284,82.6a9.09,9.09,0,0,1,0,11c-6.59,9.36-12.88,19.17-12.88,31.29,0,18,22.19,29.14,38.93,33.7" transform="translate(830.97 -54.52)"/><path class="cls-6" d="M-203,82.6a9.09,9.09,0,0,0,0,11c6.59,9.36,12.88,19.17,12.88,31.29,0,18-22.19,29.14-38.93,33.7" transform="translate(830.97 -54.52)"/><path class="cls-6" d="M-318.95,110.22c0,29.47-25.54,55.2-57,55.2s-57-25.73-57-55.2,25.54-51.52,57-51.52S-318.95,80.75-318.95,110.22Z" transform="translate(830.97 -54.52)"/><path class="cls-6" d="M-376,134.14c-9.36,0-13.18,11-20.64,11-3.55,0-6.68-1.48-9.17-6.63" transform="translate(830.97 -54.52)"/><path class="cls-6" d="M-376,134.14c9.36,0,13.18,11,20.64,11,3.55,0,6.68-1.48,9.17-6.63" transform="translate(830.97 -54.52)"/><line class="cls-6" x1="454.98" y1="79.62" x2="454.98" y2="66.74"/><circle class="cls-6" cx="425.54" cy="44.66" r="7.36"/><circle class="cls-6" cx="484.42" cy="44.66" r="7.36"/><line class="cls-6" x1="469.7" y1="74.1" x2="508.34" y2="92.5"/><line class="cls-6" x1="478.9" y1="70.42" x2="510.18" y2="81.46"/><line class="cls-6" x1="488.1" y1="66.74" x2="512.02" y2="72.26"/><line class="cls-6" x1="440.26" y1="74.1" x2="401.62" y2="92.5"/><line class="cls-6" x1="431.06" y1="70.42" x2="399.78" y2="81.46"/><line class="cls-6" x1="421.86" y1="66.74" x2="397.94" y2="72.26"/><path class="cls-6" d="M-372.78,118.62c-1.77,2.47-4.65,2.47-6.42,0l-2.78-3.9c-1.77-2.47-.73-4.49,2.31-4.49h7.36c3,0,4.08,2,2.31,4.49Z" transform="translate(830.97 -54.52)"/><path class="cls-6" d="M-375.64,141.5h0Z" transform="translate(830.97 -54.52)"/><path class="cls-6" d="M-370.41,143.34a9.8,9.8,0,0,0-5.4-1.83,9.77,9.77,0,0,0-5.39,1.83" transform="translate(830.97 -54.52)"/><path class="cls-6" d="M-503.52,146.57c-3,2.86-6.8,2.92-9.69,0l-3.19-3.27c-2.66-3.05-1.53-5.54,2.52-5.54h11c4,0,5.18,2.49,2.51,5.54Z" transform="translate(830.97 -54.52)"/><line class="cls-6" x1="322.61" y1="99.86" x2="322.61" y2="94.34"/><path class="cls-6" d="M-491.8,158.06c0,6.09-4.37,11-16.56,11s-16.56-4.95-16.56-11" transform="translate(830.97 -54.52)"/><path class="cls-6" d="M-552.64,123.1c3,7.7,9.78,15.12,16.67,18.4" transform="translate(830.97 -54.52)"/><path class="cls-6" d="M-464.32,123.1c-2.95,7.7-9.64,15.12-16.44,18.4" transform="translate(830.97 -54.52)"/><path class="cls-6" d="M-462.36,112.06c0-10.59-1.74-23.11-9-32.69,2.17-1.2,5.84-1.49,10.72-4.11C-451.2,70.2-454.88,55-462.47,55c-6.51,0-12,13.08-20.51,14.57-6.39-3.35-14.66-5.37-25.38-5.37s-19,2-25.4,5.37C-542.33,68.18-547.83,55-554.36,55c-7.59,0-11.27,15.18-1.84,20.24,4.94,2.65,8.63,2.91,10.79,4.15-6.08,8.88-9,22.08-9,32.65" transform="translate(830.97 -54.52)"/><circle class="cls-6" cx="300.53" cy="53.86" r="1.84"/><circle class="cls-6" cx="344.69" cy="53.86" r="1.84"/><path class="cls-6" d="M-552.95,97c-7.55,12.35-8.77,22.47-8.77,22.47H-558s-3.68,9.08-3.68,14.72l5.52-1.84s-3.68,8.28-3.68,14.72c0,.11,5.52-1.84,5.52-1.84s-2.76,6.21-1.84,9.2c0,.11,5.52-1.84,5.52-1.84s-1.61,4.29,0,7.36l9.2-3.68s1.72,5.63,1.84,5.52a30.64,30.64,0,0,1,9.2-5.52" transform="translate(830.97 -54.52)"/><path class="cls-6" d="M-463.78,97c7.55,12.35,8.78,22.47,8.78,22.47h-3.68s3.68,9.08,3.68,14.72l-5.52-1.84s3.68,8.28,3.68,14.72c0,.11-5.52-1.84-5.52-1.84s2.76,6.21,1.84,9.2c0,.11-5.52-1.84-5.52-1.84s1.61,4.29,0,7.36l-9.2-3.68s-1.72,5.63-1.84,5.52a30.77,30.77,0,0,0-9.2-5.52" transform="translate(830.97 -54.52)"/><path class="cls-6" d="M-522.64,112.06c-7,9.9-13.32,23.35-13.32,32.2a13.8,13.8,0,0,0,13.8,13.8c2.6,0,11.28-.33,13.8-3.68,2.51,3.35,10.73,3.68,13.8,3.68a13.8,13.8,0,0,0,13.8-13.8c0-8.78-6.38-22.26-13.36-32.2" transform="translate(830.97 -54.52)"/><path class="cls-6" d="M-533.76,69.59c-2,1.23-6.11,3.44-9.72,2" transform="translate(830.97 -54.52)"/><path class="cls-6" d="M-482.7,69.59c2,1.23,6.11,3.44,9.72,2" transform="translate(830.97 -54.52)"/><path class="cls-6" d="M-488.12,75.33c-4.95-2.3-12.17-3.75-20.24-3.75s-15.3,1.45-20.24,3.75" transform="translate(830.97 -54.52)"/><path class="cls-6" d="M-490,82.69c-4.5-2.3-11.07-3.75-18.4-3.75s-13.91,1.45-18.4,3.75" transform="translate(830.97 -54.52)"/><path class="cls-6" d="M-491.8,90.05c-4.05-2.3-10-3.75-16.56-3.75s-12.52,1.45-16.56,3.75" transform="translate(830.97 -54.52)"/><path class="cls-6" d="M-547,110.22c-.23,7.59,1.72,11.5,3.68,14.72" transform="translate(830.97 -54.52)"/><path class="cls-6" d="M-469.74,110.22c.23,7.59-1.73,11.5-3.68,14.72" transform="translate(830.97 -54.52)"/><path class="cls-6" d="M-536,102.86c0-3.22-9.66-12.12-7.36-16.56" transform="translate(830.97 -54.52)"/><path class="cls-6" d="M-481.12,102.86c0-3.22,9.66-12.12,7.36-16.56" transform="translate(830.97 -54.52)"/><circle class="cls-6" cx="175.3" cy="48.34" r="1.84"/><circle class="cls-6" cx="204.74" cy="48.34" r="1.84"/><path class="cls-6" d="M-652,112.06c-.08-.08-5.52,16.51-5.52,23.92,0,21,16.56,5.52,16.56,5.52" transform="translate(830.97 -54.52)"/><path class="cls-6" d="M-629.91,112.06c.08-.08,5.52,16.51,5.52,23.92,0,21-16.56,5.52-16.56,5.52" transform="translate(830.97 -54.52)"/><line class="cls-6" x1="190.02" y1="86.98" x2="190.02" y2="83.3"/><path class="cls-6" d="M-653.83,147c0,5.67,6,9.2,12.88,9.2s12.88-3.68,12.88-9.2" transform="translate(830.97 -54.52)"/><line class="cls-6" x1="184.5" y1="79.62" x2="195.54" y2="79.62"/><path class="cls-6" d="M-646.47,134.14a5.52,5.52,0,0,1,5.52,5.52" transform="translate(830.97 -54.52)"/><path class="cls-6" d="M-635.43,134.14a5.52,5.52,0,0,0-5.52,5.52" transform="translate(830.97 -54.52)"/><path class="cls-6" d="M-624.39,134.88c0-6,7.36-21.21,7.36-32,0-12.66-6.1-20.88-14.77-24.16h0c-5.32-1.91-9.15,1-9.15,5.76v0c0-4.76-3.83-7.67-9.15-5.76l-.16.06c-8.59,3.32-14.61,11.52-14.61,24.1,0,11,7.37,25.53,7.37,32" transform="translate(830.97 -54.52)"/><path class="cls-6" d="M-620.71,88.14c19.63,8,27.6,24.38,27.6,46l-5.52-1.84c-.86,12-4.07,23.83-7.36,27.6,0,0-3.59-5.65-3.68-5.52a39.25,39.25,0,0,1-14.72,12.88s-1.68-5.67-1.84-5.52c-6,5.52-14.72,7.36-14.72,7.36s-8.74-1.84-14.72-7.36c-.16-.15-1.84,5.52-1.84,5.52a39.25,39.25,0,0,1-14.72-12.88c-.09-.13-3.68,5.52-3.68,5.52-3.29-3.77-6.49-15.64-7.36-27.6l-5.52,1.84c0-21.62,8-38,27.6-46" transform="translate(830.97 -54.52)"/><path class="cls-6" d="M-675.91,97.34c-7.51-5.37-7.36-12.88-7.36-12.88s10.89-1.69,18.4,5.52" transform="translate(830.97 -54.52)"/><path class="cls-6" d="M-640.95,64.22c0-3.22-7-9.2-12.88-9.2-.15,0,1.84,7.36,1.84,7.36s-13.57-2.76-22.08,1.84l5.52,3.68s-11,1.84-16.56,9.2h7.36s-9.2,13.34-9.2,23.92l9.2-1.84" transform="translate(830.97 -54.52)"/><path class="cls-6" d="M-606,97.34c7.51-5.37,7.36-12.88,7.36-12.88S-609.52,82.77-617,90" transform="translate(830.97 -54.52)"/><path class="cls-6" d="M-640.95,64.22c0-3.22,7.05-9.2,12.88-9.2.15,0-1.84,7.36-1.84,7.36s13.57-2.76,22.08,1.84l-5.52,3.68s11,1.84,16.56,9.2h-7.36s9.2,13.34,9.2,23.92l-9.2-1.84" transform="translate(830.97 -54.52)"/><path class="cls-6" d="M-770.22,139.76c-1.77,2.47-4.65,2.47-6.42,0l-2.78-3.89c-1.77-2.47-.73-4.49,2.31-4.49h7.36c3,0,4.08,2,2.31,4.49Z" transform="translate(830.97 -54.52)"/><path class="cls-6" d="M-723.79,103.77a50,50,0,0,1-1.8-13.44V58.71a3.68,3.68,0,0,0-6.26-2.62c-3.85,3.8-10,10-14.91,14.84a3.6,3.6,0,0,1-3.53.95c-10-2.86-36.31-2.81-46.28,0a3.59,3.59,0,0,1-3.52-1c-4.86-4.87-11.07-11-14.92-14.85a3.68,3.68,0,0,0-6.26,2.62V90.32a53,53,0,0,1-1.9,13.84,51.42,51.42,0,0,0-1.46,19.16A51.63,51.63,0,0,0-779,168.8a51.53,51.53,0,0,0,57.09-51.22A51.5,51.5,0,0,0-723.79,103.77Z" transform="translate(830.97 -54.52)"/><path class="cls-6" d="M-815.75,91.82a31.19,31.19,0,0,1,6.54-7.71,6.41,6.41,0,0,0,1.13-8.4l-11.35-17" transform="translate(830.97 -54.52)"/><path class="cls-6" d="M-731.11,91.82a31.19,31.19,0,0,0-6.54-7.71,6.4,6.4,0,0,1-1.12-8.4l11.34-17" transform="translate(830.97 -54.52)"/><path class="cls-6" d="M-791.11,146a9.22,9.22,0,0,0,8.48,5.62,9.2,9.2,0,0,0,9.2-9.2" transform="translate(830.97 -54.52)"/><path class="cls-6" d="M-755.75,146a9.22,9.22,0,0,1-8.48,5.62,9.2,9.2,0,0,1-9.2-9.2" transform="translate(830.97 -54.52)"/><path class="cls-6" d="M-777,157.14a7.42,7.42,0,0,0,3.62.92,7.42,7.42,0,0,0,3.62-.92" transform="translate(830.97 -54.52)"/><circle class="cls-6" cx="37.3" cy="63.06" r="7.36"/><line class="cls-6" x1="37.3" y1="61.22" x2="37.3" y2="64.9"/><circle class="cls-6" cx="77.78" cy="63.06" r="7.36"/><line class="cls-6" x1="77.78" y1="61.22" x2="77.78" y2="64.9"/><g class="cls-3"><path class="cls-5" d="M997.67,747.82a.59.59,0,1,1-1-.65.58.58,0,0,1,.82-.17A.59.59,0,0,1,997.67,747.82Z" transform="translate(830.97 -54.52)"/><circle class="cls-5" cx="1838.01" cy="699.5" r="0.59"/><path class="cls-5" d="M1019.7,749.91c.76,3.53-1.5,9.76-3.93,13.43-5.59,8.45-15.33,8.29-23.78,2.71s-12.39-14.5-6.8-22.95c2.43-3.67,7.28-8.18,10.83-8.86" transform="translate(830.97 -54.52)"/><path class="cls-5" d="M1001.7,734.23a23.78,23.78,0,0,1,8.9,3.7,23.47,23.47,0,0,1,6.88,6.75" transform="translate(830.97 -54.52)"/><path class="cls-5" d="M1002.39,735.34c-2.63-1.75.39-6.13-2.49-8-2.18-1.45-4.95-.21-5.4,2.8-.36,2.34-.1,4.43-1.13,4.93" transform="translate(830.97 -54.52)"/><path class="cls-5" d="M1016.32,744.56c2.63,1.74,5.49-2.76,8.36-.85,2.18,1.44,2.12,4.47-.47,6.07-2,1.24-4,1.82-4.09,3" transform="translate(830.97 -54.52)"/><path class="cls-5" d="M1017.69,747.59c1.86.76,4.84-1.88,5.41-.68" transform="translate(830.97 -54.52)"/><path class="cls-5" d="M998.94,735.18c-1.42-1.41-.16-5.19-1.49-5.24" transform="translate(830.97 -54.52)"/><path class="cls-5" d="M999.68,759.79c-.72,1.09-1.21.61-3.12-.65s-2.53-1.53-1.81-2.62a3,3,0,0,1,4.93,3.27Z" transform="translate(830.97 -54.52)"/><line class="cls-5" x1="1827.21" y1="705.12" x2="1826.55" y2="706.1"/><path class="cls-5" d="M999.2,763.73c-.9,1.36-3.72,1.79-5.9.34s-2.89-4.21-2-5.57" transform="translate(830.97 -54.52)"/><path class="cls-5" d="M998.17,750.28s-4.27,2.17-5.89,4.61c-2.65,4,.25,4.42,3,6.22s4.25,4.3,6.89.31c1.62-2.45,1.87-7.21,1.94-7.23" transform="translate(830.97 -54.52)"/><line class="cls-5" x1="1824.75" y1="707.75" x2="1825.74" y2="708.4"/></g><g class="cls-3"><path class="cls-5" d="M1112.61,855.8a23.59,23.59,0,0,1,16.65-6" transform="translate(830.97 -54.52)"/><path class="cls-5" d="M1120.94,866.88a.69.69,0,0,1-.41.87.68.68,0,0,1-.87-.41.67.67,0,0,1,.41-.87A.67.67,0,0,1,1120.94,866.88Z" transform="translate(830.97 -54.52)"/><path class="cls-5" d="M1131.18,863.19a.67.67,0,0,1-.41.87.68.68,0,1,1-.46-1.28A.68.68,0,0,1,1131.18,863.19Z" transform="translate(830.97 -54.52)"/><path class="cls-5" d="M1132.31,874.36c.51,1.41-.51,3.07-2.28,3.71s-3.62,0-4.13-1.41.75-2.44,2.51-3.07S1131.8,872.94,1132.31,874.36Z" transform="translate(830.97 -54.52)"/><path class="cls-5" d="M1114.34,856.57s-11.23-5.42-13.64-2.33c-1.43,1.84-.72,6.32,5.93,10.55" transform="translate(830.97 -54.52)"/><path class="cls-5" d="M1128.43,851.5s5.2-11.33,9-10.48c2.27.51,4.58,4.41,2.15,11.91" transform="translate(830.97 -54.52)"/><path class="cls-5" d="M1124.32,866.38a4.09,4.09,0,0,0-7.72-1l-3.07,6.53a4.08,4.08,0,0,0,7.39,3.48l2.63-5.61" transform="translate(830.97 -54.52)"/><path class="cls-5" d="M1127,865.42a4.08,4.08,0,0,1,5.3-5.69l6.53,3.07a4.08,4.08,0,1,1-3.48,7.39l-5.6-2.64" transform="translate(830.97 -54.52)"/><line class="cls-5" x1="1961" y1="823.55" x2="1961.92" y2="826.12"/><path class="cls-5" d="M1134.1,869.61a10.38,10.38,0,0,1,2.05,3.37c1.34,3.71-3.89,7.18-5.2,7.65s-7.55,1.13-8.89-2.59a10.18,10.18,0,0,1-.56-3.89" transform="translate(830.97 -54.52)"/><path class="cls-5" d="M1106.72,857.52a3.38,3.38,0,0,1,1.39,3.85c-1.13,4.08-2.09,8.28-.57,12.5,2.26,6.27,11.37,7.36,17.76,6.85" transform="translate(830.97 -54.52)"/><path class="cls-5" d="M1134.9,847.39a3.37,3.37,0,0,0,1.38,3.84c3.47,2.43,6.88,5.06,8.4,9.27,2.26,6.28-4.07,12.92-9.32,16.6" transform="translate(830.97 -54.52)"/></g><g class="cls-3"><path class="cls-4" d="M1168.4,719.75c-.15.75-1.63,1.08-1.63,1.08s-1.23-.88-1.08-1.62a1.38,1.38,0,0,1,2.71.54Z" transform="translate(830.97 -54.52)"/><path class="cls-4" d="M1166.59,721.74c-2.41.74-4-1-3.51-3.53a3.61,3.61,0,0,0-.72-3.44" transform="translate(830.97 -54.52)"/><path class="cls-4" d="M1166.59,721.74c1.93,1.62,4.1.65,4.61-1.89a3.62,3.62,0,0,1,2-2.89" transform="translate(830.97 -54.52)"/><line class="cls-4" x1="1997.56" y1="667.22" x2="1997.74" y2="666.32"/><path class="cls-4" d="M1168.31,722.55a1.67,1.67,0,0,1-2.08,1c-1-.2-1.69-1-1.53-1.72" transform="translate(830.97 -54.52)"/><circle class="cls-4" cx="1995.68" cy="657.92" r="0.46"/><circle class="cls-4" cx="2002.91" cy="659.38" r="0.46"/><path class="cls-4" d="M1168.53,702.87c-2.82-3.51-3.92-8.78-5.67-9.13-1.13-.23-1.88,13.71-2.38,14.08a18.73,18.73,0,0,0-5.07,6.49,6.31,6.31,0,0,1,2.26.45l-.73,1.27s4.67,2.45,6.51,4.81" transform="translate(830.97 -54.52)"/><path class="cls-4" d="M1172.14,703.6c3.95-2.14,7-6.57,8.77-6.21,1.13.22-3.59,13.36-3.28,13.9a18.74,18.74,0,0,1,2.15,8,6.37,6.37,0,0,0-2.26-.46l.18,1.45s-5.26.44-7.87,1.9" transform="translate(830.97 -54.52)"/><path class="cls-4" d="M1162.77,694.19c.43,1.34,2.78,9.48,2.78,9.48l-2.17-.9a7.91,7.91,0,0,1,.45,2.44,1.78,1.78,0,0,1-1.18,1.17" transform="translate(830.97 -54.52)"/><path class="cls-4" d="M1180.82,697.84c-.92,1.06-6.25,7.66-6.25,7.66h2.35a7.82,7.82,0,0,0-1.36,2.08,1.77,1.77,0,0,0,.63,1.54" transform="translate(830.97 -54.52)"/><path class="cls-4" d="M1172,703.63a10.68,10.68,0,0,0-1.65-.45,10.92,10.92,0,0,0-1.69-.23" transform="translate(830.97 -54.52)"/><path class="cls-4" d="M1160.74,713.51a6,6,0,0,0-5.33.8" transform="translate(830.97 -54.52)"/><path class="cls-4" d="M1175.18,716.43a5.92,5.92,0,0,1,4.6,2.81" transform="translate(830.97 -54.52)"/></g><g class="cls-3"><ellipse class="cls-4" cx="1285.01" cy="808.33" rx="0.48" ry="1.44" transform="translate(796.89 2.38) rotate(-2.5)"/><ellipse class="cls-4" cx="1294.63" cy="807.91" rx="0.48" ry="1.44" transform="matrix(1, -0.04, 0.04, 1, 796.92, 2.8)"/><path class="cls-4" d="M1283.08,797.33a11.11,11.11,0,0,1,12.51-.54" transform="translate(830.97 -54.52)"/><path class="cls-4" d="M1282,804.6a4.33,4.33,0,0,1-5.08-.56c-1.76-1.62-1-3.61.42-5.5,1.25-1.62,3.5-2.65,5.44-.9a4.25,4.25,0,0,1,1.35,2.53" transform="translate(830.97 -54.52)"/><line class="cls-4" x1="2120.23" y1="762.79" x2="2119.22" y2="761.87"/><line class="cls-4" x1="2122.15" y1="762.7" x2="2123.07" y2="761.7"/><path class="cls-4" d="M1290.28,818.7l.07,1.45a2.62,2.62,0,0,1-2.87.61" transform="translate(830.97 -54.52)"/><path class="cls-4" d="M1290.35,820.15a2.61,2.61,0,0,0,2.91.35" transform="translate(830.97 -54.52)"/><line class="cls-4" x1="2120.92" y1="767.58" x2="2121.88" y2="767.54"/><path class="cls-4" d="M1290.56,825c-6.44.28-9.69-1-9.69-1l.42-1.47-2.41.11.4-2-2.41.11-.19-4.33-1.42.54a15,15,0,0,1,1.23-4.87l-1.42.54c0-1.2,2.18-5.4,2.18-5.4l-1,0a8.38,8.38,0,0,1,1.82-2.49" transform="translate(830.97 -54.52)"/><path class="cls-4" d="M1290.56,825c6.43-.28,9.56-1.86,9.56-1.86l-.55-1.43,2.41-.1-.57-1.91,2.41-.1-.19-4.33,1.47.42a14.9,14.9,0,0,0-1.66-4.75l1.47.42c-.06-1.21-2.64-5.19-2.64-5.19l1,0a8.37,8.37,0,0,0-2-2.33" transform="translate(830.97 -54.52)"/><path class="cls-4" d="M1281.08,806.57c1.13-.26,1.84-2-.19-4.33l2.44.86a11.49,11.49,0,0,0-2.11-4.25,6.8,6.8,0,0,1,4,2.72" transform="translate(830.97 -54.52)"/><path class="cls-4" d="M1297.29,803.93a4.33,4.33,0,0,0,5-1c1.62-1.77.73-3.68-.89-5.44-1.39-1.51-3.72-2.33-5.5-.42a4.3,4.3,0,0,0-1.13,2.63" transform="translate(830.97 -54.52)"/><path class="cls-4" d="M1298.4,805.81c-1.15-.16-2-1.78-.19-4.33l-2.36,1.07a11.4,11.4,0,0,1,1.73-4.41,6.76,6.76,0,0,0-3.72,3.05" transform="translate(830.97 -54.52)"/></g><g class="cls-3"><path class="cls-4" d="M1345.67,912.78c-3.18.11-9-4.75-12.11-4.64l1.28-1.31a4.64,4.64,0,0,1-2.69-1.18l.83-1.29-1.38-1.64,2.21-.08s-1.86-2.42-1.9-3.74a24.1,24.1,0,0,1,2.64-.51" transform="translate(830.97 -54.52)"/><ellipse class="cls-4" cx="1340.5" cy="904.09" rx="0.44" ry="0.42" transform="translate(800.11 -6.98) rotate(-2.01)"/><ellipse class="cls-4" cx="1350.22" cy="903.75" rx="0.44" ry="0.42" transform="translate(800.13 -6.64) rotate(-2.01)"/><ellipse class="cls-4" cx="1345.62" cy="911.31" rx="1.77" ry="1.48" transform="translate(799.86 -6.8) rotate(-2.01)"/><path class="cls-4" d="M1345.15,898c0-.85-3.2-2.88-3.2-2.85a8.08,8.08,0,0,0,.21,1.49,34.17,34.17,0,0,1-2.89-2.24l.06,1.69a8.26,8.26,0,0,1-2.66-.33,2.82,2.82,0,0,0,.95,1.77" transform="translate(830.97 -54.52)"/><path class="cls-4" d="M1336,901.72a5.13,5.13,0,0,1,.34-3l1.78.36,0-1.27c-1.23-1-3.57-.72-3.57-.72s.08,2.3,1.45,3.33" transform="translate(830.97 -54.52)"/><path class="cls-4" d="M1345.67,912.78c3.18-.11,8.63-5.37,11.75-5.48l-1.37-1.22a4.6,4.6,0,0,0,2.61-1.36l-.93-1.23,1.27-1.73-2.21.07s1.68-2.54,1.63-3.86a24.12,24.12,0,0,0-2.66-.32" transform="translate(830.97 -54.52)"/><path class="cls-4" d="M1345.15,898c0-.85,3-3.1,3-3.06a8.45,8.45,0,0,1-.09,1.5,34.69,34.69,0,0,0,2.71-2.44l.06,1.69a8.07,8.07,0,0,0,2.64-.52,2.82,2.82,0,0,1-.83,1.83" transform="translate(830.97 -54.52)"/><path class="cls-4" d="M1354.55,901.07a5.17,5.17,0,0,0-.54-2.94l-1.76.48,0-1.26c1.15-1.1,3.5-1,3.5-1s.08,2.29-1.2,3.42" transform="translate(830.97 -54.52)"/><polyline class="cls-4" points="2188.05 843.08 2188.39 840.11 2187.08 840.58 2187.43 838.03 2186.12 838.5 2186.06 836.82 2184.31 837.3 2183.81 835.63 2182.51 836.52 2182 834.42 2180.28 835.75 2179.76 833.66 2178.05 835.41 2177.09 833.33 2175.83 835.06 2174.44 833.42 2173.63 835.56 2171.8 833.94 2171.44 836.06 2169.62 834.86 2169.26 836.98 2167.9 836.19 2167.52 837.89 2165.74 837.53 2165.79 839.22 2164.45 838.84 2164.98 841.36 2163.64 840.98 2164.19 843.92"/></g><g class="cls-3"><path class="cls-5" d="M1421.49,830.77c-5.52.37-10.51-3.82-12.19-8.79l-1.25-3.73" transform="translate(830.97 -54.52)"/><path class="cls-5" d="M1430.6,827.7c4.62-3.06,6-9.42,4.37-14.38l-1.26-3.73" transform="translate(830.97 -54.52)"/><path class="cls-5" d="M1411.38,811.74a33.07,33.07,0,0,1,7.54-3.61" transform="translate(830.97 -54.52)"/><path class="cls-5" d="M1412,812.3c-.72-.53-2.8-1.36-4.28-.4-1.1.71-1,2.42.3,6.35" transform="translate(830.97 -54.52)"/><path class="cls-5" d="M1410.79,814.1c-1.11,3.3-3,3.46-1.77,7" transform="translate(830.97 -54.52)"/><path class="cls-5" d="M1427.11,806.43a33.09,33.09,0,0,0-8.19,1.7" transform="translate(830.97 -54.52)"/><path class="cls-5" d="M1426.93,807.27c.25-.85,1.41-2.78,3.17-2.91,1.3-.1,2.28,1.3,3.61,5.23" transform="translate(830.97 -54.52)"/><path class="cls-5" d="M1429,808c2.88,1.95,4.47.95,5.68,4.54" transform="translate(830.97 -54.52)"/><path class="cls-5" d="M1426.47,830.48c-2,.68-6.47,1.49-8.07-3.27a1.85,1.85,0,0,0-.79-1.12" transform="translate(830.97 -54.52)"/><path class="cls-5" d="M1424,823c.86-.29,1.31-.83,2.07-.7a1.29,1.29,0,0,1,1.11,1.93c-.58.87-1,2.19-1.92,2.49s-2-.48-3-.81a1.3,1.3,0,0,1-.29-2.21C1422.41,823.17,1423.09,823.32,1424,823Z" transform="translate(830.97 -54.52)"/><path class="cls-5" d="M1425.21,826.75l.35,1a5.15,5.15,0,0,1-6.8.31" transform="translate(830.97 -54.52)"/><path class="cls-5" d="M1426.47,830.48c2-.68,6-2.73,4.43-7.49a1.85,1.85,0,0,1-.05-1.37" transform="translate(830.97 -54.52)"/><path class="cls-5" d="M1425.21,826.75l.35,1a5.14,5.14,0,0,0,5.59-3.88" transform="translate(830.97 -54.52)"/><circle class="cls-5" cx="2248.56" cy="767.43" r="0.44"/><circle class="cls-5" cx="2259.32" cy="763.8" r="0.44"/></g><g class="cls-3"><path class="cls-4" d="M1556.3,874.88c-.25.54-1.43.52-1.43.52s-.78-.89-.52-1.44a1.08,1.08,0,1,1,2,.92Z" transform="translate(830.97 -54.52)"/><path class="cls-4" d="M1554.56,876.05c-2,.13-2.87-1.49-2-3.33a2.8,2.8,0,0,0,.09-2.74" transform="translate(830.97 -54.52)"/><path class="cls-4" d="M1554.56,876.05c1.17,1.59,3,1.25,3.85-.58a2.82,2.82,0,0,1,2-1.83" transform="translate(830.97 -54.52)"/><line class="cls-4" x1="2385.53" y1="821.54" x2="2385.84" y2="820.88"/><path class="cls-4" d="M1555.72,877a1.32,1.32,0,0,1-1.77.37,1.29,1.29,0,0,1-.84-1.59" transform="translate(830.97 -54.52)"/><circle class="cls-4" cx="2385.82" cy="814.12" r="0.36"/><circle class="cls-4" cx="2391.04" cy="816.56" r="0.36"/><path class="cls-4" d="M1559.5,862.07c-1.49-3.18-1.36-7.4-2.63-8-.81-.38-3.95,10.08-4.39,10.27a14.59,14.59,0,0,0-5,4,5,5,0,0,1,1.63.76l-.78.83s3.1,2.72,4.06,4.86" transform="translate(830.97 -54.52)"/><path class="cls-4" d="M1562.11,863.29c3.4-.9,6.55-3.7,7.81-3.11.82.38-5.18,9.49-5,10a14.73,14.73,0,0,1,.17,6.44,4.94,4.94,0,0,0-1.63-.77l-.13,1.14s-4.08-.63-6.33,0" transform="translate(830.97 -54.52)"/><path class="cls-4" d="M1556.72,854.41c.08,1.1.37,7.72.37,7.72l-1.48-1.09a6,6,0,0,1-.11,1.94,1.37,1.37,0,0,1-1.11.67" transform="translate(830.97 -54.52)"/><path class="cls-4" d="M1569.77,860.5c-.89.64-6.16,4.68-6.16,4.68l1.79.43a6.1,6.1,0,0,0-1.42,1.33,1.38,1.38,0,0,0,.2,1.28" transform="translate(830.97 -54.52)"/><path class="cls-4" d="M1562,863.28a8.43,8.43,0,0,0-1.17-.64,8.26,8.26,0,0,0-1.25-.49" transform="translate(830.97 -54.52)"/><path class="cls-4" d="M1551.63,868.72a4.68,4.68,0,0,0-4.2-.37" transform="translate(830.97 -54.52)"/><path class="cls-4" d="M1562.07,873.6a4.67,4.67,0,0,1,3,3" transform="translate(830.97 -54.52)"/></g><g class="cls-3"><path class="cls-4" d="M1609.3,797.64a.43.43,0,0,1-.73-.15l-.22-.51c-.13-.32,0-.52.37-.45l.83.18c.34.07.41.33.15.56Z" transform="translate(830.97 -54.52)"/><path class="cls-4" d="M1615.39,794.72a5.85,5.85,0,0,1,.13-1.56l.76-3.55a.42.42,0,0,0-.64-.45l-2,1.31a.42.42,0,0,1-.42,0,14.41,14.41,0,0,0-5.21-1.12.43.43,0,0,1-.38-.2l-1.31-2a.42.42,0,0,0-.77.14l-.77,3.56a5.82,5.82,0,0,1-.55,1.51,5.93,5.93,0,1,0,11.07,4A5.82,5.82,0,0,0,1615.39,794.72Z" transform="translate(830.97 -54.52)"/><path class="cls-4" d="M1605.34,791.14a3.62,3.62,0,0,1,.92-.71.73.73,0,0,0,.33-.91l-.86-2.19" transform="translate(830.97 -54.52)"/><path class="cls-4" d="M1614.86,793.2a3.57,3.57,0,0,0-.55-1,.73.73,0,0,1,.08-1l1.69-1.64" transform="translate(830.97 -54.52)"/><path class="cls-4" d="M1606.79,797.84a1.08,1.08,0,0,0,.82.84,1.07,1.07,0,0,0,1.26-.82" transform="translate(830.97 -54.52)"/><path class="cls-4" d="M1610.77,798.7a1.07,1.07,0,0,1-1.09.42,1.06,1.06,0,0,1-.81-1.26" transform="translate(830.97 -54.52)"/><path class="cls-4" d="M1608.1,799.43a.89.89,0,0,0,.39.19.78.78,0,0,0,.43,0" transform="translate(830.97 -54.52)"/><circle class="cls-4" cx="2438.16" cy="740.06" r="0.85"/><line class="cls-4" x1="2438.21" y1="739.85" x2="2438.12" y2="740.27"/><circle class="cls-4" cx="2442.72" cy="741.04" r="0.85"/><line class="cls-4" x1="2442.76" y1="740.84" x2="2442.67" y2="741.25"/></g><g class="cls-3"><ellipse class="cls-5" cx="1682.05" cy="849.51" rx="0.71" ry="0.53" transform="translate(745.33 142.14) rotate(-6.53)"/><path class="cls-5" d="M1679.55,841.37a2,2,0,0,0-2-1c-1.24.14-1.89.76-1.75,2a3.25,3.25,0,0,0,1.92,2.65" transform="translate(830.97 -54.52)"/><path class="cls-5" d="M1678.52,843.71c-.67,1.27-1.67,2.65-1.46,4.48.23,2,1.65,2.64,3.53,2.66" transform="translate(830.97 -54.52)"/><path class="cls-5" d="M1678.66,840.52c.65.51.5,1.7.18,2.5" transform="translate(830.97 -54.52)"/><path class="cls-5" d="M1681.18,841.9c-.51.06-1.19.21-1.63-.53" transform="translate(830.97 -54.52)"/><path class="cls-5" d="M1679.26,843.92a2.6,2.6,0,0,0-.87-1.34" transform="translate(830.97 -54.52)"/><path class="cls-5" d="M1678.75,844.12a.92.92,0,0,0-.63-.79" transform="translate(830.97 -54.52)"/><path class="cls-5" d="M1682.65,841a2,2,0,0,1,1.67-1.45c1.24-.14,2,.31,2.15,1.55a3.24,3.24,0,0,1-1.27,3" transform="translate(830.97 -54.52)"/><path class="cls-5" d="M1684.18,843.06c.94,1.09,2.23,2.21,2.43,4,.24,2-1,2.95-2.83,3.39" transform="translate(830.97 -54.52)"/><path class="cls-5" d="M1683.32,840c-.52.64-.1,1.77.39,2.47" transform="translate(830.97 -54.52)"/><path class="cls-5" d="M1681.18,841.9c.51,0,1.2-.07,1.47-.88" transform="translate(830.97 -54.52)"/><path class="cls-5" d="M1683.51,843.43a2.61,2.61,0,0,1,.54-1.5" transform="translate(830.97 -54.52)"/><path class="cls-5" d="M1684.05,843.51a.91.91,0,0,1,.44-.91" transform="translate(830.97 -54.52)"/><path class="cls-5" d="M1682.11,850c0,.19,0,0,0,.18.06.52-.73,1.34-1.94.22" transform="translate(830.97 -54.52)"/><path class="cls-5" d="M1682.11,850c0,.19,0,0,0,.18.06.52,1,1.14,1.95-.22" transform="translate(830.97 -54.52)"/><path class="cls-5" d="M1679.72,846.37c0,.3,0,.54-.12.55s-.2-.21-.23-.51,0-.54.11-.55S1679.69,846.08,1679.72,846.37Z" transform="translate(830.97 -54.52)"/><ellipse class="cls-5" cx="1683.79" cy="845.91" rx="0.18" ry="0.53" transform="translate(745.75 142.31) rotate(-6.53)"/></g></g></svg>