<svg xmlns="http://www.w3.org/2000/svg" xmlns:xlink="http://www.w3.org/1999/xlink" viewBox="0 0 1968 2267"><defs><style>.cls-1{fill:#bcdeff;}.cls-2{fill:#008fff;}</style></defs><g id="Capa_3" data-name="Capa 3"><path class="cls-1" d="M1920,0H1170a361.31,361.31,0,0,0-129,51c-23.59,15.15-101.55,69.17-131,149-59.92,162.44,110.19,257,65.9,401.5C930.91,748.31,724.19,723.28,516,974a920.53,920.53,0,0,0-76,106H1920Z" transform="translate(48 0)"/><path class="cls-1" d="M545,1154" transform="translate(48 0)"/></g><g id="Capa_1" data-name="Capa 1"><path class="cls-2" d="M1920,0H1122.58A373.24,373.24,0,0,0,992.5,82.5c-16.85,16.47-71,69.4-88,135-41.28,159.06,168.08,267.31,119,384-31.06,73.84-159.08,133.18-175,141-28.47,14-34,13.15-68,31-37.37,19.64-96.17,51.21-152,113a451.29,451.29,0,0,0-58,80A437.32,437.32,0,0,0,526,1080H1920Z" transform="translate(48 0)"/></g><g id="Capa_2" data-name="Capa 2"><image width="1366" height="768" transform="translate(0 1187) scale(1.41 1.41)" xlink:href="Menu_Background.png"/></g></svg>